<svg width="84" height="84" viewBox="0 0 84 84" fill="none" xmlns="http://www.w3.org/2000/svg">
<path fill-rule="evenodd" clip-rule="evenodd" d="M0.00253205 42.0161C-0.248266 19.0791 18.1637 0.257055 41.1007 0.00260627C64.0376 -0.251843 82.8567 18.1572 83.1075 41.0942C83.3583 64.0312 64.9463 82.8532 42.0093 83.1077C19.0724 83.3622 0.25333 64.9531 0.00253205 42.0161ZM8.31303 41.9239C8.51339 60.2486 23.5938 75.0005 41.9185 74.7972C60.2431 74.5939 74.9973 59.5111 74.797 41.1864C74.5966 22.8617 59.5162 8.10983 41.1915 8.31312C22.8669 8.5164 8.11266 23.5992 8.31303 41.9239ZM45.6092 37.6852H60.3604V45.8947H45.6092V60.2614H37.5009V45.8947H22.8595V37.6852H37.5009V22.7614H45.6092V37.6852Z" fill="url(#paint0_linear)"/>
<defs>
<linearGradient id="paint0_linear" x1="-0.0773889" y1="7.17685" x2="84.1613" y2="82.987" gradientUnits="userSpaceOnUse">
<stop offset="0.146744" stop-color="#A8ABB1"/>
<stop offset="1" stop-color="#38579D" stop-opacity="0.6"/>
</linearGradient>
</defs>
</svg>
