<svg width="84" height="84" viewBox="0 0 84 84" fill="none" xmlns="http://www.w3.org/2000/svg">
<path fill-rule="evenodd" clip-rule="evenodd" d="M0.00253204 42.016C-0.248265 19.079 18.1636 0.257054 41.1005 0.00260626C64.0374 -0.251842 82.8564 18.1571 83.1072 41.094C83.358 64.031 64.9461 82.8529 42.0092 83.1074C19.0723 83.3618 0.253329 64.9529 0.00253204 42.016ZM8.313 41.9238C8.51336 60.2484 23.5937 75.0002 41.9183 74.7969C60.2429 74.5936 74.9971 59.5108 74.7967 41.1862C74.5963 22.8616 59.5159 8.1098 41.1914 8.31308C22.8668 8.51637 8.11263 23.5992 8.313 41.9238ZM44.9946 37.1007H59.7973V44.9955H44.9946V59.7981H37.0999V44.9955H22.2973V37.1007H37.0999V22.2981H44.9946V37.1007Z" fill="#FAEDED"/>
</svg>
