<svg width="189" height="189" viewBox="0 0 189 189" fill="none" xmlns="http://www.w3.org/2000/svg">
<path d="M94.31 188.62C146.396 188.62 188.62 146.396 188.62 94.31C188.62 42.224 146.396 0 94.31 0C42.224 0 0 42.224 0 94.31C0 146.396 42.224 188.62 94.31 188.62Z" fill="url(#paint0_linear)"/>
<g clip-path="url(#clip0)">
<path d="M108.523 77.8203L108.523 77.8204L108.535 77.8254C115.901 80.7385 121.901 87.0624 126.066 94.5455C130.229 102.027 132.526 110.613 132.526 117.974C132.526 124.152 131.036 128.485 128.069 131.392C125.414 133.988 121.719 135.264 117.226 135.855C112.77 136.441 107.602 136.344 101.995 136.239L101.846 136.237C101.845 136.237 101.845 136.237 101.845 136.237C99.4627 136.184 97.0216 136.131 94.5 136.131C91.2603 136.131 88.1281 136.237 85.1106 136.342C84.4949 136.36 83.8858 136.38 83.2833 136.399C81.2352 136.464 79.2632 136.527 77.3683 136.527C70.2412 136.527 64.4507 135.723 60.7695 132.181C57.9389 129.435 56.5 125.237 56.5 119.188C56.5 111.483 58.9164 102.533 63.1412 94.8028C67.3687 87.067 73.3698 80.6179 80.49 77.8259L80.4969 77.8232L80.5038 77.8203C80.612 77.774 80.727 77.7549 80.8635 77.7549H108.163C108.299 77.7549 108.414 77.774 108.523 77.8203ZM81.1547 79.6841H81.0557L80.9641 79.7219C75.4588 81.9922 69.8457 87.3493 65.6108 94.3572C61.3704 101.374 58.479 110.098 58.4656 119.16V119.161C58.4656 124.497 59.6412 128.33 62.1404 130.737C64.3947 132.913 67.7181 133.879 71.6283 134.275C75.5023 134.667 80.0497 134.508 84.8777 134.339L85.038 134.333C85.038 134.333 85.0381 134.333 85.0381 134.333C88.0837 134.228 91.2265 134.122 94.5 134.122C97.0357 134.122 99.493 134.175 101.876 134.228L101.878 134.228L101.918 134.229C107.201 134.334 112.176 134.433 116.41 133.934C120.649 133.435 124.241 132.329 126.677 129.942L126.678 129.941C129.303 127.353 130.534 123.394 130.534 117.921C130.534 109.892 128.023 101.631 123.971 94.7416C119.923 87.8572 114.309 82.2954 108.062 79.7218L107.971 79.6841H107.872H81.1547Z" fill="white" stroke="white"/>
<path d="M106.764 73.6936L106.761 73.6966C106.566 73.9085 106.33 74.0101 106.043 74.0101H82.6628C82.3883 74.0101 82.1168 73.8906 81.9094 73.6867C79.8125 71.4406 78.1093 67.9996 76.9301 64.2879C75.7517 60.5787 75.1133 56.6518 75.1133 53.4778C75.1133 52.9432 75.544 52.5 76.1226 52.5H112.584C113.13 52.5 113.567 52.9375 113.567 53.4778C113.567 56.6518 112.928 60.5787 111.75 64.2879C110.569 68.0035 108.864 71.4477 106.764 73.6936ZM111.547 55.0134L111.58 54.482H111.048H77.6583H77.1283L77.1592 55.0112C77.3208 57.7758 77.9388 60.9916 78.9241 64.0042C79.9075 67.0113 81.2696 69.8551 82.9416 71.8493L83.0915 72.0281H83.3248H105.382H105.615L105.765 71.8493C107.437 69.8549 108.792 67.0174 109.772 64.0138C110.754 61.0044 111.372 57.7896 111.547 55.0134Z" fill="white" stroke="white"/>
<path d="M83.5368 119.135C85.814 120.533 89.0973 121.087 90.9773 121.325V124.307C90.9773 125.125 91.6393 125.785 92.4601 125.785H97.0409C97.4381 125.785 97.8088 125.626 98.1001 125.336C98.3914 125.046 98.5502 124.676 98.5238 124.28L98.4973 120.824C102.072 119.953 105.647 116.918 106.097 112.221C106.653 106.362 102.734 103.961 101.94 103.538C101.463 103.301 100.748 103.011 99.8477 102.641C98.259 102.008 96.1142 101.163 94.552 100.161C93.9429 99.7912 93.7311 99.2106 93.837 98.8412C93.9429 98.3926 94.5784 98.287 94.9491 98.2606C97.6235 98.0759 101.781 99.4218 101.834 99.4481C102.231 99.5801 102.681 99.5273 103.052 99.3426C103.422 99.1315 103.687 98.7884 103.767 98.3662L104.879 93.4842C105.011 92.8772 104.746 92.2439 104.217 91.9008C102.787 91.0036 100.139 90.5286 98.4708 90.3174V87.6521C98.4708 86.8341 97.8088 86.1743 96.988 86.1743H92.4072C91.5863 86.1743 90.9244 86.8341 90.9244 87.6521V91.0563C85.6022 92.5605 83.0073 96.1759 83.6163 101.295C84.2782 106.943 91.7717 109.344 93.2545 109.766C96.3525 110.637 96.2466 111.165 96.0877 111.878C95.9024 112.643 93.3075 113.144 90.792 112.643C88.6472 112.194 86.7672 111.191 86.7407 111.191C86.3436 110.98 85.8934 110.954 85.4698 111.112C85.0461 111.271 84.7548 111.614 84.596 112.036L82.8749 117.366C82.6895 118.079 82.9543 118.792 83.5368 119.135ZM86.9526 114.596C87.8264 114.939 88.965 115.361 90.2095 115.598C93.3339 116.232 98.2325 115.968 99.0004 112.59C99.9006 108.632 96.1142 107.55 94.0753 106.969C91.6393 106.283 86.9261 104.145 86.5819 101.005C86.1053 97.0203 88.0647 94.7245 92.7249 93.7481C93.4134 93.6161 93.9165 92.9828 93.9165 92.2966V89.2355H95.5052V91.7425C95.5052 92.5078 96.1142 93.1675 96.8821 93.2203C98.2854 93.3258 100.377 93.6425 101.728 94.0911L101.251 96.255C99.5829 95.8064 96.935 95.2259 94.8167 95.3842C92.8838 95.5161 91.4539 96.5981 91.0303 98.2078C90.6066 99.8968 91.401 101.718 93.0427 102.747C94.8432 103.882 97.1469 104.805 98.8415 105.491C99.5829 105.782 100.298 106.072 100.616 106.23C101.119 106.494 103.581 107.998 103.21 111.983C102.866 115.651 99.7418 117.894 96.9615 118.105C96.1936 118.158 95.5846 118.818 95.5846 119.583L95.6111 122.803H94.0224V119.953C94.0224 119.161 93.4134 118.501 92.619 118.475C91.4804 118.422 88.4089 118.053 86.2112 117.129L86.9526 114.596Z" fill="white"/>
</g>
<defs>
<linearGradient id="paint0_linear" x1="94.31" y1="0" x2="94.31" y2="188.62" gradientUnits="userSpaceOnUse">
<stop stop-color="#F05359"/>
<stop offset="1" stop-color="#F47F83"/>
</linearGradient>
<clipPath id="clip0">
<rect width="77" height="85" fill="white" transform="translate(56 52)"/>
</clipPath>
</defs>
</svg>
