<svg width="24" height="21" viewBox="0 0 24 21" fill="none" xmlns="http://www.w3.org/2000/svg">
<path d="M22.5 11.9989H4.71L10.155 18.5383C10.2811 18.69 10.376 18.865 10.4345 19.0534C10.4929 19.2417 10.5136 19.4398 10.4955 19.6361C10.459 20.0327 10.2663 20.3986 9.96 20.6532C9.65368 20.9077 9.25875 21.0302 8.86211 20.9937C8.46548 20.9571 8.09961 20.7645 7.845 20.4582L0.344999 11.459C0.29454 11.3874 0.249418 11.3122 0.209999 11.234C0.209999 11.159 0.135 11.114 0.105 11.039C0.0370102 10.867 0.00141144 10.684 0 10.4991C0.00141144 10.3141 0.0370102 10.1311 0.105 9.95911C0.105 9.88412 0.179998 9.83912 0.209999 9.76413C0.249418 9.68593 0.29454 9.61073 0.344999 9.53915L7.845 0.539955C7.98603 0.370646 8.16264 0.234488 8.36227 0.141165C8.5619 0.0478413 8.77963 -0.000354976 9 2.86528e-06C9.35048 -0.000681843 9.69013 0.12137 9.96 0.344972C10.1119 0.470884 10.2374 0.625521 10.3295 0.800026C10.4215 0.974531 10.4782 1.16548 10.4963 1.36192C10.5144 1.55837 10.4936 1.75646 10.435 1.94485C10.3765 2.13324 10.2813 2.30822 10.155 2.45978L4.71 8.9992H22.5C22.8978 8.9992 23.2794 9.15722 23.5607 9.4385C23.842 9.71978 24 10.1013 24 10.4991C24 10.8969 23.842 11.2783 23.5607 11.5596C23.2794 11.8409 22.8978 11.9989 22.5 11.9989Z" fill="white"/>
</svg>
