<svg width="24" height="21" viewBox="0 0 24 21" fill="none" xmlns="http://www.w3.org/2000/svg">
<path d="M1.5 11.9989H19.29L13.845 18.5383C13.7189 18.69 13.624 18.865 13.5655 19.0534C13.5071 19.2417 13.4864 19.4398 13.5045 19.6361C13.541 20.0327 13.7337 20.3986 14.04 20.6532C14.3463 20.9077 14.7412 21.0302 15.1379 20.9937C15.5345 20.9571 15.9004 20.7645 16.155 20.4582L23.655 11.459C23.7055 11.3874 23.7506 11.3122 23.79 11.234C23.79 11.159 23.865 11.114 23.895 11.039C23.963 10.867 23.9986 10.684 24 10.4991C23.9986 10.3141 23.963 10.1311 23.895 9.95911C23.895 9.88412 23.82 9.83912 23.79 9.76413C23.7506 9.68593 23.7055 9.61073 23.655 9.53915L16.155 0.539955C16.014 0.370646 15.8374 0.234488 15.6377 0.141165C15.4381 0.0478413 15.2204 -0.000354976 15 2.86528e-06C14.6495 -0.000681843 14.3099 0.12137 14.04 0.344972C13.8881 0.470884 13.7626 0.625521 13.6705 0.800026C13.5785 0.974531 13.5218 1.16548 13.5037 1.36192C13.4856 1.55837 13.5064 1.75646 13.565 1.94485C13.6235 2.13324 13.7187 2.30822 13.845 2.45978L19.29 8.9992H1.5C1.10218 8.9992 0.720645 9.15722 0.43934 9.4385C0.158036 9.71978 0 10.1013 0 10.4991C0 10.8969 0.158036 11.2783 0.43934 11.5596C0.720645 11.8409 1.10218 11.9989 1.5 11.9989Z" fill="white"/>
</svg>
