<svg width="17" height="20" viewBox="0 0 17 20" fill="none" xmlns="http://www.w3.org/2000/svg">
<path d="M15.3732 0.00194641C14.9418 0.00194641 14.528 0.177524 14.2229 0.490055C13.9178 0.802585 13.7464 1.22647 13.7464 1.66845V8.0345L13.5187 7.78452L5.22201 0.768538C4.72253 0.358568 4.12068 0.10058 3.48503 0.0239725C2.84939 -0.0526348 2.20552 0.0552199 1.6268 0.335247C1.13905 0.57446 0.727395 0.950285 0.439496 1.41922C0.151596 1.88815 -0.000779984 2.43102 3.0024e-06 2.98499V17.017C-0.000779984 17.5709 0.151596 18.1138 0.439496 18.5827C0.727395 19.0517 1.13905 19.4275 1.6268 19.6667C2.09184 19.8833 2.59631 19.9969 3.10718 20C3.87716 20.0009 4.62397 19.7302 5.22201 19.2334L13.5187 12.2174L13.7464 11.9674V18.3335C13.7464 18.7755 13.9178 19.1994 14.2229 19.5119C14.528 19.8244 14.9418 20 15.3732 20C15.8047 20 16.2184 19.8244 16.5235 19.5119C16.8286 19.1994 17 18.7755 17 18.3335V1.66845C17 1.22647 16.8286 0.802585 16.5235 0.490055C16.2184 0.177524 15.8047 0.00194641 15.3732 0.00194641ZM3.17225 16.517V3.33495L11.0134 10.001L3.17225 16.517Z" fill="white"/>
</svg>
