<svg width="375" height="257" viewBox="0 0 375 257" fill="none" xmlns="http://www.w3.org/2000/svg">
<rect width="375" height="257" fill="white"/>
<path d="M18.6367 91.0137H25.6875V96.1114H18.6367V104.08H13.2656V96.1114H6.19531V91.0137H13.2656V83.377H18.6367V91.0137Z" fill="#FAEDED"/>
<path d="M96.6919 204.115L101.943 208.82L98.5415 212.616L93.2902 207.911L87.9726 213.846L83.9723 210.262L89.2899 204.327L84.0241 199.609L87.4259 195.812L92.6917 200.53L97.7878 194.843L101.788 198.427L96.6919 204.115Z" fill="#FAEDED"/>
<path d="M269.097 34.9449L275.233 43.5592L269.005 47.9954L262.869 39.3811L253.133 46.3159L248.459 39.7537L258.195 32.819L252.042 24.1808L258.27 19.7446L264.423 28.3828L273.753 21.737L278.427 28.2991L269.097 34.9449Z" fill="#F9BABD"/>
<path d="M325.885 145.796C325.227 145.184 324.95 144.534 325.055 143.846C325.17 143.152 325.62 142.571 326.403 142.105C327.197 141.631 328.056 141.432 328.981 141.507C329.917 141.575 330.714 141.915 331.372 142.527C332.02 143.129 332.292 143.775 332.187 144.463C332.073 145.142 331.614 145.721 330.808 146.201C330.014 146.674 329.16 146.878 328.244 146.812C327.32 146.737 326.533 146.399 325.885 145.796ZM314.17 134.903C313.512 134.292 313.236 133.642 313.34 132.954C313.456 132.26 313.905 131.679 314.688 131.212C315.482 130.739 316.342 130.54 317.266 130.615C318.202 130.683 318.999 131.022 319.657 131.634C320.305 132.237 320.577 132.883 320.473 133.57C320.359 134.249 319.899 134.829 319.094 135.309C318.299 135.782 317.445 135.986 316.53 135.92C315.605 135.845 314.819 135.506 314.17 134.903Z" fill="#FAEDED"/>
<path d="M41.8573 157.352C41.1993 156.74 40.9226 156.09 41.0271 155.402C41.1427 154.708 41.5921 154.127 42.3751 153.661C43.1693 153.187 44.0286 152.988 44.9532 153.063C45.889 153.131 46.6858 153.471 47.3438 154.082C47.9922 154.685 48.2642 155.331 48.1597 156.019C48.0457 156.698 47.586 157.277 46.7806 157.757C45.9864 158.23 45.1318 158.434 44.2168 158.368C43.2922 158.293 42.5057 157.955 41.8573 157.352ZM30.1426 146.459C29.4846 145.848 29.2079 145.198 29.3124 144.51C29.4281 143.815 29.8774 143.235 30.6604 142.768C31.4546 142.295 32.314 142.096 33.2386 142.171C34.1743 142.239 34.9712 142.578 35.6292 143.19C36.2776 143.793 36.5495 144.438 36.445 145.126C36.331 145.805 35.8713 146.385 35.0659 146.865C34.2718 147.338 33.4172 147.542 32.5021 147.476C31.5775 147.401 30.791 147.062 30.1426 146.459Z" fill="#F9BABD"/>
<g opacity="0.7">
<path d="M105.966 39.9517C106.729 39.6339 106.792 38.9991 106.029 38.6185L99.5476 34.8759L94.085 37.4175L95.8008 38.4325C95.9915 38.5594 95.9916 38.8133 95.801 38.9403L92.371 40.4654C92.3075 40.5289 92.1804 40.4655 92.1169 40.4655L90.1469 39.3237L85.8276 41.2934L93.1355 45.4801C93.1991 45.5436 93.3262 45.5435 93.3897 45.48L105.966 39.9517Z" fill="#F0DEDF"/>
<path d="M101.009 34.1742C101.136 34.1106 101.136 33.9202 101.008 33.7933L97.6404 31.8268C97.5768 31.7633 97.5133 31.7634 97.4498 31.8269L95.7348 32.6529L99.5476 34.8731L101.009 34.1742Z" fill="#E2CFCF"/>
<path d="M99.5489 34.876L95.736 32.6558L90.2734 35.1974L94.0863 37.4176L99.5489 34.876Z" fill="#E2CFCF"/>
<path d="M95.7356 32.6506L87.8558 28.1467C87.3474 27.8296 86.458 27.8299 85.8863 28.0206L81.821 29.7999C81.6305 29.8634 81.5671 30.1809 81.8213 30.3077L90.273 35.1922L95.7356 32.6506Z" fill="#F0DEDF"/>
<path d="M94.0853 37.4141L90.2724 35.1939L86.3343 37.1L90.0836 39.2568L94.0853 37.4141Z" fill="#E2CFCF"/>
<path d="M90.0834 39.2565L86.3342 37.0997L82.0149 39.0695L85.8277 41.2897L90.0834 39.2565Z" fill="#F0DEDF"/>
<path d="M88.6902 47.571C88.8808 47.5075 88.9442 47.19 88.69 47.0632L81.8269 43.1303L78.4604 44.7187L84.7516 48.3345C85.26 48.6517 86.1494 48.7148 86.7211 48.4606L88.6902 47.571Z" fill="#F0DEDF"/>
<path d="M86.3349 37.1034L77.3748 31.9018C77.3112 31.8383 77.1841 31.8384 77.1206 31.9019L66.64 36.4771C65.8777 36.7948 65.8145 37.4296 66.577 37.8737L74.7111 42.5678L78.0775 40.9793L74.7731 39.0763C74.5824 38.9494 74.5823 38.6955 74.7729 38.5685L78.2029 37.0434C78.2664 36.9799 78.3935 37.0433 78.457 37.0433L82.0156 39.0732L86.3349 37.1034Z" fill="#F0DEDF"/>
<path d="M85.8273 41.293L82.0145 39.0727L78.0763 40.9154L81.8256 43.1357L85.8273 41.293Z" fill="#E2CFCF"/>
<path d="M81.8254 43.1342L78.0761 40.914L74.7096 42.5025L78.5224 44.6592L81.8254 43.1342Z" fill="#E2CFCF"/>
<path d="M76.6177 45.5485L78.4597 44.659L74.7105 42.5022L73.2496 43.2011C73.1225 43.2646 73.1226 43.4551 73.2497 43.582L76.4271 45.5486C76.4907 45.5486 76.5542 45.5485 76.6177 45.5485Z" fill="#E2CFCF"/>
</g>
<path d="M363.689 112.081C365.101 112.264 365.743 111.371 364.934 110.146L358.496 98.9753L348.151 98.0613L349.835 101.055C350.01 101.408 349.791 101.787 349.397 101.813L342.962 101.133C342.813 101.173 342.678 100.969 342.583 100.914L340.63 97.5126L332.485 96.7305L339.773 109.276C339.813 109.425 340.002 109.535 340.152 109.495L363.689 112.081Z" fill="#F0DEDF"/>
<path d="M361.275 99.188C361.52 99.2026 361.684 98.9183 361.604 98.6194L358.277 92.7825C358.237 92.633 358.143 92.5783 357.993 92.6184L354.721 92.3733L358.492 98.9722L361.275 99.188Z" fill="#E2CFCF"/>
<path d="M358.491 98.9808L354.72 92.3818L344.376 91.4679L348.147 98.0668L358.491 98.9808Z" fill="#E2CFCF"/>
<path d="M354.721 92.3764L346.854 78.8649C346.369 77.9535 345.042 77.1876 344.024 76.9796L336.423 76.132C336.084 76.0626 335.715 76.4817 335.985 76.8901L344.376 91.4625L354.721 92.3764Z" fill="#F0DEDF"/>
<path d="M348.149 98.0598L344.378 91.4609L336.856 90.9122L340.588 97.3617L348.149 98.0598Z" fill="#E2CFCF"/>
<path d="M340.589 97.3583L336.858 90.9088L328.713 90.1267L332.484 96.7256L340.589 97.3583Z" fill="#F0DEDF"/>
<path d="M331.326 108.568C331.666 108.637 332.034 108.218 331.765 107.81L324.922 96.0262L318.528 95.496L324.791 106.313C325.276 107.225 326.548 108.085 327.621 108.199L331.326 108.568Z" fill="#F0DEDF"/>
<path d="M336.851 90.9148L327.975 75.431C327.935 75.2815 327.745 75.1721 327.596 75.2122L308.009 73.0091C306.597 72.8265 305.955 73.7195 306.709 75.0392L314.791 89.0538L321.185 89.584L317.898 83.8965C317.723 83.5428 317.942 83.1638 318.336 83.1384L324.771 83.818C324.92 83.778 325.055 83.9821 325.15 84.0368L328.706 90.1327L336.851 90.9148Z" fill="#F0DEDF"/>
<path d="M332.482 96.7244L328.711 90.1255L321.244 89.482L324.921 96.0263L332.482 96.7244Z" fill="#E2CFCF"/>
<path d="M324.922 96.0279L321.245 89.4837L314.851 88.9535L318.677 95.4577L324.922 96.0279Z" fill="#E2CFCF"/>
<path d="M315.062 95.143L318.579 95.4026L314.847 88.9532L312.064 88.7375C311.82 88.7228 311.656 89.0071 311.736 89.306L314.778 94.9788C314.873 95.0336 314.968 95.0882 315.062 95.143Z" fill="#E2CFCF"/>
<path d="M84.973 243.549C86.3846 243.731 87.0272 242.838 86.2181 241.613L79.7796 230.443L69.4352 229.529L71.1186 232.522C71.2934 232.875 71.0743 233.255 70.6804 233.28L64.2462 232.6C64.0966 232.64 63.9617 232.436 63.8669 232.382L61.9139 228.98L53.769 228.198L61.0565 240.743C61.0966 240.893 61.2862 241.002 61.4358 240.962L84.973 243.549Z" fill="#F0DEDF"/>
<path d="M82.5588 230.655C82.8032 230.67 82.9675 230.386 82.8875 230.087L79.5608 224.25C79.5207 224.1 79.4259 224.046 79.2764 224.086L76.0045 223.841L79.7757 230.44L82.5588 230.655Z" fill="#E2CFCF"/>
<path d="M79.7747 230.448L76.0034 223.849L65.659 222.935L69.4302 229.534L79.7747 230.448Z" fill="#E2CFCF"/>
<path d="M76.004 223.844L68.1371 210.332C67.6525 209.421 66.3252 208.655 65.3076 208.447L57.7063 207.599C57.3671 207.53 56.9984 207.949 57.2681 208.357L65.6596 222.93L76.004 223.844Z" fill="#F0DEDF"/>
<path d="M69.4324 229.527L65.6612 222.928L58.1399 222.379L61.8711 228.829L69.4324 229.527Z" fill="#E2CFCF"/>
<path d="M61.8725 228.826L58.1413 222.376L49.9964 221.594L53.7677 228.193L61.8725 228.826Z" fill="#F0DEDF"/>
<path d="M52.6099 240.035C52.9491 240.104 53.3178 239.685 53.0481 239.277L46.2051 227.493L39.811 226.963L46.0746 237.78C46.5592 238.692 47.8317 239.553 48.9041 239.666L52.6099 240.035Z" fill="#F0DEDF"/>
<path d="M58.1344 222.382L49.2583 206.898C49.2183 206.749 49.0287 206.639 48.8791 206.68L29.2922 204.476C27.8806 204.294 27.238 205.187 27.9923 206.507L36.0741 220.521L42.4683 221.051L39.1816 215.364C39.0067 215.01 39.2258 214.631 39.6198 214.606L46.054 215.285C46.2036 215.245 46.3384 215.449 46.4332 215.504L49.9895 221.6L58.1344 222.382Z" fill="#F0DEDF"/>
<path d="M53.7653 228.192L49.9941 221.593L42.5276 220.949L46.204 227.494L53.7653 228.192Z" fill="#E2CFCF"/>
<path d="M46.2052 227.495L42.5287 220.951L36.1346 220.421L39.9606 226.925L46.2052 227.495Z" fill="#E2CFCF"/>
<path d="M36.3458 226.61L39.8621 226.87L36.1309 220.421L33.3478 220.205C33.1034 220.19 32.9391 220.474 33.0192 220.773L36.0614 226.446C36.1562 226.501 36.251 226.556 36.3458 226.61Z" fill="#E2CFCF"/>
<g opacity="0.7">
<path d="M82.6276 91.1687C83.0558 90.7192 82.9066 90.2629 82.2663 90.2318L76.6694 89.6174L73.6812 93.0213L75.1702 93.2006C75.3399 93.2303 75.417 93.4051 75.3245 93.5502L73.4267 95.6388C73.4022 95.7017 73.2955 95.6965 73.2518 95.7158L71.5494 95.5261L69.1746 98.1901L75.4749 98.8601C75.5379 98.8845 75.6253 98.846 75.6497 98.783L82.6276 91.1687Z" fill="#F0DEDF"/>
<path d="M77.4628 88.6967C77.531 88.6145 77.4731 88.4834 77.3471 88.4345L74.4323 88.1003C74.3693 88.0759 74.3256 88.0951 74.3012 88.1581L73.3716 89.246L76.6695 89.6203L77.4628 88.6967Z" fill="#E2CFCF"/>
<path d="M76.6704 89.6197L73.3724 89.2454L70.3843 92.6493L73.6823 93.0235L76.6704 89.6197Z" fill="#E2CFCF"/>
<path d="M73.3717 89.2429L66.5815 88.5277C66.1354 88.4632 65.5233 88.7328 65.1878 89.0372L62.9299 91.493C62.8181 91.5945 62.8708 91.8323 63.0842 91.8426L70.3835 92.6468L73.3717 89.2429Z" fill="#F0DEDF"/>
<path d="M73.6806 93.0225L70.3826 92.6483L68.2508 95.153L71.4858 95.5029L73.6806 93.0225Z" fill="#E2CFCF"/>
<path d="M71.4854 95.5031L68.2504 95.1533L65.8755 97.8173L69.1735 98.1916L71.4854 95.5031Z" fill="#F0DEDF"/>
<path d="M73.0479 101.652C73.1597 101.551 73.107 101.313 72.8936 101.302L66.9765 100.672L65.1417 102.785L70.5689 103.37C71.0151 103.435 71.6464 103.209 71.9627 102.861L73.0479 101.652Z" fill="#F0DEDF"/>
<path d="M68.2503 95.1602L60.5049 94.2916C60.4419 94.2672 60.3545 94.3057 60.33 94.3686L54.5055 100.692C54.0773 101.142 54.2265 101.598 54.8861 101.673L61.9089 102.442L63.7437 100.329L60.8919 100.019C60.7222 99.9895 60.645 99.8147 60.7376 99.6696L62.6354 97.581C62.6598 97.5181 62.7666 97.5233 62.8103 97.504L65.8755 97.8242L68.2503 95.1602Z" fill="#F0DEDF"/>
<path d="M69.1722 98.1939L65.8742 97.8197L63.7231 100.281L66.9774 100.674L69.1722 98.1939Z" fill="#E2CFCF"/>
<path d="M66.9776 100.671L63.7233 100.277L61.8885 102.39L65.1672 102.721L66.9776 100.671Z" fill="#E2CFCF"/>
<path d="M64.1248 103.914L65.1225 102.744L61.8876 102.394L61.0943 103.318C61.0261 103.4 61.084 103.531 61.21 103.58L63.9936 103.972C64.0374 103.953 64.0811 103.933 64.1248 103.914Z" fill="#E2CFCF"/>
</g>
<g opacity="0.3">
<path d="M262.012 232.974C262.26 232.713 262.174 232.449 261.803 232.431L258.563 232.075L256.833 234.046L257.695 234.15C257.793 234.167 257.838 234.268 257.784 234.352L256.685 235.561C256.671 235.598 256.609 235.595 256.584 235.606L255.599 235.496L254.224 237.038L257.871 237.426C257.908 237.441 257.958 237.418 257.972 237.382L262.012 232.974Z" fill="#F0DEDF"/>
<path d="M259.023 231.542C259.062 231.494 259.029 231.418 258.956 231.39L257.268 231.196C257.231 231.182 257.206 231.193 257.192 231.23L256.653 231.86L258.563 232.077L259.023 231.542Z" fill="#E2CFCF"/>
<path d="M258.563 232.076L256.654 231.859L254.924 233.83L256.833 234.047L258.563 232.076Z" fill="#E2CFCF"/>
<path d="M256.653 231.858L252.722 231.444C252.464 231.407 252.11 231.563 251.915 231.739L250.608 233.161C250.543 233.22 250.574 233.357 250.698 233.363L254.923 233.829L256.653 231.858Z" fill="#F0DEDF"/>
<path d="M256.833 234.046L254.923 233.829L253.689 235.279L255.562 235.482L256.833 234.046Z" fill="#E2CFCF"/>
<path d="M255.562 235.483L253.689 235.281L252.314 236.823L254.223 237.04L255.562 235.483Z" fill="#F0DEDF"/>
<path d="M256.466 239.042C256.531 238.984 256.5 238.846 256.377 238.84L252.951 238.475L251.889 239.699L255.031 240.037C255.289 240.075 255.655 239.944 255.838 239.742L256.466 239.042Z" fill="#F0DEDF"/>
<path d="M253.689 235.283L249.204 234.78C249.168 234.766 249.117 234.788 249.103 234.825L245.731 238.486C245.483 238.746 245.569 239.01 245.951 239.053L250.017 239.499L251.079 238.275L249.428 238.096C249.33 238.079 249.285 237.978 249.339 237.894L250.438 236.685C250.452 236.648 250.514 236.651 250.539 236.64L252.314 236.825L253.689 235.283Z" fill="#F0DEDF"/>
<path d="M254.223 237.04L252.313 236.823L251.067 238.248L252.952 238.476L254.223 237.04Z" fill="#E2CFCF"/>
<path d="M252.953 238.474L251.068 238.246L250.005 239.469L251.904 239.661L252.953 238.474Z" fill="#E2CFCF"/>
<path d="M251.301 240.352L251.879 239.674L250.005 239.472L249.546 240.007C249.506 240.054 249.54 240.13 249.613 240.158L251.225 240.385C251.25 240.374 251.275 240.363 251.301 240.352Z" fill="#E2CFCF"/>
</g>
<g opacity="0.7">
<path d="M349.945 242.062C350.424 242.457 350.869 242.277 350.855 241.636L351.071 236.014L347.463 233.274L347.389 234.771C347.372 234.942 347.203 235.031 347.051 234.949L344.833 233.203C344.768 233.183 344.766 233.077 344.743 233.034L344.812 231.324L341.985 229.143L341.763 235.47C341.743 235.535 341.788 235.619 341.852 235.639L349.945 242.062Z" fill="#F0DEDF"/>
<path d="M352.049 236.739C352.136 236.801 352.263 236.735 352.302 236.606L352.43 233.677C352.449 233.612 352.427 233.57 352.363 233.55L351.211 232.7L351.071 236.013L352.049 236.739Z" fill="#E2CFCF"/>
<path d="M351.071 236.01L351.211 232.697L347.602 229.956L347.462 233.27L351.071 236.01Z" fill="#E2CFCF"/>
<path d="M351.215 232.698L351.447 225.88C351.48 225.431 351.168 224.84 350.84 224.527L348.229 222.448C348.12 222.343 347.887 222.413 347.891 222.626L347.606 229.958L351.215 232.698Z" fill="#F0DEDF"/>
<path d="M347.465 233.27L347.605 229.956L344.954 228.007L344.834 231.256L347.465 233.27Z" fill="#E2CFCF"/>
<path d="M344.834 231.257L344.954 228.008L342.128 225.827L341.988 229.141L344.834 231.257Z" fill="#F0DEDF"/>
<path d="M338.807 233.248C338.916 233.353 339.15 233.284 339.145 233.07L339.355 227.128L337.116 225.447L336.917 230.898C336.884 231.347 337.154 231.96 337.524 232.251L338.807 233.248Z" fill="#F0DEDF"/>
<path d="M344.953 228.009L345.272 220.228C345.292 220.163 345.247 220.079 345.183 220.059L338.459 214.696C337.981 214.3 337.536 214.481 337.508 215.143L337.237 222.197L339.476 223.878L339.583 221.014C339.601 220.843 339.77 220.754 339.921 220.836L342.14 222.582C342.204 222.602 342.207 222.708 342.229 222.75L342.127 225.828L344.953 228.009Z" fill="#F0DEDF"/>
<path d="M341.988 229.14L342.127 225.826L339.519 223.854L339.357 227.125L341.988 229.14Z" fill="#E2CFCF"/>
<path d="M339.355 227.131L339.518 223.859L337.279 222.178L337.181 225.47L339.355 227.131Z" fill="#E2CFCF"/>
<path d="M335.92 224.515L337.158 225.428L337.278 222.179L336.3 221.453C336.214 221.39 336.087 221.457 336.047 221.586L335.853 224.388C335.875 224.431 335.898 224.473 335.92 224.515Z" fill="#E2CFCF"/>
</g>
<g opacity="0.4">
<path d="M30.9791 62.0158C31.458 62.4111 31.9028 62.2306 31.8885 61.5902L32.1053 55.9684L28.4967 53.228L28.4232 54.7246C28.4056 54.8959 28.2366 54.985 28.0852 54.9029L25.8665 53.1573C25.802 53.1373 25.7996 53.0306 25.7773 52.9883L25.846 51.2783L23.0193 49.0974L22.7969 55.424C22.7769 55.4885 22.8216 55.573 22.8861 55.593L30.9791 62.0158Z" fill="#F0DEDF"/>
<path d="M33.0832 56.6921C33.17 56.7542 33.2968 56.6874 33.3366 56.5584L33.4638 53.6296C33.4837 53.5651 33.4614 53.5229 33.3968 53.5029L32.2452 52.6524L32.1053 55.9659L33.0832 56.6921Z" fill="#E2CFCF"/>
<path d="M32.1052 55.9643L32.2451 52.6509L28.6365 49.9104L28.4966 53.2239L32.1052 55.9643Z" fill="#E2CFCF"/>
<path d="M32.2488 52.6512L32.4816 45.8331C32.5144 45.3838 32.202 44.7927 31.8745 44.4794L29.2637 42.4007C29.1545 42.2963 28.921 42.3654 28.9257 42.5789L28.6402 49.9107L32.2488 52.6512Z" fill="#F0DEDF"/>
<path d="M28.499 53.2239L28.6389 49.9104L25.9882 47.9607L25.8682 51.2096L28.499 53.2239Z" fill="#E2CFCF"/>
<path d="M25.8687 51.2101L25.9887 47.9612L23.1619 45.7803L23.022 49.0938L25.8687 51.2101Z" fill="#F0DEDF"/>
<path d="M19.8415 53.2025C19.9507 53.3069 20.1843 53.2377 20.1795 53.0242L20.3891 47.0823L18.1505 45.4012L17.9513 50.8517C17.9186 51.3009 18.1887 51.9144 18.5585 52.2053L19.8415 53.2025Z" fill="#F0DEDF"/>
<path d="M25.9874 47.9619L26.3057 40.1808C26.3256 40.1163 26.281 40.0319 26.2165 40.0119L19.4934 34.6484C19.0145 34.2531 18.5697 34.4336 18.5417 35.0963L18.2714 42.1502L20.51 43.8313L20.6172 40.967C20.6348 40.7958 20.8037 40.7067 20.9552 40.7888L23.1739 42.5344C23.2384 42.5544 23.2408 42.6611 23.2631 42.7033L23.1607 45.781L25.9874 47.9619Z" fill="#F0DEDF"/>
<path d="M23.0218 49.0937L23.1617 45.7803L20.5533 43.8082L20.3911 47.0795L23.0218 49.0937Z" fill="#E2CFCF"/>
<path d="M20.3894 47.0835L20.5516 43.8123L18.313 42.1312L18.2153 45.4224L20.3894 47.0835Z" fill="#E2CFCF"/>
<path d="M16.9538 44.469L18.1923 45.3817L18.3123 42.1327L17.3344 41.4065C17.2476 41.3444 17.1208 41.4112 17.081 41.5402L16.8869 44.3423C16.9092 44.3845 16.9315 44.4268 16.9538 44.469Z" fill="#E2CFCF"/>
</g>
<g opacity="0.3">
<path d="M366.374 50.1415C366.675 49.9026 366.623 49.61 366.233 49.5358L362.854 48.6778L360.728 50.5083L361.626 50.7463C361.727 50.7791 361.759 50.8929 361.69 50.974L360.346 52.0916C360.326 52.1281 360.261 52.1158 360.233 52.1238L359.205 51.8611L357.519 53.2906L361.325 54.2432C361.362 54.2637 361.419 54.2476 361.439 54.211L366.374 50.1415Z" fill="#F0DEDF"/>
<path d="M363.418 48.1837C363.467 48.1391 363.443 48.0537 363.37 48.0129L361.611 47.557C361.574 47.5366 361.546 47.5446 361.525 47.5811L360.861 48.1685L362.852 48.6819L363.418 48.1837Z" fill="#E2CFCF"/>
<path d="M362.853 48.6766L360.863 48.1632L358.737 49.9941L360.728 50.5075L362.853 48.6766Z" fill="#E2CFCF"/>
<path d="M360.862 48.1654L356.76 47.1428C356.492 47.0649 356.093 47.1776 355.861 47.3354L354.265 48.6473C354.188 48.6999 354.2 48.8502 354.33 48.8749L358.737 49.9958L360.862 48.1654Z" fill="#F0DEDF"/>
<path d="M360.726 50.507L358.736 49.9936L357.212 51.3467L359.167 51.8397L360.726 50.507Z" fill="#E2CFCF"/>
<path d="M359.166 51.8418L357.212 51.3489L355.526 52.7787L357.517 53.2921L359.166 51.8418Z" fill="#F0DEDF"/>
<path d="M359.594 55.7488C359.671 55.6962 359.659 55.5458 359.529 55.5211L355.955 54.6259L354.648 55.7639L357.926 56.5892C358.194 56.6671 358.6 56.5829 358.824 56.3967L359.594 55.7488Z" fill="#F0DEDF"/>
<path d="M357.212 51.3528L352.537 50.154C352.5 50.1336 352.443 50.1497 352.423 50.1862L348.307 53.563C348.005 53.8019 348.058 54.0945 348.456 54.1971L352.696 55.2729L354.003 54.1349L352.281 53.6997C352.18 53.6669 352.147 53.5531 352.217 53.472L353.56 52.3544C353.581 52.3179 353.646 52.3303 353.674 52.3223L355.526 52.7822L357.212 51.3528Z" fill="#F0DEDF"/>
<path d="M357.517 53.2916L355.526 52.7782L353.995 54.1029L355.957 54.6243L357.517 53.2916Z" fill="#E2CFCF"/>
<path d="M355.957 54.6267L353.995 54.1053L352.688 55.2436L354.67 55.7285L355.957 54.6267Z" fill="#E2CFCF"/>
<path d="M353.93 56.3645L354.643 55.7325L352.689 55.2395L352.123 55.7378C352.074 55.7823 352.098 55.8677 352.171 55.9086L353.845 56.3886C353.874 56.3805 353.902 56.3725 353.93 56.3645Z" fill="#E2CFCF"/>
</g>
<g filter="url(#filter0_d)">
<circle cx="188" cy="129" r="83.5" stroke="url(#paint0_linear)" stroke-width="15"/>
</g>
<defs>
<filter id="filter0_d" x="77" y="27" width="218" height="218" filterUnits="userSpaceOnUse" color-interpolation-filters="sRGB">
<feFlood flood-opacity="0" result="BackgroundImageFix"/>
<feColorMatrix in="SourceAlpha" type="matrix" values="0 0 0 0 0 0 0 0 0 0 0 0 0 0 0 0 0 0 127 0"/>
<feOffset dx="-2" dy="7"/>
<feGaussianBlur stdDeviation="9"/>
<feColorMatrix type="matrix" values="0 0 0 0 0 0 0 0 0 0 0 0 0 0 0 0 0 0 0.25 0"/>
<feBlend mode="normal" in2="BackgroundImageFix" result="effect1_dropShadow"/>
<feBlend mode="normal" in="SourceGraphic" in2="effect1_dropShadow" result="shape"/>
</filter>
<linearGradient id="paint0_linear" x1="188" y1="225.833" x2="188" y2="32.9444" gradientUnits="userSpaceOnUse">
<stop stop-color="#F05359"/>
<stop offset="1" stop-color="#FF3F46" stop-opacity="0.39"/>
</linearGradient>
</defs>
</svg>
