<svg width="773" height="317" viewBox="0 0 773 317" fill="none" xmlns="http://www.w3.org/2000/svg">
<rect width="773" height="317" fill="white"/>
<path d="M197.637 71.8933H204.688V66.7957H197.637V58.8269H192.266V66.7957H185.195V71.8933H192.266V79.53H197.637V71.8933Z" fill="#FAEDED"/>
<path d="M250.236 30.0704L255.487 25.366L252.085 21.5699L246.833 26.2743L241.515 20.34L237.514 23.9237L242.833 29.8579L237.566 34.5753L240.968 38.3715L246.235 33.6541L251.332 39.3411L255.332 35.7574L250.236 30.0704Z" fill="#FAEDED"/>
<path d="M63.5206 196.701L70.5601 182.484L60.2803 177.397L53.2408 191.614L37.1713 183.661L31.8088 194.491L47.8783 202.444L40.8193 216.7L51.0991 221.788L58.1581 207.531L73.5581 215.153L78.9206 204.323L63.5206 196.701Z" fill="#F9BABD"/>
<path d="M607.614 77.8259H619.953V68.905H607.614V54.9597H598.215V68.905H585.842V77.8259H598.215V91.1902H607.614V77.8259Z" fill="#FAEDED"/>
<path d="M482.585 267.458L488.722 258.844L482.494 254.409L476.357 263.022L466.62 256.089L461.945 262.65L471.682 269.584L465.528 278.221L471.756 282.657L477.91 274.019L487.241 280.664L491.916 274.102L482.585 267.458Z" fill="#F9BABD"/>
<path d="M685.86 101.832C685.201 102.444 684.925 103.094 685.029 103.782C685.145 104.476 685.594 105.056 686.377 105.523C687.171 105.996 688.031 106.195 688.956 106.121C689.891 106.053 690.688 105.713 691.346 105.101C691.995 104.498 692.267 103.853 692.162 103.165C692.048 102.486 691.589 101.907 690.783 101.427C689.989 100.954 689.134 100.75 688.219 100.816C687.295 100.891 686.508 101.23 685.86 101.832ZM674.143 112.723C673.485 113.335 673.209 113.985 673.313 114.672C673.429 115.367 673.878 115.947 674.661 116.414C675.455 116.887 676.315 117.086 677.239 117.011C678.175 116.943 678.972 116.603 679.63 115.992C680.279 115.389 680.551 114.744 680.446 114.056C680.332 113.377 679.873 112.798 679.067 112.318C678.273 111.845 677.418 111.641 676.503 111.707C675.579 111.782 674.792 112.12 674.143 112.723Z" fill="#FAEDED"/>
<path d="M48.8595 12.9458C48.2015 13.5575 47.9247 14.2072 48.0292 14.8949C48.1448 15.5893 48.5942 16.1698 49.3772 16.6362C50.1715 17.1094 51.0309 17.3086 51.9556 17.2339C52.8914 17.1659 53.6884 16.8261 54.3464 16.2144C54.9949 15.6116 55.267 14.9663 55.1625 14.2786C55.0484 13.5997 54.5887 13.0204 53.7833 12.5406C52.9891 12.0674 52.1344 11.8638 51.2193 11.9296C50.2946 12.0042 49.508 12.343 48.8595 12.9458ZM37.1434 23.8365C36.4854 24.4482 36.2086 25.0979 36.3131 25.7857C36.4287 26.4801 36.8781 27.0605 37.6612 27.527C38.4554 28.0001 39.3148 28.1993 40.2395 28.1247C41.1753 28.0567 41.9723 27.7168 42.6303 27.1051C43.2788 26.5023 43.5509 25.857 43.4464 25.1693C43.3323 24.4904 42.8726 23.9111 42.0672 23.4313C41.273 22.9582 40.4183 22.7545 39.5032 22.8203C38.5785 22.895 37.7919 23.2337 37.1434 23.8365Z" fill="#F9BABD"/>
<g opacity="0.7">
<path d="M277.571 241.441C279.05 242.058 279.173 243.29 277.693 244.028L265.118 251.291L254.52 246.359L257.849 244.389C258.218 244.143 258.219 243.65 257.849 243.404L251.194 240.444C251.071 240.321 250.824 240.444 250.701 240.444L246.879 242.66L238.499 238.837L252.678 230.713C252.801 230.589 253.047 230.589 253.171 230.713L277.571 241.441Z" fill="#F0DEDF"/>
<path d="M267.953 252.651C268.199 252.775 268.199 253.144 267.952 253.391L261.418 257.207C261.295 257.33 261.171 257.33 261.048 257.207L257.721 255.604L265.118 251.295L267.953 252.651Z" fill="#E2CFCF"/>
<path d="M265.12 251.29L257.723 255.598L247.125 250.666L254.522 246.357L265.12 251.29Z" fill="#E2CFCF"/>
<path d="M257.722 255.608L242.434 264.348C241.448 264.964 239.722 264.963 238.613 264.593L230.726 261.14C230.356 261.017 230.233 260.401 230.727 260.155L247.124 250.676L257.722 255.608Z" fill="#F0DEDF"/>
<path d="M254.52 246.364L247.123 250.673L239.482 246.974L246.756 242.788L254.52 246.364Z" fill="#E2CFCF"/>
<path d="M246.756 242.787L239.482 246.973L231.102 243.15L238.5 238.841L246.756 242.787Z" fill="#F0DEDF"/>
<path d="M244.053 226.654C244.423 226.777 244.546 227.393 244.053 227.639L230.738 235.271L224.206 232.189L236.412 225.172C237.398 224.556 239.124 224.434 240.233 224.927L244.053 226.654Z" fill="#F0DEDF"/>
<path d="M239.484 246.968L222.1 257.062C221.977 257.185 221.73 257.185 221.607 257.062L201.273 248.183C199.794 247.567 199.671 246.335 201.151 245.473L216.932 236.363L223.463 239.446L217.052 243.139C216.682 243.385 216.682 243.878 217.052 244.125L223.706 247.084C223.83 247.207 224.076 247.084 224.2 247.084L231.104 243.145L239.484 246.968Z" fill="#F0DEDF"/>
<path d="M238.499 238.838L231.101 243.146L223.461 239.571L230.735 235.262L238.499 238.838Z" fill="#E2CFCF"/>
<path d="M230.734 235.265L223.46 239.574L216.929 236.491L224.326 232.306L230.734 235.265Z" fill="#E2CFCF"/>
<path d="M220.631 230.58L224.205 232.306L216.931 236.491L214.097 235.135C213.85 235.012 213.85 234.642 214.097 234.396L220.261 230.579C220.385 230.58 220.508 230.58 220.631 230.58Z" fill="#E2CFCF"/>
</g>
<path d="M727.318 174.815C730.057 174.461 731.303 176.193 729.733 178.57L717.239 200.249L697.169 202.025L700.436 196.216C700.776 195.53 700.351 194.794 699.586 194.745L687.103 196.065C686.813 195.988 686.551 196.384 686.367 196.49L682.577 203.091L666.775 204.611L680.917 180.265C680.994 179.975 681.362 179.763 681.653 179.841L727.318 174.815Z" fill="#F0DEDF"/>
<path d="M722.633 199.837C723.107 199.808 723.426 200.36 723.271 200.94L716.815 212.267C716.737 212.557 716.554 212.663 716.263 212.585L709.915 213.062L717.234 200.256L722.633 199.837Z" fill="#E2CFCF"/>
<path d="M717.232 200.239L709.914 213.045L689.844 214.821L697.162 202.015L717.232 200.239Z" fill="#E2CFCF"/>
<path d="M709.917 213.056L694.651 239.277C693.711 241.046 691.135 242.532 689.161 242.936L674.413 244.583C673.755 244.717 673.04 243.904 673.563 243.112L689.847 214.832L709.917 213.056Z" fill="#F0DEDF"/>
<path d="M697.166 202.027L689.848 214.833L675.256 215.9L682.496 203.384L697.166 202.027Z" fill="#E2CFCF"/>
<path d="M682.499 203.389L675.259 215.905L659.456 217.425L666.775 204.619L682.499 203.389Z" fill="#F0DEDF"/>
<path d="M664.53 181.635C665.188 181.501 665.903 182.314 665.38 183.106L652.101 205.973L639.695 207.003L651.85 186.011C652.79 184.243 655.259 182.572 657.34 182.352L664.53 181.635Z" fill="#F0DEDF"/>
<path d="M675.248 215.891L658.024 245.939C657.946 246.229 657.578 246.441 657.288 246.363L619.287 250.643C616.548 250.998 615.301 249.265 616.765 246.704L632.448 219.507L644.854 218.477L638.476 229.514C638.136 230.2 638.561 230.936 639.326 230.985L651.809 229.665C652.099 229.743 652.361 229.346 652.545 229.24L659.446 217.41L675.248 215.891Z" fill="#F0DEDF"/>
<path d="M666.771 204.618L659.452 217.424L644.966 218.674L652.101 205.975L666.771 204.618Z" fill="#E2CFCF"/>
<path d="M652.103 205.971L644.969 218.67L632.563 219.701L639.988 207.079L652.103 205.971Z" fill="#E2CFCF"/>
<path d="M632.974 207.689L639.796 207.184L632.556 219.7L627.156 220.119C626.682 220.148 626.363 219.596 626.519 219.016L632.422 208.008C632.606 207.901 632.79 207.795 632.974 207.689Z" fill="#E2CFCF"/>
<path d="M140.379 65.0784C143.118 64.7237 144.364 66.4563 142.795 68.8336L130.3 90.5118L110.231 92.2878L113.497 86.4792C113.837 85.7929 113.412 85.0574 112.647 85.0082L100.164 86.3286C99.8741 86.2509 99.6124 86.6471 99.4285 86.7533L95.6385 93.3544L79.8362 94.8741L93.978 70.5285C94.0557 70.2385 94.4237 70.0261 94.7138 70.1038L140.379 65.0784Z" fill="#F0DEDF"/>
<path d="M135.695 90.0997C136.169 90.0712 136.488 90.6228 136.332 91.2029L129.877 102.53C129.799 102.82 129.615 102.926 129.325 102.849L122.977 103.325L130.295 90.5191L135.695 90.0997Z" fill="#E2CFCF"/>
<path d="M130.293 90.5023L122.975 103.308L102.905 105.084L110.224 92.2783L130.293 90.5023Z" fill="#E2CFCF"/>
<path d="M122.978 103.32L107.712 129.54C106.772 131.309 104.197 132.795 102.222 133.199L87.4746 134.846C86.8165 134.98 86.1013 134.167 86.6246 133.375L102.909 105.096L122.978 103.32Z" fill="#F0DEDF"/>
<path d="M110.228 92.2907L102.909 105.097L88.3171 106.163L95.5576 93.6473L110.228 92.2907Z" fill="#E2CFCF"/>
<path d="M95.5606 93.6524L88.32 106.168L72.5177 107.688L79.836 94.8821L95.5606 93.6524Z" fill="#F0DEDF"/>
<path d="M77.5911 71.8984C78.2492 71.7637 78.9644 72.5769 78.4411 73.3694L65.162 96.2362L52.7565 97.2666L64.9113 76.2747C65.8517 74.5059 68.3207 72.8356 70.4013 72.6155L77.5911 71.8984Z" fill="#F0DEDF"/>
<path d="M88.3096 106.154L71.0851 136.202C71.0074 136.492 70.6395 136.704 70.3493 136.627L32.3478 140.906C29.6092 141.261 28.3628 139.529 29.8264 136.967L45.5096 109.771L57.9151 108.74L51.5372 119.777C51.1978 120.464 51.6228 121.199 52.3871 121.248L64.8703 119.928C65.1605 120.006 65.4222 119.609 65.6062 119.503L72.5074 107.674L88.3096 106.154Z" fill="#F0DEDF"/>
<path d="M79.8319 94.8812L72.5137 107.687L58.0276 108.938L65.1619 96.2378L79.8319 94.8812Z" fill="#E2CFCF"/>
<path d="M65.1645 96.2338L58.0301 108.934L45.6246 109.964L53.0491 97.3419L65.1645 96.2338Z" fill="#E2CFCF"/>
<path d="M46.0355 97.9522L52.8575 97.4474L45.6169 109.963L40.2174 110.383C39.7432 110.411 39.4245 109.86 39.5799 109.279L45.4836 98.2707C45.6676 98.1646 45.8515 98.0584 46.0355 97.9522Z" fill="#E2CFCF"/>
<g opacity="0.7">
<path d="M236.918 146.858C237.749 147.73 237.46 148.616 236.218 148.676L225.359 149.866L219.56 143.26L222.449 142.913C222.778 142.855 222.928 142.516 222.748 142.235L219.066 138.181C219.018 138.059 218.811 138.069 218.726 138.032L215.424 138.4L210.815 133.23L223.038 131.932C223.161 131.884 223.33 131.959 223.378 132.081L236.918 146.858Z" fill="#F0DEDF"/>
<path d="M226.898 151.655C227.03 151.815 226.918 152.069 226.673 152.164L221.018 152.811C220.895 152.859 220.81 152.822 220.763 152.699L218.959 150.588L225.358 149.863L226.898 151.655Z" fill="#E2CFCF"/>
<path d="M225.36 149.865L218.962 150.59L213.163 143.984L219.562 143.259L225.36 149.865Z" fill="#E2CFCF"/>
<path d="M218.96 150.596L205.787 151.981C204.921 152.106 203.733 151.583 203.082 150.992L198.701 146.226C198.484 146.029 198.586 145.568 199 145.548L213.162 143.99L218.96 150.596Z" fill="#F0DEDF"/>
<path d="M219.56 143.259L213.161 143.984L209.025 139.124L215.301 138.446L219.56 143.259Z" fill="#E2CFCF"/>
<path d="M215.3 138.446L209.024 139.124L204.416 133.954L210.814 133.229L215.3 138.446Z" fill="#F0DEDF"/>
<path d="M218.333 126.514C218.55 126.711 218.447 127.172 218.033 127.192L206.553 128.413L202.993 124.312L213.522 123.179C214.388 123.055 215.613 123.493 216.227 124.168L218.333 126.514Z" fill="#F0DEDF"/>
<path d="M209.025 139.114L193.998 140.797C193.875 140.844 193.706 140.769 193.658 140.647L182.356 128.376C181.525 127.503 181.814 126.618 183.094 126.473L196.719 124.982L200.279 129.083L194.747 129.683C194.417 129.741 194.268 130.08 194.447 130.362L198.13 134.415C198.177 134.537 198.384 134.527 198.469 134.564L204.416 133.944L209.025 139.114Z" fill="#F0DEDF"/>
<path d="M210.813 133.225L204.414 133.95L200.24 129.174L206.554 128.411L210.813 133.225Z" fill="#E2CFCF"/>
<path d="M206.556 128.418L200.241 129.18L196.681 125.079L203.042 124.439L206.556 128.418Z" fill="#E2CFCF"/>
<path d="M201.02 122.124L202.957 124.396L196.679 125.074L195.14 123.281C195.008 123.122 195.12 122.867 195.364 122.773L200.766 122.012C200.851 122.05 200.936 122.087 201.02 122.124Z" fill="#E2CFCF"/>
</g>
<g opacity="0.3">
<path d="M394.125 20.3011C394.606 20.8062 394.438 21.3186 393.719 21.3535L387.433 22.0421L384.075 18.2177L385.748 18.0166C385.938 17.9834 386.025 17.7871 385.921 17.624L383.789 15.2774C383.761 15.2067 383.641 15.2125 383.592 15.1908L381.68 15.4035L379.012 12.4104L386.088 11.6595C386.159 11.632 386.257 11.6753 386.285 11.746L394.125 20.3011Z" fill="#F0DEDF"/>
<path d="M388.323 23.079C388.399 23.1714 388.334 23.3187 388.193 23.3736L384.918 23.7489C384.848 23.7763 384.798 23.7547 384.771 23.6839L383.727 22.4612L387.431 22.0411L388.323 23.079Z" fill="#E2CFCF"/>
<path d="M387.433 22.0441L383.728 22.4643L380.371 18.6388L384.076 18.2187L387.433 22.0441Z" fill="#E2CFCF"/>
<path d="M383.728 22.4668L376.101 23.2683C375.6 23.3406 374.912 23.0377 374.535 22.6957L371.999 19.9363C371.873 19.8223 371.932 19.5553 372.172 19.5437L380.37 18.6424L383.728 22.4668Z" fill="#F0DEDF"/>
<path d="M384.075 18.2199L380.37 18.64L377.975 15.8251L381.609 15.4324L384.075 18.2199Z" fill="#E2CFCF"/>
<path d="M381.609 15.4325L377.975 15.8251L375.307 12.8312L379.012 12.4111L381.609 15.4325Z" fill="#F0DEDF"/>
<path d="M383.364 8.52334C383.49 8.63735 383.43 8.9044 383.191 8.91601L376.544 9.62205L374.483 7.24803L380.579 6.59265C381.08 6.52035 381.789 6.77423 382.145 7.16533L383.364 8.52334Z" fill="#F0DEDF"/>
<path d="M377.976 15.8188L369.276 16.7924C369.205 16.8198 369.107 16.7765 369.079 16.7058L362.535 9.60116C362.054 9.09606 362.222 8.58359 362.963 8.49969L370.851 7.63745L372.912 10.0115L369.709 10.3587C369.518 10.3919 369.432 10.5883 369.536 10.7514L371.668 13.0979C371.696 13.1687 371.815 13.1629 371.864 13.1845L375.307 12.8257L377.976 15.8188Z" fill="#F0DEDF"/>
<path d="M379.011 12.41L375.306 12.8301L372.889 10.0643L376.545 9.62246L379.011 12.41Z" fill="#E2CFCF"/>
<path d="M376.546 9.62623L372.89 10.068L370.828 7.69337L374.512 7.32233L376.546 9.62623Z" fill="#E2CFCF"/>
<path d="M373.341 5.981L374.462 7.2961L370.828 7.68879L369.937 6.65087C369.86 6.55848 369.925 6.41116 370.067 6.35624L373.194 5.91608C373.243 5.93772 373.292 5.95936 373.341 5.981Z" fill="#E2CFCF"/>
</g>
<g opacity="0.7">
<path d="M721.782 33.3492C722.711 32.5821 723.574 32.9326 723.546 34.1754L723.968 45.0851L716.967 50.4023L716.824 47.4979C716.79 47.1656 716.462 46.9926 716.169 47.1519L711.864 50.5389C711.739 50.5776 711.734 50.7847 711.691 50.8667L711.825 54.1853L706.341 58.4168L705.907 46.1391C705.869 46.0139 705.955 45.85 706.08 45.8113L721.782 33.3492Z" fill="#F0DEDF"/>
<path d="M725.864 43.677C726.033 43.5564 726.279 43.6861 726.356 43.9365L726.603 49.6201C726.642 49.7453 726.599 49.8273 726.474 49.866L724.239 51.5162L723.967 45.086L725.864 43.677Z" fill="#E2CFCF"/>
<path d="M723.967 45.0901L724.239 51.5203L717.238 56.8375L716.966 50.4073L723.967 45.0901Z" fill="#E2CFCF"/>
<path d="M724.245 51.5203L724.699 64.7517C724.762 65.6235 724.156 66.7707 723.521 67.3784L718.456 71.4118C718.244 71.6144 717.791 71.4801 717.8 71.0659L717.244 56.8375L724.245 51.5203Z" fill="#F0DEDF"/>
<path d="M716.97 50.409L717.243 56.8392L712.1 60.6223L711.867 54.3172L716.97 50.409Z" fill="#E2CFCF"/>
<path d="M711.867 54.3161L712.101 60.6211L706.617 64.8525L706.344 58.4223L711.867 54.3161Z" fill="#F0DEDF"/>
<path d="M700.173 50.4517C700.385 50.2491 700.838 50.3834 700.829 50.7977L701.238 62.3288L696.894 65.5906L696.506 55.0132C696.443 54.1414 696.967 52.9509 697.684 52.3865L700.173 50.4517Z" fill="#F0DEDF"/>
<path d="M712.098 60.6213L712.717 75.7215C712.756 75.8467 712.67 76.0106 712.544 76.0493L699.501 86.456C698.572 87.2231 697.709 86.8726 697.654 85.5865L697.128 71.8976L701.471 68.6358L701.68 74.1942C701.714 74.5266 702.042 74.6995 702.336 74.5402L706.64 71.1533C706.765 71.1146 706.77 70.9074 706.813 70.8255L706.614 64.8528L712.098 60.6213Z" fill="#F0DEDF"/>
<path d="M706.344 58.4241L706.616 64.8543L701.555 68.6806L701.24 62.3323L706.344 58.4241Z" fill="#E2CFCF"/>
<path d="M701.237 62.3243L701.553 68.6725L697.209 71.9343L697.019 65.5474L701.237 62.3243Z" fill="#E2CFCF"/>
<path d="M694.571 67.4L696.974 65.6291L697.208 71.9342L695.311 73.3431C695.142 73.4638 694.896 73.334 694.819 73.0837L694.442 67.6459C694.485 67.5639 694.528 67.482 694.571 67.4Z" fill="#E2CFCF"/>
</g>
<g opacity="0.4">
<path d="M145.104 189.233C146.033 188.466 146.896 188.816 146.869 190.059L147.291 200.969L140.29 206.286L140.147 203.382C140.113 203.049 139.785 202.876 139.491 203.036L135.187 206.423C135.061 206.461 135.057 206.669 135.014 206.75L135.147 210.069L129.663 214.301L129.23 202.023C129.191 201.898 129.278 201.734 129.403 201.695L145.104 189.233Z" fill="#F0DEDF"/>
<path d="M149.187 199.561C149.355 199.44 149.601 199.57 149.678 199.82L149.926 205.504C149.965 205.629 149.921 205.711 149.796 205.75L147.562 207.4L147.289 200.97L149.187 199.561Z" fill="#E2CFCF"/>
<path d="M147.289 200.974L147.561 207.404L140.56 212.721L140.288 206.291L147.289 200.974Z" fill="#E2CFCF"/>
<path d="M147.567 207.404L148.021 220.636C148.085 221.507 147.479 222.654 146.843 223.262L141.778 227.296C141.566 227.498 141.113 227.364 141.122 226.95L140.566 212.721L147.567 207.404Z" fill="#F0DEDF"/>
<path d="M140.293 206.293L140.565 212.723L135.423 216.506L135.189 210.201L140.293 206.293Z" fill="#E2CFCF"/>
<path d="M135.19 210.2L135.423 216.505L129.939 220.736L129.667 214.306L135.19 210.2Z" fill="#F0DEDF"/>
<path d="M123.496 206.335C123.708 206.133 124.161 206.267 124.152 206.681L124.56 218.213L120.217 221.474L119.829 210.897C119.765 210.025 120.289 208.835 121.006 208.27L123.496 206.335Z" fill="#F0DEDF"/>
<path d="M135.42 216.505L136.04 231.605C136.079 231.73 135.992 231.894 135.867 231.933L122.824 242.34C121.894 243.107 121.031 242.756 120.977 241.47L120.45 227.781L124.794 224.52L125.002 230.078C125.036 230.41 125.364 230.583 125.658 230.424L129.963 227.037C130.088 226.998 130.092 226.791 130.136 226.709L129.936 220.737L135.42 216.505Z" fill="#F0DEDF"/>
<path d="M129.666 214.308L129.938 220.738L124.878 224.564L124.562 218.216L129.666 214.308Z" fill="#E2CFCF"/>
<path d="M124.559 218.208L124.875 224.556L120.532 227.818L120.341 221.431L124.559 218.208Z" fill="#E2CFCF"/>
<path d="M117.894 223.284L120.297 221.513L120.53 227.818L118.633 229.227C118.465 229.348 118.219 229.218 118.141 228.967L117.764 223.53C117.807 223.448 117.851 223.366 117.894 223.284Z" fill="#E2CFCF"/>
</g>
<g opacity="0.3">
<path d="M770.339 257.352C770.924 257.815 770.823 258.383 770.066 258.527L763.509 260.19L759.385 256.638L761.126 256.176C761.323 256.113 761.386 255.892 761.251 255.735L758.644 253.566C758.604 253.495 758.478 253.519 758.423 253.503L756.429 254.013L753.158 251.238L760.542 249.392C760.613 249.352 760.724 249.383 760.763 249.454L770.339 257.352Z" fill="#F0DEDF"/>
<path d="M764.605 261.151C764.699 261.238 764.652 261.403 764.511 261.482L761.098 262.366C761.027 262.406 760.972 262.39 760.932 262.32L759.644 261.18L763.506 260.184L764.605 261.151Z" fill="#E2CFCF"/>
<path d="M763.509 260.191L759.647 261.186L755.522 257.633L759.384 256.638L763.509 260.191Z" fill="#E2CFCF"/>
<path d="M759.647 261.186L751.687 263.168C751.167 263.319 750.394 263.1 749.944 262.794L746.846 260.248C746.696 260.146 746.719 259.854 746.972 259.807L755.522 257.633L759.647 261.186Z" fill="#F0DEDF"/>
<path d="M759.383 256.639L755.521 257.635L752.565 255.009L756.356 254.053L759.383 256.639Z" fill="#E2CFCF"/>
<path d="M756.356 254.05L752.565 255.006L749.293 252.231L753.155 251.236L756.356 254.05Z" fill="#F0DEDF"/>
<path d="M757.186 246.47C757.337 246.572 757.314 246.863 757.061 246.911L750.126 248.647L747.589 246.438L753.949 244.838C754.469 244.687 755.258 244.85 755.693 245.212L757.186 246.47Z" fill="#F0DEDF"/>
<path d="M752.566 255L743.495 257.324C743.424 257.364 743.314 257.333 743.274 257.262L735.286 250.708C734.702 250.245 734.803 249.677 735.575 249.478L743.803 247.393L746.339 249.601L742.998 250.445C742.801 250.508 742.738 250.729 742.873 250.886L745.48 253.055C745.52 253.126 745.646 253.102 745.701 253.118L749.294 252.226L752.566 255Z" fill="#F0DEDF"/>
<path d="M753.156 251.237L749.294 252.232L746.323 249.662L750.13 248.651L753.156 251.237Z" fill="#E2CFCF"/>
<path d="M750.129 248.648L746.322 249.659L743.785 247.45L747.632 246.51L750.129 248.648Z" fill="#E2CFCF"/>
<path d="M746.197 245.275L747.58 246.502L743.789 247.458L742.691 246.491C742.596 246.404 742.643 246.238 742.785 246.159L746.032 245.228C746.087 245.244 746.142 245.26 746.197 245.275Z" fill="#E2CFCF"/>
</g>
<path d="M535.209 41.0175C534.936 41.4761 534.523 41.4583 534.349 40.9355L532.546 36.4451L534.676 33.1831L535.168 34.374C535.232 34.5076 535.395 34.531 535.494 34.4207L536.785 32.366C536.832 32.3312 536.803 32.2441 536.809 32.2034L536.258 30.8383L537.916 28.2554L539.928 33.3152C539.962 33.3616 539.951 33.4429 539.904 33.4777L535.209 41.0175Z" fill="#F0DEDF"/>
<path d="M531.967 37.3138C531.915 37.3893 531.793 37.3718 531.723 37.2788L530.772 34.9424C530.738 34.8959 530.743 34.8553 530.79 34.8204L531.477 33.7984L532.549 36.4428L531.967 37.3138Z" fill="#E2CFCF"/>
<path d="M532.545 36.4443L531.472 33.8012L533.601 30.5392L534.674 33.1824L532.545 36.4443Z" fill="#E2CFCF"/>
<path d="M531.473 33.8009L529.31 28.3462C529.154 27.9918 529.236 27.4228 529.41 27.0745L530.923 24.6367C530.981 24.5206 531.19 24.5092 531.248 24.6834L533.602 30.539L531.473 33.8009Z" fill="#F0DEDF"/>
<path d="M534.675 33.1814L533.603 30.5382L535.185 28.1934L536.223 30.7901L534.675 33.1814Z" fill="#E2CFCF"/>
<path d="M536.225 30.7893L535.187 28.1927L536.845 25.6098L537.918 28.253L536.225 30.7893Z" fill="#F0DEDF"/>
<path d="M541.684 30.6584C541.626 30.7745 541.417 30.7859 541.359 30.6117L539.469 25.8598L540.796 23.8516L542.535 28.2084C542.691 28.5628 542.65 29.1377 542.435 29.4801L541.684 30.6584Z" fill="#F0DEDF"/>
<path d="M535.19 28.1932L532.68 21.9831C532.645 21.9366 532.657 21.8553 532.703 21.8205L536.596 15.5345C536.869 15.076 537.282 15.0937 537.496 15.6224L539.757 21.2573L538.431 23.2655L537.515 20.9767C537.451 20.8431 537.288 20.8197 537.189 20.93L535.898 22.9847C535.851 23.0195 535.88 23.1066 535.874 23.1472L536.848 25.6103L535.19 28.1932Z" fill="#F0DEDF"/>
<path d="M537.917 28.2541L536.844 25.611L538.386 23.2603L539.464 25.8628L537.917 28.2541Z" fill="#E2CFCF"/>
<path d="M539.468 25.862L538.39 23.2595L539.716 21.2513L540.748 23.8886L539.468 25.862Z" fill="#E2CFCF"/>
<path d="M541.489 22.7551L540.75 23.8526L539.712 21.2548L540.294 20.3837C540.347 20.3082 540.469 20.3257 540.538 20.4188L541.506 22.6331C541.501 22.6738 541.495 22.7144 541.489 22.7551Z" fill="#E2CFCF"/>
<g opacity="0.6">
<path d="M563.665 179.974C563.113 180.9 562.28 180.864 561.929 179.809L558.289 170.742L562.588 164.155L563.583 166.559C563.712 166.829 564.04 166.876 564.24 166.654L566.848 162.505C566.942 162.435 566.883 162.259 566.895 162.177L565.783 159.42L569.131 154.204L573.193 164.421C573.263 164.515 573.239 164.679 573.146 164.749L563.665 179.974Z" fill="#F0DEDF"/>
<path d="M557.12 172.49C557.014 172.642 556.767 172.607 556.627 172.419L554.707 167.704C554.637 167.61 554.649 167.528 554.743 167.457L556.129 165.395L558.294 170.732L557.12 172.49Z" fill="#E2CFCF"/>
<path d="M558.284 170.742L556.119 165.405L560.418 158.818L562.584 164.155L558.284 170.742Z" fill="#E2CFCF"/>
<path d="M556.12 165.406L551.754 154.392C551.438 153.676 551.603 152.527 551.956 151.824L555.01 146.901C555.128 146.667 555.55 146.644 555.667 146.996L560.419 158.819L556.12 165.406Z" fill="#F0DEDF"/>
<path d="M562.587 164.153L560.421 158.816L563.617 154.081L565.712 159.325L562.587 164.153Z" fill="#E2CFCF"/>
<path d="M565.716 159.319L563.621 154.076L566.969 148.86L569.135 154.197L565.716 159.319Z" fill="#F0DEDF"/>
<path d="M576.739 159.057C576.622 159.291 576.199 159.314 576.082 158.962L572.267 149.367L574.945 145.312L578.457 154.11C578.773 154.825 578.69 155.986 578.255 156.677L576.739 159.057Z" fill="#F0DEDF"/>
<path d="M563.627 154.081L558.559 141.542C558.489 141.448 558.512 141.284 558.606 141.213L566.466 128.52C567.018 127.594 567.851 127.63 568.284 128.697L572.849 140.076L570.17 144.131L568.321 139.509C568.192 139.239 567.864 139.192 567.664 139.415L565.056 143.564C564.962 143.634 565.021 143.81 565.009 143.892L566.975 148.865L563.627 154.081Z" fill="#F0DEDF"/>
<path d="M569.131 154.204L566.966 148.866L570.079 144.12L572.256 149.375L569.131 154.204Z" fill="#E2CFCF"/>
<path d="M572.265 149.373L570.088 144.118L572.766 140.063L574.85 145.388L572.265 149.373Z" fill="#E2CFCF"/>
<path d="M576.345 143.1L574.853 145.315L572.758 140.072L573.933 138.314C574.038 138.162 574.285 138.197 574.425 138.385L576.38 142.854C576.369 142.936 576.357 143.018 576.345 143.1Z" fill="#E2CFCF"/>
</g>
<g filter="url(#filter0_d)">
<circle cx="386" cy="159" r="108" stroke="url(#paint0_linear)" stroke-width="18"/>
</g>
<defs>
<filter id="filter0_d" x="249" y="31" width="270" height="270" filterUnits="userSpaceOnUse" color-interpolation-filters="sRGB">
<feFlood flood-opacity="0" result="BackgroundImageFix"/>
<feColorMatrix in="SourceAlpha" type="matrix" values="0 0 0 0 0 0 0 0 0 0 0 0 0 0 0 0 0 0 127 0"/>
<feOffset dx="-2" dy="7"/>
<feGaussianBlur stdDeviation="9"/>
<feColorMatrix type="matrix" values="0 0 0 0 0 0 0 0 0 0 0 0 0 0 0 0 0 0 0.25 0"/>
<feBlend mode="normal" in2="BackgroundImageFix" result="effect1_dropShadow"/>
<feBlend mode="normal" in="SourceGraphic" in2="effect1_dropShadow" result="shape"/>
</filter>
<linearGradient id="paint0_linear" x1="386" y1="283.5" x2="386" y2="35.5" gradientUnits="userSpaceOnUse">
<stop stop-color="#F05359"/>
<stop offset="1" stop-color="#FF3F46" stop-opacity="0.39"/>
</linearGradient>
</defs>
</svg>
