<svg width="375" height="257" viewBox="0 0 375 257" fill="none" xmlns="http://www.w3.org/2000/svg">
<rect width="375" height="257" fill="#05243B"/>
<path d="M89.6885 204.085L94.9401 208.79L91.5381 212.586L86.2865 207.881L80.9685 213.816L76.968 210.232L82.286 204.297L77.0199 199.58L80.4219 195.783L85.688 200.501L90.7844 194.814L94.7849 198.398L89.6885 204.085Z" fill="#1C495E"/>
<path d="M262.089 34.9418L268.225 43.5557L261.997 47.9915L255.86 39.3776L246.124 46.3117L241.45 39.7499L251.186 32.8157L245.032 24.178L251.261 19.7421L257.414 28.3799L266.745 21.7347L271.419 28.2966L262.089 34.9418Z" fill="#1C495E"/>
<path d="M318.879 145.775C318.221 145.164 317.944 144.514 318.048 143.826C318.164 143.132 318.614 142.551 319.397 142.085C320.191 141.611 321.05 141.412 321.975 141.487C322.911 141.555 323.707 141.895 324.365 142.506C325.014 143.109 325.286 143.755 325.181 144.442C325.067 145.121 324.608 145.701 323.802 146.181C323.008 146.654 322.153 146.857 321.238 146.792C320.314 146.717 319.527 146.378 318.879 145.775ZM307.163 134.884C306.505 134.272 306.229 133.622 306.333 132.935C306.449 132.24 306.898 131.66 307.681 131.193C308.475 130.72 309.335 130.521 310.259 130.595C311.195 130.663 311.992 131.003 312.65 131.615C313.299 132.218 313.571 132.863 313.466 133.551C313.352 134.23 312.892 134.809 312.087 135.289C311.293 135.762 310.438 135.966 309.523 135.9C308.598 135.825 307.812 135.487 307.163 134.884Z" fill="#3D5063"/>
<path d="M34.859 157.329C34.201 156.718 33.9242 156.068 34.0287 155.38C34.1444 154.686 34.5937 154.105 35.3768 153.639C36.171 153.165 37.0304 152.966 37.955 153.041C38.8908 153.109 39.6877 153.449 40.3458 154.06C40.9942 154.663 41.2662 155.309 41.1617 155.996C41.0477 156.675 40.588 157.255 39.7826 157.734C38.9884 158.208 38.1337 158.411 37.2186 158.346C36.294 158.271 35.5075 157.932 34.859 157.329ZM23.1435 146.438C22.4855 145.826 22.2087 145.176 22.3132 144.489C22.4289 143.794 22.8782 143.214 23.6612 142.747C24.4555 142.274 25.3149 142.075 26.2395 142.149C27.1753 142.217 27.9722 142.557 28.6302 143.169C29.2787 143.772 29.5507 144.417 29.4462 145.105C29.3322 145.784 28.8725 146.363 28.0671 146.843C27.2729 147.316 26.4182 147.52 25.5031 147.454C24.5785 147.379 23.7919 147.041 23.1435 146.438Z" fill="#3D5063"/>
<path d="M363.431 112.021C364.869 112.197 365.528 111.299 364.709 110.074L358.2 98.9011L347.661 98.0324L349.362 101.026C349.539 101.38 349.314 101.761 348.912 101.789L342.357 101.137C342.204 101.178 342.068 100.974 341.972 100.919L339.997 97.517L331.699 96.7703L339.068 109.318C339.108 109.467 339.3 109.576 339.453 109.535L363.431 112.021Z" fill="#1C495E"/>
<path d="M360.989 99.1679C361.238 99.1815 361.406 98.8957 361.326 98.5964L357.964 92.7596C357.924 92.6099 357.828 92.5555 357.675 92.5964L354.342 92.3659L358.154 98.9646L360.989 99.1679Z" fill="#1C495E"/>
<path d="M358.153 98.9446L354.341 92.3438L343.801 91.4754L347.614 98.0762L358.153 98.9446Z" fill="#1C495E"/>
<path d="M354.292 92.3415L346.338 78.8284C345.848 77.9166 344.499 77.1548 343.463 76.9508L335.719 76.136C335.374 76.068 334.996 76.49 335.269 76.8983L343.753 91.4728L354.292 92.3415Z" fill="#1C495E"/>
<path d="M347.614 98.0298L343.802 91.4295L336.138 90.9142L339.911 97.3649L347.614 98.0298Z" fill="#1C495E"/>
<path d="M339.911 97.3267L336.139 90.8759L327.841 90.1294L331.653 96.7299L339.911 97.3267Z" fill="#1C495E"/>
<path d="M330.457 108.544C330.802 108.612 331.18 108.19 330.907 107.782L323.989 95.9974L317.474 95.4954L323.807 106.313C324.296 107.225 325.589 108.082 326.682 108.191L330.457 108.544Z" fill="#1C495E"/>
<path d="M336.079 90.8558L327.106 75.3702C327.066 75.2205 326.873 75.1117 326.72 75.1525L306.768 73.034C305.33 72.8574 304.671 73.7557 305.434 75.0757L313.604 89.0916L320.119 89.5937L316.796 83.9057C316.619 83.5519 316.844 83.1708 317.246 83.1434L323.8 83.7952C323.953 83.7543 324.089 83.9585 324.186 84.0129L327.782 90.1091L336.079 90.8558Z" fill="#1C495E"/>
<path d="M331.649 96.6945L327.837 90.0942L320.23 89.4837L323.946 96.0296L331.649 96.6945Z" fill="#1C495E"/>
<path d="M323.946 96.0004L320.23 89.4545L313.716 88.9526L317.584 95.4576L323.946 96.0004Z" fill="#1C495E"/>
<path d="M313.901 95.137L317.483 95.381L313.712 88.9319L310.876 88.7286C310.627 88.715 310.459 89.0008 310.539 89.3002L313.612 94.9738C313.708 95.0282 313.805 95.0826 313.901 95.137Z" fill="#1C495E"/>
<path d="M79.4201 243.467C80.8579 243.643 81.5171 242.745 80.6983 241.52L74.1887 230.347L63.6496 229.479L65.3512 232.473C65.5277 232.826 65.3026 233.208 64.9009 233.235L58.3461 232.583C58.1935 232.624 58.057 232.42 57.9607 232.365L55.9861 228.963L47.6882 228.217L55.0566 240.764C55.0967 240.913 55.2894 241.022 55.4421 240.981L79.4201 243.467Z" fill="#1C495E"/>
<path d="M76.978 230.614C77.227 230.628 77.3958 230.342 77.3156 230.043L73.9533 224.206C73.9132 224.056 73.8169 224.002 73.6643 224.043L70.3312 223.812L74.1429 230.411L76.978 230.614Z" fill="#1C495E"/>
<path d="M74.1419 230.391L70.3293 223.79L59.7896 222.922L63.6022 229.522L74.1419 230.391Z" fill="#1C495E"/>
<path d="M70.2806 223.788L62.3264 210.275C61.8368 209.363 60.4876 208.601 59.4515 208.397L51.708 207.582C51.3626 207.514 50.9849 207.936 51.2578 208.345L59.7417 222.919L70.2806 223.788Z" fill="#1C495E"/>
<path d="M63.603 229.476L59.7906 222.876L52.1271 222.361L55.8994 228.811L63.603 229.476Z" fill="#1C495E"/>
<path d="M55.9013 228.773L52.1289 222.322L43.8306 221.576L47.6431 228.176L55.9013 228.773Z" fill="#1C495E"/>
<path d="M46.4468 239.99C46.7922 240.058 47.1699 239.636 46.897 239.228L39.9785 227.444L33.4641 226.942L39.7967 237.76C40.2862 238.671 41.5791 239.528 42.6715 239.637L46.4468 239.99Z" fill="#1C495E"/>
<path d="M52.0691 222.302L43.096 206.817C43.0559 206.667 42.8632 206.558 42.7105 206.599L22.7579 204.481C21.3201 204.304 20.661 205.202 21.4235 206.522L29.5941 220.538L36.1085 221.04L32.7857 215.352C32.6091 214.998 32.8342 214.617 33.2359 214.59L39.7904 215.242C39.943 215.201 40.0795 215.405 40.1758 215.459L43.7716 221.555L52.0691 222.302Z" fill="#1C495E"/>
<path d="M47.6395 228.141L43.827 221.541L36.2197 220.93L39.9357 227.476L47.6395 228.141Z" fill="#1C495E"/>
<path d="M39.9363 227.447L36.2203 220.901L29.7055 220.399L33.5742 226.904L39.9363 227.447Z" fill="#1C495E"/>
<path d="M29.8909 226.583L33.473 226.827L29.7014 220.378L26.8662 220.175C26.6173 220.162 26.4484 220.447 26.5286 220.747L29.6019 226.42C29.6982 226.475 29.7945 226.529 29.8909 226.583Z" fill="#1C495E"/>
<g opacity="0.7">
<path d="M77.043 91.1792C77.4763 90.7301 77.3215 90.2708 76.6691 90.2356L70.964 89.5843L67.9413 92.9863L69.4591 93.1755C69.6322 93.2063 69.7119 93.3824 69.6185 93.5277L67.6983 95.6147C67.6738 95.6778 67.5651 95.672 67.5207 95.691L65.7854 95.4901L63.3829 98.1524L69.8048 98.8638C69.8692 98.8888 69.958 98.8506 69.9825 98.7875L77.043 91.1792Z" fill="#3D5063"/>
<path d="M71.7992 88.6945C71.8681 88.6123 71.8084 88.4803 71.6797 88.4304L68.7093 88.0769C68.6449 88.052 68.6005 88.071 68.5761 88.1341L67.6362 89.2212L70.9971 89.6172L71.7992 88.6945Z" fill="#3D5063"/>
<path d="M70.9838 89.6172L67.6218 89.2209L64.5992 92.6232L67.9611 93.0194L70.9838 89.6172Z" fill="#3D5063"/>
<path d="M67.6223 89.2536L60.701 88.4935C60.2461 88.4259 59.6244 88.6931 59.2844 88.9969L56.9999 91.4509C56.8866 91.5522 56.9418 91.7914 57.1593 91.8031L64.5998 92.6558L67.6223 89.2536Z" fill="#3D5063"/>
<path d="M67.9399 93.0185L64.5782 92.6223L62.4224 95.1261L65.7198 95.4973L67.9399 93.0185Z" fill="#3D5063"/>
<path d="M65.7022 95.4987L62.4046 95.1274L60.0022 97.7898L63.3641 98.186L65.7022 95.4987Z" fill="#3D5063"/>
<path d="M67.2991 101.659C67.4124 101.557 67.3573 101.318 67.1398 101.306L61.1086 100.637L59.2529 102.749L64.7848 103.37C65.2397 103.437 65.8813 103.214 66.2013 102.866L67.2991 101.659Z" fill="#3D5063"/>
<path d="M62.3911 95.1722L54.4964 94.2525C54.4321 94.2276 54.3433 94.2657 54.3188 94.3288L48.4255 100.646C47.9922 101.095 48.147 101.555 48.8193 101.634L55.9774 102.449L57.8331 100.338L54.9263 100.009C54.7533 99.9783 54.6736 99.8022 54.767 99.657L56.687 97.5702C56.7115 97.5071 56.8202 97.513 56.8647 97.4939L59.9888 97.8342L62.3911 95.1722Z" fill="#3D5063"/>
<path d="M63.3458 98.1896L59.984 97.7934L57.8083 100.253L61.1257 100.668L63.3458 98.1896Z" fill="#3D5063"/>
<path d="M61.1108 100.666L57.7935 100.251L55.9378 102.363L59.2796 102.715L61.1108 100.666Z" fill="#3D5063"/>
<path d="M58.2144 103.908L59.2232 102.738L55.9265 102.367L55.1244 103.29C55.0555 103.372 55.1153 103.504 55.2439 103.554L58.0812 103.965C58.1256 103.946 58.17 103.927 58.2144 103.908Z" fill="#3D5063"/>
</g>
<g opacity="0.3">
<path d="M259.844 232.951C260.095 232.691 260.005 232.425 259.627 232.405L256.324 232.027L254.574 233.997L255.453 234.107C255.553 234.125 255.599 234.227 255.545 234.311L254.434 235.519C254.419 235.556 254.357 235.552 254.331 235.563L253.326 235.447L251.935 236.988L255.653 237.4C255.691 237.415 255.742 237.393 255.756 237.356L259.844 232.951Z" fill="#F0DEDF"/>
<path d="M256.808 231.512C256.848 231.464 256.813 231.388 256.739 231.359L255.019 231.154C254.982 231.14 254.956 231.151 254.942 231.187L254.398 231.817L256.343 232.046L256.808 231.512Z" fill="#E2CFCF"/>
<path d="M256.336 232.046L254.389 231.816L252.64 233.786L254.586 234.015L256.336 232.046Z" fill="#E2CFCF"/>
<path d="M254.389 231.836L250.382 231.395C250.119 231.356 249.759 231.511 249.562 231.687L248.24 233.108C248.174 233.166 248.206 233.305 248.332 233.312L252.64 233.805L254.389 231.836Z" fill="#F0DEDF"/>
<path d="M254.574 234.016L252.627 233.786L251.379 235.236L253.288 235.451L254.574 234.016Z" fill="#E2CFCF"/>
<path d="M253.278 235.453L251.369 235.238L249.978 236.779L251.925 237.008L253.278 235.453Z" fill="#F0DEDF"/>
<path d="M254.203 239.018C254.268 238.96 254.236 238.821 254.11 238.814L250.619 238.427L249.544 239.649L252.747 240.009C253.01 240.048 253.382 239.919 253.567 239.717L254.203 239.018Z" fill="#F0DEDF"/>
<path d="M251.361 235.261L246.79 234.729C246.753 234.714 246.702 234.736 246.687 234.773L243.276 238.431C243.025 238.691 243.114 238.957 243.504 239.003L247.648 239.475L248.722 238.252L247.039 238.062C246.939 238.044 246.893 237.942 246.947 237.858L248.059 236.65C248.073 236.613 248.136 236.617 248.162 236.606L249.97 236.803L251.361 235.261Z" fill="#F0DEDF"/>
<path d="M251.914 237.01L249.968 236.78L248.708 238.204L250.629 238.445L251.914 237.01Z" fill="#E2CFCF"/>
<path d="M250.62 238.443L248.699 238.203L247.625 239.426L249.56 239.629L250.62 238.443Z" fill="#E2CFCF"/>
<path d="M248.943 240.32L249.527 239.643L247.619 239.429L247.154 239.963C247.115 240.01 247.149 240.087 247.224 240.116L248.866 240.353C248.892 240.342 248.918 240.331 248.943 240.32Z" fill="#E2CFCF"/>
</g>
<g opacity="0.7">
<path d="M349.48 242.042C349.968 242.44 350.419 242.261 350.401 241.621L350.592 236.002L346.913 233.244L346.847 234.74C346.83 234.911 346.658 234.999 346.504 234.916L344.242 233.16C344.177 233.139 344.174 233.033 344.151 232.99L344.212 231.281L341.33 229.086L341.137 235.41C341.117 235.475 341.163 235.559 341.229 235.58L349.48 242.042Z" fill="#3D5063"/>
<path d="M351.613 236.705C351.701 236.768 351.83 236.701 351.87 236.573L351.983 233.644C352.003 233.58 351.98 233.537 351.915 233.517L350.741 232.661L350.616 235.974L351.613 236.705Z" fill="#3D5063"/>
<path d="M350.616 235.983L350.741 232.671L347.063 229.912L346.938 233.224L350.616 235.983Z" fill="#3D5063"/>
<path d="M350.773 232.671L350.974 225.855C351.005 225.406 350.685 224.813 350.351 224.499L347.689 222.407C347.577 222.302 347.341 222.37 347.347 222.584L347.095 229.913L350.773 232.671Z" fill="#3D5063"/>
<path d="M346.942 233.241L347.067 229.928L344.365 227.965L344.26 231.213L346.942 233.241Z" fill="#3D5063"/>
<path d="M344.261 231.229L344.366 227.981L341.484 225.786L341.359 229.098L344.261 231.229Z" fill="#3D5063"/>
<path d="M338.128 233.216C338.24 233.321 338.477 233.253 338.471 233.04L338.653 227.099L336.37 225.407L336.197 230.856C336.166 231.305 336.443 231.92 336.82 232.213L338.128 233.216Z" fill="#3D5063"/>
<path d="M344.395 227.992L344.678 220.214C344.698 220.149 344.652 220.065 344.586 220.044L337.732 214.648C337.243 214.25 336.792 214.428 336.767 215.091L336.529 222.142L338.811 223.834L338.905 220.971C338.922 220.8 339.093 220.712 339.248 220.795L341.51 222.551C341.575 222.571 341.578 222.678 341.601 222.72L341.513 225.797L344.395 227.992Z" fill="#3D5063"/>
<path d="M341.36 229.111L341.485 225.798L338.826 223.813L338.678 227.083L341.36 229.111Z" fill="#3D5063"/>
<path d="M338.679 227.102L338.826 223.832L336.544 222.139L336.462 225.43L338.679 227.102Z" fill="#3D5063"/>
<path d="M335.176 224.478L336.439 225.397L336.544 222.148L335.547 221.417C335.458 221.354 335.33 221.42 335.29 221.549L335.107 224.35C335.13 224.393 335.153 224.435 335.176 224.478Z" fill="#3D5063"/>
</g>
<g opacity="0.4">
<path d="M24.4554 62.0244C24.9437 62.4221 25.3944 62.2438 25.3766 61.6035L25.5676 55.984L21.8893 53.226L21.8224 54.7219C21.8054 54.893 21.6343 54.9812 21.4801 54.8984L19.2182 53.1419C19.1526 53.1216 19.1496 53.0149 19.1267 52.9726L19.1877 51.2632L16.3061 49.0685L16.113 55.3927C16.0931 55.4571 16.1389 55.5418 16.2045 55.562L24.4554 62.0244Z" fill="#F0DEDF"/>
<path d="M26.5889 56.6863C26.6775 56.7489 26.8059 56.6827 26.8457 56.5539L26.9595 53.6254C26.9794 53.561 26.9566 53.5186 26.8909 53.4983L25.7166 52.6418L25.5918 55.955L26.5889 56.6863Z" fill="#E2CFCF"/>
<path d="M25.5926 55.9654L25.7174 52.653L22.0388 49.8945L21.914 53.2069L25.5926 55.9654Z" fill="#E2CFCF"/>
<path d="M25.7491 52.652L25.9502 45.8365C25.9812 45.3875 25.6609 44.7948 25.3267 44.48L22.6649 42.3884C22.5535 42.2835 22.3167 42.3515 22.3226 42.5649L22.0707 49.8939L25.7491 52.652Z" fill="#F0DEDF"/>
<path d="M21.9176 53.2229L22.0424 49.9104L19.3404 47.9473L19.2355 51.1954L21.9176 53.2229Z" fill="#E2CFCF"/>
<path d="M19.2371 51.2102L19.342 47.9621L16.4601 45.7671L16.3353 49.0795L19.2371 51.2102Z" fill="#F0DEDF"/>
<path d="M13.1045 53.1987C13.2159 53.3037 13.4527 53.2357 13.4468 53.0222L13.6286 47.0817L11.3464 45.3893L11.1726 50.8384C11.1417 51.2875 11.4192 51.9023 11.7962 52.1951L13.1045 53.1987Z" fill="#F0DEDF"/>
<path d="M19.3707 47.9732L19.6536 40.195C19.6735 40.1306 19.6277 40.046 19.5621 40.0257L12.7071 34.629C12.2187 34.2313 11.768 34.4096 11.743 35.072L11.505 42.1234L13.787 43.8156L13.881 40.9523C13.898 40.7812 14.0691 40.693 14.2233 40.7758L16.4854 42.5324C16.5511 42.5527 16.554 42.6594 16.5769 42.7017L16.4888 45.7784L19.3707 47.9732Z" fill="#F0DEDF"/>
<path d="M16.3363 49.0934L16.4611 45.7809L13.8019 43.7957L13.6542 47.0659L16.3363 49.0934Z" fill="#E2CFCF"/>
<path d="M13.6542 47.083L13.8019 43.8128L11.5197 42.1204L11.4377 45.4109L13.6542 47.083Z" fill="#E2CFCF"/>
<path d="M10.1517 44.4599L11.4145 45.379L11.5194 42.1303L10.5223 41.399C10.4337 41.3364 10.3054 41.4026 10.2655 41.5314L10.083 44.3329C10.1059 44.3752 10.1288 44.4176 10.1517 44.4599Z" fill="#E2CFCF"/>
</g>
<g opacity="0.3">
<path d="M366.184 50.1541C366.489 49.9155 366.433 49.6204 366.036 49.543L362.591 48.6551L360.441 50.4844L361.356 50.7304C361.46 50.7641 361.493 50.879 361.423 50.9601L360.064 52.0767C360.044 52.1133 359.977 52.1004 359.949 52.1083L358.901 51.8365L357.196 53.2648L361.076 54.2509C361.113 54.2717 361.171 54.2559 361.191 54.2193L366.184 50.1541Z" fill="#F0DEDF"/>
<path d="M363.186 48.1849C363.235 48.1404 363.21 48.0543 363.136 48.0127L361.343 47.5418C361.306 47.521 361.277 47.5289 361.256 47.5655L360.585 48.1521L362.614 48.6824L363.186 48.1849Z" fill="#E2CFCF"/>
<path d="M362.604 48.6784L360.575 48.1477L358.426 49.9769L360.455 50.5076L362.604 48.6784Z" fill="#E2CFCF"/>
<path d="M360.576 48.177L356.394 47.1186C356.121 47.0383 355.716 47.149 355.481 47.3064L353.866 48.6168C353.788 48.6693 353.801 48.8208 353.934 48.8466L358.426 50.0061L360.576 48.177Z" fill="#F0DEDF"/>
<path d="M360.439 50.5085L358.41 49.9778L356.87 51.3298L358.862 51.8396L360.439 50.5085Z" fill="#E2CFCF"/>
<path d="M358.849 51.8431L356.857 51.3332L355.152 52.7614L357.181 53.2921L358.849 51.8431Z" fill="#F0DEDF"/>
<path d="M359.289 55.7583C359.367 55.7058 359.354 55.5543 359.221 55.5285L355.578 54.6022L354.256 55.7393L357.597 56.5933C357.871 56.6736 358.284 56.5916 358.51 56.4055L359.289 55.7583Z" fill="#F0DEDF"/>
<path d="M356.848 51.366L352.082 50.1263C352.045 50.1055 351.987 50.1213 351.966 50.1579L347.802 53.5306C347.497 53.7691 347.552 54.0642 347.958 54.1703L352.281 55.2832L353.603 54.146L351.847 53.6957C351.744 53.662 351.71 53.5471 351.78 53.466L353.139 52.3497C353.16 52.313 353.226 52.3259 353.255 52.318L355.143 52.7941L356.848 51.366Z" fill="#F0DEDF"/>
<path d="M357.169 53.2929L355.14 52.7623L353.592 54.0856L355.592 54.6241L357.169 53.2929Z" fill="#E2CFCF"/>
<path d="M355.58 54.6279L353.58 54.0893L352.258 55.2265L354.279 55.7284L355.58 54.6279Z" fill="#E2CFCF"/>
<path d="M353.523 56.3637L354.243 55.7326L352.252 55.2231L351.68 55.7207C351.631 55.7652 351.656 55.8513 351.731 55.8929L353.436 56.3874C353.465 56.3795 353.494 56.3716 353.523 56.3637Z" fill="#E2CFCF"/>
</g>
<g filter="url(#filter0_d)">
<circle cx="181" cy="129" r="83.5" stroke="url(#paint0_linear)" stroke-width="15"/>
</g>
<defs>
<filter id="filter0_d" x="70" y="27" width="218" height="218" filterUnits="userSpaceOnUse" color-interpolation-filters="sRGB">
<feFlood flood-opacity="0" result="BackgroundImageFix"/>
<feColorMatrix in="SourceAlpha" type="matrix" values="0 0 0 0 0 0 0 0 0 0 0 0 0 0 0 0 0 0 127 0"/>
<feOffset dx="-2" dy="7"/>
<feGaussianBlur stdDeviation="9"/>
<feColorMatrix type="matrix" values="0 0 0 0 0 0 0 0 0 0 0 0 0 0 0 0 0 0 0.25 0"/>
<feBlend mode="normal" in2="BackgroundImageFix" result="effect1_dropShadow"/>
<feBlend mode="normal" in="SourceGraphic" in2="effect1_dropShadow" result="shape"/>
</filter>
<linearGradient id="paint0_linear" x1="181" y1="38" x2="181" y2="220" gradientUnits="userSpaceOnUse">
<stop offset="0.012748" stop-color="#46E6EF"/>
<stop offset="1" stop-color="#3FAAB0"/>
</linearGradient>
</defs>
</svg>
