<svg width="1280" height="1007" viewBox="0 0 1280 1007" fill="none" xmlns="http://www.w3.org/2000/svg">
<g clip-path="url(#clip0)">
<rect width="1280" height="1007" fill="#0A1C29"/>
<g opacity="0.2">
<path d="M1161.08 809.593L1054.91 650.741C1052.36 646.835 1046.49 643.606 1041.71 643.474L850.699 634.473C845.92 634.342 844.306 637.275 846.86 641.181L952.816 799.621C955.371 803.526 961.237 806.756 966.016 806.888L1157.03 815.888C1162.02 816.432 1163.64 813.499 1161.08 809.593Z" fill="#33428F"/>
<path d="M1162.97 812.768L1266.29 640.917C1268.57 636.62 1269.6 629.739 1267.52 625.431L1190.14 444.321C1188.06 440.014 1184.57 439.575 1182.29 443.872L1078.97 615.722C1076.69 620.019 1075.66 626.901 1077.74 631.209L1155.12 812.319C1156.76 816.84 1160.69 817.065 1162.97 812.768Z" fill="#1D4775"/>
<path d="M1138.51 483.469C1140.66 484.365 1140.84 486.155 1138.69 487.228L1120.43 497.781L1105.04 490.614L1109.87 487.752C1110.41 487.395 1110.41 486.679 1109.87 486.32L1100.21 482.02C1100.03 481.841 1099.67 482.02 1099.49 482.02L1093.94 485.24L1081.77 479.685L1102.36 467.88C1102.54 467.702 1102.9 467.702 1103.08 467.881L1138.51 483.469Z" fill="#305A87"/>
<path d="M1124.55 499.753C1124.91 499.932 1124.91 500.469 1124.55 500.827L1115.06 506.372C1114.88 506.55 1114.7 506.55 1114.52 506.371L1109.69 504.042L1120.43 497.782L1124.55 499.753Z" fill="#305A87"/>
<path d="M1120.43 497.779L1109.69 504.039L1094.3 496.872L1105.04 490.612L1120.43 497.779Z" fill="#305A87"/>
<path d="M1109.69 504.049L1087.49 516.748C1086.06 517.643 1083.55 517.642 1081.94 517.104L1070.49 512.087C1069.95 511.908 1069.77 511.013 1070.49 510.655L1094.3 496.883L1109.69 504.049Z" fill="#305A87"/>
<path d="M1105.04 490.618L1094.3 496.879L1083.2 491.504L1093.77 485.423L1105.04 490.618Z" fill="#305A87"/>
<path d="M1093.77 485.419L1083.2 491.501L1071.03 485.947L1081.77 479.686L1093.77 485.419Z" fill="#305A87"/>
<path d="M1089.84 461.975C1090.38 462.154 1090.55 463.049 1089.84 463.407L1070.5 474.496L1061.02 470.017L1078.74 459.822C1080.17 458.928 1082.68 458.75 1084.29 459.466L1089.84 461.975Z" fill="#305A87"/>
<path d="M1083.2 491.496L1057.96 506.163C1057.78 506.341 1057.42 506.341 1057.24 506.162L1027.71 493.262C1025.57 492.366 1025.39 490.576 1027.54 489.324L1050.45 476.088L1059.94 480.567L1050.63 485.933C1050.09 486.29 1050.09 487.006 1050.63 487.365L1060.29 491.665C1060.47 491.844 1060.83 491.665 1061.01 491.665L1071.03 485.941L1083.2 491.496Z" fill="#305A87"/>
<path d="M1081.77 479.689L1071.03 485.949L1059.93 480.753L1070.5 474.493L1081.77 479.689Z" fill="#305A87"/>
<path d="M1070.5 474.492L1059.94 480.752L1050.45 476.273L1061.19 470.192L1070.5 474.492Z" fill="#305A87"/>
<path d="M1055.83 467.683L1061.02 470.191L1050.45 476.272L1046.34 474.302C1045.98 474.123 1045.98 473.586 1046.34 473.228L1055.29 467.683C1055.47 467.683 1055.65 467.683 1055.83 467.683Z" fill="#305A87"/>
<path d="M1035.19 528.547C1038.43 528.127 1039.91 530.177 1038.05 532.989L1023.27 558.636L999.543 560.739L1003.41 553.867C1003.81 553.055 1003.3 552.185 1002.4 552.127L987.64 553.69C987.297 553.598 986.987 554.066 986.77 554.192L982.288 562.002L963.602 563.801L980.326 534.998C980.418 534.655 980.853 534.404 981.196 534.495L1035.19 528.547Z" fill="#305A87"/>
<path d="M1029.65 558.142C1030.22 558.108 1030.59 558.761 1030.41 559.447L1022.77 572.848C1022.68 573.191 1022.46 573.317 1022.12 573.225L1014.62 573.789L1023.27 558.639L1029.65 558.142Z" fill="#305A87"/>
<path d="M1023.27 558.631L1014.61 573.781L990.881 575.884L999.536 560.733L1023.27 558.631Z" fill="#305A87"/>
<path d="M1014.62 573.793L996.565 604.814C995.453 606.907 992.408 608.665 990.073 609.143L972.634 611.092C971.856 611.252 971.011 610.29 971.629 609.352L990.887 575.896L1014.62 573.793Z" fill="#305A87"/>
<path d="M999.54 560.744L990.885 575.895L973.63 577.157L982.193 562.35L999.54 560.744Z" fill="#305A87"/>
<path d="M982.198 562.351L973.635 577.158L954.949 578.957L963.604 563.807L982.198 562.351Z" fill="#305A87"/>
<path d="M960.949 536.616C961.727 536.457 962.573 537.419 961.954 538.356L946.25 565.41L931.581 566.629L945.955 541.794C947.067 539.702 949.987 537.725 952.447 537.465L960.949 536.616Z" fill="#305A87"/>
<path d="M973.625 577.142L953.256 612.691C953.164 613.035 952.729 613.286 952.385 613.194L907.45 618.26C904.211 618.68 902.738 616.63 904.469 613.6L923.015 581.424L937.684 580.204L930.142 593.262C929.741 594.074 930.243 594.944 931.147 595.002L945.908 593.439C946.251 593.531 946.561 593.062 946.778 592.937L954.939 578.941L973.625 577.142Z" fill="#305A87"/>
<path d="M963.599 563.809L954.944 578.959L937.815 580.439L946.252 565.415L963.599 563.809Z" fill="#305A87"/>
<path d="M946.256 565.411L937.819 580.436L923.15 581.655L931.93 566.723L946.256 565.411Z" fill="#305A87"/>
<path d="M923.636 567.442L931.703 566.844L923.14 581.651L916.756 582.148C916.195 582.182 915.818 581.529 916.002 580.843L922.984 567.819C923.201 567.693 923.419 567.567 923.636 567.442Z" fill="#305A87"/>
<path d="M952.673 503.404C954.278 505.089 953.719 506.799 951.321 506.915L930.354 509.213L919.157 496.452L924.735 495.781C925.37 495.67 925.659 495.015 925.312 494.47L918.201 486.64C918.109 486.404 917.71 486.424 917.546 486.351L911.169 487.061L902.27 477.073L925.871 474.568C926.107 474.476 926.435 474.621 926.526 474.857L952.673 503.404Z" fill="#305A87"/>
<path d="M933.323 512.676C933.579 512.984 933.362 513.476 932.89 513.659L921.971 514.909C921.735 515 921.571 514.928 921.48 514.692L917.996 510.613L930.351 509.213L933.323 512.676Z" fill="#305A87"/>
<path d="M930.356 509.21L918.002 510.61L906.805 497.849L919.159 496.449L930.356 509.21Z" fill="#305A87"/>
<path d="M917.999 510.623L892.562 513.298C890.891 513.539 888.598 512.528 887.341 511.387L878.88 502.18C878.461 501.799 878.658 500.908 879.458 500.869L906.802 497.862L917.999 510.623Z" fill="#305A87"/>
<path d="M919.157 496.457L906.803 497.857L898.814 488.466L910.933 487.158L919.157 496.457Z" fill="#305A87"/>
<path d="M910.931 487.155L898.813 488.463L889.914 478.476L902.269 477.076L910.931 487.155Z" fill="#305A87"/>
<path d="M916.786 464.108C917.205 464.489 917.008 465.38 916.208 465.419L894.042 467.775L887.167 459.853L907.498 457.666C909.169 457.425 911.534 458.272 912.719 459.577L916.786 464.108Z" fill="#305A87"/>
<path d="M898.815 488.451L869.8 491.7C869.564 491.791 869.237 491.647 869.145 491.411L847.32 467.704C845.715 466.018 846.274 464.308 848.745 464.028L875.053 461.151L881.928 469.073L871.245 470.231C870.609 470.342 870.32 470.997 870.667 471.542L877.779 479.372C877.87 479.608 878.27 479.588 878.434 479.661L889.916 478.463L898.815 488.451Z" fill="#305A87"/>
<path d="M902.267 477.072L889.912 478.472L881.852 469.245L894.042 467.773L902.267 477.072Z" fill="#305A87"/>
<path d="M894.045 467.779L881.854 469.251L874.978 461.329L887.261 460.093L894.045 467.779Z" fill="#305A87"/>
<path d="M883.358 455.626L887.097 460.013L874.978 461.321L872.006 457.859C871.75 457.551 871.967 457.059 872.439 456.876L882.867 455.409C883.03 455.481 883.194 455.554 883.358 455.626Z" fill="#305A87"/>
<path d="M1034.79 359.908C1036.58 358.426 1038.25 359.103 1038.19 361.504L1039.01 382.581L1025.49 392.852L1025.21 387.241C1025.15 386.599 1024.52 386.265 1023.95 386.572L1015.64 393.115C1015.4 393.19 1015.39 393.59 1015.3 393.748L1015.56 400.16L1004.97 408.333L1004.13 384.614C1004.06 384.372 1004.23 384.056 1004.47 383.981L1034.79 359.908Z" fill="#4D6BB7" fill-opacity="0.6"/>
<path d="M1042.67 379.859C1042.99 379.626 1043.47 379.876 1043.62 380.36L1044.1 391.34C1044.17 391.582 1044.09 391.74 1043.85 391.815L1039.53 395.003L1039.01 382.58L1042.67 379.859Z" fill="#4D6BB7" fill-opacity="0.6"/>
<path d="M1039.01 382.581L1039.53 395.003L1026.02 405.274L1025.49 392.852L1039.01 382.581Z" fill="#4D6BB7" fill-opacity="0.6"/>
<path d="M1039.54 395.007L1040.42 420.568C1040.54 422.252 1039.37 424.469 1038.15 425.643L1028.37 433.434C1027.96 433.825 1027.08 433.566 1027.1 432.765L1026.02 405.278L1039.54 395.007Z" fill="#4D6BB7" fill-opacity="0.6"/>
<path d="M1025.5 392.856L1026.02 405.278L1016.09 412.586L1015.64 400.406L1025.5 392.856Z" fill="#4D6BB7" fill-opacity="0.6"/>
<path d="M1015.64 400.407L1016.09 412.588L1005.51 420.761L1004.98 408.339L1015.64 400.407Z" fill="#4D6BB7" fill-opacity="0.6"/>
<path d="M993.062 392.943C993.471 392.552 994.346 392.811 994.328 393.611L995.118 415.888L986.732 422.189L985.982 401.755C985.859 400.07 986.87 397.771 988.255 396.68L993.062 392.943Z" fill="#4D6BB7" fill-opacity="0.6"/>
<path d="M1016.09 412.584L1017.28 441.756C1017.36 441.998 1017.19 442.314 1016.95 442.389L991.765 462.492C989.971 463.974 988.304 463.296 988.199 460.812L987.181 434.367L995.567 428.066L995.97 438.804C996.036 439.446 996.67 439.78 997.237 439.472L1005.55 432.93C1005.79 432.855 1005.8 432.455 1005.88 432.297L1005.5 420.758L1016.09 412.584Z" fill="#4D6BB7" fill-opacity="0.6"/>
<path d="M1004.98 408.341L1005.51 420.764L995.734 428.155L995.123 415.891L1004.98 408.341Z" fill="#4D6BB7" fill-opacity="0.6"/>
<path d="M995.117 415.883L995.727 428.147L987.341 434.447L986.973 422.109L995.117 415.883Z" fill="#4D6BB7" fill-opacity="0.6"/>
<path d="M982.247 425.688L986.887 422.267L987.339 434.448L983.676 437.17C983.35 437.403 982.875 437.152 982.726 436.668L981.997 426.163C982.08 426.005 982.164 425.847 982.247 425.688Z" fill="#4D6BB7" fill-opacity="0.6"/>
<path d="M926.111 401.206C927.24 402.101 927.045 403.198 925.584 403.476L912.924 406.689L904.959 399.826L908.322 398.935C908.702 398.812 908.823 398.385 908.564 398.082L903.529 393.892C903.452 393.755 903.209 393.801 903.102 393.771L899.253 394.755L892.936 389.396L907.194 385.828C907.331 385.752 907.544 385.812 907.62 385.949L926.111 401.206Z" fill="#305A87"/>
<path d="M915.036 408.546C915.219 408.713 915.128 409.033 914.855 409.186L908.266 410.892C908.129 410.969 908.023 410.939 907.946 410.802L905.459 408.6L912.915 406.679L915.036 408.546Z" fill="#305A87"/>
<path d="M912.921 406.689L905.465 408.61L897.5 401.748L904.956 399.826L912.921 406.689Z" fill="#305A87"/>
<path d="M905.464 408.611L890.096 412.44C889.091 412.731 887.598 412.309 886.729 411.717L880.748 406.799C880.459 406.601 880.503 406.038 880.99 405.945L897.5 401.748L905.464 408.611Z" fill="#305A87"/>
<path d="M904.955 399.828L897.499 401.749L891.792 396.678L899.111 394.833L904.955 399.828Z" fill="#305A87"/>
<path d="M899.11 394.828L891.791 396.673L885.475 391.314L892.93 389.392L899.11 394.828Z" fill="#305A87"/>
<path d="M900.713 380.184C901.003 380.382 900.959 380.945 900.472 381.038L887.081 384.39L882.183 380.123L894.463 377.033C895.467 376.741 896.99 377.057 897.83 377.755L900.713 380.184Z" fill="#305A87"/>
<path d="M891.792 396.669L874.278 401.158C874.141 401.234 873.928 401.174 873.851 401.037L858.427 388.377C857.298 387.481 857.494 386.384 858.985 386L874.871 381.972L879.768 386.238L873.317 387.868C872.936 387.991 872.816 388.418 873.075 388.721L878.11 392.911C878.186 393.048 878.43 393.002 878.537 393.032L885.475 391.31L891.792 396.669Z" fill="#305A87"/>
<path d="M892.931 389.39L885.475 391.312L879.738 386.347L887.088 384.395L892.931 389.39Z" fill="#305A87"/>
<path d="M887.086 384.389L879.737 386.341L874.839 382.074L882.264 380.26L887.086 384.389Z" fill="#305A87"/>
<path d="M879.496 377.874L882.167 380.243L874.847 382.088L872.727 380.22C872.543 380.053 872.634 379.733 872.908 379.58L879.176 377.783C879.283 377.814 879.39 377.844 879.496 377.874Z" fill="#305A87"/>
</g>
<path d="M-140.532 370.555L-219.946 386.036L-271.309 335.854L-242.808 270.628L-240.517 271.231L-268.516 335.31L-218.944 383.74L-140.927 368.531L-140.532 370.555Z" fill="#2D617A"/>
<path d="M-95.1518 597.764L-97.4434 597.159L-69.1901 532.507L-66.9019 533.109L-95.1518 597.764Z" fill="#2D617A"/>
<path d="M-10.9386 404.435L-91.0523 420.052L-142.416 369.87L-113.662 304.072L-33.5486 288.454L17.8118 338.635L-10.9386 404.435ZM-90.0518 417.76L-12.7317 402.687L15.0186 339.181L-34.5532 290.751L-111.873 305.825L-139.622 369.328L-90.0518 417.76Z" fill="#2D617A"/>
<path d="M11.2776 518.395L-68.8362 534.013L-119.751 484.27L-117.854 482.851L-67.836 531.719L9.48403 516.645L37.2343 453.139L-12.7834 404.272L-10.8869 402.85L40.0279 452.595L11.2776 518.395Z" fill="#2D617A"/>
<path d="M-117.617 484.377L-197.73 499.995L-249.094 449.812L-220.341 384.012L-140.927 368.531L-140.532 370.555L-218.549 385.764L-246.3 449.268L-196.728 497.7L-119.408 482.627L-91.4063 418.547L-89.1172 419.153L-117.617 484.377Z" fill="#2D617A"/>
<path d="M118.329 437.857L116.038 437.254L144.036 373.173L94.4646 324.743L16.4474 339.952L16.0527 337.928L95.4692 322.446L146.83 372.629L118.329 437.857Z" fill="#2D617A"/>
<path d="M96.1127 323.897L93.8212 323.292L122.072 258.643L124.363 259.244L96.1127 323.897Z" fill="#2D617A"/>
<path d="M279.753 345.668L145.236 371.892L145.63 373.912L280.147 347.689L279.753 345.668Z" fill="#2D617A"/>
<path d="M-247.894 448.531L-436.414 485.282L-436.02 487.303L-247.5 450.551L-247.894 448.531Z" fill="#2D617A"/>
<path d="M-117.873 486.787C-115.702 486.364 -114.229 484.55 -114.583 482.736C-114.937 480.921 -116.983 479.793 -119.154 480.217C-121.325 480.64 -122.798 482.454 -122.444 484.268C-122.09 486.083 -120.044 487.21 -117.873 486.787Z" fill="#2D617A"/>
<path d="M-196.59 502.133C-194.419 501.71 -192.946 499.896 -193.3 498.081C-193.654 496.267 -195.7 495.139 -197.871 495.562C-200.042 495.985 -201.515 497.799 -201.161 499.614C-200.807 501.428 -198.761 502.556 -196.59 502.133Z" fill="#2D617A"/>
<path d="M-95.6573 600.745C-93.4866 600.322 -92.0136 598.508 -92.3673 596.694C-92.721 594.879 -94.7675 593.752 -96.9382 594.175C-99.109 594.598 -100.582 596.412 -100.228 598.226C-99.8746 600.041 -97.8281 601.168 -95.6573 600.745Z" fill="#2D617A"/>
<path d="M-89.6227 422.134C-87.4519 421.711 -85.9789 419.897 -86.3326 418.083C-86.6863 416.268 -88.7328 415.141 -90.9036 415.564C-93.0743 415.987 -94.5473 417.801 -94.1936 419.615C-93.8399 421.43 -91.7934 422.557 -89.6227 422.134Z" fill="#2D617A"/>
<path d="M-67.4066 536.094C-65.2358 535.671 -63.7628 533.857 -64.1165 532.043C-64.4702 530.229 -66.5167 529.101 -68.6874 529.524C-70.8582 529.947 -72.3312 531.761 -71.9775 533.575C-71.6238 535.39 -69.5773 536.518 -67.4066 536.094Z" fill="#2D617A"/>
<path d="M-10.556 406.721C-8.38528 406.297 -6.91225 404.483 -7.26595 402.669C-7.61966 400.855 -9.66617 399.727 -11.8369 400.15C-14.0077 400.573 -15.4806 402.387 -15.1269 404.202C-14.7732 406.016 -12.7268 407.144 -10.556 406.721Z" fill="#2D617A"/>
<path d="M-32.7718 292.762C-30.601 292.339 -29.128 290.525 -29.4817 288.711C-29.8354 286.896 -31.8819 285.769 -34.0526 286.192C-36.2234 286.615 -37.6963 288.429 -37.3426 290.243C-36.9889 292.058 -34.9425 293.186 -32.7718 292.762Z" fill="#2D617A"/>
<path d="M-112.127 308.232C-109.957 307.809 -108.484 305.995 -108.837 304.181C-109.191 302.367 -111.238 301.239 -113.408 301.662C-115.579 302.085 -117.052 303.899 -116.698 305.713C-116.345 307.528 -114.298 308.656 -112.127 308.232Z" fill="#2D617A"/>
<path d="M146.074 376.186C148.244 375.763 149.717 373.949 149.364 372.135C149.01 370.32 146.964 369.192 144.793 369.616C142.622 370.039 141.149 371.853 141.503 373.667C141.856 375.482 143.903 376.609 146.074 376.186Z" fill="#2D617A"/>
<path d="M280.59 349.963C282.761 349.54 284.234 347.726 283.88 345.911C283.526 344.097 281.48 342.969 279.309 343.392C277.138 343.815 275.665 345.629 276.019 347.444C276.373 349.258 278.419 350.386 280.59 349.963Z" fill="#2D617A"/>
<path d="M-247.056 452.825C-244.886 452.402 -243.413 450.588 -243.766 448.774C-244.12 446.96 -246.167 445.832 -248.337 446.255C-250.508 446.678 -251.981 448.492 -251.627 450.306C-251.274 452.121 -249.227 453.249 -247.056 452.825Z" fill="#2D617A"/>
<path d="M-140.089 372.829C-137.918 372.406 -136.445 370.592 -136.799 368.778C-137.152 366.963 -139.199 365.835 -141.37 366.259C-143.54 366.682 -145.013 368.496 -144.66 370.31C-144.306 372.124 -142.26 373.252 -140.089 372.829Z" fill="#2D617A"/>
<path d="M-218.806 388.175C-216.635 387.751 -215.162 385.937 -215.516 384.123C-215.869 382.309 -217.916 381.181 -220.087 381.604C-222.257 382.027 -223.73 383.841 -223.377 385.656C-223.023 387.47 -220.976 388.598 -218.806 388.175Z" fill="#2D617A"/>
<path d="M95.4837 326.905C97.6544 326.482 99.1274 324.668 98.7737 322.854C98.42 321.039 96.3735 319.911 94.2028 320.335C92.032 320.758 90.559 322.572 90.9127 324.386C91.2665 326.2 93.3129 327.328 95.4837 326.905Z" fill="#2D617A"/>
<path d="M123.858 262.228C126.029 261.805 127.502 259.991 127.148 258.177C126.794 256.362 124.748 255.234 122.577 255.658C120.406 256.081 118.933 257.895 119.287 259.709C119.641 261.523 121.687 262.651 123.858 262.228Z" fill="#2D617A"/>
<path d="M16.7668 342.251C18.9375 341.827 20.4106 340.014 20.0569 338.199C19.7032 336.385 17.6567 335.257 15.4859 335.68C13.3151 336.103 11.8422 337.917 12.1959 339.732C12.5496 341.546 14.596 342.674 16.7668 342.251Z" fill="#2D617A"/>
<path d="M11.6601 520.681C13.8308 520.258 15.3039 518.444 14.9502 516.629C14.5964 514.815 12.5499 513.687 10.3792 514.11C8.20844 514.533 6.73549 516.347 7.0892 518.162C7.44291 519.976 9.48932 521.104 11.6601 520.681Z" fill="#2D617A"/>
<path d="M38.9825 456.209C41.1533 455.786 42.6263 453.972 42.2726 452.157C41.9189 450.343 39.8724 449.215 37.7016 449.638C35.5309 450.061 34.0579 451.875 34.4116 453.69C34.7653 455.504 36.8118 456.632 38.9825 456.209Z" fill="#2D617A"/>
<path d="M117.699 440.863C119.87 440.44 121.343 438.626 120.989 436.812C120.636 434.997 118.589 433.87 116.418 434.293C114.248 434.716 112.775 436.53 113.128 438.344C113.482 440.159 115.529 441.286 117.699 440.863Z" fill="#2D617A"/>
<path d="M-269.272 338.867C-267.101 338.444 -265.628 336.63 -265.982 334.816C-266.336 333.001 -268.382 331.874 -270.553 332.297C-272.724 332.72 -274.197 334.534 -273.843 336.348C-273.489 338.163 -271.443 339.29 -269.272 338.867Z" fill="#2D617A"/>
<path d="M-240.84 275.146C-238.669 274.723 -237.196 272.909 -237.55 271.095C-237.904 269.28 -239.95 268.153 -242.121 268.576C-244.292 268.999 -245.765 270.813 -245.411 272.627C-245.057 274.442 -243.011 275.57 -240.84 275.146Z" fill="#2D617A"/>
<path d="M411.53 564.321L348.268 576.654L307.71 537.028L330.414 485.069L393.676 472.736L434.234 512.363L411.53 564.321ZM349.3 574.29L409.686 562.518L431.358 512.923L392.644 475.1L332.258 486.872L310.586 536.467L349.3 574.29Z" fill="#2D617A"/>
<path d="M141.692 663.238L79.1495 675.43L38.5881 635.8L61.0347 584.436L63.397 585.054L41.4668 635.239L80.181 673.064L141.286 661.152L141.692 663.238Z" fill="#2D617A"/>
<path d="M243.643 689.812L180.381 702.145L139.823 662.519L162.527 610.56L225.789 598.227L266.347 637.853L243.643 689.812ZM181.413 699.783L241.799 688.011L263.471 638.416L224.757 600.593L164.371 612.365L142.699 661.96L181.413 699.783Z" fill="#2D617A"/>
<path d="M281.378 728.37L241.744 689.643L243.698 688.181L283.334 726.907L281.378 728.37Z" fill="#2D617A"/>
<path d="M345.233 715.922L342.87 715.301L364.8 665.114L325.134 626.393L327.086 624.931L367.678 664.553L345.233 715.922Z" fill="#2D617A"/>
<path d="M327.492 627.017L325.134 626.393L347.609 575.02L349.97 575.642L327.492 627.017Z" fill="#2D617A"/>
<path d="M432.559 650.823L366.037 663.791L366.443 665.873L432.965 652.904L432.559 650.823Z" fill="#2D617A"/>
<path d="M8.62509 537.138L47.3986 575.022L25.6939 624.695L-34.7843 636.485L-73.5554 598.601L-51.8531 548.928L8.62509 537.138ZM9.74244 534.579L-53.8525 546.977L-76.6745 599.209L-35.9049 639.041L27.69 626.643L50.5152 574.414L9.74244 534.579Z" fill="#2D617A"/>
<path d="M39.6744 638.98C41.9109 638.544 43.4285 636.675 43.0641 634.806C42.6997 632.936 40.5912 631.774 38.3547 632.21C36.1182 632.646 34.6006 634.515 34.965 636.384C35.3294 638.254 37.4379 639.416 39.6744 638.98Z" fill="#2D617A"/>
<path d="M62.3447 588.374C64.5811 587.938 66.0988 586.07 65.7344 584.2C65.37 582.331 63.2615 581.169 61.025 581.605C58.7885 582.041 57.2709 583.91 57.6353 585.779C57.9997 587.648 60.1082 588.81 62.3447 588.374Z" fill="#2D617A"/>
<path d="M164.933 614.561C167.169 614.125 168.687 612.256 168.323 610.387C167.958 608.518 165.85 607.356 163.613 607.792C161.377 608.228 159.859 610.096 160.224 611.966C160.588 613.835 162.696 614.997 164.933 614.561Z" fill="#2D617A"/>
<path d="M349.426 578.595C351.662 578.159 353.18 576.29 352.816 574.421C352.451 572.551 350.343 571.389 348.106 571.825C345.87 572.261 344.352 574.13 344.717 576C345.081 577.869 347.189 579.031 349.426 578.595Z" fill="#2D617A"/>
<path d="M283.255 732.246C285.492 731.81 287.01 729.942 286.645 728.072C286.281 726.203 284.172 725.041 281.936 725.477C279.699 725.913 278.182 727.782 278.546 729.651C278.911 731.52 281.019 732.682 283.255 732.246Z" fill="#2D617A"/>
<path d="M181.557 704.35C183.793 703.914 185.311 702.045 184.947 700.176C184.582 698.306 182.474 697.144 180.237 697.58C178.001 698.016 176.483 699.885 176.847 701.754C177.212 703.624 179.32 704.786 181.557 704.35Z" fill="#2D617A"/>
<path d="M429.373 656.039C431.609 655.603 433.127 653.734 432.762 651.865C432.398 649.995 430.289 648.834 428.053 649.27C425.816 649.706 424.299 651.574 424.663 653.444C425.028 655.313 427.136 656.475 429.373 656.039Z" fill="#2D617A"/>
<path d="M366.898 668.218C369.134 667.782 370.652 665.913 370.287 664.044C369.923 662.175 367.814 661.013 365.578 661.449C363.341 661.885 361.824 663.754 362.188 665.623C362.553 667.492 364.661 668.654 366.898 668.218Z" fill="#2D617A"/>
<path d="M108.826 464.754L146.401 501.47L125.368 549.606L66.7577 561.032L29.1811 524.321L50.2161 476.18L108.826 464.754ZM109.943 462.193L48.2164 474.226L26.0639 524.927L65.6375 563.59L127.364 551.556L149.518 500.86L109.943 462.193Z" fill="#2D617A"/>
<path d="M-129.455 499.876L-91.8798 536.591L-112.913 584.73L-171.523 596.156L-209.1 559.443L-188.065 511.302L-129.455 499.876ZM-128.337 497.317L-190.064 509.35L-212.217 560.05L-172.643 598.715L-110.916 586.682L-88.7607 535.983L-128.337 497.317Z" fill="#2D617A"/>
</g>
<defs>
<clipPath id="clip0">
<rect width="1280" height="1007" fill="white"/>
</clipPath>
</defs>
</svg>
