<svg width="375" height="257" viewBox="0 0 375 257" fill="none" xmlns="http://www.w3.org/2000/svg">
<rect width="375" height="257" fill="#05243B"/>
<path d="M90.7763 203.994L96.0544 208.669L92.6309 212.446L87.3528 207.771L82.0012 213.675L77.9805 210.114L83.3321 204.21L78.0394 199.522L81.4628 195.745L86.7555 200.433L91.8841 194.774L95.9049 198.335L90.7763 203.994Z" fill="#1C495E"/>
<path d="M265.283 34.7885L271.466 43.3692L265.214 47.7714L259.031 39.1907L249.258 46.0725L244.548 39.5359L254.321 32.6542L248.122 24.0497L254.374 19.6475L260.574 28.2519L269.94 21.6569L274.65 28.1935L265.283 34.7885Z" fill="#1C495E"/>
<path d="M322.401 145.619C321.74 145.011 321.461 144.365 321.565 143.682C321.68 142.993 322.13 142.417 322.916 141.954C323.712 141.485 324.575 141.288 325.503 141.363C326.442 141.431 327.243 141.769 327.904 142.377C328.556 142.976 328.83 143.618 328.726 144.3C328.613 144.974 328.152 145.549 327.344 146.025C326.548 146.494 325.69 146.696 324.772 146.63C323.843 146.555 323.053 146.218 322.401 145.619ZM310.624 134.794C309.963 134.186 309.684 133.541 309.788 132.858C309.903 132.168 310.353 131.592 311.138 131.13C311.935 130.66 312.797 130.463 313.726 130.538C314.665 130.606 315.466 130.945 316.127 131.553C316.779 132.152 317.053 132.793 316.949 133.476C316.836 134.15 316.375 134.725 315.567 135.2C314.771 135.67 313.913 135.871 312.995 135.805C312.066 135.73 311.276 135.393 310.624 134.794Z" fill="#3D5063"/>
<path d="M35.1265 157.173C34.4651 156.565 34.1862 155.919 34.2901 155.236C34.4052 154.547 34.8554 153.971 35.6407 153.508C36.4373 153.039 37.2997 152.842 38.2281 152.917C39.1676 152.985 39.9681 153.323 40.6296 153.931C41.2815 154.53 41.5555 155.171 41.4516 155.854C41.3382 156.528 40.8776 157.103 40.0698 157.579C39.2732 158.048 38.4156 158.25 37.4968 158.184C36.5685 158.109 35.7784 157.772 35.1265 157.173ZM23.3493 146.348C22.6879 145.74 22.4091 145.095 22.5129 144.412C22.628 143.722 23.0782 143.146 23.8636 142.684C24.6601 142.214 25.5226 142.017 26.4509 142.092C27.3904 142.161 28.1909 142.499 28.8524 143.107C29.5043 143.706 29.7783 144.347 29.6744 145.03C29.561 145.704 29.1004 146.279 28.2926 146.755C27.496 147.224 26.6384 147.425 25.7196 147.359C24.7913 147.284 24.0012 146.947 23.3493 146.348Z" fill="#3D5063"/>
<path d="M363.297 112.021C364.751 112.197 365.418 111.299 364.59 110.074L358.006 98.9011L347.346 98.0324L349.067 101.026C349.245 101.38 349.018 101.761 348.611 101.789L341.981 101.137C341.827 101.178 341.689 100.974 341.592 100.919L339.594 97.517L331.201 96.7703L338.654 109.318C338.695 109.467 338.89 109.576 339.044 109.535L363.297 112.021Z" fill="#1C495E"/>
<path d="M360.827 99.1679C361.078 99.1815 361.249 98.8957 361.168 98.5963L357.767 92.7596C357.727 92.6099 357.629 92.5555 357.475 92.5964L354.104 92.3659L357.959 98.9646L360.827 99.1679Z" fill="#1C495E"/>
<path d="M357.959 98.9446L354.103 92.3438L343.442 91.4754L347.298 98.0762L357.959 98.9446Z" fill="#1C495E"/>
<path d="M354.053 92.3415L346.008 78.8284C345.513 77.9166 344.148 77.1548 343.1 76.9508L335.268 76.136C334.918 76.068 334.536 76.49 334.812 76.8983L343.393 91.4728L354.053 92.3415Z" fill="#1C495E"/>
<path d="M347.299 98.0298L343.443 91.4295L335.692 90.9142L339.507 97.3649L347.299 98.0298Z" fill="#1C495E"/>
<path d="M339.508 97.3267L335.692 90.8759L327.299 90.1294L331.155 96.7299L339.508 97.3267Z" fill="#1C495E"/>
<path d="M329.945 108.544C330.294 108.612 330.676 108.19 330.4 107.782L323.402 95.9974L316.813 95.4954L323.219 106.313C323.714 107.225 325.022 108.082 326.126 108.191L329.945 108.544Z" fill="#1C495E"/>
<path d="M335.632 90.8558L326.556 75.3702C326.515 75.2205 326.32 75.1117 326.166 75.1525L305.985 73.034C304.53 72.8574 303.864 73.7557 304.635 75.0757L312.899 89.0916L319.488 89.5937L316.127 83.9057C315.949 83.5519 316.176 83.1708 316.583 83.1434L323.212 83.7952C323.367 83.7543 323.505 83.9585 323.602 84.0129L327.239 90.1091L335.632 90.8558Z" fill="#1C495E"/>
<path d="M331.151 96.6945L327.295 90.0942L319.601 89.4836L323.359 96.0296L331.151 96.6945Z" fill="#1C495E"/>
<path d="M323.36 96.0004L319.601 89.4545L313.012 88.9526L316.925 95.4576L323.36 96.0004Z" fill="#1C495E"/>
<path d="M313.199 95.137L316.823 95.381L313.008 88.9319L310.14 88.7286C309.888 88.715 309.718 89.0008 309.799 89.3002L312.907 94.9737C313.005 95.0282 313.102 95.0826 313.199 95.137Z" fill="#1C495E"/>
<path d="M76.0312 243.467C77.4855 243.643 78.1522 242.745 77.3241 241.52L70.7399 230.347L60.08 229.479L61.8011 232.473C61.9797 232.826 61.752 233.208 61.3457 233.235L54.7158 232.583C54.5614 232.624 54.4234 232.42 54.3259 232.365L52.3287 228.963L43.9357 228.217L51.3885 240.764C51.4291 240.913 51.624 241.022 51.7784 240.981L76.0312 243.467Z" fill="#1C495E"/>
<path d="M73.5611 230.614C73.813 230.628 73.9837 230.342 73.9026 230.043L70.5018 224.206C70.4613 224.056 70.3638 224.002 70.2094 224.043L66.8382 223.812L70.6935 230.411L73.5611 230.614Z" fill="#1C495E"/>
<path d="M70.6926 230.391L66.8363 223.79L56.1758 222.922L60.032 229.522L70.6926 230.391Z" fill="#1C495E"/>
<path d="M66.787 223.788L58.7416 210.275C58.2464 209.363 56.8818 208.601 55.8338 208.397L48.0015 207.582C47.6522 207.514 47.2701 207.936 47.5462 208.345L56.1273 222.919L66.787 223.788Z" fill="#1C495E"/>
<path d="M60.0329 229.476L56.1768 222.876L48.4254 222.361L52.241 228.811L60.0329 229.476Z" fill="#1C495E"/>
<path d="M52.2429 228.773L48.4273 222.322L40.0339 221.576L43.8901 228.176L52.2429 228.773Z" fill="#1C495E"/>
<path d="M42.68 239.99C43.0294 240.058 43.4115 239.636 43.1354 239.228L36.1376 227.444L29.5485 226.942L35.9537 237.76C36.4489 238.671 37.7566 239.528 38.8615 239.637L42.68 239.99Z" fill="#1C495E"/>
<path d="M48.3668 222.302L39.2908 206.817C39.2503 206.667 39.0553 206.558 38.901 206.599L18.7197 204.481C17.2654 204.304 16.5987 205.202 17.37 206.522L25.6342 220.538L32.2232 221.04L28.8623 215.352C28.6838 214.998 28.9115 214.617 29.3177 214.59L35.9473 215.242C36.1017 215.201 36.2397 215.405 36.3372 215.459L39.9742 221.555L48.3668 222.302Z" fill="#1C495E"/>
<path d="M43.8864 228.141L40.0303 221.541L32.3357 220.93L36.0944 227.476L43.8864 228.141Z" fill="#1C495E"/>
<path d="M36.095 227.447L32.3364 220.901L25.7469 220.399L29.6599 226.904L36.095 227.447Z" fill="#1C495E"/>
<path d="M25.9344 226.583L29.5576 226.827L25.7427 220.378L22.8751 220.175C22.6233 220.162 22.4525 220.447 22.5336 220.747L25.6421 226.42C25.7395 226.475 25.837 226.529 25.9344 226.583Z" fill="#1C495E"/>
<g opacity="0.7">
<path d="M73.6269 91.1792C74.0652 90.7301 73.9087 90.2708 73.2487 90.2356L67.4782 89.5843L64.421 92.9863L65.9562 93.1755C66.1312 93.2063 66.2118 93.3824 66.1173 93.5277L64.1752 95.6147C64.1504 95.6778 64.0404 95.672 63.9955 95.6911L62.2403 95.4901L59.8103 98.1524L66.3058 98.8638C66.3709 98.8888 66.4607 98.8506 66.4855 98.7875L73.6269 91.1792Z" fill="#3D5063"/>
<path d="M68.3231 88.6945C68.3927 88.6123 68.3323 88.4803 68.2022 88.4304L65.1977 88.0769C65.1326 88.052 65.0877 88.071 65.063 88.1341L64.1123 89.2212L67.5118 89.6172L68.3231 88.6945Z" fill="#3D5063"/>
<path d="M67.4983 89.6172L64.0978 89.2209L61.0405 92.6232L64.441 93.0195L67.4983 89.6172Z" fill="#3D5063"/>
<path d="M64.0983 89.2536L57.0977 88.4935C56.6376 88.426 56.0087 88.6931 55.6649 88.9969L53.3542 91.4509C53.2396 91.5522 53.2954 91.7914 53.5154 91.8031L61.0412 92.6558L64.0983 89.2536Z" fill="#3D5063"/>
<path d="M64.4196 93.0185L61.0193 92.6223L58.8388 95.1261L62.174 95.4973L64.4196 93.0185Z" fill="#3D5063"/>
<path d="M62.1561 95.4987L58.8208 95.1274L56.3909 97.7898L59.7913 98.186L62.1561 95.4987Z" fill="#3D5063"/>
<path d="M63.7714 101.659C63.886 101.557 63.8302 101.318 63.6102 101.306L57.51 100.637L55.633 102.749L61.2283 103.37C61.6884 103.437 62.3374 103.214 62.661 102.866L63.7714 101.659Z" fill="#3D5063"/>
<path d="M58.8072 95.1722L50.822 94.2525C50.757 94.2276 50.6671 94.2657 50.6424 94.3288L44.6815 100.646C44.2433 101.095 44.3998 101.555 45.0798 101.634L52.3199 102.449L54.1969 100.338L51.2568 100.009C51.0818 99.9783 51.0012 99.8022 51.0957 99.657L53.0377 97.5702C53.0625 97.5071 53.1725 97.513 53.2174 97.4939L56.3774 97.8342L58.8072 95.1722Z" fill="#3D5063"/>
<path d="M59.7728 98.1896L56.3725 97.7934L54.1719 100.253L57.5272 100.668L59.7728 98.1896Z" fill="#3D5063"/>
<path d="M57.5122 100.666L54.1568 100.251L52.2799 102.363L55.66 102.715L57.5122 100.666Z" fill="#3D5063"/>
<path d="M54.5826 103.908L55.6029 102.738L52.2685 102.367L51.4572 103.29C51.3875 103.372 51.4479 103.504 51.578 103.554L54.4479 103.965C54.4928 103.946 54.5377 103.927 54.5826 103.908Z" fill="#3D5063"/>
</g>
<g opacity="0.3">
<path d="M258.523 232.951C258.777 232.691 258.686 232.425 258.304 232.405L254.963 232.027L253.193 233.997L254.082 234.107C254.183 234.125 254.23 234.227 254.175 234.311L253.051 235.519C253.036 235.556 252.973 235.552 252.947 235.563L251.93 235.447L250.524 236.988L254.284 237.4C254.322 237.415 254.374 237.393 254.388 237.356L258.523 232.951Z" fill="#F0DEDF"/>
<path d="M255.452 231.512C255.492 231.464 255.457 231.388 255.382 231.359L253.643 231.154C253.605 231.14 253.579 231.151 253.565 231.187L253.014 231.817L254.982 232.046L255.452 231.512Z" fill="#E2CFCF"/>
<path d="M254.975 232.046L253.006 231.816L251.236 233.786L253.205 234.015L254.975 232.046Z" fill="#E2CFCF"/>
<path d="M253.006 231.836L248.953 231.395C248.686 231.356 248.322 231.511 248.123 231.687L246.786 233.108C246.719 233.166 246.752 233.305 246.879 233.312L251.236 233.805L253.006 231.836Z" fill="#F0DEDF"/>
<path d="M253.192 234.016L251.224 233.786L249.961 235.236L251.892 235.451L253.192 234.016Z" fill="#E2CFCF"/>
<path d="M251.882 235.453L249.951 235.238L248.544 236.779L250.513 237.008L251.882 235.453Z" fill="#F0DEDF"/>
<path d="M252.817 239.018C252.883 238.96 252.851 238.821 252.724 238.814L249.192 238.427L248.105 239.65L251.345 240.009C251.611 240.048 251.987 239.919 252.174 239.717L252.817 239.018Z" fill="#F0DEDF"/>
<path d="M249.943 235.261L245.32 234.729C245.282 234.714 245.23 234.736 245.216 234.773L241.765 238.431C241.511 238.691 241.602 238.957 241.995 239.003L246.187 239.475L247.274 238.252L245.572 238.062C245.47 238.044 245.424 237.942 245.478 237.858L246.603 236.65C246.617 236.613 246.681 236.617 246.707 236.606L248.536 236.803L249.943 235.261Z" fill="#F0DEDF"/>
<path d="M250.502 237.01L248.533 236.78L247.259 238.204L249.202 238.445L250.502 237.01Z" fill="#E2CFCF"/>
<path d="M249.193 238.443L247.251 238.203L246.164 239.426L248.121 239.629L249.193 238.443Z" fill="#E2CFCF"/>
<path d="M247.497 240.32L248.088 239.643L246.158 239.429L245.688 239.963C245.648 240.01 245.683 240.087 245.758 240.116L247.419 240.353C247.445 240.342 247.471 240.331 247.497 240.32Z" fill="#E2CFCF"/>
</g>
<g opacity="0.7">
<path d="M349.186 242.042C349.68 242.44 350.136 242.261 350.118 241.621L350.311 236.002L346.59 233.244L346.523 234.74C346.505 234.911 346.332 234.999 346.176 234.916L343.889 233.16C343.822 233.139 343.819 233.033 343.796 232.99L343.858 231.281L340.943 229.086L340.748 235.41C340.728 235.475 340.774 235.559 340.84 235.58L349.186 242.042Z" fill="#3D5063"/>
<path d="M351.343 236.705C351.433 236.768 351.563 236.701 351.603 236.573L351.718 233.644C351.738 233.58 351.715 233.537 351.649 233.517L350.461 232.661L350.335 235.974L351.343 236.705Z" fill="#3D5063"/>
<path d="M350.336 235.983L350.462 232.671L346.741 229.912L346.615 233.224L350.336 235.983Z" fill="#3D5063"/>
<path d="M350.494 232.671L350.698 225.855C350.729 225.406 350.405 224.813 350.067 224.499L347.375 222.407C347.262 222.302 347.022 222.37 347.028 222.584L346.773 229.913L350.494 232.671Z" fill="#3D5063"/>
<path d="M346.619 233.241L346.745 229.928L344.012 227.965L343.906 231.213L346.619 233.241Z" fill="#3D5063"/>
<path d="M343.907 231.229L344.014 227.981L341.099 225.786L340.972 229.098L343.907 231.229Z" fill="#3D5063"/>
<path d="M337.705 233.216C337.817 233.321 338.057 233.253 338.051 233.04L338.235 227.099L335.926 225.407L335.751 230.856C335.719 231.305 336 231.92 336.381 232.213L337.705 233.216Z" fill="#3D5063"/>
<path d="M344.043 227.992L344.329 220.214C344.349 220.149 344.303 220.065 344.237 220.044L337.303 214.648C336.809 214.25 336.353 214.428 336.328 215.091L336.087 222.142L338.395 223.834L338.49 220.971C338.508 220.8 338.681 220.712 338.837 220.795L341.125 222.551C341.191 222.571 341.194 222.678 341.217 222.72L341.128 225.797L344.043 227.992Z" fill="#3D5063"/>
<path d="M340.973 229.111L341.1 225.798L338.41 223.813L338.261 227.083L340.973 229.111Z" fill="#3D5063"/>
<path d="M338.261 227.102L338.41 223.832L336.102 222.139L336.019 225.43L338.261 227.102Z" fill="#3D5063"/>
<path d="M334.718 224.478L335.996 225.397L336.102 222.148L335.093 221.417C335.004 221.354 334.874 221.42 334.833 221.549L334.649 224.35C334.672 224.393 334.695 224.435 334.718 224.478Z" fill="#3D5063"/>
</g>
<g opacity="0.4">
<path d="M20.4366 62.0244C20.9306 62.4221 21.3864 62.2438 21.3684 61.6035L21.5616 55.984L17.8411 53.226L17.7734 54.7219C17.7563 54.893 17.5832 54.9812 17.4273 54.8984L15.1394 53.1419C15.073 53.1216 15.07 53.0149 15.0469 52.9726L15.1086 51.2632L12.194 49.0685L11.9987 55.3927C11.9785 55.4571 12.0248 55.5418 12.0912 55.562L20.4366 62.0244Z" fill="#F0DEDF"/>
<path d="M22.5946 56.6863C22.6842 56.7489 22.8141 56.6827 22.8543 56.5539L22.9695 53.6254C22.9896 53.561 22.9665 53.5186 22.9 53.4983L21.7123 52.6418L21.5861 55.955L22.5946 56.6863Z" fill="#E2CFCF"/>
<path d="M21.5869 55.9654L21.7131 52.653L17.9923 49.8945L17.8661 53.2069L21.5869 55.9654Z" fill="#E2CFCF"/>
<path d="M21.7452 52.652L21.9486 45.8365C21.9799 45.3875 21.656 44.7948 21.3179 44.48L18.6256 42.3884C18.5129 42.2835 18.2734 42.3515 18.2794 42.5649L18.0246 49.8939L21.7452 52.652Z" fill="#F0DEDF"/>
<path d="M17.8698 53.2229L17.996 49.9104L15.2631 47.9473L15.157 51.1954L17.8698 53.2229Z" fill="#E2CFCF"/>
<path d="M15.1586 51.2102L15.2647 47.9621L12.3497 45.7671L12.2235 49.0795L15.1586 51.2102Z" fill="#F0DEDF"/>
<path d="M8.95562 53.1987C9.06832 53.3037 9.30784 53.2357 9.30183 53.0222L9.48579 47.0817L7.17744 45.3893L7.0016 50.8384C6.97035 51.2875 7.25104 51.9023 7.63241 52.1951L8.95562 53.1987Z" fill="#F0DEDF"/>
<path d="M15.2937 47.9732L15.5798 40.195C15.5999 40.1306 15.5537 40.046 15.4872 40.0257L8.55376 34.629C8.05974 34.2313 7.60386 34.4096 7.57858 35.072L7.33787 42.1234L9.64603 43.8156L9.74112 40.9523C9.75825 40.7812 9.93135 40.693 10.0873 40.7758L12.3753 42.5324C12.4417 42.5527 12.4447 42.6594 12.4679 42.7017L12.3788 45.7784L15.2937 47.9732Z" fill="#F0DEDF"/>
<path d="M12.2245 49.0934L12.3507 45.7809L9.66105 43.7957L9.51168 47.0659L12.2245 49.0934Z" fill="#E2CFCF"/>
<path d="M9.51167 47.083L9.66105 43.8128L7.35272 42.1204L7.26976 45.4109L9.51167 47.083Z" fill="#E2CFCF"/>
<path d="M5.96901 44.4599L7.2463 45.379L7.35243 42.1303L6.3439 41.399C6.25431 41.3364 6.12445 41.4026 6.08417 41.5314L5.89957 44.3329C5.92272 44.3752 5.94586 44.4176 5.96901 44.4599Z" fill="#E2CFCF"/>
</g>
<g opacity="0.3">
<path d="M366.081 50.1541C366.39 49.9155 366.334 49.6204 365.932 49.543L362.447 48.6551L360.273 50.4844L361.199 50.7304C361.303 50.7641 361.337 50.879 361.267 50.9601L359.892 52.0767C359.871 52.1133 359.804 52.1004 359.775 52.1083L358.715 51.8365L356.99 53.2648L360.915 54.2509C360.953 54.2717 361.011 54.2559 361.032 54.2193L366.081 50.1541Z" fill="#F0DEDF"/>
<path d="M363.049 48.1849C363.099 48.1404 363.074 48.0543 362.998 48.0127L361.185 47.5418C361.148 47.521 361.118 47.5289 361.098 47.5655L360.419 48.1521L362.471 48.6824L363.049 48.1849Z" fill="#E2CFCF"/>
<path d="M362.461 48.6784L360.409 48.1477L358.234 49.9769L360.287 50.5076L362.461 48.6784Z" fill="#E2CFCF"/>
<path d="M360.41 48.177L356.18 47.1186C355.903 47.0383 355.494 47.149 355.256 47.3064L353.623 48.6168C353.544 48.6693 353.557 48.8208 353.691 48.8466L358.235 50.0061L360.41 48.177Z" fill="#F0DEDF"/>
<path d="M360.271 50.5085L358.219 49.9778L356.661 51.3298L358.676 51.8396L360.271 50.5085Z" fill="#E2CFCF"/>
<path d="M358.663 51.8431L356.648 51.3332L354.923 52.7614L356.976 53.2921L358.663 51.8431Z" fill="#F0DEDF"/>
<path d="M359.107 55.7583C359.186 55.7058 359.173 55.5543 359.039 55.5285L355.354 54.6022L354.017 55.7393L357.396 56.5933C357.673 56.6736 358.091 56.5916 358.32 56.4055L359.107 55.7583Z" fill="#F0DEDF"/>
<path d="M356.638 51.366L351.818 50.1263C351.78 50.1055 351.722 50.1213 351.701 50.1579L347.489 53.5306C347.181 53.7691 347.237 54.0642 347.647 54.1703L352.019 55.2832L353.356 54.146L351.581 53.6957C351.476 53.662 351.442 53.5471 351.513 53.466L352.887 52.3497C352.908 52.313 352.975 52.3259 353.004 52.318L354.914 52.7941L356.638 51.366Z" fill="#F0DEDF"/>
<path d="M356.963 53.2929L354.911 52.7623L353.345 54.0856L355.368 54.6241L356.963 53.2929Z" fill="#E2CFCF"/>
<path d="M355.356 54.6279L353.334 54.0893L351.997 55.2265L354.04 55.7284L355.356 54.6279Z" fill="#E2CFCF"/>
<path d="M353.276 56.3637L354.004 55.7326L351.99 55.2231L351.412 55.7207C351.362 55.7652 351.387 55.8513 351.463 55.8929L353.188 56.3874C353.217 56.3795 353.246 56.3716 353.276 56.3637Z" fill="#E2CFCF"/>
</g>
<g filter="url(#filter0_d)">
<circle cx="188" cy="129" r="83.5" stroke="url(#paint0_linear)" stroke-width="15"/>
</g>
<defs>
<filter id="filter0_d" x="77" y="27" width="218" height="218" filterUnits="userSpaceOnUse" color-interpolation-filters="sRGB">
<feFlood flood-opacity="0" result="BackgroundImageFix"/>
<feColorMatrix in="SourceAlpha" type="matrix" values="0 0 0 0 0 0 0 0 0 0 0 0 0 0 0 0 0 0 127 0" result="hardAlpha"/>
<feOffset dx="-2" dy="7"/>
<feGaussianBlur stdDeviation="9"/>
<feColorMatrix type="matrix" values="0 0 0 0 0 0 0 0 0 0 0 0 0 0 0 0 0 0 0.25 0"/>
<feBlend mode="normal" in2="BackgroundImageFix" result="effect1_dropShadow"/>
<feBlend mode="normal" in="SourceGraphic" in2="effect1_dropShadow" result="shape"/>
</filter>
<linearGradient id="paint0_linear" x1="188" y1="38" x2="188" y2="220" gradientUnits="userSpaceOnUse">
<stop offset="0.012748" stop-color="#46E6EF"/>
<stop offset="1" stop-color="#3FAAB0"/>
</linearGradient>
</defs>
</svg>
