<svg width="1280" height="1007" viewBox="0 0 1280 1007" fill="none" xmlns="http://www.w3.org/2000/svg">
<g clip-path="url(#clip0)">
<rect width="1280" height="1007" fill="white"/>
<rect width="1280" height="1007" fill="url(#paint0_linear)"/>
<mask id="path-1-inside-1" fill="white">
<path d="M-140.532 370.555L-219.946 386.036L-271.309 335.854L-242.808 270.628L-240.517 271.231L-268.516 335.31L-218.944 383.74L-140.927 368.531L-140.532 370.555Z"/>
<path d="M-95.1518 597.764L-97.4434 597.159L-69.1901 532.507L-66.9019 533.109L-95.1518 597.764Z"/>
<path d="M-10.9386 404.435L-91.0523 420.052L-142.416 369.87L-113.662 304.072L-33.5486 288.454L17.8118 338.635L-10.9386 404.435ZM-90.0518 417.76L-12.7317 402.687L15.0186 339.181L-34.5532 290.751L-111.873 305.825L-139.622 369.328L-90.0518 417.76Z"/>
<path d="M11.2776 518.395L-68.8362 534.013L-119.751 484.27L-117.854 482.851L-67.836 531.719L9.48402 516.645L37.2343 453.139L-12.7834 404.272L-10.8869 402.85L40.028 452.595L11.2776 518.395Z"/>
<path d="M-117.617 484.377L-197.73 499.995L-249.094 449.812L-220.341 384.012L-140.927 368.531L-140.532 370.555L-218.549 385.764L-246.3 449.268L-196.728 497.7L-119.408 482.627L-91.4063 418.547L-89.1172 419.153L-117.617 484.377Z"/>
<path d="M118.329 437.857L116.038 437.254L144.036 373.173L94.4646 324.743L16.4473 339.952L16.0527 337.928L95.4692 322.446L146.83 372.629L118.329 437.857Z"/>
<path d="M96.1127 323.897L93.8212 323.292L122.072 258.643L124.363 259.244L96.1127 323.897Z"/>
<path d="M279.753 345.668L145.236 371.892L145.63 373.912L280.147 347.689L279.753 345.668Z"/>
<path d="M-247.894 448.531L-436.414 485.282L-436.02 487.303L-247.5 450.551L-247.894 448.531Z"/>
<path d="M-117.873 486.787C-115.702 486.364 -114.229 484.55 -114.583 482.736C-114.937 480.921 -116.983 479.793 -119.154 480.217C-121.325 480.64 -122.798 482.454 -122.444 484.268C-122.09 486.083 -120.044 487.21 -117.873 486.787Z"/>
<path d="M-196.59 502.133C-194.419 501.71 -192.946 499.896 -193.3 498.081C-193.654 496.267 -195.7 495.139 -197.871 495.562C-200.042 495.985 -201.515 497.799 -201.161 499.614C-200.807 501.428 -198.761 502.556 -196.59 502.133Z"/>
<path d="M-95.6573 600.745C-93.4866 600.322 -92.0136 598.508 -92.3673 596.694C-92.721 594.879 -94.7675 593.752 -96.9382 594.175C-99.109 594.598 -100.582 596.412 -100.228 598.226C-99.8745 600.041 -97.8281 601.168 -95.6573 600.745Z"/>
<path d="M-89.6227 422.134C-87.4519 421.711 -85.9789 419.897 -86.3326 418.083C-86.6863 416.268 -88.7328 415.141 -90.9036 415.564C-93.0743 415.987 -94.5473 417.801 -94.1936 419.615C-93.8399 421.43 -91.7934 422.557 -89.6227 422.134Z"/>
<path d="M-67.4066 536.094C-65.2358 535.671 -63.7628 533.857 -64.1165 532.043C-64.4702 530.229 -66.5167 529.101 -68.6874 529.524C-70.8582 529.947 -72.3312 531.761 -71.9775 533.575C-71.6238 535.39 -69.5773 536.518 -67.4066 536.094Z"/>
<path d="M-10.556 406.721C-8.38528 406.297 -6.91224 404.483 -7.26595 402.669C-7.61966 400.855 -9.66617 399.727 -11.8369 400.15C-14.0077 400.573 -15.4806 402.387 -15.1269 404.202C-14.7732 406.016 -12.7268 407.144 -10.556 406.721Z"/>
<path d="M-32.7717 292.762C-30.601 292.339 -29.128 290.525 -29.4817 288.711C-29.8354 286.896 -31.8819 285.769 -34.0526 286.192C-36.2234 286.615 -37.6964 288.429 -37.3426 290.243C-36.9889 292.058 -34.9425 293.186 -32.7717 292.762Z"/>
<path d="M-112.128 308.232C-109.957 307.809 -108.484 305.995 -108.837 304.181C-109.191 302.367 -111.238 301.239 -113.408 301.662C-115.579 302.085 -117.052 303.899 -116.698 305.713C-116.345 307.528 -114.298 308.656 -112.128 308.232Z"/>
<path d="M146.074 376.186C148.244 375.763 149.717 373.949 149.364 372.135C149.01 370.32 146.964 369.192 144.793 369.616C142.622 370.039 141.149 371.853 141.503 373.667C141.856 375.482 143.903 376.609 146.074 376.186Z"/>
<path d="M280.59 349.963C282.761 349.54 284.234 347.726 283.88 345.911C283.526 344.097 281.48 342.969 279.309 343.392C277.138 343.815 275.665 345.629 276.019 347.444C276.373 349.258 278.419 350.386 280.59 349.963Z"/>
<path d="M-247.056 452.825C-244.886 452.402 -243.413 450.588 -243.766 448.774C-244.12 446.96 -246.167 445.832 -248.337 446.255C-250.508 446.678 -251.981 448.492 -251.627 450.306C-251.274 452.121 -249.227 453.249 -247.056 452.825Z"/>
<path d="M-140.089 372.829C-137.918 372.406 -136.445 370.592 -136.799 368.778C-137.152 366.963 -139.199 365.835 -141.37 366.259C-143.54 366.682 -145.013 368.496 -144.66 370.31C-144.306 372.124 -142.26 373.252 -140.089 372.829Z"/>
<path d="M-218.806 388.175C-216.635 387.751 -215.162 385.937 -215.516 384.123C-215.869 382.309 -217.916 381.181 -220.087 381.604C-222.257 382.027 -223.73 383.841 -223.377 385.656C-223.023 387.47 -220.976 388.598 -218.806 388.175Z"/>
<path d="M95.4836 326.905C97.6544 326.482 99.1274 324.668 98.7737 322.854C98.42 321.039 96.3735 319.911 94.2027 320.335C92.032 320.758 90.559 322.572 90.9127 324.386C91.2664 326.2 93.3129 327.328 95.4836 326.905Z"/>
<path d="M123.858 262.228C126.029 261.805 127.502 259.991 127.148 258.177C126.794 256.362 124.748 255.234 122.577 255.658C120.406 256.081 118.933 257.895 119.287 259.709C119.641 261.523 121.687 262.651 123.858 262.228Z"/>
<path d="M16.7668 342.251C18.9375 341.827 20.4106 340.014 20.0569 338.199C19.7032 336.385 17.6567 335.257 15.4859 335.68C13.3151 336.103 11.8422 337.917 12.1959 339.732C12.5496 341.546 14.596 342.674 16.7668 342.251Z"/>
<path d="M11.6601 520.681C13.8308 520.258 15.3039 518.444 14.9502 516.629C14.5965 514.815 12.5499 513.687 10.3792 514.11C8.20844 514.533 6.73548 516.347 7.08919 518.162C7.4429 519.976 9.48933 521.104 11.6601 520.681Z"/>
<path d="M38.9825 456.209C41.1533 455.786 42.6263 453.972 42.2726 452.157C41.9189 450.343 39.8724 449.215 37.7016 449.638C35.5309 450.061 34.0579 451.875 34.4116 453.69C34.7653 455.504 36.8118 456.632 38.9825 456.209Z"/>
<path d="M117.699 440.863C119.87 440.44 121.343 438.626 120.989 436.812C120.636 434.997 118.589 433.87 116.418 434.293C114.248 434.716 112.775 436.53 113.128 438.344C113.482 440.159 115.529 441.286 117.699 440.863Z"/>
<path d="M-269.272 338.867C-267.101 338.444 -265.628 336.63 -265.982 334.816C-266.336 333.001 -268.382 331.874 -270.553 332.297C-272.724 332.72 -274.197 334.534 -273.843 336.348C-273.489 338.163 -271.443 339.29 -269.272 338.867Z"/>
<path d="M-240.84 275.146C-238.669 274.723 -237.196 272.909 -237.55 271.095C-237.904 269.28 -239.95 268.153 -242.121 268.576C-244.292 268.999 -245.765 270.813 -245.411 272.627C-245.057 274.442 -243.011 275.57 -240.84 275.146Z"/>
<path d="M411.53 564.321L348.268 576.654L307.71 537.028L330.414 485.069L393.676 472.736L434.234 512.363L411.53 564.321ZM349.3 574.29L409.686 562.518L431.358 512.923L392.644 475.1L332.258 486.872L310.586 536.467L349.3 574.29Z"/>
<path d="M141.692 663.238L79.1495 675.43L38.5881 635.8L61.0347 584.436L63.397 585.054L41.4668 635.239L80.181 673.064L141.286 661.152L141.692 663.238Z"/>
<path d="M243.643 689.812L180.381 702.145L139.823 662.519L162.527 610.56L225.789 598.227L266.347 637.853L243.643 689.812ZM181.413 699.783L241.799 688.011L263.471 638.416L224.757 600.593L164.371 612.365L142.699 661.96L181.413 699.783Z"/>
<path d="M281.378 728.37L241.744 689.643L243.698 688.181L283.334 726.907L281.378 728.37Z"/>
<path d="M345.232 715.922L342.87 715.301L364.8 665.114L325.134 626.393L327.086 624.931L367.678 664.553L345.232 715.922Z"/>
<path d="M327.492 627.017L325.134 626.393L347.609 575.02L349.97 575.642L327.492 627.017Z"/>
<path d="M432.559 650.823L366.037 663.791L366.443 665.873L432.965 652.904L432.559 650.823Z"/>
<path d="M8.62508 537.138L47.3986 575.022L25.6939 624.695L-34.7843 636.485L-73.5554 598.601L-51.8531 548.928L8.62508 537.138ZM9.74244 534.579L-53.8525 546.977L-76.6745 599.209L-35.9049 639.041L27.69 626.643L50.5152 574.414L9.74244 534.579Z"/>
<path d="M39.6744 638.98C41.9109 638.544 43.4285 636.675 43.0641 634.806C42.6997 632.936 40.5912 631.774 38.3547 632.21C36.1182 632.646 34.6006 634.515 34.965 636.384C35.3294 638.254 37.4379 639.416 39.6744 638.98Z"/>
<path d="M62.3447 588.374C64.5811 587.938 66.0988 586.07 65.7344 584.2C65.37 582.331 63.2615 581.169 61.025 581.605C58.7885 582.041 57.2709 583.91 57.6353 585.779C57.9997 587.648 60.1082 588.81 62.3447 588.374Z"/>
<path d="M164.933 614.561C167.169 614.125 168.687 612.256 168.323 610.387C167.958 608.518 165.85 607.356 163.613 607.792C161.377 608.228 159.859 610.096 160.224 611.966C160.588 613.835 162.696 614.997 164.933 614.561Z"/>
<path d="M349.426 578.595C351.662 578.159 353.18 576.29 352.816 574.421C352.451 572.551 350.343 571.389 348.106 571.825C345.87 572.261 344.352 574.13 344.716 576C345.081 577.869 347.189 579.031 349.426 578.595Z"/>
<path d="M283.255 732.246C285.492 731.81 287.01 729.942 286.645 728.072C286.281 726.203 284.172 725.041 281.936 725.477C279.699 725.913 278.182 727.782 278.546 729.651C278.911 731.52 281.019 732.682 283.255 732.246Z"/>
<path d="M181.557 704.35C183.793 703.914 185.311 702.045 184.947 700.176C184.582 698.306 182.474 697.144 180.237 697.58C178.001 698.016 176.483 699.885 176.848 701.754C177.212 703.624 179.32 704.786 181.557 704.35Z"/>
<path d="M429.373 656.039C431.609 655.603 433.127 653.734 432.762 651.865C432.398 649.995 430.289 648.834 428.053 649.27C425.816 649.706 424.299 651.574 424.663 653.444C425.028 655.313 427.136 656.475 429.373 656.039Z"/>
<path d="M366.898 668.218C369.134 667.782 370.652 665.913 370.287 664.044C369.923 662.175 367.814 661.013 365.578 661.449C363.341 661.885 361.824 663.754 362.188 665.623C362.553 667.492 364.661 668.654 366.898 668.218Z"/>
<path d="M108.826 464.754L146.401 501.47L125.368 549.606L66.7577 561.032L29.1811 524.321L50.2161 476.18L108.826 464.754ZM109.943 462.193L48.2164 474.226L26.0639 524.927L65.6375 563.59L127.364 551.556L149.518 500.86L109.943 462.193Z"/>
<path d="M-129.455 499.876L-91.8798 536.591L-112.913 584.73L-171.523 596.156L-209.1 559.443L-188.065 511.302L-129.455 499.876ZM-128.337 497.317L-190.064 509.35L-212.217 560.05L-172.643 598.715L-110.916 586.682L-88.7607 535.983L-128.337 497.317Z"/>
</mask>
<path d="M-140.532 370.555L-219.946 386.036L-271.309 335.854L-242.808 270.628L-240.517 271.231L-268.516 335.31L-218.944 383.74L-140.927 368.531L-140.532 370.555Z" fill="url(#paint1_linear)"/>
<path d="M-95.1518 597.764L-97.4434 597.159L-69.1901 532.507L-66.9019 533.109L-95.1518 597.764Z" fill="url(#paint2_linear)"/>
<path d="M-10.9386 404.435L-91.0523 420.052L-142.416 369.87L-113.662 304.072L-33.5486 288.454L17.8118 338.635L-10.9386 404.435ZM-90.0518 417.76L-12.7317 402.687L15.0186 339.181L-34.5532 290.751L-111.873 305.825L-139.622 369.328L-90.0518 417.76Z" fill="url(#paint3_linear)"/>
<path d="M11.2776 518.395L-68.8362 534.013L-119.751 484.27L-117.854 482.851L-67.836 531.719L9.48402 516.645L37.2343 453.139L-12.7834 404.272L-10.8869 402.85L40.028 452.595L11.2776 518.395Z" fill="url(#paint4_linear)"/>
<path d="M-117.617 484.377L-197.73 499.995L-249.094 449.812L-220.341 384.012L-140.927 368.531L-140.532 370.555L-218.549 385.764L-246.3 449.268L-196.728 497.7L-119.408 482.627L-91.4063 418.547L-89.1172 419.153L-117.617 484.377Z" fill="url(#paint5_linear)"/>
<path d="M118.329 437.857L116.038 437.254L144.036 373.173L94.4646 324.743L16.4473 339.952L16.0527 337.928L95.4692 322.446L146.83 372.629L118.329 437.857Z" fill="url(#paint6_linear)"/>
<path d="M96.1127 323.897L93.8212 323.292L122.072 258.643L124.363 259.244L96.1127 323.897Z" fill="url(#paint7_linear)"/>
<path d="M279.753 345.668L145.236 371.892L145.63 373.912L280.147 347.689L279.753 345.668Z" fill="url(#paint8_linear)"/>
<path d="M-247.894 448.531L-436.414 485.282L-436.02 487.303L-247.5 450.551L-247.894 448.531Z" fill="url(#paint9_linear)"/>
<path d="M-117.873 486.787C-115.702 486.364 -114.229 484.55 -114.583 482.736C-114.937 480.921 -116.983 479.793 -119.154 480.217C-121.325 480.64 -122.798 482.454 -122.444 484.268C-122.09 486.083 -120.044 487.21 -117.873 486.787Z" fill="url(#paint10_linear)"/>
<path d="M-196.59 502.133C-194.419 501.71 -192.946 499.896 -193.3 498.081C-193.654 496.267 -195.7 495.139 -197.871 495.562C-200.042 495.985 -201.515 497.799 -201.161 499.614C-200.807 501.428 -198.761 502.556 -196.59 502.133Z" fill="url(#paint11_linear)"/>
<path d="M-95.6573 600.745C-93.4866 600.322 -92.0136 598.508 -92.3673 596.694C-92.721 594.879 -94.7675 593.752 -96.9382 594.175C-99.109 594.598 -100.582 596.412 -100.228 598.226C-99.8745 600.041 -97.8281 601.168 -95.6573 600.745Z" fill="url(#paint12_linear)"/>
<path d="M-89.6227 422.134C-87.4519 421.711 -85.9789 419.897 -86.3326 418.083C-86.6863 416.268 -88.7328 415.141 -90.9036 415.564C-93.0743 415.987 -94.5473 417.801 -94.1936 419.615C-93.8399 421.43 -91.7934 422.557 -89.6227 422.134Z" fill="url(#paint13_linear)"/>
<path d="M-67.4066 536.094C-65.2358 535.671 -63.7628 533.857 -64.1165 532.043C-64.4702 530.229 -66.5167 529.101 -68.6874 529.524C-70.8582 529.947 -72.3312 531.761 -71.9775 533.575C-71.6238 535.39 -69.5773 536.518 -67.4066 536.094Z" fill="url(#paint14_linear)"/>
<path d="M-10.556 406.721C-8.38528 406.297 -6.91224 404.483 -7.26595 402.669C-7.61966 400.855 -9.66617 399.727 -11.8369 400.15C-14.0077 400.573 -15.4806 402.387 -15.1269 404.202C-14.7732 406.016 -12.7268 407.144 -10.556 406.721Z" fill="url(#paint15_linear)"/>
<path d="M-32.7717 292.762C-30.601 292.339 -29.128 290.525 -29.4817 288.711C-29.8354 286.896 -31.8819 285.769 -34.0526 286.192C-36.2234 286.615 -37.6964 288.429 -37.3426 290.243C-36.9889 292.058 -34.9425 293.186 -32.7717 292.762Z" fill="url(#paint16_linear)"/>
<path d="M-112.128 308.232C-109.957 307.809 -108.484 305.995 -108.837 304.181C-109.191 302.367 -111.238 301.239 -113.408 301.662C-115.579 302.085 -117.052 303.899 -116.698 305.713C-116.345 307.528 -114.298 308.656 -112.128 308.232Z" fill="url(#paint17_linear)"/>
<path d="M146.074 376.186C148.244 375.763 149.717 373.949 149.364 372.135C149.01 370.32 146.964 369.192 144.793 369.616C142.622 370.039 141.149 371.853 141.503 373.667C141.856 375.482 143.903 376.609 146.074 376.186Z" fill="url(#paint18_linear)"/>
<path d="M280.59 349.963C282.761 349.54 284.234 347.726 283.88 345.911C283.526 344.097 281.48 342.969 279.309 343.392C277.138 343.815 275.665 345.629 276.019 347.444C276.373 349.258 278.419 350.386 280.59 349.963Z" fill="url(#paint19_linear)"/>
<path d="M-247.056 452.825C-244.886 452.402 -243.413 450.588 -243.766 448.774C-244.12 446.96 -246.167 445.832 -248.337 446.255C-250.508 446.678 -251.981 448.492 -251.627 450.306C-251.274 452.121 -249.227 453.249 -247.056 452.825Z" fill="url(#paint20_linear)"/>
<path d="M-140.089 372.829C-137.918 372.406 -136.445 370.592 -136.799 368.778C-137.152 366.963 -139.199 365.835 -141.37 366.259C-143.54 366.682 -145.013 368.496 -144.66 370.31C-144.306 372.124 -142.26 373.252 -140.089 372.829Z" fill="url(#paint21_linear)"/>
<path d="M-218.806 388.175C-216.635 387.751 -215.162 385.937 -215.516 384.123C-215.869 382.309 -217.916 381.181 -220.087 381.604C-222.257 382.027 -223.73 383.841 -223.377 385.656C-223.023 387.47 -220.976 388.598 -218.806 388.175Z" fill="url(#paint22_linear)"/>
<path d="M95.4836 326.905C97.6544 326.482 99.1274 324.668 98.7737 322.854C98.42 321.039 96.3735 319.911 94.2027 320.335C92.032 320.758 90.559 322.572 90.9127 324.386C91.2664 326.2 93.3129 327.328 95.4836 326.905Z" fill="url(#paint23_linear)"/>
<path d="M123.858 262.228C126.029 261.805 127.502 259.991 127.148 258.177C126.794 256.362 124.748 255.234 122.577 255.658C120.406 256.081 118.933 257.895 119.287 259.709C119.641 261.523 121.687 262.651 123.858 262.228Z" fill="url(#paint24_linear)"/>
<path d="M16.7668 342.251C18.9375 341.827 20.4106 340.014 20.0569 338.199C19.7032 336.385 17.6567 335.257 15.4859 335.68C13.3151 336.103 11.8422 337.917 12.1959 339.732C12.5496 341.546 14.596 342.674 16.7668 342.251Z" fill="url(#paint25_linear)"/>
<path d="M11.6601 520.681C13.8308 520.258 15.3039 518.444 14.9502 516.629C14.5965 514.815 12.5499 513.687 10.3792 514.11C8.20844 514.533 6.73548 516.347 7.08919 518.162C7.4429 519.976 9.48933 521.104 11.6601 520.681Z" fill="url(#paint26_linear)"/>
<path d="M38.9825 456.209C41.1533 455.786 42.6263 453.972 42.2726 452.157C41.9189 450.343 39.8724 449.215 37.7016 449.638C35.5309 450.061 34.0579 451.875 34.4116 453.69C34.7653 455.504 36.8118 456.632 38.9825 456.209Z" fill="url(#paint27_linear)"/>
<path d="M117.699 440.863C119.87 440.44 121.343 438.626 120.989 436.812C120.636 434.997 118.589 433.87 116.418 434.293C114.248 434.716 112.775 436.53 113.128 438.344C113.482 440.159 115.529 441.286 117.699 440.863Z" fill="url(#paint28_linear)"/>
<path d="M-269.272 338.867C-267.101 338.444 -265.628 336.63 -265.982 334.816C-266.336 333.001 -268.382 331.874 -270.553 332.297C-272.724 332.72 -274.197 334.534 -273.843 336.348C-273.489 338.163 -271.443 339.29 -269.272 338.867Z" fill="url(#paint29_linear)"/>
<path d="M-240.84 275.146C-238.669 274.723 -237.196 272.909 -237.55 271.095C-237.904 269.28 -239.95 268.153 -242.121 268.576C-244.292 268.999 -245.765 270.813 -245.411 272.627C-245.057 274.442 -243.011 275.57 -240.84 275.146Z" fill="url(#paint30_linear)"/>
<path d="M411.53 564.321L348.268 576.654L307.71 537.028L330.414 485.069L393.676 472.736L434.234 512.363L411.53 564.321ZM349.3 574.29L409.686 562.518L431.358 512.923L392.644 475.1L332.258 486.872L310.586 536.467L349.3 574.29Z" fill="url(#paint31_linear)"/>
<path d="M141.692 663.238L79.1495 675.43L38.5881 635.8L61.0347 584.436L63.397 585.054L41.4668 635.239L80.181 673.064L141.286 661.152L141.692 663.238Z" fill="url(#paint32_linear)"/>
<path d="M243.643 689.812L180.381 702.145L139.823 662.519L162.527 610.56L225.789 598.227L266.347 637.853L243.643 689.812ZM181.413 699.783L241.799 688.011L263.471 638.416L224.757 600.593L164.371 612.365L142.699 661.96L181.413 699.783Z" fill="url(#paint33_linear)"/>
<path d="M281.378 728.37L241.744 689.643L243.698 688.181L283.334 726.907L281.378 728.37Z" fill="url(#paint34_linear)"/>
<path d="M345.232 715.922L342.87 715.301L364.8 665.114L325.134 626.393L327.086 624.931L367.678 664.553L345.232 715.922Z" fill="url(#paint35_linear)"/>
<path d="M327.492 627.017L325.134 626.393L347.609 575.02L349.97 575.642L327.492 627.017Z" fill="url(#paint36_linear)"/>
<path d="M432.559 650.823L366.037 663.791L366.443 665.873L432.965 652.904L432.559 650.823Z" fill="url(#paint37_linear)"/>
<path d="M8.62508 537.138L47.3986 575.022L25.6939 624.695L-34.7843 636.485L-73.5554 598.601L-51.8531 548.928L8.62508 537.138ZM9.74244 534.579L-53.8525 546.977L-76.6745 599.209L-35.9049 639.041L27.69 626.643L50.5152 574.414L9.74244 534.579Z" fill="url(#paint38_linear)"/>
<path d="M39.6744 638.98C41.9109 638.544 43.4285 636.675 43.0641 634.806C42.6997 632.936 40.5912 631.774 38.3547 632.21C36.1182 632.646 34.6006 634.515 34.965 636.384C35.3294 638.254 37.4379 639.416 39.6744 638.98Z" fill="url(#paint39_linear)"/>
<path d="M62.3447 588.374C64.5811 587.938 66.0988 586.07 65.7344 584.2C65.37 582.331 63.2615 581.169 61.025 581.605C58.7885 582.041 57.2709 583.91 57.6353 585.779C57.9997 587.648 60.1082 588.81 62.3447 588.374Z" fill="url(#paint40_linear)"/>
<path d="M164.933 614.561C167.169 614.125 168.687 612.256 168.323 610.387C167.958 608.518 165.85 607.356 163.613 607.792C161.377 608.228 159.859 610.096 160.224 611.966C160.588 613.835 162.696 614.997 164.933 614.561Z" fill="url(#paint41_linear)"/>
<path d="M349.426 578.595C351.662 578.159 353.18 576.29 352.816 574.421C352.451 572.551 350.343 571.389 348.106 571.825C345.87 572.261 344.352 574.13 344.716 576C345.081 577.869 347.189 579.031 349.426 578.595Z" fill="url(#paint42_linear)"/>
<path d="M283.255 732.246C285.492 731.81 287.01 729.942 286.645 728.072C286.281 726.203 284.172 725.041 281.936 725.477C279.699 725.913 278.182 727.782 278.546 729.651C278.911 731.52 281.019 732.682 283.255 732.246Z" fill="url(#paint43_linear)"/>
<path d="M181.557 704.35C183.793 703.914 185.311 702.045 184.947 700.176C184.582 698.306 182.474 697.144 180.237 697.58C178.001 698.016 176.483 699.885 176.848 701.754C177.212 703.624 179.32 704.786 181.557 704.35Z" fill="url(#paint44_linear)"/>
<path d="M429.373 656.039C431.609 655.603 433.127 653.734 432.762 651.865C432.398 649.995 430.289 648.834 428.053 649.27C425.816 649.706 424.299 651.574 424.663 653.444C425.028 655.313 427.136 656.475 429.373 656.039Z" fill="url(#paint45_linear)"/>
<path d="M366.898 668.218C369.134 667.782 370.652 665.913 370.287 664.044C369.923 662.175 367.814 661.013 365.578 661.449C363.341 661.885 361.824 663.754 362.188 665.623C362.553 667.492 364.661 668.654 366.898 668.218Z" fill="url(#paint46_linear)"/>
<path d="M108.826 464.754L146.401 501.47L125.368 549.606L66.7577 561.032L29.1811 524.321L50.2161 476.18L108.826 464.754ZM109.943 462.193L48.2164 474.226L26.0639 524.927L65.6375 563.59L127.364 551.556L149.518 500.86L109.943 462.193Z" fill="url(#paint47_linear)"/>
<path d="M-129.455 499.876L-91.8798 536.591L-112.913 584.73L-171.523 596.156L-209.1 559.443L-188.065 511.302L-129.455 499.876ZM-128.337 497.317L-190.064 509.35L-212.217 560.05L-172.643 598.715L-110.916 586.682L-88.7607 535.983L-128.337 497.317Z" fill="url(#paint48_linear)"/>
<path d="M-141.418 368.626L-141.023 370.651L-140.041 370.459L-140.436 368.435L-141.418 368.626ZM-219.946 386.036L-220.645 386.752L-220.27 387.118L-219.755 387.018L-219.946 386.036ZM-271.309 335.854L-272.226 335.454L-272.502 336.087L-272.008 336.57L-271.309 335.854ZM-242.808 270.628L-242.553 269.661L-243.381 269.443L-243.724 270.227L-242.808 270.628ZM-240.517 271.231L-239.6 271.631L-239.133 270.561L-240.262 270.264L-240.517 271.231ZM-268.516 335.31L-269.432 334.909L-269.709 335.542L-269.215 336.025L-268.516 335.31ZM-218.944 383.74L-219.643 384.455L-219.268 384.822L-218.753 384.721L-218.944 383.74ZM-95.1518 597.764L-95.4071 598.73L-94.5786 598.949L-94.2355 598.164L-95.1518 597.764ZM-97.4434 597.159L-98.3597 596.758L-98.827 597.828L-97.6986 598.126L-97.4434 597.159ZM-69.1901 532.507L-68.936 531.54L-69.7637 531.323L-70.1065 532.107L-69.1901 532.507ZM-66.9019 533.109L-65.9855 533.509L-65.5178 532.438L-66.6477 532.142L-66.9019 533.109ZM-10.9386 404.435L-10.7473 405.416L-10.2323 405.316L-10.0223 404.835L-10.9386 404.435ZM-91.0523 420.052L-91.7511 420.768L-91.3759 421.134L-90.861 421.034L-91.0523 420.052ZM-142.416 369.87L-143.332 369.47L-143.608 370.103L-143.114 370.586L-142.416 369.87ZM-113.662 304.072L-113.854 303.09L-114.369 303.191L-114.579 303.672L-113.662 304.072ZM-33.5486 288.454L-32.8497 287.739L-33.225 287.372L-33.7399 287.473L-33.5486 288.454ZM17.8118 338.635L18.7281 339.035L19.0047 338.402L18.5106 337.919L17.8118 338.635ZM-90.0518 417.76L-90.7506 418.476L-90.3754 418.842L-89.8604 418.742L-90.0518 417.76ZM-12.7317 402.687L-12.5404 403.669L-12.0255 403.568L-11.8154 403.088L-12.7317 402.687ZM15.0186 339.181L15.9349 339.582L16.2115 338.949L15.7174 338.466L15.0186 339.181ZM-34.5532 290.751L-33.8544 290.036L-34.2296 289.669L-34.7445 289.77L-34.5532 290.751ZM-111.873 305.825L-112.065 304.843L-112.58 304.943L-112.79 305.424L-111.873 305.825ZM-139.622 369.328L-140.538 368.927L-140.814 369.56L-140.32 370.043L-139.622 369.328ZM11.2776 518.395L11.4689 519.376L11.9838 519.276L12.1939 518.795L11.2776 518.395ZM-68.8362 534.013L-69.535 534.728L-69.1597 535.095L-68.6448 534.994L-68.8362 534.013ZM-119.751 484.27L-120.35 483.469L-121.285 484.169L-120.449 484.985L-119.751 484.27ZM-117.854 482.851L-117.155 482.135L-117.767 481.537L-118.453 482.05L-117.854 482.851ZM-67.836 531.719L-68.5349 532.434L-68.1596 532.8L-67.6447 532.7L-67.836 531.719ZM9.48402 516.645L9.67537 517.627L10.1903 517.526L10.4004 517.046L9.48402 516.645ZM37.2343 453.139L38.1507 453.54L38.4273 452.907L37.9332 452.424L37.2343 453.139ZM-12.7834 404.272L-13.3831 403.471L-14.317 404.171L-13.4822 404.987L-12.7834 404.272ZM-10.8869 402.85L-10.1881 402.135L-10.801 401.536L-11.4867 402.05L-10.8869 402.85ZM40.028 452.595L40.9443 452.995L41.2209 452.362L40.7268 451.88L40.028 452.595ZM-117.617 484.377L-117.425 485.358L-116.911 485.258L-116.7 484.777L-117.617 484.377ZM-197.73 499.995L-198.429 500.71L-198.054 501.076L-197.539 500.976L-197.73 499.995ZM-249.094 449.812L-250.01 449.412L-250.287 450.045L-249.793 450.528L-249.094 449.812ZM-220.341 384.012L-220.532 383.031L-221.047 383.131L-221.257 383.612L-220.341 384.012ZM-218.549 385.764L-218.741 384.783L-219.256 384.883L-219.466 385.364L-218.549 385.764ZM-246.3 449.268L-247.216 448.867L-247.493 449.5L-246.999 449.983L-246.3 449.268ZM-196.728 497.7L-197.427 498.415L-197.051 498.782L-196.537 498.681L-196.728 497.7ZM-119.408 482.627L-119.216 483.608L-118.702 483.508L-118.492 483.027L-119.408 482.627ZM-91.4063 418.547L-91.1506 417.58L-91.9793 417.361L-92.3226 418.147L-91.4063 418.547ZM-89.1172 419.153L-88.2009 419.553L-87.7338 418.484L-88.8615 418.186L-89.1172 419.153ZM118.329 437.857L118.074 438.824L118.902 439.042L119.245 438.258L118.329 437.857ZM116.038 437.254L115.121 436.854L114.654 437.924L115.783 438.221L116.038 437.254ZM144.036 373.173L144.953 373.574L145.229 372.941L144.735 372.458L144.036 373.173ZM94.4646 324.743L95.1634 324.028L94.7881 323.661L94.2732 323.762L94.4646 324.743ZM16.4473 339.952L15.4658 340.144L15.6572 341.125L16.6387 340.934L16.4473 339.952ZM16.0527 337.928L15.8614 336.946L14.8798 337.138L15.0712 338.119L16.0527 337.928ZM95.4692 322.446L96.1681 321.731L95.7928 321.364L95.2779 321.465L95.4692 322.446ZM146.83 372.629L147.746 373.029L148.023 372.396L147.529 371.913L146.83 372.629ZM96.1127 323.897L95.8574 324.864L96.6859 325.083L97.029 324.297L96.1127 323.897ZM93.8212 323.292L92.9049 322.892L92.4375 323.961L93.5659 324.259L93.8212 323.292ZM122.072 258.643L122.326 257.676L121.499 257.459L121.156 258.243L122.072 258.643ZM124.363 259.244L125.279 259.645L125.747 258.574L124.617 258.277L124.363 259.244ZM145.236 371.892L145.045 370.91L144.064 371.102L144.255 372.083L145.236 371.892ZM279.753 345.668L280.734 345.477L280.543 344.495L279.561 344.687L279.753 345.668ZM280.147 347.689L280.338 348.67L281.32 348.479L281.128 347.497L280.147 347.689ZM145.63 373.912L144.649 374.103L144.84 375.085L145.822 374.894L145.63 373.912ZM-436.414 485.282L-436.606 484.301L-437.587 484.492L-437.396 485.474L-436.414 485.282ZM-247.894 448.531L-246.912 448.34L-247.103 447.358L-248.085 447.55L-247.894 448.531ZM-247.5 450.551L-247.308 451.533L-246.327 451.341L-246.518 450.36L-247.5 450.551ZM-436.02 487.303L-437.002 487.494L-436.811 488.476L-435.829 488.284L-436.02 487.303ZM411.53 564.321L411.722 565.303L412.237 565.202L412.447 564.722L411.53 564.321ZM348.268 576.654L347.569 577.369L347.945 577.736L348.46 577.636L348.268 576.654ZM307.71 537.028L306.794 536.628L306.517 537.26L307.011 537.743L307.71 537.028ZM330.414 485.069L330.223 484.088L329.708 484.188L329.498 484.669L330.414 485.069ZM393.676 472.736L394.375 472.021L394 471.655L393.485 471.755L393.676 472.736ZM434.234 512.363L435.151 512.763L435.427 512.13L434.933 511.647L434.234 512.363ZM349.3 574.29L348.602 575.006L348.977 575.372L349.492 575.272L349.3 574.29ZM409.686 562.518L409.878 563.5L410.392 563.4L410.603 562.919L409.686 562.518ZM431.358 512.923L432.275 513.324L432.551 512.691L432.057 512.208L431.358 512.923ZM392.644 475.1L393.343 474.385L392.968 474.018L392.453 474.119L392.644 475.1ZM332.258 486.872L332.067 485.891L331.552 485.991L331.342 486.472L332.258 486.872ZM310.586 536.467L309.67 536.067L309.393 536.7L309.888 537.183L310.586 536.467ZM141.692 663.238L141.884 664.219L142.865 664.028L142.674 663.046L141.692 663.238ZM79.1495 675.43L78.4506 676.145L78.8259 676.512L79.3408 676.412L79.1495 675.43ZM38.5881 635.8L37.6718 635.4L37.3952 636.033L37.8893 636.516L38.5881 635.8ZM61.0347 584.436L61.288 583.468L60.4608 583.252L60.1184 584.035L61.0347 584.436ZM63.397 585.054L64.3133 585.455L64.7815 584.383L63.6503 584.087L63.397 585.054ZM41.4668 635.239L40.5504 634.839L40.2738 635.472L40.7679 635.955L41.4668 635.239ZM80.181 673.064L79.4822 673.78L79.8574 674.146L80.3723 674.046L80.181 673.064ZM141.286 661.152L142.267 660.961L142.076 659.979L141.095 660.171L141.286 661.152ZM243.643 689.812L243.834 690.794L244.349 690.693L244.559 690.212L243.643 689.812ZM180.381 702.145L179.682 702.86L180.057 703.227L180.572 703.126L180.381 702.145ZM139.823 662.519L138.906 662.118L138.63 662.751L139.124 663.234L139.823 662.519ZM162.527 610.56L162.335 609.578L161.82 609.679L161.61 610.16L162.527 610.56ZM225.789 598.227L226.487 597.512L226.112 597.145L225.597 597.246L225.789 598.227ZM266.347 637.853L267.263 638.254L267.54 637.621L267.046 637.138L266.347 637.853ZM181.413 699.783L180.714 700.499L181.089 700.865L181.604 700.765L181.413 699.783ZM241.799 688.011L241.99 688.993L242.505 688.892L242.715 688.412L241.799 688.011ZM263.471 638.416L264.387 638.817L264.664 638.184L264.17 637.701L263.471 638.416ZM224.757 600.593L225.456 599.878L225.081 599.511L224.566 599.611L224.757 600.593ZM164.371 612.365L164.18 611.383L163.665 611.484L163.455 611.964L164.371 612.365ZM142.699 661.96L141.783 661.56L141.506 662.193L142 662.675L142.699 661.96ZM281.378 728.37L280.679 729.085L281.291 729.683L281.976 729.171L281.378 728.37ZM241.744 689.643L241.145 688.842L240.21 689.542L241.045 690.358L241.744 689.643ZM243.698 688.181L244.397 687.465L243.784 686.867L243.099 687.38L243.698 688.181ZM283.334 726.907L283.933 727.708L284.869 727.009L284.033 726.192L283.334 726.907ZM345.232 715.922L344.978 716.889L345.806 717.106L346.149 716.322L345.232 715.922ZM342.87 715.301L341.954 714.901L341.486 715.971L342.616 716.268L342.87 715.301ZM364.8 665.114L365.716 665.514L365.993 664.881L365.498 664.398L364.8 665.114ZM325.134 626.393L324.218 625.992L323.941 626.626L324.436 627.109L325.134 626.393ZM327.086 624.931L327.784 624.216L327.172 623.618L326.486 624.131L327.086 624.931ZM367.678 664.553L368.595 664.953L368.871 664.32L368.377 663.837L367.678 664.553ZM327.492 627.017L327.237 627.983L328.065 628.202L328.408 627.417L327.492 627.017ZM347.609 575.02L347.864 574.053L347.036 573.836L346.693 574.62L347.609 575.02ZM349.97 575.642L350.886 576.042L351.354 574.972L350.224 574.674L349.97 575.642ZM366.037 663.791L365.846 662.81L364.864 663.001L365.056 663.983L366.037 663.791ZM432.559 650.823L433.541 650.632L433.349 649.65L432.368 649.842L432.559 650.823ZM432.965 652.904L433.156 653.886L434.138 653.695L433.946 652.713L432.965 652.904ZM366.443 665.873L365.461 666.064L365.653 667.045L366.634 666.854L366.443 665.873ZM8.62508 537.138L9.32393 536.423L8.94867 536.056L8.43373 536.157L8.62508 537.138ZM47.3986 575.022L48.3149 575.422L48.5915 574.789L48.0974 574.306L47.3986 575.022ZM25.6939 624.695L25.8852 625.676L26.4002 625.576L26.6102 625.095L25.6939 624.695ZM-34.7843 636.485L-35.4832 637.2L-35.1079 637.567L-34.593 637.466L-34.7843 636.485ZM-73.5554 598.601L-74.4717 598.201L-74.7482 598.834L-74.2542 599.316L-73.5554 598.601ZM-51.8531 548.928L-52.0445 547.947L-52.5594 548.047L-52.7695 548.528L-51.8531 548.928ZM9.74244 534.579L10.4413 533.864L10.066 533.497L9.55109 533.598L9.74244 534.579ZM-53.8525 546.977L-54.0438 545.995L-54.5587 546.095L-54.7688 546.576L-53.8525 546.977ZM-76.6745 599.209L-77.5908 598.809L-77.8674 599.442L-77.3733 599.924L-76.6745 599.209ZM-35.9049 639.041L-36.6038 639.756L-36.2285 640.122L-35.7136 640.022L-35.9049 639.041ZM27.69 626.643L27.8813 627.625L28.3962 627.524L28.6063 627.043L27.69 626.643ZM50.5152 574.414L51.4316 574.814L51.7082 574.181L51.2141 573.699L50.5152 574.414ZM108.826 464.754L109.525 464.039L109.15 463.672L108.635 463.773L108.826 464.754ZM146.401 501.47L147.318 501.87L147.594 501.237L147.1 500.754L146.401 501.47ZM125.368 549.606L125.559 550.588L126.074 550.487L126.284 550.007L125.368 549.606ZM66.7577 561.032L66.0589 561.747L66.4341 562.114L66.949 562.014L66.7577 561.032ZM29.1811 524.321L28.2647 523.921L27.9881 524.554L28.4822 525.037L29.1811 524.321ZM50.2161 476.18L50.0248 475.199L49.5099 475.299L49.2998 475.78L50.2161 476.18ZM109.943 462.193L110.642 461.478L110.267 461.111L109.752 461.211L109.943 462.193ZM48.2164 474.226L48.0251 473.245L47.5101 473.345L47.3001 473.826L48.2164 474.226ZM26.0639 524.927L25.1476 524.526L24.871 525.159L25.3651 525.642L26.0639 524.927ZM65.6375 563.59L64.9387 564.305L65.3139 564.672L65.8288 564.571L65.6375 563.59ZM127.364 551.556L127.556 552.538L128.071 552.438L128.281 551.957L127.364 551.556ZM149.518 500.86L150.434 501.26L150.71 500.628L150.216 500.145L149.518 500.86ZM-129.455 499.876L-128.756 499.161L-129.131 498.794L-129.646 498.894L-129.455 499.876ZM-91.8798 536.591L-90.9634 536.992L-90.6869 536.359L-91.1809 535.876L-91.8798 536.591ZM-112.913 584.73L-112.721 585.711L-112.207 585.611L-111.996 585.13L-112.913 584.73ZM-171.523 596.156L-172.222 596.871L-171.847 597.238L-171.332 597.137L-171.523 596.156ZM-209.1 559.443L-210.016 559.042L-210.293 559.675L-209.799 560.158L-209.1 559.443ZM-188.065 511.302L-188.256 510.32L-188.771 510.421L-188.981 510.901L-188.065 511.302ZM-128.337 497.317L-127.639 496.601L-128.014 496.235L-128.529 496.335L-128.337 497.317ZM-190.064 509.35L-190.256 508.368L-190.771 508.469L-190.981 508.95L-190.064 509.35ZM-212.217 560.05L-213.133 559.65L-213.41 560.283L-212.916 560.766L-212.217 560.05ZM-172.643 598.715L-173.342 599.431L-172.966 599.797L-172.451 599.697L-172.643 598.715ZM-110.916 586.682L-110.725 587.664L-110.21 587.563L-110 587.082L-110.916 586.682ZM-88.7607 535.983L-87.8443 536.384L-87.5677 535.751L-88.0618 535.268L-88.7607 535.983ZM-140.723 369.573L-220.138 385.055L-219.755 387.018L-140.341 371.536L-140.723 369.573ZM-219.247 385.321L-270.611 335.139L-272.008 336.57L-220.645 386.752L-219.247 385.321ZM-270.393 336.255L-241.891 271.028L-243.724 270.227L-272.226 335.454L-270.393 336.255ZM-243.062 271.595L-240.771 272.198L-240.262 270.264L-242.553 269.661L-243.062 271.595ZM-241.433 270.83L-269.432 334.909L-267.599 335.71L-239.6 271.631L-241.433 270.83ZM-269.215 336.025L-219.643 384.455L-218.245 383.024L-267.817 334.594L-269.215 336.025ZM-218.753 384.721L-140.735 369.512L-141.118 367.549L-219.135 382.758L-218.753 384.721ZM-94.8966 596.797L-97.1881 596.192L-97.6986 598.126L-95.4071 598.73L-94.8966 596.797ZM-96.527 597.559L-68.2738 532.908L-70.1065 532.107L-98.3597 596.758L-96.527 597.559ZM-69.4443 533.474L-67.1561 534.076L-66.6477 532.142L-68.936 531.54L-69.4443 533.474ZM-67.8182 532.708L-96.0682 597.363L-94.2355 598.164L-65.9855 533.509L-67.8182 532.708ZM-11.1299 403.453L-91.2437 419.071L-90.861 421.034L-10.7473 405.416L-11.1299 403.453ZM-90.3535 419.337L-141.717 369.155L-143.114 370.586L-91.7511 420.768L-90.3535 419.337ZM-141.499 370.271L-112.746 304.472L-114.579 303.672L-143.332 369.47L-141.499 370.271ZM-113.471 305.054L-33.3572 289.436L-33.7399 287.473L-113.854 303.09L-113.471 305.054ZM-34.2474 289.169L17.113 339.35L18.5106 337.919L-32.8497 287.739L-34.2474 289.169ZM16.8955 338.234L-11.8549 404.034L-10.0223 404.835L18.7281 339.035L16.8955 338.234ZM-89.8604 418.742L-12.5404 403.669L-12.9231 401.706L-90.2431 416.779L-89.8604 418.742ZM-11.8154 403.088L15.9349 339.582L14.1023 338.781L-13.6481 402.287L-11.8154 403.088ZM15.7174 338.466L-33.8544 290.036L-35.252 291.467L14.3198 339.897L15.7174 338.466ZM-34.7445 289.77L-112.065 304.843L-111.682 306.806L-34.3619 291.733L-34.7445 289.77ZM-112.79 305.424L-140.538 368.927L-138.705 369.728L-110.957 306.225L-112.79 305.424ZM-140.32 370.043L-90.7506 418.476L-89.3529 417.045L-138.923 368.613L-140.32 370.043ZM11.0862 517.413L-69.0275 533.031L-68.6448 534.994L11.4689 519.376L11.0862 517.413ZM-68.1373 533.297L-119.052 483.555L-120.449 484.985L-69.535 534.728L-68.1373 533.297ZM-119.151 485.071L-117.255 483.651L-118.453 482.05L-120.35 483.469L-119.151 485.071ZM-118.553 483.566L-68.5349 532.434L-67.1372 531.003L-117.155 482.135L-118.553 483.566ZM-67.6447 532.7L9.67537 517.627L9.29268 515.664L-68.0274 530.737L-67.6447 532.7ZM10.4004 517.046L38.1507 453.54L36.318 452.739L8.56769 516.245L10.4004 517.046ZM37.9332 452.424L-12.0846 403.556L-13.4822 404.987L36.5355 453.855L37.9332 452.424ZM-12.1837 405.072L-10.2872 403.65L-11.4867 402.05L-13.3831 403.471L-12.1837 405.072ZM-11.5858 403.565L39.3291 453.31L40.7268 451.88L-10.1881 402.135L-11.5858 403.565ZM39.1116 452.194L10.3612 517.994L12.1939 518.795L40.9443 452.995L39.1116 452.194ZM-117.808 483.395L-197.922 499.013L-197.539 500.976L-117.425 485.358L-117.808 483.395ZM-197.032 499.279L-248.395 449.097L-249.793 450.528L-198.429 500.71L-197.032 499.279ZM-248.177 450.213L-219.424 384.412L-221.257 383.612L-250.01 449.412L-248.177 450.213ZM-220.149 384.994L-140.735 369.512L-141.118 367.549L-220.532 383.031L-220.149 384.994ZM-140.723 369.573L-218.741 384.783L-218.358 386.746L-140.341 371.536L-140.723 369.573ZM-219.466 385.364L-247.216 448.867L-245.384 449.668L-217.633 386.164L-219.466 385.364ZM-246.999 449.983L-197.427 498.415L-196.029 496.985L-245.601 448.553L-246.999 449.983ZM-196.537 498.681L-119.216 483.608L-119.599 481.645L-196.919 496.718L-196.537 498.681ZM-118.492 483.027L-90.4899 418.948L-92.3226 418.147L-120.324 482.226L-118.492 483.027ZM-91.662 419.514L-89.3729 420.119L-88.8615 418.186L-91.1506 417.58L-91.662 419.514ZM-90.0335 418.752L-118.533 483.976L-116.7 484.777L-88.2009 419.553L-90.0335 418.752ZM118.583 436.89L116.292 436.287L115.783 438.221L118.074 438.824L118.583 436.89ZM116.954 437.655L144.953 373.574L143.12 372.773L115.121 436.854L116.954 437.655ZM144.735 372.458L95.1634 324.028L93.7658 325.458L143.338 373.889L144.735 372.458ZM94.2732 323.762L16.256 338.971L16.6387 340.934L94.6559 325.725L94.2732 323.762ZM17.4289 339.761L17.0342 337.737L15.0712 338.119L15.4658 340.144L17.4289 339.761ZM16.2441 338.91L95.6606 323.428L95.2779 321.465L15.8614 336.946L16.2441 338.91ZM94.7704 323.161L146.131 373.344L147.529 371.913L96.1681 321.731L94.7704 323.161ZM145.914 372.228L117.412 437.457L119.245 438.258L147.746 373.029L145.914 372.228ZM96.3679 322.93L94.0764 322.325L93.5659 324.259L95.8574 324.864L96.3679 322.93ZM94.7375 323.693L122.989 259.044L121.156 258.243L92.9049 322.892L94.7375 323.693ZM121.819 259.611L124.109 260.212L124.617 258.277L122.326 257.676L121.819 259.611ZM123.447 258.844L95.1964 323.497L97.029 324.297L125.279 259.645L123.447 258.844ZM145.428 372.873L279.944 346.65L279.561 344.687L145.045 370.91L145.428 372.873ZM278.771 345.86L279.165 347.88L281.128 347.497L280.734 345.477L278.771 345.86ZM279.955 346.707L145.439 372.931L145.822 374.894L280.338 348.67L279.955 346.707ZM146.612 373.721L146.218 371.7L144.255 372.083L144.649 374.103L146.612 373.721ZM-436.223 486.264L-247.702 449.513L-248.085 447.55L-436.606 484.301L-436.223 486.264ZM-248.875 448.722L-248.481 450.743L-246.518 450.36L-246.912 448.34L-248.875 448.722ZM-247.691 449.57L-436.212 486.321L-435.829 488.284L-247.308 451.533L-247.691 449.57ZM-435.039 487.111L-435.433 485.091L-437.396 485.474L-437.002 487.494L-435.039 487.111ZM-115.565 482.927C-115.347 484.042 -116.264 485.455 -118.064 485.806L-117.682 487.769C-115.141 487.273 -113.111 485.058 -113.601 482.544L-115.565 482.927ZM-118.064 485.806C-119.865 486.157 -121.245 485.192 -121.462 484.077L-123.425 484.459C-122.935 486.973 -120.222 488.264 -117.682 487.769L-118.064 485.806ZM-121.462 484.077C-121.68 482.962 -120.763 481.549 -118.963 481.198L-119.345 479.235C-121.886 479.73 -123.916 481.946 -123.425 484.459L-121.462 484.077ZM-118.963 481.198C-117.162 480.847 -115.782 481.812 -115.565 482.927L-113.601 482.544C-114.092 480.03 -116.805 478.74 -119.345 479.235L-118.963 481.198ZM-194.281 498.273C-194.064 499.387 -194.98 500.8 -196.781 501.151L-196.399 503.114C-193.858 502.619 -191.828 500.404 -192.318 497.89L-194.281 498.273ZM-196.781 501.151C-198.582 501.502 -199.962 500.537 -200.179 499.422L-202.142 499.805C-201.652 502.319 -198.939 503.61 -196.399 503.114L-196.781 501.151ZM-200.179 499.422C-200.397 498.308 -199.48 496.895 -197.679 496.544L-198.062 494.581C-200.603 495.076 -202.632 497.291 -202.142 499.805L-200.179 499.422ZM-197.679 496.544C-195.879 496.193 -194.499 497.158 -194.281 498.273L-192.318 497.89C-192.808 495.376 -195.522 494.085 -198.062 494.581L-197.679 496.544ZM-93.3488 596.885C-93.1315 598 -94.0478 599.413 -95.8487 599.764L-95.466 601.727C-92.9253 601.232 -90.8957 599.016 -91.3858 596.502L-93.3488 596.885ZM-95.8487 599.764C-97.6495 600.115 -99.0294 599.15 -99.2467 598.035L-101.21 598.418C-100.72 600.932 -98.0066 602.222 -95.466 601.727L-95.8487 599.764ZM-99.2467 598.035C-99.4641 596.92 -98.5477 595.507 -96.7469 595.156L-97.1296 593.193C-99.6702 593.689 -101.7 595.904 -101.21 598.418L-99.2467 598.035ZM-96.7469 595.156C-94.946 594.805 -93.5661 595.77 -93.3488 596.885L-91.3858 596.502C-91.8758 593.989 -94.5889 592.698 -97.1296 593.193L-96.7469 595.156ZM-87.3141 418.274C-87.0968 419.389 -88.0131 420.802 -89.814 421.153L-89.4313 423.116C-86.8907 422.621 -84.861 420.405 -85.3511 417.891L-87.3141 418.274ZM-89.814 421.153C-91.6149 421.504 -92.9948 420.539 -93.2121 419.424L-95.1751 419.807C-94.685 422.321 -91.972 423.611 -89.4313 423.116L-89.814 421.153ZM-93.2121 419.424C-93.4294 418.309 -92.5131 416.896 -90.7122 416.545L-91.0949 414.582C-93.6355 415.078 -95.6652 417.293 -95.1751 419.807L-93.2121 419.424ZM-90.7122 416.545C-88.9114 416.194 -87.5315 417.159 -87.3141 418.274L-85.3511 417.891C-85.8412 415.378 -88.5543 414.087 -91.0949 414.582L-90.7122 416.545ZM-65.098 532.234C-64.8807 533.349 -65.797 534.762 -67.5979 535.113L-67.2152 537.076C-64.6746 536.581 -62.6449 534.366 -63.135 531.852L-65.098 532.234ZM-67.5979 535.113C-69.3988 535.464 -70.7786 534.499 -70.996 533.384L-72.959 533.767C-72.4689 536.281 -69.7558 537.571 -67.2152 537.076L-67.5979 535.113ZM-70.996 533.384C-71.2133 532.269 -70.297 530.857 -68.4961 530.506L-68.8788 528.542C-71.4194 529.038 -73.4491 531.253 -72.959 533.767L-70.996 533.384ZM-68.4961 530.506C-66.6952 530.154 -65.3154 531.12 -65.098 532.234L-63.135 531.852C-63.6251 529.338 -66.3382 528.047 -68.8788 528.542L-68.4961 530.506ZM-8.24747 402.86C-8.03014 403.975 -8.94649 405.388 -10.7474 405.739L-10.3647 407.702C-7.82407 407.207 -5.79434 404.992 -6.28443 402.478L-8.24747 402.86ZM-10.7474 405.739C-12.5482 406.09 -13.9281 405.125 -14.1454 404.01L-16.1085 404.393C-15.6184 406.907 -12.9053 408.197 -10.3647 407.702L-10.7474 405.739ZM-14.1454 404.01C-14.3627 402.895 -13.4464 401.483 -11.6456 401.132L-12.0283 399.169C-14.5689 399.664 -16.5985 401.879 -16.1085 404.393L-14.1454 404.01ZM-11.6456 401.132C-9.8447 400.78 -8.4648 401.746 -8.24747 402.86L-6.28443 402.478C-6.77451 399.964 -9.48764 398.673 -12.0283 399.169L-11.6456 401.132ZM-30.4632 288.902C-30.2459 290.017 -31.1622 291.43 -32.9631 291.781L-32.5804 293.744C-30.0398 293.249 -28.0101 291.034 -28.5001 288.52L-30.4632 288.902ZM-32.9631 291.781C-34.7639 292.132 -36.1438 291.167 -36.3611 290.052L-38.3242 290.435C-37.8341 292.949 -35.1211 294.239 -32.5804 293.744L-32.9631 291.781ZM-36.3611 290.052C-36.5785 288.937 -35.6622 287.524 -33.8613 287.173L-34.244 285.21C-36.7846 285.706 -38.8143 287.921 -38.3242 290.435L-36.3611 290.052ZM-33.8613 287.173C-32.0604 286.822 -30.6805 287.787 -30.4632 288.902L-28.5001 288.52C-28.9902 286.006 -31.7034 284.715 -34.244 285.21L-33.8613 287.173ZM-109.819 304.372C-109.602 305.487 -110.518 306.9 -112.319 307.251L-111.936 309.214C-109.396 308.719 -107.366 306.504 -107.856 303.99L-109.819 304.372ZM-112.319 307.251C-114.12 307.602 -115.5 306.637 -115.717 305.522L-117.68 305.905C-117.19 308.419 -114.477 309.709 -111.936 309.214L-112.319 307.251ZM-115.717 305.522C-115.934 304.407 -115.018 302.995 -113.217 302.644L-113.6 300.68C-116.14 301.176 -118.17 303.391 -117.68 305.905L-115.717 305.522ZM-113.217 302.644C-111.416 302.292 -110.036 303.258 -109.819 304.372L-107.856 303.99C-108.346 301.476 -111.059 300.185 -113.6 300.68L-113.217 302.644ZM148.382 372.326C148.599 373.441 147.683 374.854 145.882 375.205L146.265 377.168C148.806 376.672 150.835 374.457 150.345 371.943L148.382 372.326ZM145.882 375.205C144.081 375.556 142.702 374.591 142.484 373.476L140.521 373.859C141.011 376.372 143.724 377.663 146.265 377.168L145.882 375.205ZM142.484 373.476C142.267 372.361 143.183 370.948 144.984 370.597L144.601 368.634C142.061 369.129 140.031 371.345 140.521 373.859L142.484 373.476ZM144.984 370.597C146.785 370.246 148.165 371.211 148.382 372.326L150.345 371.943C149.855 369.429 147.142 368.139 144.601 368.634L144.984 370.597ZM282.899 346.103C283.116 347.217 282.2 348.63 280.399 348.981L280.781 350.944C283.322 350.449 285.352 348.234 284.862 345.72L282.899 346.103ZM280.399 348.981C278.598 349.332 277.218 348.367 277.001 347.252L275.037 347.635C275.528 350.149 278.241 351.44 280.781 350.944L280.399 348.981ZM277.001 347.252C276.783 346.138 277.7 344.725 279.5 344.374L279.118 342.411C276.577 342.906 274.547 345.121 275.037 347.635L277.001 347.252ZM279.5 344.374C281.301 344.023 282.681 344.988 282.899 346.103L284.862 345.72C284.371 343.206 281.658 341.915 279.118 342.411L279.5 344.374ZM-244.748 448.965C-244.531 450.08 -245.447 451.493 -247.248 451.844L-246.865 453.807C-244.324 453.312 -242.295 451.097 -242.785 448.583L-244.748 448.965ZM-247.248 451.844C-249.049 452.195 -250.429 451.23 -250.646 450.115L-252.609 450.498C-252.119 453.012 -249.406 454.302 -246.865 453.807L-247.248 451.844ZM-250.646 450.115C-250.863 449 -249.947 447.587 -248.146 447.236L-248.529 445.273C-251.069 445.769 -253.099 447.984 -252.609 450.498L-250.646 450.115ZM-248.146 447.236C-246.345 446.885 -244.965 447.85 -244.748 448.965L-242.785 448.583C-243.275 446.069 -245.988 444.778 -248.529 445.273L-248.146 447.236ZM-137.78 368.969C-137.563 370.084 -138.479 371.496 -140.28 371.847L-139.897 373.811C-137.357 373.315 -135.327 371.1 -135.817 368.586L-137.78 368.969ZM-140.28 371.847C-142.081 372.199 -143.461 371.233 -143.678 370.119L-145.641 370.501C-145.151 373.015 -142.438 374.306 -139.897 373.811L-140.28 371.847ZM-143.678 370.119C-143.895 369.004 -142.979 367.591 -141.178 367.24L-141.561 365.277C-144.102 365.772 -146.131 367.987 -145.641 370.501L-143.678 370.119ZM-141.178 367.24C-139.377 366.889 -137.998 367.854 -137.78 368.969L-135.817 368.586C-136.307 366.072 -139.02 364.782 -141.561 365.277L-141.178 367.24ZM-216.497 384.314C-216.28 385.429 -217.196 386.842 -218.997 387.193L-218.614 389.156C-216.074 388.661 -214.044 386.446 -214.534 383.932L-216.497 384.314ZM-218.997 387.193C-220.798 387.544 -222.178 386.579 -222.395 385.464L-224.358 385.847C-223.868 388.361 -221.155 389.651 -218.614 389.156L-218.997 387.193ZM-222.395 385.464C-222.612 384.349 -221.696 382.937 -219.895 382.586L-220.278 380.623C-222.819 381.118 -224.848 383.333 -224.358 385.847L-222.395 385.464ZM-219.895 382.586C-218.094 382.235 -216.714 383.2 -216.497 384.314L-214.534 383.932C-215.024 381.418 -217.737 380.127 -220.278 380.623L-219.895 382.586ZM97.7922 323.045C98.0095 324.16 97.0932 325.572 95.2923 325.924L95.675 327.887C98.2156 327.391 100.245 325.176 99.7552 322.662L97.7922 323.045ZM95.2923 325.924C93.4914 326.275 92.1116 325.31 91.8943 324.195L89.9312 324.577C90.4213 327.091 93.1343 328.382 95.675 327.887L95.2923 325.924ZM91.8943 324.195C91.6769 323.08 92.5932 321.667 94.3941 321.316L94.0114 319.353C91.4707 319.848 89.4411 322.063 89.9312 324.577L91.8943 324.195ZM94.3941 321.316C96.195 320.965 97.5749 321.93 97.7922 323.045L99.7552 322.662C99.2651 320.148 96.552 318.858 94.0114 319.353L94.3941 321.316ZM126.166 258.368C126.384 259.483 125.467 260.895 123.667 261.246L124.049 263.21C126.59 262.714 128.62 260.499 128.129 257.985L126.166 258.368ZM123.667 261.246C121.866 261.598 120.486 260.632 120.268 259.518L118.305 259.9C118.796 262.414 121.509 263.705 124.049 263.21L123.667 261.246ZM120.268 259.518C120.051 258.403 120.968 256.99 122.768 256.639L122.386 254.676C119.845 255.171 117.815 257.386 118.305 259.9L120.268 259.518ZM122.768 256.639C124.569 256.288 125.949 257.253 126.166 258.368L128.129 257.985C127.639 255.471 124.926 254.181 122.386 254.676L122.768 256.639ZM19.0753 338.39C19.2927 339.505 18.3763 340.918 16.5754 341.269L16.9581 343.232C19.4988 342.737 21.5285 340.522 21.0384 338.008L19.0753 338.39ZM16.5754 341.269C14.7746 341.62 13.3947 340.655 13.1774 339.54L11.2144 339.923C11.7045 342.437 14.4175 343.727 16.9581 343.232L16.5754 341.269ZM13.1774 339.54C12.9601 338.425 13.8764 337.013 15.6772 336.662L15.2946 334.699C12.7539 335.194 10.7243 337.409 11.2144 339.923L13.1774 339.54ZM15.6772 336.662C17.4781 336.311 18.858 337.276 19.0753 338.39L21.0384 338.008C20.5483 335.494 17.8352 334.203 15.2946 334.699L15.6772 336.662ZM13.9686 516.821C14.186 517.935 13.2696 519.348 11.4687 519.699L11.8514 521.662C14.392 521.167 16.4218 518.952 15.9317 516.438L13.9686 516.821ZM11.4687 519.699C9.66788 520.05 8.28804 519.085 8.07071 517.97L6.10766 518.353C6.59775 520.867 9.31078 522.158 11.8514 521.662L11.4687 519.699ZM8.07071 517.97C7.85338 516.856 8.76968 515.443 10.5705 515.092L10.1879 513.129C7.6472 513.624 5.61758 515.839 6.10766 518.353L8.07071 517.97ZM10.5705 515.092C12.3714 514.741 13.7513 515.706 13.9686 516.821L15.9317 516.438C15.4416 513.924 12.7285 512.633 10.1879 513.129L10.5705 515.092ZM41.2911 452.349C41.5084 453.463 40.592 454.876 38.7912 455.227L39.1739 457.19C41.7145 456.695 43.7442 454.48 43.2541 451.966L41.2911 452.349ZM38.7912 455.227C36.9903 455.578 35.6105 454.613 35.3931 453.498L33.4301 453.881C33.9202 456.395 36.6332 457.686 39.1739 457.19L38.7912 455.227ZM35.3931 453.498C35.1758 452.384 36.0921 450.971 37.893 450.62L37.5103 448.657C34.9696 449.152 32.94 451.367 33.4301 453.881L35.3931 453.498ZM37.893 450.62C39.6938 450.269 41.0737 451.234 41.2911 452.349L43.2541 451.966C42.764 449.452 40.0509 448.161 37.5103 448.657L37.893 450.62ZM120.008 437.003C120.225 438.118 119.309 439.531 117.508 439.882L117.891 441.845C120.431 441.349 122.461 439.134 121.971 436.62L120.008 437.003ZM117.508 439.882C115.707 440.233 114.327 439.268 114.11 438.153L112.147 438.536C112.637 441.049 115.35 442.34 117.891 441.845L117.508 439.882ZM114.11 438.153C113.893 437.038 114.809 435.625 116.61 435.274L116.227 433.311C113.686 433.806 111.657 436.022 112.147 438.536L114.11 438.153ZM116.61 435.274C118.411 434.923 119.791 435.888 120.008 437.003L121.971 436.62C121.481 434.106 118.768 432.816 116.227 433.311L116.61 435.274ZM-266.964 335.007C-266.746 336.122 -267.663 337.535 -269.463 337.886L-269.081 339.849C-266.54 339.353 -264.51 337.138 -265.001 334.624L-266.964 335.007ZM-269.463 337.886C-271.264 338.237 -272.644 337.272 -272.862 336.157L-274.825 336.54C-274.335 339.054 -271.621 340.344 -269.081 339.849L-269.463 337.886ZM-272.862 336.157C-273.079 335.042 -272.163 333.629 -270.362 333.278L-270.744 331.315C-273.285 331.811 -275.315 334.026 -274.825 336.54L-272.862 336.157ZM-270.362 333.278C-268.561 332.927 -267.181 333.892 -266.964 335.007L-265.001 334.624C-265.491 332.11 -268.204 330.82 -270.744 331.315L-270.362 333.278ZM-238.532 271.286C-238.314 272.401 -239.231 273.814 -241.031 274.165L-240.649 276.128C-238.108 275.633 -236.078 273.417 -236.569 270.904L-238.532 271.286ZM-241.031 274.165C-242.832 274.516 -244.212 273.551 -244.43 272.436L-246.393 272.819C-245.902 275.333 -243.189 276.623 -240.649 276.128L-241.031 274.165ZM-244.43 272.436C-244.647 271.321 -243.731 269.908 -241.93 269.557L-242.312 267.594C-244.853 268.09 -246.883 270.305 -246.393 272.819L-244.43 272.436ZM-241.93 269.557C-240.129 269.206 -238.749 270.171 -238.532 271.286L-236.569 270.904C-237.059 268.39 -239.772 267.099 -242.312 267.594L-241.93 269.557ZM411.339 563.34L348.077 575.672L348.46 577.636L411.722 565.303L411.339 563.34ZM348.967 575.939L308.409 536.313L307.011 537.743L347.569 577.369L348.967 575.939ZM308.627 537.428L331.331 485.47L329.498 484.669L306.794 536.628L308.627 537.428ZM330.606 486.051L393.868 473.718L393.485 471.755L330.223 484.088L330.606 486.051ZM392.977 473.452L433.536 513.078L434.933 511.647L394.375 472.021L392.977 473.452ZM433.318 511.962L410.614 563.921L412.447 564.722L435.151 512.763L433.318 511.962ZM349.492 575.272L409.878 563.5L409.495 561.537L349.109 573.309L349.492 575.272ZM410.603 562.919L432.275 513.324L430.442 512.523L408.77 562.118L410.603 562.919ZM432.057 512.208L393.343 474.385L391.946 475.815L430.659 513.639L432.057 512.208ZM392.453 474.119L332.067 485.891L332.45 487.854L392.836 476.082L392.453 474.119ZM331.342 486.472L309.67 536.067L311.503 536.868L333.175 487.272L331.342 486.472ZM309.888 537.183L348.602 575.006L349.999 573.575L311.285 535.752L309.888 537.183ZM141.501 662.256L78.9581 674.449L79.3408 676.412L141.884 664.219L141.501 662.256ZM79.8483 674.715L39.287 635.085L37.8893 636.516L78.4506 676.145L79.8483 674.715ZM39.5045 636.201L61.951 584.836L60.1184 584.035L37.6718 635.4L39.5045 636.201ZM60.7814 585.403L63.1436 586.022L63.6503 584.087L61.288 583.468L60.7814 585.403ZM62.4806 584.654L40.5504 634.839L42.3831 635.64L64.3133 585.455L62.4806 584.654ZM40.7679 635.955L79.4822 673.78L80.8798 672.349L42.1656 634.524L40.7679 635.955ZM80.3723 674.046L141.477 662.134L141.095 660.171L79.9897 672.083L80.3723 674.046ZM140.304 661.344L140.711 663.429L142.674 663.046L142.267 660.961L140.304 661.344ZM243.451 688.831L180.189 701.163L180.572 703.126L243.834 690.794L243.451 688.831ZM181.079 701.43L140.521 661.803L139.124 663.234L179.682 702.86L181.079 701.43ZM140.739 662.919L163.443 610.96L161.61 610.16L138.906 662.118L140.739 662.919ZM162.718 611.542L225.98 599.209L225.597 597.246L162.335 609.578L162.718 611.542ZM225.09 598.943L265.648 638.569L267.046 637.138L226.487 597.512L225.09 598.943ZM265.43 637.453L242.726 689.412L244.559 690.212L267.263 638.254L265.43 637.453ZM181.604 700.765L241.99 688.993L241.608 687.03L181.222 698.802L181.604 700.765ZM242.715 688.412L264.387 638.817L262.555 638.016L240.883 687.611L242.715 688.412ZM264.17 637.701L225.456 599.878L224.058 601.308L262.772 639.131L264.17 637.701ZM224.566 599.611L164.18 611.383L164.562 613.346L224.948 601.574L224.566 599.611ZM163.455 611.964L141.783 661.56L143.615 662.361L165.287 612.765L163.455 611.964ZM142 662.675L180.714 700.499L182.112 699.068L143.398 661.245L142 662.675ZM282.077 727.655L242.443 688.928L241.045 690.358L280.679 729.085L282.077 727.655ZM242.343 690.443L244.297 688.981L243.099 687.38L241.145 688.842L242.343 690.443ZM242.999 688.896L282.635 727.623L284.033 726.192L244.397 687.465L242.999 688.896ZM282.735 726.106L280.779 727.569L281.976 729.171L283.933 727.708L282.735 726.106ZM345.487 714.954L343.124 714.334L342.616 716.268L344.978 716.889L345.487 714.954ZM343.786 715.701L365.716 665.514L363.883 664.714L341.954 714.901L343.786 715.701ZM365.498 664.398L325.833 625.677L324.436 627.109L364.101 665.829L365.498 664.398ZM325.734 627.193L327.685 625.732L326.486 624.131L324.535 625.593L325.734 627.193ZM326.387 625.647L366.98 665.268L368.377 663.837L327.784 624.216L326.387 625.647ZM366.762 664.152L344.316 715.521L346.149 716.322L368.595 664.953L366.762 664.152ZM327.748 626.05L325.39 625.426L324.878 627.36L327.237 627.983L327.748 626.05ZM326.05 626.794L348.526 575.421L346.693 574.62L324.218 625.992L326.05 626.794ZM347.355 575.988L349.715 576.609L350.224 574.674L347.864 574.053L347.355 575.988ZM349.054 575.241L326.576 626.616L328.408 627.417L350.886 576.042L349.054 575.241ZM366.228 664.773L432.751 651.805L432.368 649.842L365.846 662.81L366.228 664.773ZM431.578 651.015L431.983 653.096L433.946 652.713L433.541 650.632L431.578 651.015ZM432.774 651.923L366.251 664.891L366.634 666.854L433.156 653.886L432.774 651.923ZM367.424 665.681L367.019 663.6L365.056 663.983L365.461 666.064L367.424 665.681ZM7.92623 537.854L46.6997 575.737L48.0974 574.306L9.32393 536.423L7.92623 537.854ZM46.4822 574.621L24.7775 624.294L26.6102 625.095L48.3149 575.422L46.4822 574.621ZM25.5025 623.713L-34.9757 635.503L-34.593 637.466L25.8852 625.676L25.5025 623.713ZM-34.0855 635.77L-72.8565 597.886L-74.2542 599.316L-35.4832 637.2L-34.0855 635.77ZM-72.639 599.001L-50.9368 549.329L-52.7695 548.528L-74.4717 598.201L-72.639 599.001ZM-51.6618 549.91L8.81642 538.12L8.43373 536.157L-52.0445 547.947L-51.6618 549.91ZM9.55109 533.598L-54.0438 545.995L-53.6611 547.958L9.93378 535.561L9.55109 533.598ZM-54.7688 546.576L-77.5908 598.809L-75.7581 599.61L-52.9361 547.377L-54.7688 546.576ZM-77.3733 599.924L-36.6038 639.756L-35.2061 638.325L-75.9757 598.494L-77.3733 599.924ZM-35.7136 640.022L27.8813 627.625L27.4986 625.661L-36.0963 638.059L-35.7136 640.022ZM28.6063 627.043L51.4316 574.814L49.5989 574.014L26.7736 626.243L28.6063 627.043ZM51.2141 573.699L10.4413 533.864L9.0436 535.294L49.8164 575.129L51.2141 573.699ZM42.0826 634.997C42.3106 636.167 41.3497 637.634 39.4831 637.998L39.8658 639.961C42.4722 639.453 44.5464 637.183 44.0456 634.614L42.0826 634.997ZM39.4831 637.998C37.6165 638.362 36.1746 637.363 35.9465 636.193L33.9835 636.576C34.4843 639.145 37.2594 640.469 39.8658 639.961L39.4831 637.998ZM35.9465 636.193C35.7185 635.023 36.6794 633.556 38.5461 633.192L38.1634 631.229C35.557 631.737 33.4827 634.007 33.9835 636.576L35.9465 636.193ZM38.5461 633.192C40.4127 632.828 41.8545 633.827 42.0826 634.997L44.0456 634.614C43.5448 632.045 40.7698 630.721 38.1634 631.229L38.5461 633.192ZM64.7529 584.392C64.9809 585.561 64.0199 587.029 62.1533 587.393L62.536 589.356C65.1424 588.848 67.2167 586.578 66.7159 584.009L64.7529 584.392ZM62.1533 587.393C60.2867 587.757 58.8449 586.757 58.6168 585.588L56.6538 585.97C57.1546 588.539 59.9296 589.864 62.536 589.356L62.1533 587.393ZM58.6168 585.588C58.3888 584.418 59.3497 582.95 61.2163 582.586L60.8336 580.623C58.2272 581.131 56.153 583.402 56.6538 585.97L58.6168 585.588ZM61.2163 582.586C63.083 582.223 64.5248 583.222 64.7529 584.392L66.7159 584.009C66.2151 581.44 63.44 580.115 60.8336 580.623L61.2163 582.586ZM167.341 610.578C167.569 611.748 166.608 613.216 164.742 613.58L165.124 615.543C167.731 615.035 169.805 612.764 169.304 610.196L167.341 610.578ZM164.742 613.58C162.875 613.943 161.433 612.944 161.205 611.774L159.242 612.157C159.743 614.726 162.518 616.051 165.124 615.543L164.742 613.58ZM161.205 611.774C160.977 610.605 161.938 609.137 163.805 608.773L163.422 606.81C160.816 607.318 158.741 609.588 159.242 612.157L161.205 611.774ZM163.805 608.773C165.671 608.409 167.113 609.409 167.341 610.578L169.304 610.196C168.803 607.627 166.028 606.302 163.422 606.81L163.805 608.773ZM351.834 574.612C352.062 575.782 351.101 577.25 349.234 577.613L349.617 579.576C352.224 579.068 354.298 576.798 353.797 574.229L351.834 574.612ZM349.234 577.613C347.368 577.977 345.926 576.978 345.698 575.808L343.735 576.191C344.236 578.76 347.011 580.085 349.617 579.576L349.234 577.613ZM345.698 575.808C345.47 574.638 346.431 573.171 348.298 572.807L347.915 570.844C345.308 571.352 343.234 573.622 343.735 576.191L345.698 575.808ZM348.298 572.807C350.164 572.443 351.606 573.442 351.834 574.612L353.797 574.229C353.296 571.66 350.521 570.336 347.915 570.844L348.298 572.807ZM285.664 728.264C285.892 729.433 284.931 730.901 283.064 731.265L283.447 733.228C286.053 732.72 288.128 730.45 287.627 727.881L285.664 728.264ZM283.064 731.265C281.198 731.629 279.756 730.63 279.528 729.46L277.565 729.842C278.065 732.411 280.84 733.736 283.447 733.228L283.064 731.265ZM279.528 729.46C279.3 728.29 280.261 726.822 282.127 726.458L281.744 724.495C279.138 725.004 277.064 727.274 277.565 729.842L279.528 729.46ZM282.127 726.458C283.994 726.095 285.436 727.094 285.664 728.264L287.627 727.881C287.126 725.312 284.351 723.987 281.744 724.495L282.127 726.458ZM183.965 700.367C184.193 701.537 183.232 703.004 181.366 703.368L181.748 705.331C184.355 704.823 186.429 702.553 185.928 699.984L183.965 700.367ZM181.366 703.368C179.499 703.732 178.057 702.733 177.829 701.563L175.866 701.946C176.367 704.515 179.142 705.839 181.748 705.331L181.366 703.368ZM177.829 701.563C177.601 700.393 178.562 698.926 180.429 698.562L180.046 696.599C177.439 697.107 175.365 699.377 175.866 701.946L177.829 701.563ZM180.429 698.562C182.295 698.198 183.737 699.197 183.965 700.367L185.928 699.984C185.427 697.415 182.652 696.091 180.046 696.599L180.429 698.562ZM431.781 652.056C432.009 653.226 431.048 654.694 429.181 655.057L429.564 657.021C432.17 656.512 434.245 654.242 433.744 651.673L431.781 652.056ZM429.181 655.057C427.315 655.421 425.873 654.422 425.645 653.252L423.682 653.635C424.183 656.204 426.958 657.529 429.564 657.021L429.181 655.057ZM425.645 653.252C425.417 652.083 426.378 650.615 428.244 650.251L427.862 648.288C425.255 648.796 423.181 651.066 423.682 653.635L425.645 653.252ZM428.244 650.251C430.111 649.887 431.553 650.886 431.781 652.056L433.744 651.673C433.243 649.105 430.468 647.78 427.862 648.288L428.244 650.251ZM369.306 664.235C369.534 665.405 368.573 666.873 366.706 667.237L367.089 669.2C369.695 668.692 371.77 666.422 371.269 663.853L369.306 664.235ZM366.706 667.237C364.84 667.601 363.398 666.601 363.17 665.432L361.207 665.814C361.708 668.383 364.483 669.708 367.089 669.2L366.706 667.237ZM363.17 665.432C362.942 664.262 363.903 662.794 365.769 662.43L365.387 660.467C362.78 660.975 360.706 663.245 361.207 665.814L363.17 665.432ZM365.769 662.43C367.636 662.066 369.078 663.066 369.306 664.235L371.269 663.853C370.768 661.284 367.993 659.959 365.387 660.467L365.769 662.43ZM108.127 465.47L145.702 502.185L147.1 500.754L109.525 464.039L108.127 465.47ZM145.485 501.069L124.451 549.206L126.284 550.007L147.318 501.87L145.485 501.069ZM125.176 548.625L66.5663 560.051L66.949 562.014L125.559 550.588L125.176 548.625ZM67.4565 560.317L29.8799 523.606L28.4822 525.037L66.0589 561.747L67.4565 560.317ZM30.0974 524.722L51.1325 476.581L49.2998 475.78L28.2647 523.921L30.0974 524.722ZM50.4075 477.162L109.018 465.736L108.635 463.773L50.0248 475.199L50.4075 477.162ZM109.752 461.211L48.0251 473.245L48.4078 475.208L110.135 463.175L109.752 461.211ZM47.3001 473.826L25.1476 524.526L26.9803 525.327L49.1328 474.627L47.3001 473.826ZM25.3651 525.642L64.9387 564.305L66.3363 562.875L26.7627 524.212L25.3651 525.642ZM65.8288 564.571L127.556 552.538L127.173 550.575L65.4461 562.608L65.8288 564.571ZM128.281 551.957L150.434 501.26L148.601 500.46L126.448 551.156L128.281 551.957ZM150.216 500.145L110.642 461.478L109.244 462.908L148.819 501.575L150.216 500.145ZM-130.154 500.591L-92.5787 537.306L-91.1809 535.876L-128.756 499.161L-130.154 500.591ZM-92.7961 536.191L-113.829 584.329L-111.996 585.13L-90.9634 536.992L-92.7961 536.191ZM-113.104 583.748L-171.714 595.174L-171.332 597.137L-112.721 585.711L-113.104 583.748ZM-170.824 595.44L-208.401 558.728L-209.799 560.158L-172.222 596.871L-170.824 595.44ZM-208.184 559.843L-187.149 511.702L-188.981 510.901L-210.016 559.042L-208.184 559.843ZM-187.874 512.283L-129.263 500.857L-129.646 498.894L-188.256 510.32L-187.874 512.283ZM-128.529 496.335L-190.256 508.368L-189.873 510.331L-128.146 498.298L-128.529 496.335ZM-190.981 508.95L-213.133 559.65L-211.3 560.451L-189.148 509.75L-190.981 508.95ZM-212.916 560.766L-173.342 599.431L-171.944 598L-211.518 559.335L-212.916 560.766ZM-172.451 599.697L-110.725 587.664L-111.107 585.701L-172.834 597.734L-172.451 599.697ZM-110 587.082L-87.8443 536.384L-89.677 535.583L-111.832 586.282L-110 587.082ZM-88.0618 535.268L-127.639 496.601L-129.036 498.032L-89.4595 536.698L-88.0618 535.268Z" fill="#FAEDED" mask="url(#path-1-inside-1)"/>
<path d="M1161.08 809.593L1054.91 650.741C1052.36 646.835 1046.49 643.606 1041.71 643.474L850.699 634.473C845.92 634.342 844.306 637.275 846.86 641.181L952.816 799.621C955.371 803.526 961.237 806.756 966.016 806.888L1157.03 815.888C1162.02 816.432 1163.64 813.499 1161.08 809.593Z" fill="#FFF3F3"/>
<path d="M1162.97 812.768L1266.29 640.917C1268.57 636.62 1269.6 629.739 1267.52 625.431L1190.14 444.321C1188.06 440.014 1184.57 439.575 1182.29 443.872L1078.97 615.722C1076.69 620.019 1075.66 626.901 1077.74 631.209L1155.12 812.319C1156.76 816.84 1160.69 817.065 1162.97 812.768Z" fill="url(#paint49_linear)"/>
<path d="M1138.51 483.469C1140.66 484.365 1140.84 486.155 1138.69 487.228L1120.43 497.781L1105.04 490.614L1109.87 487.752C1110.41 487.395 1110.41 486.679 1109.87 486.32L1100.21 482.02C1100.03 481.841 1099.67 482.02 1099.49 482.02L1093.94 485.24L1081.77 479.685L1102.36 467.88C1102.54 467.702 1102.9 467.702 1103.08 467.881L1138.51 483.469Z" fill="#F0DEDF"/>
<path d="M1124.55 499.753C1124.91 499.932 1124.91 500.469 1124.55 500.827L1115.06 506.372C1114.88 506.55 1114.7 506.55 1114.52 506.371L1109.69 504.042L1120.43 497.782L1124.55 499.753Z" fill="#E2CFCF"/>
<path d="M1120.43 497.779L1109.69 504.039L1094.3 496.872L1105.04 490.612L1120.43 497.779Z" fill="#E2CFCF"/>
<path d="M1109.69 504.049L1087.49 516.748C1086.06 517.643 1083.55 517.642 1081.94 517.104L1070.49 512.087C1069.95 511.908 1069.77 511.013 1070.49 510.655L1094.3 496.883L1109.69 504.049Z" fill="#F0DEDF"/>
<path d="M1105.04 490.618L1094.3 496.879L1083.2 491.504L1093.77 485.423L1105.04 490.618Z" fill="#E2CFCF"/>
<path d="M1093.77 485.419L1083.2 491.501L1071.03 485.947L1081.77 479.686L1093.77 485.419Z" fill="#F0DEDF"/>
<path d="M1089.84 461.975C1090.38 462.154 1090.55 463.049 1089.84 463.407L1070.5 474.496L1061.02 470.017L1078.74 459.822C1080.17 458.928 1082.68 458.75 1084.29 459.466L1089.84 461.975Z" fill="#F0DEDF"/>
<path d="M1083.2 491.496L1057.96 506.163C1057.78 506.341 1057.42 506.341 1057.24 506.162L1027.71 493.262C1025.57 492.366 1025.39 490.576 1027.54 489.324L1050.45 476.088L1059.94 480.567L1050.63 485.933C1050.09 486.29 1050.09 487.006 1050.63 487.365L1060.29 491.665C1060.47 491.844 1060.83 491.665 1061.01 491.665L1071.03 485.941L1083.2 491.496Z" fill="#F0DEDF"/>
<path d="M1081.77 479.689L1071.03 485.949L1059.93 480.753L1070.5 474.493L1081.77 479.689Z" fill="#E2CFCF"/>
<path d="M1070.5 474.492L1059.94 480.752L1050.45 476.273L1061.19 470.192L1070.5 474.492Z" fill="#E2CFCF"/>
<path d="M1055.83 467.683L1061.02 470.191L1050.45 476.272L1046.34 474.302C1045.98 474.123 1045.98 473.586 1046.34 473.228L1055.29 467.683C1055.47 467.683 1055.65 467.683 1055.83 467.683Z" fill="#E2CFCF"/>
<path d="M1035.19 528.546C1038.43 528.126 1039.91 530.176 1038.05 532.988L1023.27 558.635L999.543 560.738L1003.41 553.866C1003.81 553.054 1003.3 552.184 1002.4 552.126L987.64 553.689C987.297 553.597 986.987 554.065 986.77 554.191L982.288 562.001L963.602 563.8L980.326 534.997C980.418 534.654 980.853 534.403 981.196 534.495L1035.19 528.546Z" fill="#F0DEDF"/>
<path d="M1029.65 558.141C1030.22 558.107 1030.59 558.76 1030.41 559.446L1022.77 572.847C1022.68 573.19 1022.46 573.316 1022.12 573.224L1014.62 573.788L1023.27 558.638L1029.65 558.141Z" fill="#E2CFCF"/>
<path d="M1023.27 558.63L1014.61 573.78L990.881 575.883L999.536 560.732L1023.27 558.63Z" fill="#E2CFCF"/>
<path d="M1014.62 573.792L996.565 604.813C995.453 606.906 992.408 608.664 990.073 609.142L972.634 611.091C971.856 611.251 971.011 610.289 971.629 609.351L990.887 575.895L1014.62 573.792Z" fill="#F0DEDF"/>
<path d="M999.54 560.743L990.885 575.894L973.63 577.156L982.193 562.349L999.54 560.743Z" fill="#E2CFCF"/>
<path d="M982.198 562.35L973.635 577.157L954.949 578.956L963.604 563.806L982.198 562.35Z" fill="#F0DEDF"/>
<path d="M960.949 536.615C961.727 536.456 962.573 537.418 961.954 538.355L946.25 565.409L931.581 566.628L945.955 541.793C947.067 539.701 949.987 537.724 952.447 537.464L960.949 536.615Z" fill="#F0DEDF"/>
<path d="M973.625 577.141L953.256 612.69C953.164 613.034 952.729 613.285 952.385 613.193L907.45 618.259C904.211 618.679 902.738 616.629 904.469 613.599L923.015 581.423L937.684 580.203L930.142 593.261C929.741 594.073 930.243 594.943 931.147 595.001L945.908 593.438C946.251 593.53 946.561 593.061 946.778 592.936L954.939 578.94L973.625 577.141Z" fill="#F0DEDF"/>
<path d="M963.599 563.808L954.944 578.958L937.815 580.438L946.252 565.414L963.599 563.808Z" fill="#E2CFCF"/>
<path d="M946.256 565.41L937.819 580.435L923.15 581.655L931.93 566.722L946.256 565.41Z" fill="#E2CFCF"/>
<path d="M923.636 567.441L931.703 566.843L923.14 581.65L916.756 582.147C916.195 582.181 915.818 581.528 916.002 580.842L922.984 567.818C923.201 567.692 923.419 567.566 923.636 567.441Z" fill="#E2CFCF"/>
<path d="M952.673 503.403C954.278 505.088 953.72 506.798 951.321 506.914L930.354 509.212L919.157 496.451L924.735 495.78C925.37 495.669 925.659 495.014 925.312 494.469L918.201 486.639C918.109 486.403 917.71 486.423 917.546 486.35L911.169 487.06L902.27 477.072L925.871 474.567C926.107 474.475 926.435 474.62 926.526 474.856L952.673 503.403Z" fill="#F0DEDF"/>
<path d="M933.323 512.675C933.579 512.983 933.362 513.475 932.89 513.658L921.971 514.908C921.735 515 921.571 514.927 921.48 514.691L917.996 510.612L930.351 509.213L933.323 512.675Z" fill="#E2CFCF"/>
<path d="M930.356 509.209L918.002 510.609L906.805 497.848L919.159 496.448L930.356 509.209Z" fill="#E2CFCF"/>
<path d="M917.999 510.622L892.562 513.297C890.891 513.538 888.598 512.527 887.341 511.386L878.88 502.179C878.461 501.798 878.658 500.907 879.458 500.868L906.802 497.861L917.999 510.622Z" fill="#F0DEDF"/>
<path d="M919.157 496.456L906.803 497.856L898.814 488.465L910.933 487.157L919.157 496.456Z" fill="#E2CFCF"/>
<path d="M910.931 487.154L898.813 488.462L889.914 478.475L902.269 477.075L910.931 487.154Z" fill="#F0DEDF"/>
<path d="M916.786 464.107C917.205 464.488 917.008 465.379 916.208 465.418L894.042 467.774L887.167 459.852L907.498 457.665C909.169 457.424 911.534 458.271 912.719 459.576L916.786 464.107Z" fill="#F0DEDF"/>
<path d="M898.815 488.45L869.8 491.699C869.564 491.79 869.237 491.646 869.145 491.41L847.32 467.703C845.715 466.017 846.274 464.307 848.745 464.027L875.053 461.15L881.928 469.072L871.245 470.23C870.609 470.341 870.32 470.996 870.667 471.541L877.779 479.371C877.87 479.607 878.27 479.587 878.434 479.66L889.916 478.462L898.815 488.45Z" fill="#F0DEDF"/>
<path d="M902.267 477.071L889.912 478.471L881.852 469.244L894.042 467.772L902.267 477.071Z" fill="#E2CFCF"/>
<path d="M894.045 467.778L881.854 469.25L874.978 461.328L887.261 460.092L894.045 467.778Z" fill="#E2CFCF"/>
<path d="M883.358 455.625L887.097 460.012L874.978 461.32L872.006 457.858C871.75 457.55 871.967 457.058 872.439 456.875L882.867 455.408C883.03 455.481 883.194 455.553 883.358 455.625Z" fill="#E2CFCF"/>
<path d="M1034.79 359.908C1036.58 358.426 1038.25 359.103 1038.19 361.504L1039.01 382.581L1025.49 392.852L1025.21 387.241C1025.15 386.599 1024.52 386.265 1023.95 386.572L1015.64 393.115C1015.4 393.19 1015.39 393.59 1015.3 393.748L1015.56 400.16L1004.97 408.333L1004.13 384.614C1004.06 384.372 1004.23 384.056 1004.47 383.981L1034.79 359.908Z" fill="#F0DEDF"/>
<path d="M1042.67 379.859C1042.99 379.626 1043.47 379.876 1043.62 380.36L1044.1 391.34C1044.17 391.582 1044.09 391.74 1043.85 391.815L1039.53 395.003L1039.01 382.58L1042.67 379.859Z" fill="#E2CFCF"/>
<path d="M1039.01 382.581L1039.53 395.003L1026.02 405.274L1025.49 392.852L1039.01 382.581Z" fill="#E2CFCF"/>
<path d="M1039.54 395.007L1040.42 420.568C1040.54 422.252 1039.37 424.469 1038.15 425.643L1028.37 433.434C1027.96 433.825 1027.08 433.566 1027.1 432.765L1026.02 405.278L1039.54 395.007Z" fill="#F0DEDF"/>
<path d="M1025.5 392.856L1026.02 405.278L1016.09 412.586L1015.64 400.406L1025.5 392.856Z" fill="#E2CFCF"/>
<path d="M1015.64 400.407L1016.09 412.588L1005.51 420.761L1004.98 408.339L1015.64 400.407Z" fill="#F0DEDF"/>
<path d="M993.062 392.943C993.471 392.552 994.346 392.811 994.328 393.611L995.118 415.888L986.732 422.189L985.982 401.755C985.859 400.07 986.87 397.771 988.255 396.68L993.062 392.943Z" fill="#F0DEDF"/>
<path d="M1016.09 412.584L1017.28 441.756C1017.36 441.998 1017.19 442.314 1016.95 442.389L991.765 462.492C989.971 463.974 988.304 463.296 988.199 460.812L987.181 434.367L995.567 428.066L995.97 438.804C996.036 439.446 996.67 439.78 997.237 439.472L1005.55 432.93C1005.79 432.855 1005.8 432.455 1005.88 432.297L1005.5 420.758L1016.09 412.584Z" fill="#F0DEDF"/>
<path d="M1004.98 408.341L1005.51 420.764L995.734 428.155L995.123 415.891L1004.98 408.341Z" fill="#E2CFCF"/>
<path d="M995.117 415.883L995.727 428.147L987.341 434.447L986.973 422.109L995.117 415.883Z" fill="#E2CFCF"/>
<path d="M982.247 425.688L986.887 422.267L987.339 434.448L983.676 437.17C983.35 437.403 982.875 437.152 982.726 436.668L981.997 426.163C982.08 426.005 982.164 425.847 982.247 425.688Z" fill="#E2CFCF"/>
<path d="M926.111 401.205C927.24 402.1 927.045 403.197 925.584 403.475L912.924 406.688L904.959 399.825L908.322 398.934C908.702 398.811 908.823 398.385 908.564 398.081L903.529 393.891C903.452 393.754 903.209 393.8 903.102 393.77L899.253 394.754L892.936 389.395L907.194 385.827C907.331 385.751 907.544 385.811 907.62 385.948L926.111 401.205Z" fill="#F0DEDF"/>
<path d="M915.036 408.545C915.219 408.712 915.128 409.032 914.855 409.185L908.266 410.891C908.129 410.968 908.023 410.938 907.946 410.801L905.459 408.599L912.915 406.678L915.036 408.545Z" fill="#E2CFCF"/>
<path d="M912.921 406.688L905.465 408.609L897.5 401.747L904.956 399.825L912.921 406.688Z" fill="#E2CFCF"/>
<path d="M905.464 408.61L890.096 412.439C889.091 412.73 887.598 412.308 886.729 411.716L880.748 406.798C880.459 406.6 880.503 406.037 880.99 405.944L897.5 401.747L905.464 408.61Z" fill="#F0DEDF"/>
<path d="M904.955 399.827L897.499 401.748L891.792 396.677L899.111 394.832L904.955 399.827Z" fill="#E2CFCF"/>
<path d="M899.11 394.827L891.791 396.672L885.475 391.313L892.93 389.391L899.11 394.827Z" fill="#F0DEDF"/>
<path d="M900.713 380.183C901.003 380.381 900.959 380.944 900.472 381.037L887.081 384.389L882.183 380.122L894.463 377.032C895.467 376.74 896.99 377.056 897.83 377.754L900.713 380.183Z" fill="#F0DEDF"/>
<path d="M891.792 396.668L874.278 401.157C874.141 401.233 873.928 401.173 873.851 401.036L858.427 388.376C857.298 387.48 857.494 386.383 858.985 385.999L874.871 381.971L879.768 386.237L873.317 387.867C872.936 387.99 872.816 388.417 873.075 388.72L878.11 392.91C878.186 393.047 878.43 393.001 878.537 393.031L885.475 391.309L891.792 396.668Z" fill="#F0DEDF"/>
<path d="M892.931 389.389L885.475 391.311L879.738 386.346L887.088 384.395L892.931 389.389Z" fill="#E2CFCF"/>
<path d="M887.086 384.388L879.737 386.34L874.839 382.074L882.264 380.259L887.086 384.388Z" fill="#E2CFCF"/>
<path d="M879.496 377.873L882.167 380.242L874.847 382.087L872.727 380.219C872.543 380.052 872.634 379.732 872.908 379.579L879.176 377.782C879.283 377.813 879.39 377.843 879.496 377.873Z" fill="#E2CFCF"/>
</g>
<defs>
<linearGradient id="paint0_linear" x1="526.333" y1="1110.53" x2="1030.94" y2="21.5949" gradientUnits="userSpaceOnUse">
<stop stop-color="#FCF0F0" stop-opacity="0.57"/>
<stop offset="0.289103" stop-color="white"/>
</linearGradient>
<linearGradient id="paint1_linear" x1="-157.666" y1="705.811" x2="454.691" y2="271.507" gradientUnits="userSpaceOnUse">
<stop offset="0.317614" stop-color="#B1ADAD"/>
<stop offset="0.621003" stop-color="#F8CBCB" stop-opacity="0.49"/>
</linearGradient>
<linearGradient id="paint2_linear" x1="-157.666" y1="705.811" x2="454.691" y2="271.507" gradientUnits="userSpaceOnUse">
<stop offset="0.317614" stop-color="#B1ADAD"/>
<stop offset="0.621003" stop-color="#F8CBCB" stop-opacity="0.49"/>
</linearGradient>
<linearGradient id="paint3_linear" x1="-157.666" y1="705.811" x2="454.691" y2="271.507" gradientUnits="userSpaceOnUse">
<stop offset="0.317614" stop-color="#B1ADAD"/>
<stop offset="0.621003" stop-color="#F8CBCB" stop-opacity="0.49"/>
</linearGradient>
<linearGradient id="paint4_linear" x1="-157.666" y1="705.811" x2="454.691" y2="271.507" gradientUnits="userSpaceOnUse">
<stop offset="0.317614" stop-color="#B1ADAD"/>
<stop offset="0.621003" stop-color="#F8CBCB" stop-opacity="0.49"/>
</linearGradient>
<linearGradient id="paint5_linear" x1="-157.666" y1="705.811" x2="454.691" y2="271.507" gradientUnits="userSpaceOnUse">
<stop offset="0.317614" stop-color="#B1ADAD"/>
<stop offset="0.621003" stop-color="#F8CBCB" stop-opacity="0.49"/>
</linearGradient>
<linearGradient id="paint6_linear" x1="-157.666" y1="705.811" x2="454.691" y2="271.507" gradientUnits="userSpaceOnUse">
<stop offset="0.317614" stop-color="#B1ADAD"/>
<stop offset="0.621003" stop-color="#F8CBCB" stop-opacity="0.49"/>
</linearGradient>
<linearGradient id="paint7_linear" x1="-157.666" y1="705.811" x2="454.691" y2="271.507" gradientUnits="userSpaceOnUse">
<stop offset="0.317614" stop-color="#B1ADAD"/>
<stop offset="0.621003" stop-color="#F8CBCB" stop-opacity="0.49"/>
</linearGradient>
<linearGradient id="paint8_linear" x1="-157.666" y1="705.811" x2="454.691" y2="271.507" gradientUnits="userSpaceOnUse">
<stop offset="0.317614" stop-color="#B1ADAD"/>
<stop offset="0.621003" stop-color="#F8CBCB" stop-opacity="0.49"/>
</linearGradient>
<linearGradient id="paint9_linear" x1="-157.666" y1="705.811" x2="454.691" y2="271.507" gradientUnits="userSpaceOnUse">
<stop offset="0.317614" stop-color="#B1ADAD"/>
<stop offset="0.621003" stop-color="#F8CBCB" stop-opacity="0.49"/>
</linearGradient>
<linearGradient id="paint10_linear" x1="-157.666" y1="705.811" x2="454.691" y2="271.507" gradientUnits="userSpaceOnUse">
<stop offset="0.317614" stop-color="#B1ADAD"/>
<stop offset="0.621003" stop-color="#F8CBCB" stop-opacity="0.49"/>
</linearGradient>
<linearGradient id="paint11_linear" x1="-157.666" y1="705.811" x2="454.691" y2="271.507" gradientUnits="userSpaceOnUse">
<stop offset="0.317614" stop-color="#B1ADAD"/>
<stop offset="0.621003" stop-color="#F8CBCB" stop-opacity="0.49"/>
</linearGradient>
<linearGradient id="paint12_linear" x1="-157.666" y1="705.811" x2="454.691" y2="271.507" gradientUnits="userSpaceOnUse">
<stop offset="0.317614" stop-color="#B1ADAD"/>
<stop offset="0.621003" stop-color="#F8CBCB" stop-opacity="0.49"/>
</linearGradient>
<linearGradient id="paint13_linear" x1="-157.666" y1="705.811" x2="454.691" y2="271.507" gradientUnits="userSpaceOnUse">
<stop offset="0.317614" stop-color="#B1ADAD"/>
<stop offset="0.621003" stop-color="#F8CBCB" stop-opacity="0.49"/>
</linearGradient>
<linearGradient id="paint14_linear" x1="-157.666" y1="705.811" x2="454.691" y2="271.507" gradientUnits="userSpaceOnUse">
<stop offset="0.317614" stop-color="#B1ADAD"/>
<stop offset="0.621003" stop-color="#F8CBCB" stop-opacity="0.49"/>
</linearGradient>
<linearGradient id="paint15_linear" x1="-157.666" y1="705.811" x2="454.691" y2="271.507" gradientUnits="userSpaceOnUse">
<stop offset="0.317614" stop-color="#B1ADAD"/>
<stop offset="0.621003" stop-color="#F8CBCB" stop-opacity="0.49"/>
</linearGradient>
<linearGradient id="paint16_linear" x1="-157.666" y1="705.811" x2="454.691" y2="271.507" gradientUnits="userSpaceOnUse">
<stop offset="0.317614" stop-color="#B1ADAD"/>
<stop offset="0.621003" stop-color="#F8CBCB" stop-opacity="0.49"/>
</linearGradient>
<linearGradient id="paint17_linear" x1="-157.666" y1="705.811" x2="454.691" y2="271.507" gradientUnits="userSpaceOnUse">
<stop offset="0.317614" stop-color="#B1ADAD"/>
<stop offset="0.621003" stop-color="#F8CBCB" stop-opacity="0.49"/>
</linearGradient>
<linearGradient id="paint18_linear" x1="-157.666" y1="705.811" x2="454.691" y2="271.507" gradientUnits="userSpaceOnUse">
<stop offset="0.317614" stop-color="#B1ADAD"/>
<stop offset="0.621003" stop-color="#F8CBCB" stop-opacity="0.49"/>
</linearGradient>
<linearGradient id="paint19_linear" x1="-157.666" y1="705.811" x2="454.691" y2="271.507" gradientUnits="userSpaceOnUse">
<stop offset="0.317614" stop-color="#B1ADAD"/>
<stop offset="0.621003" stop-color="#F8CBCB" stop-opacity="0.49"/>
</linearGradient>
<linearGradient id="paint20_linear" x1="-157.666" y1="705.811" x2="454.691" y2="271.507" gradientUnits="userSpaceOnUse">
<stop offset="0.317614" stop-color="#B1ADAD"/>
<stop offset="0.621003" stop-color="#F8CBCB" stop-opacity="0.49"/>
</linearGradient>
<linearGradient id="paint21_linear" x1="-157.666" y1="705.811" x2="454.691" y2="271.507" gradientUnits="userSpaceOnUse">
<stop offset="0.317614" stop-color="#B1ADAD"/>
<stop offset="0.621003" stop-color="#F8CBCB" stop-opacity="0.49"/>
</linearGradient>
<linearGradient id="paint22_linear" x1="-157.666" y1="705.811" x2="454.691" y2="271.507" gradientUnits="userSpaceOnUse">
<stop offset="0.317614" stop-color="#B1ADAD"/>
<stop offset="0.621003" stop-color="#F8CBCB" stop-opacity="0.49"/>
</linearGradient>
<linearGradient id="paint23_linear" x1="-157.666" y1="705.811" x2="454.691" y2="271.507" gradientUnits="userSpaceOnUse">
<stop offset="0.317614" stop-color="#B1ADAD"/>
<stop offset="0.621003" stop-color="#F8CBCB" stop-opacity="0.49"/>
</linearGradient>
<linearGradient id="paint24_linear" x1="-157.666" y1="705.811" x2="454.691" y2="271.507" gradientUnits="userSpaceOnUse">
<stop offset="0.317614" stop-color="#B1ADAD"/>
<stop offset="0.621003" stop-color="#F8CBCB" stop-opacity="0.49"/>
</linearGradient>
<linearGradient id="paint25_linear" x1="-157.666" y1="705.811" x2="454.691" y2="271.507" gradientUnits="userSpaceOnUse">
<stop offset="0.317614" stop-color="#B1ADAD"/>
<stop offset="0.621003" stop-color="#F8CBCB" stop-opacity="0.49"/>
</linearGradient>
<linearGradient id="paint26_linear" x1="-157.666" y1="705.811" x2="454.691" y2="271.507" gradientUnits="userSpaceOnUse">
<stop offset="0.317614" stop-color="#B1ADAD"/>
<stop offset="0.621003" stop-color="#F8CBCB" stop-opacity="0.49"/>
</linearGradient>
<linearGradient id="paint27_linear" x1="-157.666" y1="705.811" x2="454.691" y2="271.507" gradientUnits="userSpaceOnUse">
<stop offset="0.317614" stop-color="#B1ADAD"/>
<stop offset="0.621003" stop-color="#F8CBCB" stop-opacity="0.49"/>
</linearGradient>
<linearGradient id="paint28_linear" x1="-157.666" y1="705.811" x2="454.691" y2="271.507" gradientUnits="userSpaceOnUse">
<stop offset="0.317614" stop-color="#B1ADAD"/>
<stop offset="0.621003" stop-color="#F8CBCB" stop-opacity="0.49"/>
</linearGradient>
<linearGradient id="paint29_linear" x1="-157.666" y1="705.811" x2="454.691" y2="271.507" gradientUnits="userSpaceOnUse">
<stop offset="0.317614" stop-color="#B1ADAD"/>
<stop offset="0.621003" stop-color="#F8CBCB" stop-opacity="0.49"/>
</linearGradient>
<linearGradient id="paint30_linear" x1="-157.666" y1="705.811" x2="454.691" y2="271.507" gradientUnits="userSpaceOnUse">
<stop offset="0.317614" stop-color="#B1ADAD"/>
<stop offset="0.621003" stop-color="#F8CBCB" stop-opacity="0.49"/>
</linearGradient>
<linearGradient id="paint31_linear" x1="-157.666" y1="705.811" x2="454.691" y2="271.507" gradientUnits="userSpaceOnUse">
<stop offset="0.317614" stop-color="#B1ADAD"/>
<stop offset="0.621003" stop-color="#F8CBCB" stop-opacity="0.49"/>
</linearGradient>
<linearGradient id="paint32_linear" x1="-157.666" y1="705.811" x2="454.691" y2="271.507" gradientUnits="userSpaceOnUse">
<stop offset="0.317614" stop-color="#B1ADAD"/>
<stop offset="0.621003" stop-color="#F8CBCB" stop-opacity="0.49"/>
</linearGradient>
<linearGradient id="paint33_linear" x1="-157.666" y1="705.811" x2="454.691" y2="271.507" gradientUnits="userSpaceOnUse">
<stop offset="0.317614" stop-color="#B1ADAD"/>
<stop offset="0.621003" stop-color="#F8CBCB" stop-opacity="0.49"/>
</linearGradient>
<linearGradient id="paint34_linear" x1="-157.666" y1="705.811" x2="454.691" y2="271.507" gradientUnits="userSpaceOnUse">
<stop offset="0.317614" stop-color="#B1ADAD"/>
<stop offset="0.621003" stop-color="#F8CBCB" stop-opacity="0.49"/>
</linearGradient>
<linearGradient id="paint35_linear" x1="-157.666" y1="705.811" x2="454.691" y2="271.507" gradientUnits="userSpaceOnUse">
<stop offset="0.317614" stop-color="#B1ADAD"/>
<stop offset="0.621003" stop-color="#F8CBCB" stop-opacity="0.49"/>
</linearGradient>
<linearGradient id="paint36_linear" x1="-157.666" y1="705.811" x2="454.691" y2="271.507" gradientUnits="userSpaceOnUse">
<stop offset="0.317614" stop-color="#B1ADAD"/>
<stop offset="0.621003" stop-color="#F8CBCB" stop-opacity="0.49"/>
</linearGradient>
<linearGradient id="paint37_linear" x1="-157.666" y1="705.811" x2="454.691" y2="271.507" gradientUnits="userSpaceOnUse">
<stop offset="0.317614" stop-color="#B1ADAD"/>
<stop offset="0.621003" stop-color="#F8CBCB" stop-opacity="0.49"/>
</linearGradient>
<linearGradient id="paint38_linear" x1="-157.666" y1="705.811" x2="454.691" y2="271.507" gradientUnits="userSpaceOnUse">
<stop offset="0.317614" stop-color="#B1ADAD"/>
<stop offset="0.621003" stop-color="#F8CBCB" stop-opacity="0.49"/>
</linearGradient>
<linearGradient id="paint39_linear" x1="-157.666" y1="705.811" x2="454.691" y2="271.507" gradientUnits="userSpaceOnUse">
<stop offset="0.317614" stop-color="#B1ADAD"/>
<stop offset="0.621003" stop-color="#F8CBCB" stop-opacity="0.49"/>
</linearGradient>
<linearGradient id="paint40_linear" x1="-157.666" y1="705.811" x2="454.691" y2="271.507" gradientUnits="userSpaceOnUse">
<stop offset="0.317614" stop-color="#B1ADAD"/>
<stop offset="0.621003" stop-color="#F8CBCB" stop-opacity="0.49"/>
</linearGradient>
<linearGradient id="paint41_linear" x1="-157.666" y1="705.811" x2="454.691" y2="271.507" gradientUnits="userSpaceOnUse">
<stop offset="0.317614" stop-color="#B1ADAD"/>
<stop offset="0.621003" stop-color="#F8CBCB" stop-opacity="0.49"/>
</linearGradient>
<linearGradient id="paint42_linear" x1="-157.666" y1="705.811" x2="454.691" y2="271.507" gradientUnits="userSpaceOnUse">
<stop offset="0.317614" stop-color="#B1ADAD"/>
<stop offset="0.621003" stop-color="#F8CBCB" stop-opacity="0.49"/>
</linearGradient>
<linearGradient id="paint43_linear" x1="-157.666" y1="705.811" x2="454.691" y2="271.507" gradientUnits="userSpaceOnUse">
<stop offset="0.317614" stop-color="#B1ADAD"/>
<stop offset="0.621003" stop-color="#F8CBCB" stop-opacity="0.49"/>
</linearGradient>
<linearGradient id="paint44_linear" x1="-157.666" y1="705.811" x2="454.691" y2="271.507" gradientUnits="userSpaceOnUse">
<stop offset="0.317614" stop-color="#B1ADAD"/>
<stop offset="0.621003" stop-color="#F8CBCB" stop-opacity="0.49"/>
</linearGradient>
<linearGradient id="paint45_linear" x1="-157.666" y1="705.811" x2="454.691" y2="271.507" gradientUnits="userSpaceOnUse">
<stop offset="0.317614" stop-color="#B1ADAD"/>
<stop offset="0.621003" stop-color="#F8CBCB" stop-opacity="0.49"/>
</linearGradient>
<linearGradient id="paint46_linear" x1="-157.666" y1="705.811" x2="454.691" y2="271.507" gradientUnits="userSpaceOnUse">
<stop offset="0.317614" stop-color="#B1ADAD"/>
<stop offset="0.621003" stop-color="#F8CBCB" stop-opacity="0.49"/>
</linearGradient>
<linearGradient id="paint47_linear" x1="-157.666" y1="705.811" x2="454.691" y2="271.507" gradientUnits="userSpaceOnUse">
<stop offset="0.317614" stop-color="#B1ADAD"/>
<stop offset="0.621003" stop-color="#F8CBCB" stop-opacity="0.49"/>
</linearGradient>
<linearGradient id="paint48_linear" x1="-157.666" y1="705.811" x2="454.691" y2="271.507" gradientUnits="userSpaceOnUse">
<stop offset="0.317614" stop-color="#B1ADAD"/>
<stop offset="0.621003" stop-color="#F8CBCB" stop-opacity="0.49"/>
</linearGradient>
<linearGradient id="paint49_linear" x1="1086.25" y1="670.257" x2="1259.47" y2="586.336" gradientUnits="userSpaceOnUse">
<stop offset="0.3007" stop-color="#E9C7CC"/>
<stop offset="1" stop-color="#FFFCFC"/>
</linearGradient>
<clipPath id="clip0">
<rect width="1280" height="1007" fill="white"/>
</clipPath>
</defs>
</svg>
