<svg width="768" height="1007" viewBox="0 0 768 1007" fill="none" xmlns="http://www.w3.org/2000/svg">
<rect width="768" height="1007" fill="#0A1C29"/>
<g opacity="0.2">
<path d="M483.045 918.277L386.358 773.612C384.031 770.056 378.688 767.115 374.336 766.995L200.385 758.798C196.033 758.678 194.562 761.349 196.889 764.906L293.381 909.195C295.708 912.752 301.05 915.693 305.403 915.813L479.354 924.01C483.901 924.505 485.372 921.833 483.045 918.277Z" fill="#33428F"/>
<path d="M484.768 921.169L578.859 764.667C580.938 760.754 581.876 754.487 579.976 750.564L509.511 585.63C507.61 581.707 504.436 581.308 502.357 585.221L408.266 741.723C406.188 745.636 405.249 751.903 407.15 755.826L477.614 920.76C479.113 924.878 482.689 925.082 484.768 921.169Z" fill="#1D4775"/>
<path d="M462.496 621.281C464.452 622.096 464.614 623.727 462.658 624.704L446.027 634.314L432.011 627.788L436.413 625.182C436.902 624.856 436.902 624.204 436.413 623.877L427.613 619.961C427.45 619.798 427.124 619.961 426.961 619.961L421.906 622.893L410.823 617.835L429.574 607.084C429.737 606.922 430.063 606.922 430.226 607.085L462.496 621.281Z" fill="#305A87"/>
<path d="M449.775 636.11C450.101 636.274 450.101 636.763 449.775 637.089L441.133 642.138C440.97 642.301 440.807 642.301 440.644 642.138L436.244 640.017L446.027 634.316L449.775 636.11Z" fill="#305A87"/>
<path d="M446.029 634.313L436.246 640.014L422.23 633.488L432.013 627.786L446.029 634.313Z" fill="#305A87"/>
<path d="M436.244 640.023L416.025 651.588C414.721 652.403 412.439 652.402 410.972 651.912L400.541 647.343C400.052 647.18 399.89 646.365 400.542 646.039L422.228 633.497L436.244 640.023Z" fill="#305A87"/>
<path d="M432.01 627.792L422.227 633.493L412.123 628.598L421.743 623.06L432.01 627.792Z" fill="#305A87"/>
<path d="M421.743 623.057L412.123 628.595L401.041 623.537L410.824 617.836L421.743 623.057Z" fill="#305A87"/>
<path d="M418.167 601.707C418.656 601.87 418.819 602.685 418.167 603.011L400.557 613.11L391.92 609.031L408.062 599.746C409.366 598.932 411.648 598.77 413.115 599.422L418.167 601.707Z" fill="#305A87"/>
<path d="M412.125 628.591L389.135 641.948C388.972 642.111 388.646 642.111 388.483 641.948L361.591 630.199C359.635 629.384 359.473 627.753 361.43 626.613L382.3 614.559L390.938 618.638L382.459 623.525C381.97 623.851 381.97 624.503 382.459 624.829L391.26 628.745C391.423 628.908 391.749 628.745 391.912 628.745L401.043 623.533L412.125 628.591Z" fill="#305A87"/>
<path d="M410.821 617.838L401.038 623.54L390.933 618.808L400.553 613.107L410.821 617.838Z" fill="#305A87"/>
<path d="M400.554 613.106L390.934 618.807L382.296 614.728L392.079 609.19L400.554 613.106Z" fill="#305A87"/>
<path d="M387.193 606.905L391.919 609.189L382.299 614.728L378.551 612.933C378.225 612.77 378.225 612.281 378.551 611.955L386.704 606.905C386.867 606.905 387.03 606.905 387.193 606.905Z" fill="#305A87"/>
<path d="M368.401 662.332C371.35 661.95 372.692 663.817 371.001 666.378L357.545 689.734L335.933 691.649L339.451 685.391C339.817 684.651 339.359 683.859 338.536 683.806L325.093 685.229C324.781 685.146 324.499 685.573 324.301 685.687L320.219 692.799L303.203 694.438L318.433 668.207C318.517 667.895 318.913 667.666 319.225 667.75L368.401 662.332Z" fill="#305A87"/>
<path d="M363.356 689.284C363.867 689.254 364.21 689.848 364.043 690.473L357.09 702.677C357.007 702.99 356.809 703.104 356.496 703.02L349.66 703.534L357.542 689.737L363.356 689.284Z" fill="#305A87"/>
<path d="M357.541 689.73L349.659 703.527L328.047 705.442L335.929 691.645L357.541 689.73Z" fill="#305A87"/>
<path d="M349.665 703.538L333.224 731.788C332.211 733.694 329.438 735.295 327.311 735.731L311.43 737.506C310.722 737.651 309.952 736.775 310.515 735.921L328.053 705.453L349.665 703.538Z" fill="#305A87"/>
<path d="M335.932 691.654L328.051 705.451L312.337 706.601L320.135 693.117L335.932 691.654Z" fill="#305A87"/>
<path d="M320.139 693.118L312.341 706.602L295.324 708.241L303.206 694.444L320.139 693.118Z" fill="#305A87"/>
<path d="M300.787 669.682C301.495 669.536 302.265 670.413 301.702 671.266L287.401 695.903L274.042 697.014L287.132 674.397C288.145 672.492 290.804 670.692 293.044 670.455L300.787 669.682Z" fill="#305A87"/>
<path d="M312.332 706.588L293.781 738.962C293.698 739.274 293.301 739.503 292.989 739.419L252.067 744.033C249.118 744.415 247.775 742.549 249.352 739.789L266.242 710.487L279.601 709.376L272.732 721.268C272.367 722.007 272.824 722.799 273.647 722.852L287.09 721.429C287.403 721.513 287.684 721.086 287.882 720.971L295.315 708.226L312.332 706.588Z" fill="#305A87"/>
<path d="M303.2 694.445L295.318 708.242L279.719 709.59L287.402 695.908L303.2 694.445Z" fill="#305A87"/>
<path d="M287.407 695.904L279.723 709.587L266.364 710.698L274.36 697.099L287.407 695.904Z" fill="#305A87"/>
<path d="M266.808 697.753L274.154 697.209L266.356 710.694L260.542 711.146C260.031 711.177 259.688 710.583 259.855 709.958L266.214 698.097C266.412 697.982 266.61 697.868 266.808 697.753Z" fill="#305A87"/>
<path d="M293.251 639.435C294.712 640.97 294.203 642.527 292.019 642.633L272.925 644.726L262.728 633.104L267.807 632.493C268.386 632.392 268.649 631.795 268.333 631.3L261.857 624.169C261.774 623.954 261.41 623.971 261.26 623.906L255.453 624.552L247.349 615.456L268.842 613.174C269.057 613.091 269.355 613.223 269.439 613.437L293.251 639.435Z" fill="#305A87"/>
<path d="M275.629 647.879C275.862 648.16 275.665 648.607 275.235 648.774L265.291 649.913C265.076 649.996 264.927 649.93 264.843 649.715L261.671 646.001L272.922 644.726L275.629 647.879Z" fill="#305A87"/>
<path d="M272.928 644.723L261.677 645.998L251.48 634.376L262.731 633.101L272.928 644.723Z" fill="#305A87"/>
<path d="M261.673 646.01L238.508 648.446C236.986 648.666 234.898 647.745 233.753 646.706L226.048 638.321C225.666 637.974 225.846 637.163 226.574 637.127L251.476 634.388L261.673 646.01Z" fill="#305A87"/>
<path d="M262.728 633.109L251.477 634.384L244.202 625.832L255.238 624.641L262.728 633.109Z" fill="#305A87"/>
<path d="M255.237 624.637L244.201 625.829L236.097 616.733L247.348 615.458L255.237 624.637Z" fill="#305A87"/>
<path d="M260.568 603.649C260.95 603.996 260.77 604.807 260.042 604.843L239.856 606.988L233.595 599.774L252.109 597.782C253.632 597.563 255.785 598.334 256.865 599.523L260.568 603.649Z" fill="#305A87"/>
<path d="M244.204 625.818L217.78 628.776C217.565 628.86 217.267 628.728 217.184 628.513L197.307 606.923C195.846 605.388 196.355 603.831 198.605 603.576L222.563 600.956L228.825 608.17L219.096 609.225C218.517 609.326 218.254 609.923 218.57 610.419L225.046 617.549C225.129 617.764 225.493 617.747 225.643 617.813L236.1 616.722L244.204 625.818Z" fill="#305A87"/>
<path d="M247.347 615.455L236.096 616.73L228.755 608.327L239.857 606.986L247.347 615.455Z" fill="#305A87"/>
<path d="M239.858 606.992L228.756 608.332L222.495 601.118L233.68 599.993L239.858 606.992Z" fill="#305A87"/>
<path d="M230.127 595.925L233.532 599.92L222.496 601.112L219.789 597.958C219.556 597.678 219.753 597.23 220.183 597.063L229.68 595.728C229.829 595.793 229.978 595.859 230.127 595.925Z" fill="#305A87"/>
<path d="M368.03 508.755C369.664 507.406 371.182 508.023 371.134 510.209L371.877 529.403L359.567 538.757L359.315 533.647C359.255 533.062 358.678 532.758 358.161 533.038L350.592 538.997C350.372 539.065 350.364 539.429 350.288 539.573L350.524 545.412L340.88 552.856L340.117 531.255C340.049 531.035 340.201 530.747 340.421 530.679L368.03 508.755Z" fill="#4D6BB7" fill-opacity="0.6"/>
<path d="M375.21 526.924C375.507 526.711 375.939 526.94 376.075 527.38L376.511 537.38C376.579 537.6 376.503 537.744 376.283 537.812L372.354 540.715L371.874 529.402L375.21 526.924Z" fill="#4D6BB7" fill-opacity="0.6"/>
<path d="M371.874 529.403L372.354 540.716L360.044 550.07L359.564 538.757L371.874 529.403Z" fill="#4D6BB7" fill-opacity="0.6"/>
<path d="M372.363 540.719L373.162 563.997C373.274 565.531 372.209 567.549 371.091 568.618L362.185 575.714C361.812 576.07 361.015 575.834 361.031 575.105L360.052 550.073L372.363 540.719Z" fill="#4D6BB7" fill-opacity="0.6"/>
<path d="M359.572 538.76L360.052 550.073L351.009 556.728L350.597 545.635L359.572 538.76Z" fill="#4D6BB7" fill-opacity="0.6"/>
<path d="M350.598 545.637L351.009 556.729L341.366 564.173L340.886 552.86L350.598 545.637Z" fill="#4D6BB7" fill-opacity="0.6"/>
<path d="M330.034 538.839C330.406 538.483 331.203 538.719 331.187 539.448L331.906 559.735L324.269 565.473L323.586 546.864C323.474 545.33 324.395 543.236 325.656 542.243L330.034 538.839Z" fill="#4D6BB7" fill-opacity="0.6"/>
<path d="M351.001 556.726L352.092 583.293C352.16 583.513 352.008 583.801 351.788 583.869L328.852 602.177C327.218 603.526 325.701 602.909 325.605 600.647L324.677 576.563L332.314 570.825L332.682 580.604C332.742 581.189 333.319 581.493 333.835 581.213L341.404 575.255C341.625 575.187 341.633 574.822 341.709 574.678L341.357 564.17L351.001 556.726Z" fill="#4D6BB7" fill-opacity="0.6"/>
<path d="M340.886 552.863L341.366 564.175L332.467 570.907L331.912 559.738L340.886 552.863Z" fill="#4D6BB7" fill-opacity="0.6"/>
<path d="M331.906 559.73L332.462 570.899L324.825 576.637L324.49 565.4L331.906 559.73Z" fill="#4D6BB7" fill-opacity="0.6"/>
<path d="M320.186 568.66L324.411 565.545L324.823 576.637L321.487 579.116C321.191 579.328 320.758 579.1 320.622 578.659L319.958 569.092C320.034 568.948 320.11 568.804 320.186 568.66Z" fill="#4D6BB7" fill-opacity="0.6"/>
<path d="M269.065 546.365C270.093 547.18 269.915 548.179 268.584 548.432L257.055 551.358L249.802 545.108L252.864 544.297C253.211 544.185 253.321 543.796 253.084 543.52L248.499 539.704C248.429 539.579 248.208 539.621 248.111 539.594L244.605 540.49L238.852 535.609L251.837 532.361C251.961 532.291 252.156 532.346 252.225 532.471L269.065 546.365Z" fill="#305A87"/>
<path d="M258.978 553.05C259.145 553.202 259.062 553.493 258.813 553.632L252.813 555.186C252.688 555.256 252.591 555.228 252.522 555.104L250.256 553.099L257.046 551.349L258.978 553.05Z" fill="#305A87"/>
<path d="M257.052 551.358L250.262 553.108L243.008 546.858L249.798 545.109L257.052 551.358Z" fill="#305A87"/>
<path d="M250.262 553.109L236.266 556.596C235.351 556.861 233.991 556.476 233.2 555.938L227.753 551.458C227.489 551.279 227.53 550.766 227.973 550.681L243.008 546.859L250.262 553.109Z" fill="#305A87"/>
<path d="M249.796 545.11L243.006 546.86L237.809 542.242L244.475 540.562L249.796 545.11Z" fill="#305A87"/>
<path d="M244.475 540.557L237.81 542.237L232.057 537.357L238.847 535.607L244.475 540.557Z" fill="#305A87"/>
<path d="M245.935 527.221C246.199 527.401 246.158 527.914 245.715 527.998L233.52 531.051L229.06 527.166L240.243 524.351C241.157 524.085 242.545 524.373 243.309 525.009L245.935 527.221Z" fill="#305A87"/>
<path d="M237.81 542.233L221.861 546.321C221.736 546.391 221.542 546.336 221.472 546.211L207.425 534.682C206.397 533.866 206.575 532.867 207.933 532.517L222.4 528.849L226.861 532.734L220.985 534.219C220.639 534.33 220.529 534.719 220.765 534.996L225.35 538.811C225.42 538.936 225.642 538.894 225.739 538.921L232.058 537.353L237.81 542.233Z" fill="#305A87"/>
<path d="M238.847 535.605L232.057 537.354L226.833 532.833L233.526 531.056L238.847 535.605Z" fill="#305A87"/>
<path d="M233.525 531.05L226.832 532.827L222.372 528.942L229.134 527.289L233.525 531.05Z" fill="#305A87"/>
<path d="M226.612 525.117L229.044 527.274L222.378 528.954L220.447 527.253C220.28 527.101 220.362 526.81 220.612 526.67L226.32 525.034C226.418 525.062 226.515 525.089 226.612 525.117Z" fill="#305A87"/>
</g>
</svg>
