<svg width="773" height="318" viewBox="0 0 773 318" fill="none" xmlns="http://www.w3.org/2000/svg">
<rect width="773" height="317.08" fill="#0E2B4A"/>
<path d="M198.525 71.8942H205.575V66.7966H198.525V58.8278H193.154V66.7966H186.083V71.8942H193.154V79.5309H198.525V71.8942Z" fill="#1C495E"/>
<path d="M250.72 30.2781L256.031 25.6413L252.581 21.8891L247.269 26.5259L241.875 20.6604L237.829 24.1926L243.223 30.0581L237.896 34.7078L241.347 38.46L246.673 33.8103L251.843 39.4315L255.889 35.8993L250.72 30.2781Z" fill="#1C495E"/>
<path d="M63.6759 197.317L70.8619 183.174L60.5309 178.191L53.3449 192.335L37.1954 184.546L31.7213 195.32L47.8709 203.109L40.665 217.291L50.996 222.274L58.2018 208.091L73.6785 215.555L79.1526 204.781L63.6759 197.317Z" fill="#636E7D"/>
<path d="M608.502 77.827H620.841V68.9061H608.502V54.9608H599.103V68.9061H586.73V77.827H599.103V91.1912H608.502V77.827Z" fill="#1C495E"/>
<path d="M482.737 268.049L488.979 259.512L482.697 255.152L476.455 263.69L466.635 256.875L461.88 263.379L471.7 270.194L465.441 278.755L471.723 283.115L477.982 274.553L487.393 281.084L492.148 274.58L482.737 268.049Z" fill="#636E7D"/>
<path d="M686.314 101.888C685.649 102.491 685.367 103.131 685.47 103.808C685.585 104.491 686.036 105.062 686.824 105.519C687.624 105.983 688.49 106.178 689.423 106.103C690.367 106.034 691.172 105.698 691.838 105.095C692.494 104.5 692.771 103.865 692.668 103.188C692.555 102.52 692.093 101.951 691.282 101.48C690.483 101.016 689.621 100.817 688.698 100.884C687.765 100.959 686.971 101.294 686.314 101.888ZM674.46 112.628C673.794 113.231 673.512 113.871 673.615 114.547C673.73 115.231 674.181 115.801 674.969 116.259C675.769 116.723 676.635 116.917 677.568 116.842C678.512 116.773 679.317 116.437 679.983 115.834C680.639 115.24 680.916 114.604 680.813 113.928C680.7 113.26 680.238 112.69 679.427 112.22C678.628 111.756 677.767 111.557 676.843 111.623C675.91 111.698 675.116 112.033 674.46 112.628Z" fill="#1C495E"/>
<path d="M49.3145 13.0012C48.6486 13.6044 48.3672 14.2443 48.4703 14.9209C48.5846 15.6041 49.0359 16.1745 49.8241 16.6321C50.6236 17.0963 51.4899 17.2907 52.4228 17.2156C53.367 17.1469 54.172 16.811 54.8379 16.2078C55.4941 15.6134 55.7707 14.9778 55.6676 14.3012C55.5549 13.6333 55.0932 13.064 54.2824 12.5933C53.4829 12.1292 52.6215 11.9303 51.6982 11.9968C50.7653 12.072 49.9707 12.4068 49.3145 13.0012ZM37.4595 23.7406C36.7937 24.3438 36.5123 24.9837 36.6153 25.6603C36.7296 26.3435 37.1809 26.9139 37.9692 27.3715C38.7687 27.8357 39.6349 28.0301 40.5679 27.955C41.5121 27.8863 42.3171 27.5504 42.9829 26.9472C43.6391 26.3528 43.9157 25.7172 43.8127 25.0406C43.7 24.3727 43.2382 23.8034 42.4274 23.3328C41.6279 22.8686 40.7665 22.6697 39.8432 22.7362C38.9103 22.8114 38.1157 23.1462 37.4595 23.7406Z" fill="#636E7D"/>
<g opacity="0.7">
<path d="M277.571 241.017C279.05 241.618 279.173 242.819 277.693 243.538L265.118 250.616L254.52 245.81L257.849 243.89C258.218 243.65 258.219 243.17 257.849 242.93L251.194 240.045C251.071 239.925 250.824 240.045 250.701 240.045L246.879 242.205L238.499 238.479L252.678 230.561C252.801 230.441 253.047 230.441 253.171 230.562L277.571 241.017Z" fill="#1C495E"/>
<path d="M267.953 251.942C268.199 252.062 268.199 252.422 267.952 252.662L261.418 256.382C261.295 256.502 261.171 256.502 261.048 256.381L257.721 254.819L265.118 250.62L267.953 251.942Z" fill="#1C495E"/>
<path d="M265.12 250.615L257.723 254.814L247.125 250.007L254.522 245.808L265.12 250.615Z" fill="#1C495E"/>
<path d="M257.722 254.824L242.434 263.341C241.448 263.941 239.722 263.941 238.613 263.58L230.726 260.215C230.356 260.095 230.233 259.494 230.727 259.255L247.124 250.017L257.722 254.824Z" fill="#1C495E"/>
<path d="M254.52 245.815L247.123 250.014L239.482 246.409L246.756 242.33L254.52 245.815Z" fill="#1C495E"/>
<path d="M246.756 242.329L239.482 246.408L231.102 242.682L238.5 238.483L246.756 242.329Z" fill="#1C495E"/>
<path d="M244.053 226.606C244.423 226.726 244.546 227.326 244.053 227.566L230.738 235.004L224.206 232L236.412 225.162C237.398 224.562 239.124 224.442 240.233 224.923L244.053 226.606Z" fill="#1C495E"/>
<path d="M239.484 246.403L222.1 256.241C221.977 256.361 221.73 256.361 221.607 256.24L201.273 247.588C199.794 246.987 199.671 245.786 201.151 244.946L216.932 236.068L223.463 239.073L217.052 242.672C216.682 242.912 216.682 243.392 217.052 243.632L223.706 246.516C223.83 246.637 224.076 246.517 224.2 246.517L231.104 242.678L239.484 246.403Z" fill="#1C495E"/>
<path d="M238.499 238.48L231.101 242.679L223.461 239.194L230.735 234.995L238.499 238.48Z" fill="#1C495E"/>
<path d="M230.734 234.998L223.46 239.197L216.929 236.193L224.326 232.114L230.734 234.998Z" fill="#1C495E"/>
<path d="M220.631 230.432L224.205 232.114L216.931 236.193L214.097 234.871C213.85 234.751 213.85 234.391 214.097 234.151L220.261 230.432C220.385 230.432 220.508 230.432 220.631 230.432Z" fill="#1C495E"/>
</g>
<path d="M727.318 175.875C730.057 175.53 731.303 177.218 729.733 179.535L717.239 200.662L697.169 202.392L700.436 196.732C700.776 196.063 700.351 195.346 699.586 195.298L687.103 196.585C686.813 196.509 686.551 196.895 686.367 196.999L682.577 203.432L666.775 204.913L680.917 181.187C680.994 180.904 681.362 180.697 681.653 180.773L727.318 175.875Z" fill="#1C495E"/>
<path d="M722.633 200.26C723.107 200.232 723.426 200.77 723.271 201.335L716.815 212.374C716.737 212.657 716.553 212.76 716.263 212.685L709.915 213.149L717.234 200.669L722.633 200.26Z" fill="#1C495E"/>
<path d="M717.232 200.652L709.914 213.133L689.844 214.863L697.162 202.383L717.232 200.652Z" fill="#1C495E"/>
<path d="M709.917 213.144L694.651 238.697C693.711 240.421 691.135 241.869 689.161 242.263L674.413 243.868C673.755 243.999 673.04 243.206 673.563 242.434L689.847 214.874L709.917 213.144Z" fill="#1C495E"/>
<path d="M697.166 202.395L689.848 214.875L675.256 215.915L682.496 203.717L697.166 202.395Z" fill="#1C495E"/>
<path d="M682.499 203.722L675.259 215.92L659.456 217.401L666.775 204.921L682.499 203.722Z" fill="#1C495E"/>
<path d="M664.53 182.522C665.188 182.39 665.903 183.183 665.38 183.955L652.101 206.24L639.695 207.245L651.85 186.787C652.79 185.063 655.259 183.435 657.34 183.221L664.53 182.522Z" fill="#1C495E"/>
<path d="M675.248 215.906L658.024 245.189C657.946 245.472 657.578 245.679 657.288 245.603L619.287 249.774C616.548 250.12 615.301 248.431 616.765 245.935L632.448 219.43L644.854 218.426L638.476 229.183C638.137 229.851 638.562 230.568 639.326 230.616L651.809 229.329C652.099 229.405 652.361 229.019 652.545 228.915L659.446 217.387L675.248 215.906Z" fill="#1C495E"/>
<path d="M666.771 204.92L659.452 217.4L644.966 218.619L652.101 206.242L666.771 204.92Z" fill="#1C495E"/>
<path d="M652.103 206.238L644.969 218.615L632.563 219.619L639.988 207.318L652.103 206.238Z" fill="#1C495E"/>
<path d="M632.974 207.913L639.796 207.421L632.556 219.618L627.156 220.027C626.682 220.055 626.363 219.517 626.519 218.952L632.422 208.223C632.606 208.12 632.79 208.016 632.974 207.913Z" fill="#1C495E"/>
<path d="M141.394 66.1973C144.157 65.8611 145.425 67.5837 143.854 69.9292L131.362 91.328L111.11 92.9762L114.375 87.242C114.714 86.5642 114.28 85.8336 113.508 85.7806L100.913 87.0194C100.619 86.9409 100.357 87.3318 100.172 87.4359L96.3831 93.952L80.4377 95.37L94.5776 71.3388C94.6544 71.052 95.0246 70.8438 95.3181 70.9223L141.394 66.1973Z" fill="#1C495E"/>
<path d="M136.806 90.9495C137.284 90.9239 137.609 91.4719 137.456 92.0455L131.002 103.227C130.925 103.514 130.74 103.618 130.447 103.54L124.041 103.976L131.357 91.3351L136.806 90.9495Z" fill="#1C495E"/>
<path d="M131.355 91.3185L124.038 103.96L103.786 105.608L111.102 92.9667L131.355 91.3185Z" fill="#1C495E"/>
<path d="M124.042 103.971L108.778 129.852C107.838 131.599 105.247 133.057 103.256 133.446L88.3756 134.995C87.7119 135.125 86.9852 134.316 87.5091 133.534L103.79 105.619L124.042 103.971Z" fill="#1C495E"/>
<path d="M111.106 92.9789L103.79 105.62L89.0638 106.596L96.3031 94.2415L111.106 92.9789Z" fill="#1C495E"/>
<path d="M96.3062 94.2466L89.0669 106.601L73.1214 108.019L80.4375 95.3778L96.3062 94.2466Z" fill="#1C495E"/>
<path d="M78.041 72.605C78.7047 72.4753 79.4313 73.2845 78.9075 74.0664L65.6302 96.6379L53.1113 97.5899L65.2641 76.8689C66.2035 75.1225 68.6868 73.4821 70.7861 73.2756L78.041 72.605Z" fill="#1C495E"/>
<path d="M89.0562 106.587L71.8362 136.248C71.7594 136.535 71.3892 136.743 71.0958 136.664L32.7534 140.693C29.9905 141.029 28.7223 139.307 30.1855 136.779L45.8654 109.932L58.3843 108.98L52.0076 119.875C51.6688 120.553 52.1021 121.284 52.874 121.337L65.4697 120.098C65.7631 120.176 66.0251 119.785 66.2102 119.681L73.1108 108.005L89.0562 106.587Z" fill="#1C495E"/>
<path d="M80.4334 95.3768L73.1172 108.018L58.4991 109.177L65.6301 96.6394L80.4334 95.3768Z" fill="#1C495E"/>
<path d="M65.6327 96.6354L58.5016 109.173L45.9828 110.125L53.4072 97.666L65.6327 96.6354Z" fill="#1C495E"/>
<path d="M46.3296 98.2318L53.2143 97.7694L45.9749 110.124L40.5259 110.509C40.0474 110.535 39.7225 109.987 39.8761 109.413L45.7743 98.5441C45.9594 98.44 46.1445 98.3359 46.3296 98.2318Z" fill="#1C495E"/>
<g opacity="0.7">
<path d="M236.918 145.965C237.749 146.815 237.46 147.678 236.218 147.736L225.359 148.896L219.56 142.459L222.449 142.12C222.778 142.064 222.928 141.733 222.748 141.459L219.066 137.509C219.018 137.39 218.811 137.4 218.726 137.363L215.424 137.721L210.815 132.683L223.038 131.418C223.161 131.372 223.33 131.445 223.378 131.564L236.918 145.965Z" fill="#F0DEDF"/>
<path d="M226.898 150.64C227.03 150.795 226.918 151.043 226.673 151.136L221.017 151.768C220.895 151.814 220.81 151.777 220.763 151.658L218.959 149.6L225.358 148.893L226.898 150.64Z" fill="#E2CFCF"/>
<path d="M225.36 148.895L218.962 149.601L213.163 143.164L219.562 142.457L225.36 148.895Z" fill="#E2CFCF"/>
<path d="M218.96 149.607L205.787 150.957C204.921 151.079 203.734 150.569 203.082 149.994L198.701 145.349C198.484 145.157 198.586 144.707 199 144.688L213.162 143.169L218.96 149.607Z" fill="#F0DEDF"/>
<path d="M219.56 142.458L213.161 143.164L209.025 138.427L215.301 137.767L219.56 142.458Z" fill="#E2CFCF"/>
<path d="M215.3 137.767L209.024 138.428L204.416 133.389L210.814 132.682L215.3 137.767Z" fill="#F0DEDF"/>
<path d="M218.332 126.138C218.55 126.33 218.447 126.78 218.033 126.799L206.553 127.989L202.993 123.993L213.522 122.889C214.388 122.767 215.613 123.194 216.227 123.852L218.332 126.138Z" fill="#F0DEDF"/>
<path d="M209.025 138.417L193.998 140.058C193.875 140.104 193.706 140.031 193.658 139.912L182.356 127.952C181.525 127.102 181.814 126.24 183.094 126.098L196.719 124.646L200.279 128.642L194.747 129.227C194.417 129.283 194.268 129.613 194.447 129.888L198.13 133.838C198.177 133.957 198.384 133.947 198.469 133.984L204.416 133.379L209.025 138.417Z" fill="#F0DEDF"/>
<path d="M210.813 132.678L204.414 133.385L200.24 128.73L206.554 127.987L210.813 132.678Z" fill="#E2CFCF"/>
<path d="M206.556 127.994L200.241 128.737L196.681 124.74L203.042 124.116L206.556 127.994Z" fill="#E2CFCF"/>
<path d="M201.02 121.86L202.957 124.074L196.679 124.735L195.14 122.988C195.008 122.832 195.12 122.584 195.364 122.492L200.766 121.751C200.851 121.787 200.936 121.824 201.02 121.86Z" fill="#E2CFCF"/>
</g>
<g opacity="0.3">
<path d="M394.125 19.7852C394.606 20.2774 394.438 20.7768 393.719 20.8108L387.433 21.4819L384.075 17.7548L385.748 17.5588C385.938 17.5264 386.025 17.3351 385.921 17.1762L383.789 14.8893C383.761 14.8204 383.641 14.826 383.592 14.8049L381.68 15.0122L379.012 12.0952L386.088 11.3634C386.159 11.3367 386.257 11.3788 386.285 11.4478L394.125 19.7852Z" fill="#F0DEDF"/>
<path d="M388.323 22.4923C388.399 22.5823 388.334 22.7259 388.193 22.7794L384.918 23.1451C384.848 23.1718 384.798 23.1507 384.771 23.0818L383.727 21.8902L387.431 21.4808L388.323 22.4923Z" fill="#E2CFCF"/>
<path d="M387.433 21.4837L383.728 21.8932L380.371 18.1651L384.076 17.7557L387.433 21.4837Z" fill="#E2CFCF"/>
<path d="M383.728 21.8957L376.101 22.6768C375.6 22.7473 374.912 22.452 374.535 22.1187L371.999 19.4296C371.873 19.3185 371.932 19.0582 372.172 19.0469L380.37 18.1685L383.728 21.8957Z" fill="#F0DEDF"/>
<path d="M384.075 17.7568L380.37 18.1662L377.975 15.4229L381.609 15.0402L384.075 17.7568Z" fill="#E2CFCF"/>
<path d="M381.609 15.0402L377.975 15.4229L375.307 12.5052L379.012 12.0957L381.609 15.0402Z" fill="#F0DEDF"/>
<path d="M383.364 8.31116C383.49 8.42232 383.43 8.68271 383.191 8.69403L376.544 9.38246L374.483 7.06766L380.579 6.42863C381.08 6.35814 381.789 6.60568 382.145 6.98702L383.364 8.31116Z" fill="#F0DEDF"/>
<path d="M377.976 15.4168L369.276 16.3657C369.205 16.3924 369.107 16.3502 369.079 16.2813L362.535 9.3574C362.054 8.86515 362.222 8.36571 362.963 8.28394L370.851 7.44364L372.912 9.75727L369.709 10.0957C369.518 10.1281 369.432 10.3194 369.536 10.4783L371.668 12.7652C371.696 12.8341 371.815 12.8285 371.864 12.8496L375.307 12.4999L377.976 15.4168Z" fill="#F0DEDF"/>
<path d="M379.011 12.0946L375.306 12.5041L372.889 9.8086L376.545 9.37806L379.011 12.0946Z" fill="#E2CFCF"/>
<path d="M376.546 9.38173L372.89 9.81227L370.828 7.49804L374.512 7.13646L376.546 9.38173Z" fill="#E2CFCF"/>
<path d="M373.341 5.82923L374.462 7.11086L370.828 7.49353L369.937 6.48203C369.86 6.39199 369.925 6.24843 370.067 6.1949L373.194 5.76596C373.243 5.78705 373.292 5.80814 373.341 5.82923Z" fill="#E2CFCF"/>
</g>
<g opacity="0.7">
<path d="M722.394 33.5222C723.336 32.7564 724.205 33.0988 724.169 34.3307L724.529 45.1415L717.435 50.4527L717.308 47.5749C717.276 47.2457 716.946 47.0761 716.648 47.2358L712.286 50.6181C712.159 50.6572 712.153 50.8625 712.109 50.944L712.224 54.2325L706.666 58.4587L706.303 46.2922C706.265 46.1683 706.353 46.0054 706.48 45.9663L722.394 33.5222Z" fill="#F0DEDF"/>
<path d="M726.45 43.7346C726.621 43.614 726.868 43.7412 726.945 43.9889L727.16 49.6208C727.198 49.7447 727.154 49.8261 727.028 49.8652L724.764 51.514L724.528 45.1422L726.45 43.7346Z" fill="#E2CFCF"/>
<path d="M724.528 45.1464L724.764 51.5181L717.669 56.8294L717.433 50.4576L724.528 45.1464Z" fill="#E2CFCF"/>
<path d="M724.769 51.5181L725.147 64.6298C725.206 65.4935 724.588 66.6341 723.943 67.2402L718.809 71.2677C718.594 71.4697 718.138 71.3393 718.15 70.9286L717.675 56.8294L724.769 51.5181Z" fill="#F0DEDF"/>
<path d="M717.438 50.4593L717.674 56.8311L712.463 60.6108L712.265 54.3629L717.438 50.4593Z" fill="#E2CFCF"/>
<path d="M712.266 54.3618L712.464 60.6097L706.906 64.8359L706.67 58.4642L712.266 54.3618Z" fill="#F0DEDF"/>
<path d="M700.493 50.6003C700.708 50.3982 701.164 50.5287 701.152 50.9393L701.495 62.3661L697.094 65.6245L696.766 55.1429C696.707 54.2793 697.243 53.0963 697.97 52.5325L700.493 50.6003Z" fill="#F0DEDF"/>
<path d="M712.461 60.6099L712.995 75.5729C713.033 75.6967 712.945 75.8597 712.818 75.8988L699.597 86.2901C698.655 87.0558 697.787 86.7135 697.74 85.4391L697.291 71.8743L701.692 68.6159L701.869 74.1239C701.902 74.4531 702.231 74.6226 702.529 74.463L706.891 71.0807C707.018 71.0416 707.024 70.8363 707.068 70.7548L706.903 64.8361L712.461 60.6099Z" fill="#F0DEDF"/>
<path d="M706.669 58.466L706.905 64.8377L701.777 68.6599L701.497 62.3696L706.669 58.466Z" fill="#E2CFCF"/>
<path d="M701.494 62.3616L701.774 68.6519L697.373 71.9103L697.22 65.581L701.494 62.3616Z" fill="#E2CFCF"/>
<path d="M694.739 67.4317L697.174 65.6623L697.372 71.9102L695.449 73.3179C695.278 73.4384 695.031 73.3113 694.955 73.0636L694.607 67.6761C694.651 67.5946 694.695 67.5131 694.739 67.4317Z" fill="#E2CFCF"/>
</g>
<g opacity="0.4">
<path d="M145.717 189.412C146.659 188.646 147.527 188.989 147.492 190.221L147.852 201.032L140.757 206.343L140.631 203.465C140.598 203.136 140.268 202.966 139.971 203.126L135.608 206.508C135.482 206.547 135.476 206.753 135.432 206.834L135.547 210.123L129.989 214.349L129.626 202.182C129.587 202.058 129.676 201.895 129.802 201.856L145.717 189.412Z" fill="#F0DEDF"/>
<path d="M149.773 199.625C149.943 199.504 150.191 199.631 150.267 199.879L150.483 205.511C150.521 205.635 150.477 205.716 150.35 205.755L148.086 207.404L147.85 201.032L149.773 199.625Z" fill="#E2CFCF"/>
<path d="M147.85 201.036L148.086 207.408L140.991 212.719L140.755 206.348L147.85 201.036Z" fill="#E2CFCF"/>
<path d="M148.092 207.408L148.47 220.52C148.529 221.384 147.911 222.524 147.266 223.13L142.132 227.158C141.917 227.36 141.461 227.229 141.472 226.819L140.997 212.719L148.092 207.408Z" fill="#F0DEDF"/>
<path d="M140.76 206.349L140.996 212.721L135.786 216.501L135.588 210.253L140.76 206.349Z" fill="#E2CFCF"/>
<path d="M135.588 210.252L135.786 216.5L130.228 220.726L129.992 214.354L135.588 210.252Z" fill="#F0DEDF"/>
<path d="M123.815 206.49C124.03 206.288 124.487 206.419 124.475 206.829L124.817 218.256L120.416 221.515L120.089 211.033C120.03 210.169 120.565 208.986 121.292 208.423L123.815 206.49Z" fill="#F0DEDF"/>
<path d="M135.783 216.5L136.317 231.463C136.355 231.587 136.267 231.75 136.141 231.789L122.92 242.18C121.978 242.946 121.109 242.603 121.062 241.329L120.614 227.764L125.015 224.506L125.192 230.014C125.224 230.343 125.554 230.513 125.851 230.353L130.214 226.971C130.34 226.932 130.346 226.726 130.391 226.645L130.225 220.726L135.783 216.5Z" fill="#F0DEDF"/>
<path d="M129.992 214.356L130.228 220.728L125.099 224.55L124.819 218.26L129.992 214.356Z" fill="#E2CFCF"/>
<path d="M124.817 218.252L125.097 224.542L120.696 227.8L120.542 221.471L124.817 218.252Z" fill="#E2CFCF"/>
<path d="M118.062 223.322L120.496 221.552L120.694 227.8L118.772 229.208C118.601 229.328 118.354 229.201 118.277 228.954L117.929 223.566C117.974 223.485 118.018 223.403 118.062 223.322Z" fill="#E2CFCF"/>
</g>
<g opacity="0.3">
<path d="M770.339 256.91C770.924 257.362 770.823 257.915 770.066 258.056L763.51 259.677L759.385 256.215L761.126 255.765C761.323 255.703 761.386 255.488 761.252 255.335L758.644 253.221C758.605 253.152 758.478 253.175 758.423 253.16L756.429 253.656L753.158 250.953L760.542 249.153C760.613 249.114 760.724 249.145 760.763 249.214L770.339 256.91Z" fill="#F0DEDF"/>
<path d="M764.605 260.613C764.699 260.697 764.652 260.859 764.511 260.936L761.098 261.798C761.027 261.836 760.972 261.821 760.932 261.752L759.644 260.641L763.506 259.671L764.605 260.613Z" fill="#E2CFCF"/>
<path d="M763.509 259.678L759.647 260.648L755.522 257.185L759.384 256.215L763.509 259.678Z" fill="#E2CFCF"/>
<path d="M759.647 260.647L751.687 262.58C751.167 262.727 750.394 262.514 749.944 262.216L746.846 259.734C746.696 259.635 746.719 259.35 746.972 259.304L755.523 257.185L759.647 260.647Z" fill="#F0DEDF"/>
<path d="M759.383 256.216L755.521 257.186L752.565 254.627L756.356 253.696L759.383 256.216Z" fill="#E2CFCF"/>
<path d="M756.356 253.693L752.565 254.625L749.293 251.92L753.155 250.95L756.356 253.693Z" fill="#F0DEDF"/>
<path d="M757.187 246.305C757.337 246.405 757.314 246.689 757.061 246.736L750.126 248.427L747.59 246.275L753.95 244.715C754.47 244.568 755.259 244.727 755.693 245.08L757.187 246.305Z" fill="#F0DEDF"/>
<path d="M752.566 254.619L743.495 256.884C743.424 256.922 743.314 256.892 743.274 256.823L735.287 250.436C734.702 249.984 734.803 249.431 735.575 249.237L743.803 247.205L746.339 249.357L742.998 250.179C742.801 250.241 742.738 250.456 742.873 250.61L745.48 252.723C745.52 252.792 745.646 252.769 745.701 252.784L749.295 251.915L752.566 254.619Z" fill="#F0DEDF"/>
<path d="M753.156 250.951L749.294 251.921L746.323 249.416L750.13 248.431L753.156 250.951Z" fill="#E2CFCF"/>
<path d="M750.129 248.428L746.322 249.414L743.786 247.261L747.632 246.344L750.129 248.428Z" fill="#E2CFCF"/>
<path d="M746.197 245.141L747.58 246.336L743.789 247.268L742.691 246.325C742.596 246.241 742.643 246.08 742.785 246.003L746.032 245.095C746.087 245.111 746.142 245.126 746.197 245.141Z" fill="#E2CFCF"/>
</g>
<path d="M535.09 41.2183C534.814 41.6773 534.402 41.661 534.229 41.1393L532.441 36.6597L534.584 33.3938L535.073 34.5818C535.136 34.7151 535.299 34.7378 535.398 34.6274L536.698 32.5703C536.745 32.5354 536.716 32.4484 536.722 32.4078L536.176 31.046L537.845 28.4601L539.84 33.5076C539.875 33.554 539.863 33.6352 539.816 33.6701L535.09 41.2183Z" fill="#1C495E"/>
<path d="M531.857 37.5294C531.805 37.605 531.683 37.5879 531.613 37.4953L530.671 35.1647C530.636 35.1184 530.642 35.0777 530.689 35.0428L531.379 34.0194L532.443 36.6572L531.857 37.5294Z" fill="#1C495E"/>
<path d="M532.438 36.6588L531.374 34.0221L533.517 30.7562L534.581 33.3929L532.438 36.6588Z" fill="#1C495E"/>
<path d="M531.374 34.0218L529.229 28.5801C529.074 28.2267 529.158 27.6579 529.334 27.3094L530.857 24.8689C530.915 24.7527 531.125 24.7406 531.182 24.9145L533.517 30.7559L531.374 34.0218Z" fill="#1C495E"/>
<path d="M534.582 33.3918L533.518 30.7551L535.11 28.4072L536.14 30.9977L534.582 33.3918Z" fill="#1C495E"/>
<path d="M536.142 30.9971L535.112 28.4066L536.781 25.8207L537.845 28.4575L536.142 30.9971Z" fill="#1C495E"/>
<path d="M541.607 30.8472C541.548 30.9634 541.339 30.9755 541.282 30.8017L539.407 26.0612L540.741 24.0505L542.467 28.3968C542.622 28.7503 542.579 29.3247 542.362 29.6676L541.607 30.8472Z" fill="#1C495E"/>
<path d="M535.116 28.4071L532.625 22.2121C532.59 22.1657 532.602 22.0845 532.649 22.0496L536.567 15.7566C536.842 15.2976 537.255 15.3139 537.468 15.8413L539.711 21.4626L538.377 23.4733L537.468 21.19C537.404 21.0568 537.242 21.034 537.142 21.1445L535.842 23.2015C535.796 23.2364 535.824 23.3234 535.818 23.364L536.784 25.8212L535.116 28.4071Z" fill="#1C495E"/>
<path d="M537.844 28.4585L536.78 25.8218L538.331 23.4682L539.402 26.0644L537.844 28.4585Z" fill="#1C495E"/>
<path d="M539.406 26.0635L538.336 23.4674L539.671 21.4567L540.694 24.0877L539.406 26.0635Z" fill="#1C495E"/>
<path d="M541.44 22.953L540.697 24.0519L539.668 21.4605L540.253 20.5883C540.306 20.5127 540.428 20.5298 540.497 20.6224L541.458 22.831C541.452 22.8717 541.446 22.9123 541.44 22.953Z" fill="#1C495E"/>
<g opacity="0.6">
<path d="M563.081 179.933C562.525 180.86 561.691 180.827 561.343 179.774L557.732 170.729L562.059 164.134L563.046 166.533C563.174 166.802 563.503 166.848 563.703 166.625L566.329 162.471C566.423 162.4 566.365 162.225 566.377 162.143L565.274 159.393L568.644 154.171L572.673 164.363C572.743 164.457 572.719 164.621 572.624 164.692L563.081 179.933Z" fill="#636E7D"/>
<path d="M556.556 172.479C556.449 172.632 556.203 172.597 556.063 172.41L554.158 167.706C554.088 167.613 554.1 167.531 554.194 167.46L555.589 165.395L557.738 170.719L556.556 172.479Z" fill="#636E7D"/>
<path d="M557.727 170.729L555.579 165.405L559.906 158.81L562.054 164.134L557.727 170.729Z" fill="#636E7D"/>
<path d="M555.58 165.406L551.249 154.418C550.935 153.705 551.104 152.556 551.46 151.852L554.535 146.924C554.653 146.69 555.076 146.665 555.192 147.016L559.907 158.811L555.58 165.406Z" fill="#636E7D"/>
<path d="M562.058 164.133L559.909 158.808L563.124 154.067L565.202 159.298L562.058 164.133Z" fill="#636E7D"/>
<path d="M565.207 159.292L563.128 154.062L566.498 148.84L568.647 154.164L565.207 159.292Z" fill="#636E7D"/>
<path d="M576.242 158.992C576.123 159.227 575.7 159.252 575.584 158.9L571.799 149.328L574.494 145.268L577.978 154.044C578.292 154.758 578.204 155.918 577.767 156.61L576.242 158.992Z" fill="#636E7D"/>
<path d="M563.135 154.067L558.106 141.558C558.036 141.464 558.06 141.3 558.154 141.23L566.066 128.523C566.622 127.596 567.455 127.629 567.885 128.694L572.414 140.044L569.719 144.104L567.884 139.494C567.756 139.225 567.428 139.179 567.227 139.402L564.602 143.556C564.508 143.626 564.566 143.802 564.554 143.884L566.504 148.845L563.135 154.067Z" fill="#636E7D"/>
<path d="M568.644 154.17L566.495 148.846L569.628 144.094L571.789 149.336L568.644 154.17Z" fill="#636E7D"/>
<path d="M571.797 149.334L569.637 144.092L572.332 140.032L574.398 145.344L571.797 149.334Z" fill="#636E7D"/>
<path d="M575.903 143.054L574.402 145.272L572.324 140.041L573.506 138.281C573.612 138.128 573.858 138.163 573.999 138.35L575.94 142.808C575.928 142.89 575.916 142.972 575.903 143.054Z" fill="#636E7D"/>
</g>
<g filter="url(#filter0_d)">
<circle cx="387" cy="159" r="108" stroke="url(#paint0_linear)" stroke-width="18"/>
</g>
<defs>
<filter id="filter0_d" x="250" y="31.0005" width="270" height="270" filterUnits="userSpaceOnUse" color-interpolation-filters="sRGB">
<feFlood flood-opacity="0" result="BackgroundImageFix"/>
<feColorMatrix in="SourceAlpha" type="matrix" values="0 0 0 0 0 0 0 0 0 0 0 0 0 0 0 0 0 0 127 0"/>
<feOffset dx="-2" dy="7"/>
<feGaussianBlur stdDeviation="9"/>
<feColorMatrix type="matrix" values="0 0 0 0 0 0 0 0 0 0 0 0 0 0 0 0 0 0 0.25 0"/>
<feBlend mode="normal" in2="BackgroundImageFix" result="effect1_dropShadow"/>
<feBlend mode="normal" in="SourceGraphic" in2="effect1_dropShadow" result="shape"/>
</filter>
<linearGradient id="paint0_linear" x1="387" y1="42.0005" x2="387" y2="276" gradientUnits="userSpaceOnUse">
<stop offset="0.012748" stop-color="#46E6EF"/>
<stop offset="1" stop-color="#3FAAB0"/>
</linearGradient>
</defs>
</svg>
