<svg width="768" height="1007" viewBox="0 0 768 1007" fill="none" xmlns="http://www.w3.org/2000/svg">
<rect width="768" height="1007" fill="white"/>
<rect width="768" height="1007" fill="url(#paint0_linear)"/>
<g clip-path="url(#clip0)">
<path d="M483.046 918.277L386.358 773.612C384.032 770.056 378.689 767.115 374.337 766.995L200.385 758.798C196.033 758.678 194.562 761.349 196.889 764.906L293.381 909.196C295.708 912.752 301.051 915.693 305.403 915.813L479.354 924.01C483.902 924.505 485.372 921.834 483.046 918.277Z" fill="#FFF3F3"/>
<path d="M484.768 921.168L578.859 764.666C580.938 760.753 581.877 754.486 579.976 750.563L509.511 585.629C507.611 581.706 504.436 581.307 502.357 585.22L408.266 741.722C406.188 745.635 405.249 751.902 407.15 755.825L477.615 920.759C479.113 924.877 482.69 925.082 484.768 921.168Z" fill="url(#paint1_linear)"/>
<path d="M462.494 621.281C464.45 622.096 464.612 623.727 462.656 624.704L446.025 634.314L432.009 627.788L436.411 625.182C436.9 624.856 436.9 624.204 436.412 623.877L427.611 619.961C427.448 619.798 427.122 619.961 426.959 619.961L421.904 622.893L410.821 617.835L429.572 607.084C429.735 606.922 430.061 606.922 430.224 607.085L462.494 621.281Z" fill="#F0DEDF"/>
<path d="M449.775 636.11C450.101 636.273 450.101 636.762 449.775 637.088L441.133 642.137C440.97 642.3 440.807 642.3 440.644 642.137L436.244 640.016L446.027 634.315L449.775 636.11Z" fill="#E2CFCF"/>
<path d="M446.029 634.312L436.246 640.013L422.23 633.487L432.013 627.785L446.029 634.312Z" fill="#E2CFCF"/>
<path d="M436.246 640.022L416.027 651.587C414.723 652.402 412.441 652.401 410.974 651.911L400.543 647.342C400.054 647.179 399.892 646.364 400.544 646.038L422.23 633.496L436.246 640.022Z" fill="#F0DEDF"/>
<path d="M432.01 627.792L422.227 633.493L412.123 628.598L421.743 623.06L432.01 627.792Z" fill="#E2CFCF"/>
<path d="M421.743 623.057L412.123 628.595L401.041 623.537L410.824 617.836L421.743 623.057Z" fill="#F0DEDF"/>
<path d="M418.167 601.707C418.656 601.87 418.819 602.685 418.167 603.011L400.557 613.11L391.92 609.031L408.062 599.746C409.366 598.932 411.648 598.77 413.115 599.422L418.167 601.707Z" fill="#F0DEDF"/>
<path d="M412.125 628.591L389.135 641.948C388.972 642.111 388.646 642.111 388.483 641.948L361.591 630.199C359.635 629.384 359.473 627.753 361.43 626.613L382.3 614.559L390.938 618.638L382.46 623.525C381.97 623.851 381.97 624.503 382.459 624.829L391.26 628.745C391.423 628.908 391.749 628.745 391.912 628.745L401.043 623.533L412.125 628.591Z" fill="#F0DEDF"/>
<path d="M410.821 617.837L401.038 623.539L390.933 618.807L400.553 613.106L410.821 617.837Z" fill="#E2CFCF"/>
<path d="M400.554 613.105L390.934 618.806L382.296 614.727L392.079 609.189L400.554 613.105Z" fill="#E2CFCF"/>
<path d="M387.191 606.904L391.917 609.188L382.297 614.727L378.549 612.932C378.223 612.769 378.223 612.28 378.549 611.954L386.702 606.904C386.865 606.904 387.028 606.904 387.191 606.904Z" fill="#E2CFCF"/>
<path d="M368.403 662.331C371.352 661.949 372.694 663.816 371.003 666.377L357.547 689.733L335.935 691.648L339.453 685.39C339.819 684.65 339.361 683.858 338.538 683.805L325.095 685.228C324.783 685.145 324.501 685.572 324.303 685.686L320.221 692.798L303.205 694.437L318.435 668.206C318.519 667.894 318.915 667.665 319.227 667.749L368.403 662.331Z" fill="#F0DEDF"/>
<path d="M363.356 689.283C363.867 689.253 364.21 689.847 364.043 690.472L357.09 702.676C357.007 702.989 356.809 703.103 356.496 703.019L349.66 703.533L357.542 689.736L363.356 689.283Z" fill="#E2CFCF"/>
<path d="M357.541 689.728L349.659 703.525L328.047 705.44L335.929 691.643L357.541 689.728Z" fill="#E2CFCF"/>
<path d="M349.663 703.537L333.222 731.787C332.209 733.693 329.436 735.294 327.31 735.73L311.428 737.505C310.72 737.65 309.95 736.774 310.513 735.92L328.051 705.452L349.663 703.537Z" fill="#F0DEDF"/>
<path d="M335.932 691.653L328.051 705.45L312.337 706.6L320.135 693.116L335.932 691.653Z" fill="#E2CFCF"/>
<path d="M320.139 693.116L312.341 706.601L295.324 708.239L303.206 694.442L320.139 693.116Z" fill="#F0DEDF"/>
<path d="M300.789 669.68C301.497 669.534 302.268 670.411 301.704 671.264L287.403 695.901L274.044 697.012L287.134 674.395C288.147 672.49 290.806 670.69 293.046 670.453L300.789 669.68Z" fill="#F0DEDF"/>
<path d="M312.332 706.587L293.781 738.961C293.698 739.273 293.302 739.502 292.989 739.418L252.067 744.032C249.118 744.414 247.775 742.548 249.352 739.788L266.242 710.486L279.601 709.375L272.732 721.267C272.367 722.006 272.824 722.798 273.647 722.851L287.09 721.428C287.403 721.512 287.684 721.085 287.883 720.97L295.315 708.225L312.332 706.587Z" fill="#F0DEDF"/>
<path d="M303.2 694.444L295.318 708.241L279.719 709.59L287.402 695.907L303.2 694.444Z" fill="#E2CFCF"/>
<path d="M287.407 695.903L279.723 709.586L266.364 710.697L274.36 697.098L287.407 695.903Z" fill="#E2CFCF"/>
<path d="M266.806 697.752L274.152 697.208L266.354 710.693L260.54 711.145C260.029 711.176 259.686 710.582 259.853 709.957L266.212 698.096C266.41 697.981 266.608 697.867 266.806 697.752Z" fill="#E2CFCF"/>
<path d="M293.251 639.433C294.712 640.968 294.203 642.525 292.019 642.631L272.925 644.724L262.728 633.102L267.807 632.491C268.386 632.39 268.649 631.793 268.333 631.298L261.857 624.167C261.774 623.952 261.41 623.969 261.26 623.904L255.453 624.55L247.349 615.454L268.842 613.172C269.057 613.089 269.355 613.221 269.439 613.436L293.251 639.433Z" fill="#F0DEDF"/>
<path d="M275.629 647.878C275.862 648.159 275.665 648.606 275.235 648.773L265.291 649.912C265.076 649.995 264.927 649.929 264.843 649.714L261.671 646L272.922 644.725L275.629 647.878Z" fill="#E2CFCF"/>
<path d="M272.928 644.722L261.677 645.997L251.48 634.375L262.731 633.1L272.928 644.722Z" fill="#E2CFCF"/>
<path d="M261.673 646.008L238.508 648.444C236.986 648.664 234.898 647.743 233.753 646.704L226.048 638.319C225.666 637.972 225.846 637.161 226.574 637.125L251.476 634.387L261.673 646.008Z" fill="#F0DEDF"/>
<path d="M262.728 633.107L251.477 634.382L244.202 625.83L255.238 624.639L262.728 633.107Z" fill="#E2CFCF"/>
<path d="M255.237 624.636L244.201 625.828L236.097 616.732L247.348 615.457L255.237 624.636Z" fill="#F0DEDF"/>
<path d="M260.568 603.648C260.95 603.995 260.77 604.806 260.042 604.842L239.856 606.987L233.594 599.773L252.109 597.781C253.632 597.562 255.786 598.333 256.865 599.522L260.568 603.648Z" fill="#F0DEDF"/>
<path d="M244.204 625.817L217.78 628.775C217.565 628.859 217.267 628.727 217.184 628.512L197.307 606.922C195.846 605.387 196.355 603.83 198.605 603.575L222.563 600.955L228.825 608.169L219.096 609.224C218.517 609.325 218.254 609.922 218.57 610.418L225.046 617.549C225.129 617.763 225.493 617.746 225.643 617.812L236.1 616.721L244.204 625.817Z" fill="#F0DEDF"/>
<path d="M247.347 615.454L236.096 616.729L228.755 608.326L239.857 606.985L247.347 615.454Z" fill="#E2CFCF"/>
<path d="M239.86 606.991L228.758 608.332L222.497 601.117L233.682 599.992L239.86 606.991Z" fill="#E2CFCF"/>
<path d="M230.127 595.923L233.532 599.918L222.496 601.11L219.789 597.956C219.556 597.676 219.753 597.228 220.183 597.061L229.68 595.726C229.829 595.791 229.978 595.857 230.127 595.923Z" fill="#E2CFCF"/>
<path d="M368.03 508.755C369.664 507.406 371.182 508.023 371.134 510.209L371.877 529.403L359.567 538.757L359.315 533.647C359.255 533.062 358.678 532.758 358.161 533.038L350.592 538.997C350.372 539.065 350.364 539.429 350.288 539.573L350.524 545.412L340.88 552.856L340.117 531.255C340.049 531.035 340.201 530.747 340.421 530.678L368.03 508.755Z" fill="#F0DEDF"/>
<path d="M375.208 526.925C375.505 526.712 375.937 526.941 376.073 527.381L376.509 537.381C376.577 537.601 376.501 537.745 376.281 537.813L372.352 540.716L371.872 529.403L375.208 526.925Z" fill="#E2CFCF"/>
<path d="M371.874 529.403L372.354 540.716L360.044 550.07L359.564 538.757L371.874 529.403Z" fill="#E2CFCF"/>
<path d="M372.361 540.72L373.16 563.998C373.272 565.532 372.207 567.55 371.089 568.619L362.183 575.715C361.81 576.071 361.013 575.835 361.03 575.106L360.05 550.073L372.361 540.72Z" fill="#F0DEDF"/>
<path d="M359.57 538.761L360.05 550.074L351.007 556.729L350.595 545.636L359.57 538.761Z" fill="#E2CFCF"/>
<path d="M350.598 545.637L351.009 556.729L341.366 564.173L340.886 552.86L350.598 545.637Z" fill="#F0DEDF"/>
<path d="M330.034 538.84C330.406 538.484 331.203 538.72 331.187 539.449L331.906 559.736L324.269 565.474L323.586 546.865C323.474 545.331 324.395 543.237 325.657 542.244L330.034 538.84Z" fill="#F0DEDF"/>
<path d="M351.001 556.726L352.092 583.293C352.16 583.513 352.008 583.801 351.788 583.869L328.852 602.177C327.218 603.526 325.701 602.909 325.605 600.647L324.677 576.563L332.314 570.825L332.682 580.604C332.742 581.189 333.319 581.493 333.835 581.213L341.404 575.255C341.625 575.187 341.633 574.822 341.709 574.678L341.357 564.17L351.001 556.726Z" fill="#F0DEDF"/>
<path d="M340.884 552.863L341.364 564.175L332.465 570.907L331.91 559.738L340.884 552.863Z" fill="#E2CFCF"/>
<path d="M331.906 559.73L332.462 570.899L324.825 576.637L324.49 565.4L331.906 559.73Z" fill="#E2CFCF"/>
<path d="M320.184 568.661L324.409 565.546L324.821 576.638L321.485 579.117C321.189 579.329 320.756 579.101 320.62 578.66L319.956 569.093C320.032 568.949 320.108 568.805 320.184 568.661Z" fill="#E2CFCF"/>
<path d="M269.063 546.364C270.091 547.179 269.913 548.178 268.582 548.431L257.053 551.357L249.8 545.107L252.862 544.296C253.209 544.184 253.319 543.795 253.082 543.519L248.497 539.703C248.428 539.578 248.206 539.62 248.109 539.593L244.603 540.489L238.85 535.608L251.835 532.36C251.959 532.29 252.154 532.345 252.223 532.47L269.063 546.364Z" fill="#F0DEDF"/>
<path d="M258.976 553.049C259.143 553.201 259.06 553.492 258.811 553.631L252.811 555.185C252.686 555.255 252.589 555.227 252.52 555.103L250.255 553.098L257.045 551.348L258.976 553.049Z" fill="#E2CFCF"/>
<path d="M257.05 551.356L250.26 553.106L243.006 546.857L249.796 545.107L257.05 551.356Z" fill="#E2CFCF"/>
<path d="M250.26 553.107L236.264 556.594C235.349 556.859 233.989 556.474 233.198 555.936L227.751 551.456C227.487 551.277 227.528 550.764 227.971 550.679L243.006 546.857L250.26 553.107Z" fill="#F0DEDF"/>
<path d="M249.795 545.109L243.005 546.859L237.807 542.241L244.473 540.561L249.795 545.109Z" fill="#E2CFCF"/>
<path d="M244.473 540.556L237.808 542.236L232.055 537.356L238.845 535.606L244.473 540.556Z" fill="#F0DEDF"/>
<path d="M245.933 527.22C246.197 527.4 246.156 527.913 245.713 527.997L233.519 531.05L229.058 527.165L240.241 524.35C241.155 524.085 242.543 524.372 243.307 525.008L245.933 527.22Z" fill="#F0DEDF"/>
<path d="M237.808 542.232L221.859 546.32C221.734 546.39 221.54 546.335 221.47 546.21L207.423 534.681C206.395 533.865 206.573 532.866 207.931 532.516L222.398 528.848L226.859 532.733L220.983 534.218C220.637 534.329 220.527 534.718 220.763 534.995L225.348 538.81C225.418 538.935 225.64 538.893 225.737 538.92L232.056 537.352L237.808 542.232Z" fill="#F0DEDF"/>
<path d="M238.845 535.604L232.055 537.353L226.831 532.832L233.524 531.055L238.845 535.604Z" fill="#E2CFCF"/>
<path d="M233.523 531.049L226.83 532.826L222.37 528.941L229.132 527.288L233.523 531.049Z" fill="#E2CFCF"/>
<path d="M226.61 525.116L229.042 527.273L222.376 528.953L220.445 527.252C220.278 527.1 220.361 526.809 220.61 526.669L226.319 525.033C226.416 525.061 226.513 525.088 226.61 525.116Z" fill="#E2CFCF"/>
</g>
<defs>
<linearGradient id="paint0_linear" x1="315.8" y1="1110.53" x2="955.705" y2="281.977" gradientUnits="userSpaceOnUse">
<stop stop-color="#FCF0F0" stop-opacity="0.57"/>
<stop offset="0.289103" stop-color="white"/>
</linearGradient>
<linearGradient id="paint1_linear" x1="414.896" y1="791.386" x2="572.65" y2="714.96" gradientUnits="userSpaceOnUse">
<stop offset="0.3007" stop-color="#E9C7CC"/>
<stop offset="1" stop-color="#FFFCFC"/>
</linearGradient>
<clipPath id="clip0">
<rect width="450" height="509.846" fill="white" transform="translate(187 497)"/>
</clipPath>
</defs>
</svg>
