<svg width="375" height="257" viewBox="0 0 375 257" fill="none" xmlns="http://www.w3.org/2000/svg">
<rect width="375" height="257" fill="white"/>
<path d="M91.4981 203.964L96.7931 208.619L93.356 212.384L88.0609 207.728L82.6879 213.613L78.6542 210.066L84.0273 204.182L78.7176 199.513L82.1548 195.748L87.4645 200.417L92.6136 194.777L96.6473 198.324L91.4981 203.964Z" fill="#FAEDED"/>
<path d="M267.401 34.6913L273.614 43.2505L267.347 47.6312L261.134 39.0721L251.337 45.9201L246.604 39.4L256.401 32.5519L250.172 23.9691L256.439 19.5883L262.669 28.1712L272.057 21.6085L276.79 28.1286L267.401 34.6913Z" fill="#F9BABD"/>
<path d="M324.731 145.537C324.067 144.931 323.787 144.288 323.89 143.609C324.005 142.922 324.456 142.349 325.242 141.889C326.041 141.422 326.905 141.227 327.836 141.302C328.777 141.37 329.58 141.707 330.244 142.313C330.898 142.91 331.173 143.548 331.07 144.228C330.957 144.898 330.496 145.471 329.686 145.944C328.888 146.41 328.029 146.611 327.108 146.544C326.177 146.469 325.385 146.133 324.731 145.537ZM312.914 134.755C312.25 134.149 311.97 133.507 312.074 132.827C312.189 132.141 312.639 131.567 313.426 131.107C314.224 130.641 315.088 130.445 316.019 130.52C316.961 130.588 317.764 130.925 318.427 131.531C319.082 132.128 319.357 132.766 319.253 133.446C319.14 134.117 318.679 134.689 317.87 135.162C317.072 135.629 316.212 135.829 315.291 135.763C314.361 135.688 313.568 135.352 312.914 134.755Z" fill="#FAEDED"/>
<path d="M35.3001 157.093C34.6365 156.487 34.3564 155.844 34.4598 155.165C34.5745 154.478 35.0253 153.905 35.8121 153.445C36.6101 152.978 37.4745 152.783 38.4051 152.858C39.347 152.926 40.1498 153.263 40.8135 153.869C41.4675 154.465 41.7428 155.104 41.6394 155.783C41.5263 156.454 41.0651 157.027 40.2558 157.5C39.4578 157.966 38.5982 158.167 37.6772 158.1C36.7466 158.025 35.9542 157.689 35.3001 157.093ZM23.4837 146.311C22.8201 145.705 22.5399 145.063 22.6434 144.383C22.7581 143.697 23.2088 143.123 23.9957 142.663C24.7937 142.197 25.6581 142.001 26.5887 142.076C27.5306 142.144 28.3334 142.481 28.9971 143.087C29.6511 143.684 29.9264 144.322 29.823 145.002C29.7099 145.673 29.2487 146.245 28.4394 146.718C27.6414 147.185 26.7818 147.385 25.8608 147.319C24.9302 147.243 24.1378 146.908 23.4837 146.311Z" fill="#F9BABD"/>
<path d="M363.474 112.081C364.913 112.264 365.567 111.371 364.743 110.146L358.182 98.9753L347.641 98.0613L349.356 101.055C349.534 101.408 349.311 101.787 348.91 101.813L342.353 101.133C342.201 101.173 342.063 100.969 341.967 100.914L339.976 97.5126L331.677 96.7305L339.103 109.276C339.144 109.425 339.337 109.535 339.489 109.495L363.474 112.081Z" fill="#F0DEDF"/>
<path d="M361.014 99.188C361.263 99.2026 361.431 98.9183 361.349 98.6194L357.959 92.7825C357.918 92.633 357.822 92.5783 357.669 92.6184L354.335 92.3733L358.178 98.9722L361.014 99.188Z" fill="#E2CFCF"/>
<path d="M358.177 98.9808L354.334 92.3818L343.793 91.4679L347.636 98.0668L358.177 98.9808Z" fill="#E2CFCF"/>
<path d="M354.335 92.3764L346.318 78.8649C345.824 77.9535 344.472 77.1876 343.435 76.9796L335.689 76.132C335.343 76.0626 334.968 76.4817 335.242 76.8901L343.794 91.4625L354.335 92.3764Z" fill="#F0DEDF"/>
<path d="M347.638 98.0598L343.795 91.4609L336.131 90.9122L339.933 97.3617L347.638 98.0598Z" fill="#E2CFCF"/>
<path d="M339.935 97.3583L336.132 90.9088L327.832 90.1267L331.675 96.7256L339.935 97.3583Z" fill="#F0DEDF"/>
<path d="M330.496 108.568C330.841 108.637 331.217 108.218 330.942 107.81L323.969 96.0262L317.453 95.496L323.836 106.313C324.33 107.225 325.627 108.085 326.719 108.199L330.496 108.568Z" fill="#F0DEDF"/>
<path d="M336.125 90.9148L327.08 75.431C327.04 75.2815 326.846 75.1721 326.694 75.2122L306.734 73.0091C305.296 72.8265 304.641 73.7195 305.41 75.0392L313.645 89.0538L320.161 89.584L316.812 83.8965C316.634 83.5428 316.857 83.1638 317.258 83.1384L323.815 83.818C323.967 83.778 324.105 83.9821 324.201 84.0368L327.825 90.1327L336.125 90.9148Z" fill="#F0DEDF"/>
<path d="M331.673 96.7244L327.83 90.1255L320.222 89.482L323.968 96.0263L331.673 96.7244Z" fill="#E2CFCF"/>
<path d="M323.969 96.0279L320.223 89.4837L313.707 88.9535L317.606 95.4577L323.969 96.0279Z" fill="#E2CFCF"/>
<path d="M313.922 95.143L317.505 95.4026L313.703 88.9532L310.867 88.7375C310.618 88.7228 310.451 89.0071 310.532 89.306L313.632 94.9788C313.729 95.0336 313.826 95.0882 313.922 95.143Z" fill="#E2CFCF"/>
<path d="M79.4562 243.549C80.8946 243.731 81.5494 242.838 80.725 241.613L74.164 230.443L63.6228 229.529L65.3382 232.522C65.5164 232.875 65.2931 233.255 64.8917 233.28L58.3351 232.6C58.1826 232.64 58.0452 232.436 57.9486 232.382L55.9584 228.98L47.6586 228.198L55.0848 240.743C55.1256 240.893 55.3188 241.002 55.4712 240.962L79.4562 243.549Z" fill="#F0DEDF"/>
<path d="M76.9961 230.655C77.2451 230.67 77.4126 230.386 77.331 230.087L73.941 224.25C73.9002 224.1 73.8036 224.046 73.6512 224.086L70.3171 223.841L74.1601 230.44L76.9961 230.655Z" fill="#E2CFCF"/>
<path d="M74.1589 230.448L70.316 223.849L59.7748 222.935L63.6177 229.534L74.1589 230.448Z" fill="#E2CFCF"/>
<path d="M70.3166 223.844L62.3 210.332C61.8062 209.421 60.4537 208.655 59.4167 208.447L51.6708 207.599C51.3251 207.53 50.9494 207.949 51.2242 208.357L59.7754 222.93L70.3166 223.844Z" fill="#F0DEDF"/>
<path d="M63.62 229.527L59.777 222.928L52.1126 222.379L55.9148 228.829L63.62 229.527Z" fill="#E2CFCF"/>
<path d="M55.9163 228.826L52.1141 222.376L43.8143 221.594L47.6573 228.193L55.9163 228.826Z" fill="#F0DEDF"/>
<path d="M46.4775 240.035C46.8232 240.104 47.1989 239.685 46.9241 239.277L39.9509 227.493L33.4351 226.963L39.8179 237.78C40.3117 238.692 41.6084 239.553 42.7012 239.666L46.4775 240.035Z" fill="#F0DEDF"/>
<path d="M52.1071 222.382L43.0622 206.898C43.0214 206.749 42.8281 206.639 42.6757 206.68L22.7162 204.476C21.2778 204.294 20.623 205.187 21.3916 206.507L29.6272 220.521L36.1429 221.051L32.7937 215.364C32.6156 215.01 32.8388 214.631 33.2403 214.606L39.7968 215.285C39.9493 215.245 40.0867 215.449 40.1833 215.504L43.8073 221.6L52.1071 222.382Z" fill="#F0DEDF"/>
<path d="M47.6549 228.192L43.8119 221.593L36.2034 220.949L39.9498 227.494L47.6549 228.192Z" fill="#E2CFCF"/>
<path d="M39.9509 227.495L36.2045 220.951L29.6888 220.421L33.5876 226.925L39.9509 227.495Z" fill="#E2CFCF"/>
<path d="M29.9041 226.61L33.4872 226.87L29.685 220.421L26.849 220.205C26.6 220.19 26.4325 220.474 26.5141 220.773L29.6142 226.446C29.7108 226.501 29.8074 226.556 29.9041 226.61Z" fill="#E2CFCF"/>
<g opacity="0.7">
<path d="M77.0662 91.1687C77.5025 90.7192 77.3505 90.2629 76.698 90.2318L70.9946 89.6174L67.9496 93.0213L69.4669 93.2006C69.6398 93.2303 69.7184 93.4051 69.6241 93.5502L67.6902 95.6388C67.6653 95.7017 67.5566 95.6965 67.512 95.7158L65.7773 95.5261L63.3573 98.1901L69.7774 98.8601C69.8416 98.8845 69.9307 98.846 69.9556 98.783L77.0662 91.1687Z" fill="#F0DEDF"/>
<path d="M71.8031 88.6967C71.8726 88.6145 71.8136 88.4834 71.6852 88.4345L68.715 88.1003C68.6508 88.0759 68.6062 88.0951 68.5813 88.1581L67.634 89.246L70.9947 89.6203L71.8031 88.6967Z" fill="#E2CFCF"/>
<path d="M70.9957 89.6197L67.6349 89.2454L64.59 92.6493L67.9507 93.0235L70.9957 89.6197Z" fill="#E2CFCF"/>
<path d="M67.6342 89.2429L60.7149 88.5277C60.2602 88.4632 59.6365 88.7328 59.2946 89.0372L56.9938 91.493C56.8798 91.5945 56.9335 91.8323 57.151 91.8426L64.5892 92.6468L67.6342 89.2429Z" fill="#F0DEDF"/>
<path d="M67.949 93.0225L64.5883 92.6483L62.4159 95.153L65.7124 95.5029L67.949 93.0225Z" fill="#E2CFCF"/>
<path d="M65.712 95.5031L62.4155 95.1533L59.9955 97.8173L63.3562 98.1916L65.712 95.5031Z" fill="#F0DEDF"/>
<path d="M67.3042 101.652C67.4182 101.551 67.3645 101.313 67.147 101.302L61.1173 100.672L59.2476 102.785L64.7781 103.37C65.2327 103.435 65.8761 103.209 66.1984 102.861L67.3042 101.652Z" fill="#F0DEDF"/>
<path d="M62.4154 95.1602L54.5227 94.2916C54.4585 94.2672 54.3694 94.3057 54.3445 94.3686L48.4091 100.692C47.9728 101.142 48.1248 101.598 48.797 101.673L55.9534 102.442L57.8231 100.329L54.917 100.019C54.7441 99.9895 54.6655 99.8147 54.7598 99.6696L56.6937 97.581C56.7186 97.5181 56.8273 97.5233 56.8719 97.504L59.9954 97.8242L62.4154 95.1602Z" fill="#F0DEDF"/>
<path d="M63.3548 98.1939L59.9941 97.8197L57.8021 100.281L61.1182 100.674L63.3548 98.1939Z" fill="#E2CFCF"/>
<path d="M61.1185 100.671L57.8023 100.277L55.9326 102.39L59.2737 102.721L61.1185 100.671Z" fill="#E2CFCF"/>
<path d="M58.2114 103.914L59.2281 102.744L55.9316 102.394L55.1232 103.318C55.0538 103.4 55.1127 103.531 55.2411 103.58L58.0778 103.972C58.1223 103.953 58.1668 103.933 58.2114 103.914Z" fill="#E2CFCF"/>
</g>
<g opacity="0.3">
<path d="M259.863 232.974C260.116 232.713 260.028 232.449 259.65 232.431L256.348 232.075L254.585 234.046L255.463 234.15C255.564 234.167 255.609 234.268 255.554 234.352L254.435 235.561C254.42 235.598 254.357 235.595 254.332 235.606L253.327 235.496L251.926 237.038L255.643 237.426C255.68 237.441 255.732 237.418 255.746 237.382L259.863 232.974Z" fill="#F0DEDF"/>
<path d="M256.817 231.542C256.857 231.494 256.823 231.418 256.748 231.39L255.028 231.196C254.991 231.182 254.965 231.193 254.951 231.23L254.402 231.86L256.348 232.077L256.817 231.542Z" fill="#E2CFCF"/>
<path d="M256.349 232.076L254.403 231.859L252.64 233.83L254.586 234.047L256.349 232.076Z" fill="#E2CFCF"/>
<path d="M254.402 231.858L250.396 231.444C250.133 231.407 249.772 231.563 249.574 231.739L248.242 233.161C248.176 233.22 248.207 233.357 248.333 233.363L252.639 233.829L254.402 231.858Z" fill="#F0DEDF"/>
<path d="M254.586 234.046L252.639 233.829L251.381 235.279L253.29 235.482L254.586 234.046Z" fill="#E2CFCF"/>
<path d="M253.29 235.483L251.381 235.281L249.98 236.823L251.926 237.04L253.29 235.483Z" fill="#F0DEDF"/>
<path d="M254.211 239.042C254.277 238.984 254.246 238.846 254.12 238.84L250.63 238.475L249.547 239.699L252.749 240.037C253.012 240.075 253.385 239.944 253.571 239.742L254.211 239.042Z" fill="#F0DEDF"/>
<path d="M251.381 235.283L246.811 234.78C246.774 234.766 246.723 234.788 246.708 234.825L243.272 238.486C243.019 238.746 243.107 239.01 243.497 239.053L247.64 239.499L248.722 238.275L247.04 238.096C246.94 238.079 246.894 237.978 246.949 237.894L248.068 236.685C248.083 236.648 248.146 236.651 248.172 236.64L249.98 236.825L251.381 235.283Z" fill="#F0DEDF"/>
<path d="M251.926 237.04L249.979 236.823L248.71 238.248L250.63 238.476L251.926 237.04Z" fill="#E2CFCF"/>
<path d="M250.631 238.474L248.711 238.246L247.628 239.469L249.563 239.661L250.631 238.474Z" fill="#E2CFCF"/>
<path d="M248.948 240.352L249.537 239.674L247.628 239.472L247.159 240.007C247.119 240.054 247.153 240.13 247.228 240.158L248.87 240.385C248.896 240.374 248.922 240.363 248.948 240.352Z" fill="#E2CFCF"/>
</g>
<g opacity="0.7">
<path d="M349.469 242.062C349.957 242.457 350.41 242.277 350.395 241.636L350.616 236.014L346.939 233.274L346.864 234.771C346.846 234.942 346.674 235.031 346.52 234.949L344.259 233.203C344.193 233.183 344.191 233.077 344.168 233.034L344.238 231.324L341.357 229.143L341.131 235.47C341.11 235.535 341.156 235.619 341.222 235.639L349.469 242.062Z" fill="#F0DEDF"/>
<path d="M351.612 236.739C351.701 236.801 351.83 236.735 351.871 236.606L352 233.677C352.02 233.612 351.998 233.57 351.932 233.55L350.758 232.7L350.616 236.013L351.612 236.739Z" fill="#E2CFCF"/>
<path d="M350.616 236.01L350.758 232.697L347.081 229.956L346.939 233.27L350.616 236.01Z" fill="#E2CFCF"/>
<path d="M350.762 232.698L350.999 225.88C351.033 225.431 350.714 224.84 350.381 224.527L347.72 222.448C347.609 222.343 347.371 222.413 347.376 222.626L347.085 229.958L350.762 232.698Z" fill="#F0DEDF"/>
<path d="M346.941 233.27L347.084 229.956L344.383 228.007L344.26 231.256L346.941 233.27Z" fill="#E2CFCF"/>
<path d="M344.261 231.257L344.383 228.008L341.502 225.827L341.36 229.141L344.261 231.257Z" fill="#F0DEDF"/>
<path d="M338.119 233.248C338.23 233.353 338.468 233.284 338.463 233.07L338.677 227.128L336.396 225.447L336.193 230.898C336.159 231.347 336.435 231.96 336.811 232.251L338.119 233.248Z" fill="#F0DEDF"/>
<path d="M344.382 228.009L344.706 220.228C344.727 220.163 344.681 220.079 344.615 220.059L337.764 214.696C337.276 214.3 336.823 214.481 336.795 215.143L336.519 222.197L338.8 223.878L338.91 221.014C338.927 220.843 339.1 220.754 339.254 220.836L341.515 222.582C341.581 222.602 341.583 222.708 341.606 222.75L341.501 225.828L344.382 228.009Z" fill="#F0DEDF"/>
<path d="M341.36 229.14L341.502 225.826L338.844 223.854L338.679 227.125L341.36 229.14Z" fill="#E2CFCF"/>
<path d="M338.677 227.131L338.843 223.859L336.562 222.178L336.462 225.47L338.677 227.131Z" fill="#E2CFCF"/>
<path d="M335.177 224.515L336.439 225.428L336.561 222.179L335.564 221.453C335.476 221.39 335.347 221.457 335.306 221.586L335.108 224.388C335.131 224.431 335.154 224.473 335.177 224.515Z" fill="#E2CFCF"/>
</g>
<g opacity="0.4">
<path d="M24.4352 62.0158C24.9232 62.4111 25.3765 62.2306 25.3619 61.5902L25.5828 55.9684L21.9056 53.228L21.8307 54.7246C21.8128 54.8959 21.6406 54.985 21.4863 54.9029L19.2254 53.1573C19.1596 53.1373 19.1572 53.0306 19.1344 52.9883L19.2045 51.2783L16.324 49.0974L16.0973 55.424C16.077 55.4885 16.1225 55.573 16.1883 55.593L24.4352 62.0158Z" fill="#F0DEDF"/>
<path d="M26.5793 56.6921C26.6678 56.7543 26.797 56.6874 26.8376 56.5584L26.9671 53.6296C26.9875 53.5651 26.9647 53.5229 26.8989 53.5029L25.7254 52.6524L25.5828 55.9659L26.5793 56.6921Z" fill="#E2CFCF"/>
<path d="M25.5827 55.9643L25.7253 52.6509L22.0481 49.9104L21.9055 53.2239L25.5827 55.9643Z" fill="#E2CFCF"/>
<path d="M25.729 52.6512L25.9663 45.8331C25.9997 45.3838 25.6814 44.7927 25.3476 44.4794L22.6872 42.4007C22.5759 42.2963 22.3379 42.3654 22.3428 42.5789L22.0518 49.9107L25.729 52.6512Z" fill="#F0DEDF"/>
<path d="M21.9079 53.2239L22.0505 49.9104L19.3494 47.9607L19.2271 51.2096L21.9079 53.2239Z" fill="#E2CFCF"/>
<path d="M19.2276 51.2101L19.3499 47.9612L16.4693 45.7803L16.3267 49.0938L19.2276 51.2101Z" fill="#F0DEDF"/>
<path d="M13.0858 53.2025C13.1971 53.3069 13.4351 53.2377 13.4302 53.0242L13.6438 47.0823L11.3626 45.4012L11.1596 50.8517C11.1263 51.3009 11.4015 51.9144 11.7783 52.2053L13.0858 53.2025Z" fill="#F0DEDF"/>
<path d="M19.3486 47.9619L19.6729 40.1808C19.6932 40.1163 19.6478 40.0319 19.582 40.0119L12.7311 34.6484C12.243 34.2531 11.7898 34.4336 11.7613 35.0963L11.4858 42.1502L13.767 43.8313L13.8762 40.967C13.8941 40.7958 14.0663 40.7067 14.2206 40.7888L16.4815 42.5344C16.5473 42.5544 16.5497 42.6611 16.5725 42.7033L16.4681 45.781L19.3486 47.9619Z" fill="#F0DEDF"/>
<path d="M16.3265 49.0937L16.4691 45.7803L13.8111 43.8082L13.6458 47.0795L16.3265 49.0937Z" fill="#E2CFCF"/>
<path d="M13.6441 47.0835L13.8094 43.8123L11.5282 42.1312L11.4286 45.4224L13.6441 47.0835Z" fill="#E2CFCF"/>
<path d="M10.1432 44.469L11.4052 45.3817L11.5275 42.1327L10.531 41.4065C10.4425 41.3444 10.3133 41.4112 10.2727 41.5402L10.0749 44.3423C10.0977 44.3845 10.1204 44.4268 10.1432 44.469Z" fill="#E2CFCF"/>
</g>
<g opacity="0.3">
<path d="M366.21 50.1415C366.517 49.9026 366.464 49.61 366.066 49.5358L362.623 48.6778L360.457 50.5083L361.371 50.7463C361.475 50.7791 361.508 50.8929 361.437 50.974L360.068 52.0916C360.047 52.1281 359.981 52.1158 359.952 52.1238L358.905 51.8611L357.187 53.2906L361.065 54.2432C361.102 54.2637 361.16 54.2476 361.181 54.211L366.21 50.1415Z" fill="#F0DEDF"/>
<path d="M363.198 48.1837C363.248 48.1391 363.223 48.0537 363.149 48.0129L361.356 47.557C361.319 47.5366 361.29 47.5446 361.269 47.5811L360.592 48.1685L362.621 48.6819L363.198 48.1837Z" fill="#E2CFCF"/>
<path d="M362.622 48.6766L360.594 48.1632L358.427 49.9941L360.456 50.5075L362.622 48.6766Z" fill="#E2CFCF"/>
<path d="M360.593 48.1654L356.413 47.1428C356.14 47.0649 355.733 47.1776 355.497 47.3354L353.871 48.6473C353.792 48.6999 353.804 48.8502 353.936 48.8749L358.427 49.9958L360.593 48.1654Z" fill="#F0DEDF"/>
<path d="M360.455 50.507L358.426 49.9936L356.874 51.3467L358.865 51.8397L360.455 50.507Z" fill="#E2CFCF"/>
<path d="M358.865 51.8418L356.874 51.3489L355.156 52.7787L357.184 53.2921L358.865 51.8418Z" fill="#F0DEDF"/>
<path d="M359.301 55.7488C359.38 55.6962 359.368 55.5458 359.235 55.5211L355.593 54.6259L354.261 55.7639L357.601 56.5892C357.874 56.6671 358.288 56.5829 358.517 56.3967L359.301 55.7488Z" fill="#F0DEDF"/>
<path d="M356.874 51.3528L352.11 50.154C352.072 50.1336 352.014 50.1497 351.993 50.1862L347.799 53.563C347.492 53.8019 347.545 54.0945 347.951 54.1971L352.272 55.2729L353.604 54.1349L351.849 53.6997C351.745 53.6669 351.713 53.5531 351.783 53.472L353.152 52.3544C353.173 52.3179 353.239 52.3303 353.268 52.3223L355.156 52.7822L356.874 51.3528Z" fill="#F0DEDF"/>
<path d="M357.185 53.2916L355.156 52.7782L353.596 54.1029L355.595 54.6243L357.185 53.2916Z" fill="#E2CFCF"/>
<path d="M355.595 54.6267L353.595 54.1053L352.263 55.2436L354.284 55.7285L355.595 54.6267Z" fill="#E2CFCF"/>
<path d="M353.53 56.3645L354.256 55.7325L352.265 55.2395L351.688 55.7378C351.638 55.7823 351.663 55.8677 351.737 55.9086L353.443 56.3886C353.472 56.3805 353.501 56.3725 353.53 56.3645Z" fill="#E2CFCF"/>
</g>
<g filter="url(#filter0_d)">
<circle cx="188" cy="129" r="83.5" stroke="url(#paint0_linear)" stroke-width="15"/>
</g>
<defs>
<filter id="filter0_d" x="77" y="27" width="218" height="218" filterUnits="userSpaceOnUse" color-interpolation-filters="sRGB">
<feFlood flood-opacity="0" result="BackgroundImageFix"/>
<feColorMatrix in="SourceAlpha" type="matrix" values="0 0 0 0 0 0 0 0 0 0 0 0 0 0 0 0 0 0 127 0" result="hardAlpha"/>
<feOffset dx="-2" dy="7"/>
<feGaussianBlur stdDeviation="9"/>
<feColorMatrix type="matrix" values="0 0 0 0 0 0 0 0 0 0 0 0 0 0 0 0 0 0 0.25 0"/>
<feBlend mode="normal" in2="BackgroundImageFix" result="effect1_dropShadow"/>
<feBlend mode="normal" in="SourceGraphic" in2="effect1_dropShadow" result="shape"/>
</filter>
<linearGradient id="paint0_linear" x1="188" y1="225.833" x2="188" y2="32.9444" gradientUnits="userSpaceOnUse">
<stop stop-color="#F05359"/>
<stop offset="1" stop-color="#FF3F46" stop-opacity="0.39"/>
</linearGradient>
</defs>
</svg>
