<svg width="274" height="204" viewBox="0 0 274 204" fill="none" xmlns="http://www.w3.org/2000/svg">
<g opacity="0.05">
<path d="M70.4295 82.1129L8.2347 132.581C6.99952 133.605 6.27295 135.141 6.27295 136.75V195.337C6.27295 198.335 8.67065 200.749 11.5769 200.749H73.7718C76.7507 200.749 79.0758 198.335 79.0758 195.337V86.3551C79.0758 84.3071 77.9132 82.4055 76.0241 81.5278C74.2804 80.5769 72.028 80.8695 70.4295 82.1129ZM68.4678 189.997H16.9536V139.383L68.4678 97.5458V189.997V189.997Z" fill="#F05359"/>
<path d="M115.115 49.4907L99.0577 59.5843C97.4592 60.5352 96.5146 62.2906 96.5146 64.1191V195.409C96.5146 198.408 98.9123 200.822 101.891 200.822H164.086C167.065 200.822 169.463 198.408 169.463 195.409V102.519C169.463 101.129 168.954 99.8124 168.01 98.7884L121.872 50.2953C120.056 48.4667 117.295 48.101 115.115 49.4907ZM158.782 189.997H107.268V67.118L117.149 60.9009L158.782 104.64V189.997Z" fill="#F05359"/>
<path d="M228.161 60.1762L228.142 60.1939L228.124 60.2122L187.363 101.245C186.348 102.266 185.837 103.601 185.837 104.935V196.948C185.837 199.888 188.17 202.251 191.115 202.251H231.876C234.73 202.251 237.154 199.907 237.154 196.948V63.9756C237.154 61.8292 235.842 59.9007 233.915 59.0837L233.902 59.0784L233.89 59.0734C231.861 58.2565 229.649 58.7774 228.161 60.1762ZM226.598 191.717H196.321V107.163L226.598 76.6836V191.717Z" fill="#F05359" stroke="white" stroke-width="3"/>
<path d="M264.206 2.02241C234.78 23.7456 205.426 45.5419 176 67.3382C158.853 49.2721 141.778 31.2792 124.704 13.2131C122.887 11.3114 119.327 10.6532 117.075 12.2623C79.0747 38.8128 41.0748 65.4365 3.07498 92.0602C-3.53685 96.6681 2.78436 107.639 9.39619 102.958C46.0882 77.2855 82.7802 51.6127 119.4 26.013C136.547 44.079 153.694 62.1451 170.841 80.2112C172.585 82.0397 176.29 82.8443 178.47 81.2352C209.204 58.488 239.866 35.814 270.6 13.0668C276.994 8.16633 270.745 -2.80497 264.206 2.02241Z" fill="#F05359"/>
</g>
</svg>
