<svg width="273" height="203" viewBox="0 0 273 203" fill="none" xmlns="http://www.w3.org/2000/svg">
<g opacity="0.05">
<path d="M70.1546 81.2906L7.9598 131.758C6.72462 132.782 5.99805 134.318 5.99805 135.927V194.514C5.99805 197.513 8.39574 199.926 11.302 199.926H73.4969C76.4758 199.926 78.8009 197.513 78.8009 194.514V85.5328C78.8009 83.4848 77.6383 81.5832 75.7492 80.7055C74.0055 79.7546 71.7531 80.0472 70.1546 81.2906ZM68.1929 189.175H16.6787V138.561L68.1929 96.7235V189.175V189.175Z" fill="white"/>
<path d="M114.84 48.6697L98.7829 58.7633C97.1844 59.7141 96.2399 61.4695 96.2399 63.2981V194.588C96.2399 197.586 98.6376 200 101.617 200H163.811C166.79 200 169.188 197.586 169.188 194.588V101.697C169.188 100.308 168.679 98.9913 167.735 97.9673L121.597 49.4743C119.781 47.6458 117.02 47.28 114.84 48.6697ZM158.507 189.175H106.993V66.2969L116.875 60.0798L158.507 103.819V189.175Z" fill="white"/>
<path d="M227.886 59.3546L227.867 59.3724L227.849 59.3907L187.088 100.423C186.074 101.445 185.562 102.779 185.562 104.113V196.126C185.562 199.066 187.896 201.429 190.841 201.429H231.601C234.455 201.429 236.88 199.085 236.88 196.126V63.1541C236.88 61.0077 235.567 59.0791 233.64 58.2622L233.627 58.2569L233.615 58.2518C231.586 57.4349 229.375 57.9559 227.886 59.3546ZM226.323 190.895H196.046V106.341L226.323 75.862V190.895Z" fill="white" stroke="white" stroke-width="3"/>
<path d="M263.931 1.20014C234.505 22.9232 205.151 44.7195 175.725 66.5157C158.578 48.4497 141.503 30.4568 124.429 12.3908C122.612 10.4891 119.052 9.83086 116.8 11.44C78.7998 37.9904 40.7999 64.614 2.80008 91.2376C-3.81175 95.8455 2.50945 106.817 9.12128 102.136C45.8133 76.463 82.5053 50.7902 119.125 25.1906C136.272 43.2566 153.419 61.3226 170.566 79.3886C172.31 81.2172 176.016 82.0217 178.195 80.4126C208.929 57.6655 239.591 34.9916 270.325 12.2445C276.719 7.34404 270.47 -3.62722 263.931 1.20014Z" fill="white"/>
</g>
</svg>
