<svg width="189" height="189" viewBox="0 0 189 189" fill="none" xmlns="http://www.w3.org/2000/svg">
<path d="M94.31 188.62C146.396 188.62 188.62 146.396 188.62 94.31C188.62 42.224 146.396 0 94.31 0C42.224 0 0 42.224 0 94.31C0 146.396 42.224 188.62 94.31 188.62Z" fill="url(#paint0_linear)"/>
<g clip-path="url(#clip0)">
<path d="M148.555 91.928L135.55 88.9678V67.8237C135.55 66.8193 134.721 66 133.704 66H43.8464C42.8295 66 42 66.8193 42 67.8237V115.477C42 116.482 42.8295 117.301 43.8464 117.301H51.6868L51.6601 117.539C51.553 118.014 51.6333 118.517 51.9009 118.913C52.1685 119.336 52.5699 119.627 53.0515 119.732L54.0149 119.944L137.771 138.974C137.851 138.974 137.958 139 138.039 139C138.868 139 139.617 138.445 139.832 137.626L148.18 101.786L149.973 94.1217C150.08 93.6459 150 93.1437 149.732 92.7473C149.465 92.3244 149.037 92.0337 148.555 91.928ZM135.55 105.381C135.577 105.381 135.577 105.381 135.604 105.407L135.55 105.592V105.381ZM101.272 119.706C103.867 119.706 106.409 118.992 108.657 117.592C108.791 117.512 108.925 117.407 109.058 117.327H132.847L131.938 121.213C131.643 121.186 131.376 121.16 131.081 121.16C127.362 121.107 123.963 123.089 122.17 126.261C121.903 126.71 121.689 127.186 121.501 127.688L75.9306 117.327H93.4311C93.779 117.565 94.1536 117.777 94.5282 117.988C94.7958 118.147 95.0902 118.279 95.3845 118.411C96.2676 118.807 97.1774 119.125 98.1407 119.336C99.1576 119.6 100.201 119.706 101.272 119.706ZM99.1041 117.327H103.439C102.021 117.592 100.549 117.592 99.1041 117.327ZM45.7195 113.654V69.6738H131.857V113.68H45.7195V113.654ZM136.62 134.956L59.0456 117.327H70.7126C70.7661 117.671 71.0069 117.962 71.3548 118.041L121.849 129.512C121.903 129.538 121.983 129.538 122.037 129.538C122.411 129.538 122.759 129.3 122.866 128.904C123.91 125.309 127.174 122.904 130.84 122.851C131.376 122.851 131.884 122.878 132.419 122.983C132.874 123.063 133.302 122.772 133.409 122.323L134.64 117.01C134.774 116.931 134.908 116.825 135.015 116.719C135.336 116.402 135.55 115.953 135.55 115.451V113.178L137.45 104.984C137.557 104.535 137.289 104.086 136.834 103.98C136.38 103.848 135.951 103.689 135.523 103.504V92.6944L145.933 95.0731L136.62 134.956Z" fill="white"/>
<path d="M124.738 81.2496C120.269 81.0118 116.737 77.3908 116.496 72.8184C116.469 72.3427 116.068 71.9727 115.586 71.9727H61.9611C61.4794 71.9727 61.078 72.3427 61.0512 72.8184C60.8104 77.4173 57.2782 81.0382 52.8094 81.2496C52.3278 81.2761 51.9531 81.6725 51.9531 82.1483V101.152C51.9531 101.627 52.3278 102.024 52.8094 102.05C57.2782 102.288 60.8104 105.909 61.0512 110.481C61.078 110.957 61.4794 111.327 61.9611 111.327H115.613C116.095 111.327 116.496 110.957 116.523 110.481C116.737 105.909 120.296 102.262 124.765 102.05C125.246 102.024 125.621 101.627 125.621 101.152V82.1483C125.621 81.6725 125.22 81.2761 124.738 81.2496ZM123.775 100.359C119.065 100.993 115.372 104.772 114.757 109.556H62.7906C62.1751 104.746 58.4824 100.993 53.7727 100.359V82.9676C58.4824 82.3333 62.1751 78.5538 62.7906 73.7699H114.757C115.372 78.5802 119.065 82.3597 123.775 82.9676V100.359Z" fill="white"/>
<path d="M89.2306 76.9414C81.2564 76.9414 74.7539 83.5489 74.7539 91.663C74.7539 99.777 81.2296 106.385 89.2306 106.385C97.2048 106.385 103.707 99.777 103.707 91.663C103.707 83.5489 97.2048 76.9414 89.2306 76.9414ZM89.2306 104.085C82.5408 104.085 77.082 98.5084 77.082 91.663C77.082 84.8176 82.5408 79.2408 89.2306 79.2408C95.9472 79.2408 101.379 84.8176 101.379 91.663C101.406 98.5084 95.9472 104.085 89.2306 104.085Z" fill="white"/>
</g>
<defs>
<linearGradient id="paint0_linear" x1="94.31" y1="0" x2="94.31" y2="188.62" gradientUnits="userSpaceOnUse">
<stop stop-color="#F05359"/>
<stop offset="1" stop-color="#F4797E"/>
</linearGradient>
<clipPath id="clip0">
<rect width="108" height="73" fill="white" transform="translate(42 66)"/>
</clipPath>
</defs>
</svg>
