<svg width="201" height="191" viewBox="0 0 201 191" fill="none" xmlns="http://www.w3.org/2000/svg">
<path d="M2.96408 103.625C2.96408 85.2354 10.5251 67.9785 24.2545 55.0341C37.8215 42.2422 55.8191 35.1973 74.9317 35.1973C94.0443 35.1973 112.042 42.2422 125.609 55.0341C139.338 67.9788 146.899 85.2354 146.899 103.625H2.96408Z" fill="#695A52"/>
<path d="M33.6587 55.0341C46.1077 43.2969 62.2865 36.4029 79.6338 35.3449C78.0752 35.2499 76.5077 35.1973 74.9317 35.1973C55.8191 35.1973 37.8215 42.2422 24.2542 55.0341C10.5251 67.9785 2.96378 85.2354 2.96378 103.625H12.3682C12.3688 85.2351 19.9298 67.9788 33.6587 55.0341Z" fill="#6B4A38"/>
<path d="M146.899 103.624C146.899 103.624 147.456 169.189 125.353 169.189H24.5108C2.40782 169.189 2.96438 103.624 2.96438 103.624H146.899Z" fill="#695A52"/>
<path d="M12.3687 103.624H2.96399C2.96399 103.624 2.40772 169.189 24.5104 169.189H33.9148C11.8122 169.189 12.3687 103.624 12.3687 103.624Z" fill="#6B4A38"/>
<path d="M14.031 119.95C21.7802 119.95 28.0621 113.668 28.0621 105.919C28.0621 98.1701 21.7802 91.8882 14.031 91.8882C6.28191 91.8882 0 98.1701 0 105.919C0 113.668 6.28191 119.95 14.031 119.95Z" fill="#E0AF9A"/>
<path d="M135.833 119.951C143.582 119.951 149.864 113.669 149.864 105.92C149.864 98.1706 143.582 91.8887 135.833 91.8887C128.084 91.8887 121.802 98.1706 121.802 105.92C121.802 113.669 128.084 119.951 135.833 119.951Z" fill="#E0AF9A"/>
<path d="M97.3769 151.587H52.4869L44.9722 174.663L52.4869 191H97.3769L102.849 171.293L97.3769 151.587Z" fill="white"/>
<path d="M74.9317 174.663C82.5998 174.663 88.816 168.447 88.816 160.779C88.816 153.111 82.5998 146.895 74.9317 146.895C67.2635 146.895 61.0473 153.111 61.0473 160.779C61.0473 168.447 67.2635 174.663 74.9317 174.663Z" fill="#E0AF9A"/>
<path d="M110.005 191L112.356 189.788L114.707 191H129.004C129.004 158.64 110.285 151.587 110.285 151.587H97.3764V191H110.005Z" fill="#FC7176"/>
<path d="M39.5777 151.587C39.5777 151.587 20.8595 158.64 20.8595 191H35.1565L37.5075 190.112L39.8585 191H52.4865V151.587H39.5777Z" fill="#FC7176"/>
<path d="M110.005 191.001V174.089C110.005 172.791 111.057 171.738 112.356 171.738C113.655 171.738 114.707 172.791 114.707 174.089V191.001H110.005Z" fill="#BF4E52"/>
<path d="M35.157 191.001V174.089C35.157 172.791 36.2096 171.738 37.508 171.738C38.8065 171.738 39.8591 172.791 39.8591 174.089V191.001H35.157Z" fill="#BF4E52"/>
<path d="M135.627 91.8906C90.3474 93.3306 64.4787 69.2664 58.0376 62.3937C56.9886 61.2745 55.3904 60.8725 53.9313 61.3439C27.7042 69.8211 14.261 91.8495 14.2367 91.8897C13.4166 95.6804 12.986 99.6043 12.986 103.623C12.986 135.88 40.72 162.03 74.9321 162.03C109.144 162.03 136.878 135.88 136.878 103.623C136.878 99.6046 136.447 95.681 135.627 91.8906Z" fill="#FFD4C1"/>
<path d="M107.11 109.831C105.811 109.831 104.759 108.778 104.759 107.48V101.223C104.759 99.9246 105.811 98.8721 107.11 98.8721C108.408 98.8721 109.461 99.9246 109.461 101.223V107.48C109.461 108.778 108.408 109.831 107.11 109.831Z" fill="#38484A"/>
<path d="M111.37 119.025H102.848C101.55 119.025 100.497 117.972 100.497 116.674C100.497 115.375 101.55 114.323 102.848 114.323H111.37C112.669 114.323 113.721 115.375 113.721 116.674C113.721 117.972 112.669 119.025 111.37 119.025Z" fill="#F97579"/>
<path d="M42.7542 109.831C41.4557 109.831 40.4031 108.778 40.4031 107.48V101.223C40.4031 99.9246 41.4557 98.8721 42.7542 98.8721C44.0526 98.8721 45.1052 99.9246 45.1052 101.223V107.48C45.1052 108.778 44.0529 109.831 42.7542 109.831Z" fill="#38484A"/>
<path d="M47.0148 119.025H38.4932C37.1947 119.025 36.1422 117.972 36.1422 116.674C36.1422 115.375 37.1947 114.323 38.4932 114.323H47.0148C48.3136 114.323 49.3659 115.375 49.3659 116.674C49.3659 117.972 48.3136 119.025 47.0148 119.025Z" fill="#F97579"/>
<path d="M74.9317 124.249C72.0104 124.249 69.2674 123.028 67.4063 120.899C66.5515 119.921 66.6514 118.436 67.6291 117.581C68.6065 116.727 70.0921 116.826 70.9463 117.804C71.9142 118.911 73.3667 119.547 74.9314 119.547C76.4958 119.547 77.9482 118.911 78.9168 117.804C79.7713 116.826 81.2563 116.726 82.2343 117.581C83.2117 118.436 83.3119 119.921 82.4568 120.899C80.596 123.028 77.853 124.249 74.9317 124.249Z" fill="#38484A"/>
<g clip-path="url(#clip0)">
<path d="M112.641 45.2284L112.639 45.2581L112.639 45.2879C112.57 47.9055 112.736 50.1056 113.257 51.7347L113.257 51.7353C113.569 52.7115 114.116 53.5793 114.942 54.2311C115.759 54.876 116.728 55.2143 117.74 55.3391C118.027 55.3744 118.294 55.3779 118.514 55.3718C118.725 55.431 118.985 55.4926 119.271 55.5278C120.283 55.6526 121.306 55.56 122.255 55.1327C123.214 54.7009 123.955 53.9924 124.495 53.1244L124.5 53.1171C125.395 51.666 126.093 49.5758 126.663 47.0167L126.669 46.9877L126.675 46.9585L130.379 27.639L130.38 27.6341C131.092 23.8653 131.561 21.0994 131.774 19.376C132.094 16.7773 131.687 14.3971 130.288 12.4709L130.288 12.4709L130.283 12.4643C128.89 10.5631 126.894 9.49321 124.484 9.19612C124.378 9.18303 124.282 9.17798 124.207 9.17625C124.134 9.15973 124.038 9.14117 123.931 9.12795C121.528 8.83167 119.325 9.38298 117.514 10.8947C115.68 12.4252 114.714 14.6385 114.394 17.2335C114.181 18.9559 113.965 21.7529 113.74 25.5829L113.74 25.5879L112.641 45.2284Z" fill="#3FAAB0" stroke="white" stroke-width="4"/>
<mask id="path-20-outside-1" maskUnits="userSpaceOnUse" x="105.121" y="55.2775" width="24.4041" height="23.5339" fill="black">
<rect fill="white" x="105.121" y="55.2775" width="24.4041" height="23.5339"/>
<path d="M117.916 60.5683C116.053 60.3386 114.389 60.7326 112.927 61.7475C111.463 62.7671 110.631 64.1156 110.424 65.7951C110.19 67.6943 110.671 69.2671 111.87 70.5158C113.069 71.7636 114.555 72.4992 116.33 72.7181C118.137 72.9408 119.779 72.5987 121.259 71.6941C122.738 70.7884 123.595 69.3756 123.833 67.447C124.04 65.7666 123.57 64.2577 122.429 62.9169C121.288 61.5831 119.784 60.7986 117.917 60.5684"/>
</mask>
<path d="M117.916 60.5683C116.053 60.3386 114.389 60.7326 112.927 61.7475C111.463 62.7671 110.631 64.1156 110.424 65.7951C110.19 67.6943 110.671 69.2671 111.87 70.5158C113.069 71.7636 114.555 72.4992 116.33 72.7181C118.137 72.9408 119.779 72.5987 121.259 71.6941C122.738 70.7884 123.595 69.3756 123.833 67.447C124.04 65.7666 123.57 64.2577 122.429 62.9169C121.288 61.5831 119.784 60.7986 117.917 60.5684" fill="#3FAAB0"/>
<path d="M112.927 61.7475L110.646 58.4615L110.64 58.4654L112.927 61.7475ZM111.87 70.5158L108.984 73.2861L108.986 73.2874L111.87 70.5158ZM121.259 71.6941L123.345 75.1073L123.347 75.1056L121.259 71.6941ZM122.429 62.9169L125.475 60.3246L125.469 60.3169L122.429 62.9169ZM118.406 56.5984C115.623 56.2554 112.962 56.8539 110.646 58.4615L115.208 65.0334C115.816 64.6112 116.483 64.4219 117.427 64.5383L118.406 56.5984ZM110.64 58.4654C108.298 60.0975 106.808 62.4356 106.454 65.3057L114.394 66.2845C114.455 65.7957 114.629 65.4368 115.213 65.0295L110.64 58.4654ZM106.454 65.3057C106.091 68.2537 106.855 71.0687 108.984 73.2861L114.755 67.7455C114.486 67.4655 114.289 67.135 114.394 66.2845L106.454 65.3057ZM108.986 73.2874C110.841 75.2186 113.182 76.3603 115.841 76.688L116.82 68.7481C115.928 68.6382 115.296 68.3085 114.754 67.7442L108.986 73.2874ZM115.841 76.688C118.499 77.0157 121.056 76.5061 123.345 75.1073L119.173 68.281C118.502 68.6913 117.775 68.8658 116.82 68.7481L115.841 76.688ZM123.347 75.1056C126 73.4817 127.436 70.9104 127.802 67.9364L119.863 66.9576C119.754 67.8407 119.477 68.0951 119.17 68.2826L123.347 75.1056ZM127.802 67.9364C128.153 65.0902 127.306 62.4753 125.475 60.3246L119.383 65.5092C119.835 66.04 119.926 66.443 119.863 66.9576L127.802 67.9364ZM125.469 60.3169C123.632 58.1692 121.191 56.9417 118.407 56.5985L117.428 64.5384C118.377 64.6555 118.945 64.9969 119.389 65.5168L125.469 60.3169Z" fill="white" mask="url(#path-20-outside-1)"/>
<mask id="path-22-outside-2" maskUnits="userSpaceOnUse" x="143.689" y="59.4127" width="24.4041" height="23.5339" fill="black">
<rect fill="white" x="143.689" y="59.4127" width="24.4041" height="23.5339"/>
<path d="M156.485 64.7037C154.622 64.474 152.956 64.8678 151.494 65.8847C150.031 66.9024 149.199 68.2509 148.991 69.9333C148.758 71.8305 149.24 73.4036 150.437 74.652C151.637 75.8999 153.124 76.6357 154.899 76.8545C156.706 77.0772 158.346 76.7349 159.826 75.8303C161.306 74.9247 162.161 73.5097 162.399 71.5851C162.606 69.9027 162.139 68.3941 160.996 67.0551C159.854 65.7181 158.354 64.9341 156.487 64.7039"/>
</mask>
<path d="M156.485 64.7037C154.622 64.474 152.956 64.8678 151.494 65.8847C150.031 66.9024 149.199 68.2509 148.991 69.9333C148.758 71.8305 149.24 73.4036 150.437 74.652C151.637 75.8999 153.124 76.6357 154.899 76.8545C156.706 77.0772 158.346 76.7349 159.826 75.8303C161.306 74.9247 162.161 73.5097 162.399 71.5851C162.606 69.9027 162.139 68.3941 160.996 67.0551C159.854 65.7181 158.354 64.9341 156.487 64.7039" fill="#3FAAB0"/>
<path d="M151.494 65.8847L149.21 62.6006L149.21 62.6007L151.494 65.8847ZM150.437 74.652L147.55 77.4203L147.554 77.4246L150.437 74.652ZM159.826 75.8303L161.912 79.2435L161.915 79.2418L159.826 75.8303ZM160.996 67.0551L164.038 64.458L164.037 64.4566L160.996 67.0551ZM156.974 60.7338C154.192 60.3908 151.528 60.9889 149.21 62.6006L153.778 69.1687C154.385 68.7467 155.051 68.5573 155.995 68.6736L156.974 60.7338ZM149.21 62.6007C146.864 64.2324 145.375 66.5724 145.021 69.4439L152.961 70.4227C153.022 69.9294 153.197 69.5724 153.778 69.1686L149.21 62.6007ZM145.021 69.4439C144.658 72.3936 145.427 75.2062 147.55 77.4203L153.324 71.8838C153.053 71.6009 152.857 71.2675 152.961 70.4227L145.021 69.4439ZM147.554 77.4246C149.41 79.3553 151.752 80.4968 154.41 80.8245L155.389 72.8846C154.497 72.7746 153.864 72.4446 153.32 71.8794L147.554 77.4246ZM154.41 80.8245C157.069 81.1523 159.624 80.6418 161.912 79.2435L157.74 72.4172C157.068 72.828 156.343 73.0022 155.389 72.8846L154.41 80.8245ZM161.915 79.2418C164.568 77.6172 166.003 75.0429 166.369 72.0745L158.429 71.0957C158.32 71.9765 158.043 72.2322 157.738 72.4188L161.915 79.2418ZM166.369 72.0745C166.719 69.2318 165.879 66.6137 164.038 64.458L157.954 69.6522C158.4 70.1746 158.493 70.5736 158.429 71.0957L166.369 72.0745ZM164.037 64.4566C162.2 62.3068 159.764 61.0777 156.976 60.734L155.997 68.6739C156.943 68.7905 157.507 69.1294 157.955 69.6536L164.037 64.4566Z" fill="white" mask="url(#path-22-outside-2)"/>
<mask id="path-24-outside-3" maskUnits="userSpaceOnUse" x="131.735" y="7.51672" width="57.4685" height="61.8191" fill="black">
<rect fill="white" x="131.735" y="7.51672" width="57.4685" height="61.8191"/>
<path d="M180.658 25.3028C179.265 22.4898 177.072 20.1069 174.134 18.2144C171.215 16.3389 167.693 15.1352 163.665 14.6386C159.327 14.1039 155.353 14.5343 151.86 15.9217C148.363 17.3107 145.549 19.2985 143.494 21.8303C141.428 24.3745 140.21 27.0382 139.876 29.7503C139.697 31.1991 140.134 32.6247 141.168 33.985C142.206 35.3518 143.609 36.1525 145.338 36.3656C148.288 36.7293 150.508 35.2465 151.95 31.9796C153.228 29.2877 154.64 27.2886 156.144 26.0359C157.559 24.8535 159.67 24.4254 162.417 24.764C164.786 25.0561 166.573 25.9508 167.886 27.5023C169.181 29.0316 169.694 30.7304 169.452 32.6941C169.343 33.6457 168.988 34.5525 168.423 35.3255C167.819 36.1485 167.105 36.8845 166.3 37.5127C165.447 38.1792 164.054 39.1678 162.157 40.4554C159.946 41.9582 158.148 43.2908 156.819 44.4173C155.407 45.6186 154.216 47.0578 153.3 48.6698C152.343 50.3303 151.708 52.3784 151.415 54.7505C151.166 56.7778 151.538 58.4175 152.523 59.623C153.497 60.8163 154.807 61.5253 156.418 61.7239C159.499 62.1036 161.643 60.66 162.607 57.5803C163.061 56.3081 163.395 55.4199 163.606 54.9164C163.799 54.4591 164.051 53.9982 164.359 53.5432C164.657 53.102 165.106 52.6128 165.691 52.0908C166.304 51.5405 167.116 50.9047 168.104 50.2052C171.789 47.6453 174.396 45.7848 175.852 44.6739C177.354 43.53 178.716 42.099 179.902 40.4233C181.124 38.7082 181.891 36.607 182.191 34.1802C182.569 31.1144 182.054 28.1271 180.661 25.3042"/>
</mask>
<path d="M180.658 25.3028C179.265 22.4898 177.072 20.1069 174.134 18.2144C171.215 16.3389 167.693 15.1352 163.665 14.6386C159.327 14.1039 155.353 14.5343 151.86 15.9217C148.363 17.3107 145.549 19.2985 143.494 21.8303C141.428 24.3745 140.21 27.0382 139.876 29.7503C139.697 31.1991 140.134 32.6247 141.168 33.985C142.206 35.3518 143.609 36.1525 145.338 36.3656C148.288 36.7293 150.508 35.2465 151.95 31.9796C153.228 29.2877 154.64 27.2886 156.144 26.0359C157.559 24.8535 159.67 24.4254 162.417 24.764C164.786 25.0561 166.573 25.9508 167.886 27.5023C169.181 29.0316 169.694 30.7304 169.452 32.6941C169.343 33.6457 168.988 34.5525 168.423 35.3255C167.819 36.1485 167.105 36.8845 166.3 37.5127C165.447 38.1792 164.054 39.1678 162.157 40.4554C159.946 41.9582 158.148 43.2908 156.819 44.4173C155.407 45.6186 154.216 47.0578 153.3 48.6698C152.343 50.3303 151.708 52.3784 151.415 54.7505C151.166 56.7778 151.538 58.4175 152.523 59.623C153.497 60.8163 154.807 61.5253 156.418 61.7239C159.499 62.1036 161.643 60.66 162.607 57.5803C163.061 56.3081 163.395 55.4199 163.606 54.9164C163.799 54.4591 164.051 53.9982 164.359 53.5432C164.657 53.102 165.106 52.6128 165.691 52.0908C166.304 51.5405 167.116 50.9047 168.104 50.2052C171.789 47.6453 174.396 45.7848 175.852 44.6739C177.354 43.53 178.716 42.099 179.902 40.4233C181.124 38.7082 181.891 36.607 182.191 34.1802C182.569 31.1144 182.054 28.1271 180.661 25.3042" fill="#3FAAB0"/>
<path d="M174.134 18.2144L176.301 14.8518L176.296 14.8489L174.134 18.2144ZM151.86 15.9217L153.336 19.6392L153.337 19.6392L151.86 15.9217ZM143.494 21.8303L146.599 24.3519L146.6 24.351L143.494 21.8303ZM141.168 33.985L137.983 36.4047L137.983 36.4049L141.168 33.985ZM151.95 31.9796L148.337 30.2641L148.313 30.3139L148.291 30.3642L151.95 31.9796ZM156.144 26.0359L158.704 29.1097L158.71 29.1047L156.144 26.0359ZM167.886 27.5023L170.94 24.9182L170.939 24.9179L167.886 27.5023ZM169.452 32.6941L165.482 32.2047L165.48 32.2214L165.478 32.2381L169.452 32.6941ZM168.423 35.3255L171.648 37.6911L171.651 37.6874L168.423 35.3255ZM166.3 37.5127L163.839 34.3598L163.837 34.361L166.3 37.5127ZM162.157 40.4554L159.911 37.1455L159.908 37.1474L162.157 40.4554ZM156.819 44.4173L154.233 41.366L154.228 41.3705L156.819 44.4173ZM153.3 48.6698L156.766 50.6665L156.772 50.6563L156.777 50.6462L153.3 48.6698ZM152.523 59.623L155.621 57.0927L155.62 57.092L152.523 59.623ZM162.607 57.5803L158.84 56.2375L158.814 56.3105L158.79 56.3844L162.607 57.5803ZM163.606 54.9164L167.293 56.4676L167.294 56.4665L163.606 54.9164ZM164.359 53.5432L167.671 55.7857L167.672 55.7838L164.359 53.5432ZM165.691 52.0908L168.354 55.0756L168.36 55.0707L168.365 55.0659L165.691 52.0908ZM168.104 50.2052L165.822 46.9202L165.807 46.9304L165.792 46.9408L168.104 50.2052ZM175.852 44.6739L173.429 41.4918L173.426 41.4937L175.852 44.6739ZM179.902 40.4233L176.644 38.1033L176.638 38.1118L179.902 40.4233ZM184.242 23.5278C182.493 19.996 179.775 17.0903 176.301 14.8518L171.968 21.577C174.369 23.1236 176.036 24.9837 177.073 27.0778L184.242 23.5278ZM176.296 14.8489C172.793 12.599 168.679 11.2264 164.155 10.6687L163.176 18.6086C166.707 19.0439 169.636 20.0789 171.973 21.5799L176.296 14.8489ZM164.155 10.6687C159.262 10.0655 154.596 10.5308 150.383 12.2043L153.337 19.6392C156.109 18.5378 159.393 18.1423 163.176 18.6086L164.155 10.6687ZM150.383 12.2043C146.349 13.8069 142.937 16.1693 140.389 19.3096L146.6 24.351C148.161 22.4278 150.378 20.8145 153.336 19.6392L150.383 12.2043ZM140.389 19.3086C137.946 22.3173 136.349 25.6655 135.906 29.2609L143.846 30.2397C144.071 28.4108 144.91 26.4317 146.599 24.3519L140.389 19.3086ZM135.906 29.2609C135.577 31.9254 136.438 34.3714 137.983 36.4047L144.353 31.5652C143.831 30.878 143.817 30.4728 143.846 30.2397L135.906 29.2609ZM137.983 36.4049C139.685 38.645 142.067 39.9927 144.848 40.3355L145.827 32.3957C145.152 32.3124 144.728 32.0585 144.353 31.565L137.983 36.4049ZM144.848 40.3355C147.156 40.6201 149.431 40.1892 151.423 38.8657C153.348 37.5867 154.684 35.6911 155.61 33.5951L148.291 30.3642C147.774 31.535 147.279 32.0142 146.996 32.2025C146.78 32.3462 146.47 32.4749 145.827 32.3957L144.848 40.3355ZM155.564 33.6952C156.71 31.2811 157.816 29.8497 158.704 29.1097L153.585 22.9622C151.465 24.7276 149.747 27.2943 148.337 30.2641L155.564 33.6952ZM158.71 29.1047C158.927 28.9235 159.729 28.463 161.927 28.734L162.906 20.7941C159.61 20.3877 156.191 20.7835 153.579 22.9672L158.71 29.1047ZM161.927 28.734C163.483 28.9258 164.281 29.4344 164.833 30.0867L170.939 24.9179C168.865 22.4672 166.089 21.1864 162.906 20.7941L161.927 28.734ZM164.833 30.0864C165.419 30.7783 165.586 31.3671 165.482 32.2047L173.422 33.1835C173.803 30.0937 172.943 27.2848 170.94 24.9182L164.833 30.0864ZM165.478 32.2381C165.448 32.5004 165.35 32.7504 165.194 32.9635L171.651 37.6874C172.626 36.3546 173.238 34.7909 173.426 33.1501L165.478 32.2381ZM165.197 32.9599C164.811 33.4867 164.354 33.9577 163.839 34.3598L168.762 40.6655C169.856 39.8113 170.827 38.8104 171.648 37.6911L165.197 32.9599ZM163.837 34.361C163.097 34.9392 161.799 35.8643 159.911 37.1455L164.403 43.7653C166.31 42.4713 167.798 41.4192 168.763 40.6643L163.837 34.361ZM159.908 37.1474C157.638 38.6907 155.712 40.112 154.233 41.366L159.406 47.4687C160.584 46.4696 162.255 45.2257 164.406 43.7633L159.908 37.1474ZM154.228 41.3705C152.46 42.8742 150.969 44.6757 149.822 46.6935L156.777 50.6462C157.463 49.44 158.354 48.3631 159.411 47.4642L154.228 41.3705ZM149.834 46.6732C148.553 48.8957 147.788 51.4837 147.445 54.2611L155.385 55.2399C155.628 53.2732 156.133 51.7648 156.766 50.6665L149.834 46.6732ZM147.445 54.2611C147.106 57.0168 147.552 59.8609 149.425 62.154L155.62 57.092C155.524 56.9741 155.225 56.5388 155.385 55.2399L147.445 54.2611ZM149.425 62.1533C151.085 64.1856 153.349 65.3758 155.929 65.6938L156.908 57.7539C156.265 57.6747 155.91 57.447 155.621 57.0927L149.425 62.1533ZM155.929 65.6938C158.208 65.9748 160.531 65.6148 162.534 64.2717C164.517 62.942 165.745 60.9456 166.425 58.7761L158.79 56.3844C158.505 57.2947 158.179 57.5599 158.079 57.6271C157.999 57.6807 157.709 57.8527 156.908 57.7539L155.929 65.6938ZM166.375 58.9231C166.828 57.6521 167.129 56.8578 167.293 56.4676L159.919 53.3652C159.66 53.9821 159.293 54.9641 158.84 56.2375L166.375 58.9231ZM167.294 56.4665C167.375 56.274 167.496 56.0437 167.671 55.7857L161.046 51.3008C160.605 51.9527 160.223 52.6441 159.919 53.3662L167.294 56.4665ZM167.672 55.7838C167.72 55.7132 167.91 55.4716 168.354 55.0756L163.028 49.1061C162.302 49.754 161.594 50.4907 161.045 51.3026L167.672 55.7838ZM168.365 55.0659C168.824 54.6531 169.504 54.1152 170.415 53.4697L165.792 46.9408C164.728 47.6941 163.783 48.4278 163.018 49.1158L168.365 55.0659ZM170.386 53.4903C174.069 50.9318 176.744 49.0253 178.279 47.8541L173.426 41.4937C172.049 42.5443 169.509 44.3588 165.822 46.9202L170.386 53.4903ZM178.276 47.856C180.13 46.4441 181.768 44.7105 183.167 42.7348L176.638 38.1118C175.664 39.4876 174.579 40.6159 173.429 41.4919L178.276 47.856ZM183.161 42.7433C184.828 40.4021 185.794 37.6449 186.161 34.6696L178.221 33.6908C177.989 35.5691 177.419 37.0144 176.644 38.1033L183.161 42.7433ZM186.161 34.6696C186.636 30.8143 185.98 27.0431 184.249 23.5345L177.074 27.074C178.129 29.2111 178.501 31.4145 178.221 33.6908L186.161 34.6696Z" fill="white" mask="url(#path-24-outside-3)"/>
</g>
<defs>
<clipPath id="clip0">
<rect width="94.4406" height="78.2625" fill="white" transform="translate(106.345) rotate(7.02778)"/>
</clipPath>
</defs>
</svg>
