<svg width="79" height="96" viewBox="0 0 79 96" fill="none" xmlns="http://www.w3.org/2000/svg">
<path d="M24.7795 5.96359C25.9657 5.96359 27.1034 6.43482 27.9422 7.27361C28.781 8.1124 29.2522 9.25005 29.2522 10.4363V47.7087C29.2522 48.4995 29.5664 49.258 30.1256 49.8171C30.6847 50.3763 31.4432 50.6905 32.234 50.6905C33.0248 50.6905 33.7833 50.3763 34.3424 49.8171C34.9016 49.258 35.2158 48.4995 35.2158 47.7087V32.6029L35.7287 32.5791C37.6191 32.5075 39.5275 32.5314 40.5949 32.7401C41.3941 32.9011 42.3482 33.3126 43.2666 33.8255C43.7258 34.0759 44.1612 34.7021 44.1612 35.698V47.7087C44.1612 48.4995 44.4753 49.258 45.0345 49.8171C45.5937 50.3763 46.3521 50.6905 47.143 50.6905C47.9338 50.6905 48.6922 50.3763 49.2514 49.8171C49.8106 49.258 50.1248 48.4995 50.1248 47.7087V38.3757C50.3353 38.3535 50.546 38.3336 50.7569 38.316C52.6414 38.1729 54.2396 38.2564 54.9791 38.5546C55.6828 38.8289 56.7682 39.7891 57.8774 41.1189C58.3605 41.6914 58.772 42.252 59.0701 42.6635V50.6905C59.0701 51.4813 59.3843 52.2397 59.9435 52.7989C60.5027 53.3581 61.2611 53.6723 62.0519 53.6723C62.8428 53.6723 63.6012 53.3581 64.1604 52.7989C64.7196 52.2397 65.0337 51.4813 65.0337 50.6905V44.7269H67.0733C67.9067 44.7269 68.7309 44.9016 69.4927 45.2397C70.2545 45.5778 70.9369 46.0719 71.496 46.69C72.0551 47.3081 72.4785 48.0365 72.7387 48.8283C72.999 49.62 73.0904 50.4576 73.007 51.2869L71.3909 67.478C71.1822 69.5587 70.5381 71.5723 69.5005 73.3879L61.1812 87.951C60.9206 88.4074 60.5439 88.7867 60.0894 89.0506C59.6348 89.3146 59.1186 89.4536 58.5931 89.4538H20.5155C20.0245 89.4536 19.5411 89.332 19.1083 89.1C18.6755 88.868 18.3067 88.5327 18.0347 88.1239L9.48888 75.3022C8.69541 74.1131 8.19848 72.7512 8.03973 71.3305L5.98229 52.8135C5.89914 52.0714 6.09747 51.3251 6.53806 50.7222C6.97866 50.1193 7.62945 49.7036 8.36176 49.5574L14.3432 48.3647V53.6723C14.3432 54.4631 14.6574 55.2215 15.2166 55.7807C15.7758 56.3399 16.5342 56.6541 17.325 56.6541C18.1159 56.6541 18.8743 56.3399 19.4335 55.7807C19.9927 55.2215 20.3068 54.4631 20.3068 53.6723V10.4363C20.3068 9.25005 20.7781 8.1124 21.6168 7.27361C22.4556 6.43482 23.5933 5.96359 24.7795 5.96359ZM35.2158 26.6334V10.4363C35.2158 7.66841 34.1163 5.0139 32.1591 3.05671C30.2019 1.09953 27.5474 0 24.7795 0C22.0116 0 19.3571 1.09953 17.4 3.05671C15.4428 5.0139 14.3432 7.66841 14.3432 10.4363V42.2818L7.18693 43.7131C4.99339 44.1529 3.04426 45.3986 1.72395 47.2047C0.403641 49.0107 -0.192006 51.2459 0.0544841 53.4695L2.11192 71.9924C2.37651 74.3602 3.20473 76.6302 4.52717 78.612L13.073 91.4337C13.8898 92.659 14.9965 93.6638 16.2948 94.3587C17.5931 95.0536 19.0429 95.4173 20.5155 95.4174H58.5931C60.1698 95.4169 61.7184 94.9996 63.082 94.2079C64.4455 93.4161 65.5756 92.2781 66.3576 90.9089L74.6768 76.3518C76.1312 73.8072 77.0334 70.9848 77.3247 68.0684L78.9408 51.8772C79.1066 50.2192 78.9231 48.5448 78.4022 46.9619C77.8813 45.3791 77.0345 43.923 75.9164 42.6874C74.7983 41.4519 73.4337 40.4644 71.9106 39.7885C70.3875 39.1126 68.7396 38.7634 67.0733 38.7633H63.6084C63.2361 38.2585 62.8483 37.7653 62.4455 37.2843C61.3065 35.9187 59.4041 33.897 57.1976 33.0144C55.0268 32.1437 52.1524 32.2272 50.2917 32.3703L49.5045 32.4419C48.8696 30.8167 47.6889 29.463 46.1649 28.6133C44.793 27.822 43.3091 27.243 41.7638 26.8958C39.9151 26.526 37.3567 26.5499 35.502 26.6215L35.2158 26.6334Z" fill="white"/>
</svg>
