<svg width="19" height="16" viewBox="0 0 19 16" fill="none" xmlns="http://www.w3.org/2000/svg">
<path d="M0.246871 2.5463C2.60354 5.56797 6.9552 11.168 6.9552 11.168V18.168C6.9552 18.8096 7.4802 19.3346 8.12187 19.3346H10.4552C11.0969 19.3346 11.6219 18.8096 11.6219 18.168V11.168C11.6219 11.168 15.9619 5.56797 18.3185 2.5463C18.4522 2.37407 18.5349 2.16775 18.5571 1.95084C18.5793 1.73393 18.5402 1.51515 18.4441 1.3194C18.3481 1.12365 18.199 0.958811 18.0138 0.843641C17.8287 0.728472 17.6149 0.667605 17.3969 0.66797H1.16854C0.200204 0.66797 -0.348129 1.7763 0.246871 2.5463Z" fill="#767676"/>
</svg>
