<svg width="14" height="20" viewBox="0 0 14 20" fill="none" xmlns="http://www.w3.org/2000/svg">
<path d="M1.22694 9.00009H12.7739C13.6359 9.00009 14.0939 7.98009 13.5209 7.33509L7.74794 0.840094C7.6543 0.734399 7.5393 0.649779 7.41053 0.591826C7.28176 0.533873 7.14215 0.503906 7.00094 0.503906C6.85973 0.503906 6.72013 0.533873 6.59136 0.591826C6.46259 0.649779 6.34759 0.734399 6.25394 0.840094L0.478944 7.33509C-0.0940559 7.98009 0.363944 9.00009 1.22694 9.00009ZM6.25294 19.1591C6.34659 19.2648 6.46159 19.3494 6.59036 19.4074C6.71913 19.4653 6.85873 19.4953 6.99994 19.4953C7.14115 19.4953 7.28076 19.4653 7.40953 19.4074C7.5383 19.3494 7.6533 19.2648 7.74694 19.1591L13.5199 12.6641C14.0939 12.0201 13.6359 11.0001 12.7729 11.0001H1.22694C0.364944 11.0001 -0.093056 12.0201 0.479944 12.6651L6.25294 19.1591Z" fill="#767676"/>
</svg>
