<svg width="24" height="24" viewBox="0 0 24 24" fill="none" xmlns="http://www.w3.org/2000/svg">
<g clip-path="url(#clip0)">
<path d="M4.5 9.3999H5V9.8999C5 10.1651 5.10536 10.4195 5.29289 10.607C5.48043 10.7945 5.73478 10.8999 6 10.8999C6.26522 10.8999 6.51957 10.7945 6.70711 10.607C6.89464 10.4195 7 10.1651 7 9.8999V9.3999H7.5C7.76522 9.3999 8.01957 9.29454 8.20711 9.10701C8.39464 8.91947 8.5 8.66512 8.5 8.3999C8.5 8.13469 8.39464 7.88033 8.20711 7.6928C8.01957 7.50526 7.76522 7.3999 7.5 7.3999H7V6.8999C7 6.63469 6.89464 6.38033 6.70711 6.1928C6.51957 6.00526 6.26522 5.8999 6 5.8999C5.73478 5.8999 5.48043 6.00526 5.29289 6.1928C5.10536 6.38033 5 6.63469 5 6.8999V7.3999H4.5C4.23478 7.3999 3.98043 7.50526 3.79289 7.6928C3.60536 7.88033 3.5 8.13469 3.5 8.3999C3.5 8.66512 3.60536 8.91947 3.79289 9.10701C3.98043 9.29454 4.23478 9.3999 4.5 9.3999ZM3.88 20.5199C4.06736 20.7062 4.32081 20.8107 4.585 20.8107C4.84919 20.8107 5.10264 20.7062 5.29 20.5199L6 19.8099L6.71 20.5199C6.89736 20.7062 7.15081 20.8107 7.415 20.8107C7.67919 20.8107 7.93264 20.7062 8.12 20.5199C8.30625 20.3325 8.41079 20.0791 8.41079 19.8149C8.41079 19.5507 8.30625 19.2973 8.12 19.1099L7.41 18.3999L8.12 17.6899C8.28383 17.4986 8.36943 17.2525 8.35971 17.0008C8.34999 16.7492 8.24566 16.5104 8.06756 16.3323C7.88947 16.1542 7.65073 16.0499 7.39905 16.0402C7.14738 16.0305 6.9013 16.1161 6.71 16.2799L6 16.9899L5.29 16.2799C5.0987 16.1161 4.85262 16.0305 4.60095 16.0402C4.34927 16.0499 4.11053 16.1542 3.93244 16.3323C3.75434 16.5104 3.65001 16.7492 3.64029 17.0008C3.63057 17.2525 3.71617 17.4986 3.88 17.6899L4.59 18.3999L3.88 19.1099C3.69375 19.2973 3.58921 19.5507 3.58921 19.8149C3.58921 20.0791 3.69375 20.3325 3.88 20.5199ZM19 2.3999H3C2.20435 2.3999 1.44129 2.71597 0.87868 3.27858C0.31607 3.84119 0 4.60425 0 5.3999V21.3999C0 22.1956 0.31607 22.9586 0.87868 23.5212C1.44129 24.0838 2.20435 24.3999 3 24.3999H19C19.7956 24.3999 20.5587 24.0838 21.1213 23.5212C21.6839 22.9586 22 22.1956 22 21.3999V5.3999C22 4.60425 21.6839 3.84119 21.1213 3.27858C20.5587 2.71597 19.7956 2.3999 19 2.3999ZM10 22.3999H3C2.73478 22.3999 2.48043 22.2945 2.29289 22.107C2.10536 21.9195 2 21.6651 2 21.3999V14.3999H10V22.3999ZM10 12.3999H2V5.3999C2 5.13469 2.10536 4.88033 2.29289 4.6928C2.48043 4.50526 2.73478 4.3999 3 4.3999H10V12.3999ZM20 21.3999C20 21.6651 19.8946 21.9195 19.7071 22.107C19.5196 22.2945 19.2652 22.3999 19 22.3999H12V14.3999H20V21.3999ZM20 12.3999H12V4.3999H19C19.2652 4.3999 19.5196 4.50526 19.7071 4.6928C19.8946 4.88033 20 5.13469 20 5.3999V12.3999ZM14.5 17.8999H17.5C17.7652 17.8999 18.0196 17.7945 18.2071 17.607C18.3946 17.4195 18.5 17.1651 18.5 16.8999C18.5 16.6347 18.3946 16.3803 18.2071 16.1928C18.0196 16.0053 17.7652 15.8999 17.5 15.8999H14.5C14.2348 15.8999 13.9804 16.0053 13.7929 16.1928C13.6054 16.3803 13.5 16.6347 13.5 16.8999C13.5 17.1651 13.6054 17.4195 13.7929 17.607C13.9804 17.7945 14.2348 17.8999 14.5 17.8999ZM17.5 7.3999H14.5C14.2348 7.3999 13.9804 7.50526 13.7929 7.6928C13.6054 7.88033 13.5 8.13469 13.5 8.3999C13.5 8.66512 13.6054 8.91947 13.7929 9.10701C13.9804 9.29454 14.2348 9.3999 14.5 9.3999H17.5C17.7652 9.3999 18.0196 9.29454 18.2071 9.10701C18.3946 8.91947 18.5 8.66512 18.5 8.3999C18.5 8.13469 18.3946 7.88033 18.2071 7.6928C18.0196 7.50526 17.7652 7.3999 17.5 7.3999ZM14.5 20.8999H17.5C17.7652 20.8999 18.0196 20.7945 18.2071 20.607C18.3946 20.4195 18.5 20.1651 18.5 19.8999C18.5 19.6347 18.3946 19.3803 18.2071 19.1928C18.0196 19.0053 17.7652 18.8999 17.5 18.8999H14.5C14.2348 18.8999 13.9804 19.0053 13.7929 19.1928C13.6054 19.3803 13.5 19.6347 13.5 19.8999C13.5 20.1651 13.6054 20.4195 13.7929 20.607C13.9804 20.7945 14.2348 20.8999 14.5 20.8999Z" fill="#3FAAB0"/>
</g>
<defs>
<clipPath id="clip0">
<rect width="24" height="24" fill="white"/>
</clipPath>
</defs>
</svg>
