<svg width="375" height="88" viewBox="0 0 375 88" fill="none" xmlns="http://www.w3.org/2000/svg">
<rect width="375" height="88" fill="#0A1C29"/>
<path d="M127.617 71.8109L126.605 62.7537C126.58 62.5261 126.403 62.2731 126.2 62.1466L118.307 57.5674C118.104 57.4662 117.978 57.5421 118.003 57.7698L119.015 66.8269C119.04 67.0546 119.218 67.3076 119.42 67.4341L127.313 72.0132C127.516 72.1144 127.642 72.0385 127.617 71.8109Z" fill="#F05359"/>
<path d="M128.376 72.0888L135.966 67.029C136.143 66.9025 136.32 66.6242 136.32 66.3965L136.75 57.2888C136.75 57.0611 136.623 56.9852 136.421 57.1117L128.831 62.1716C128.654 62.298 128.477 62.5763 128.477 62.804L128.047 71.9117C128.047 72.1394 128.173 72.2153 128.376 72.0888Z" fill="url(#paint0_linear)"/>
<path d="M134.473 55.9983C134.751 56.1248 134.751 56.3272 134.498 56.479L132.221 57.7946L130.298 56.9091L130.906 56.5549C130.981 56.5043 130.981 56.4031 130.906 56.3778L129.716 55.8466C129.691 55.8213 129.666 55.8466 129.641 55.8466L128.958 56.2513L127.465 55.543L130.02 54.0756C130.045 54.0503 130.071 54.0503 130.096 54.0756L134.473 55.9983Z" fill="#F05359"/>
<path d="M132.728 57.9972C132.778 58.0225 132.778 58.0984 132.728 58.1237L131.564 58.8068C131.539 58.8068 131.513 58.8321 131.488 58.8068L130.881 58.5285L132.222 57.7695L132.728 57.9972Z" fill="#565656"/>
<path d="M132.221 57.7702L130.88 58.5545L128.982 57.6437L130.298 56.8848L132.221 57.7702Z" fill="#565656"/>
<path d="M130.881 58.5533L128.149 60.1218C127.972 60.223 127.668 60.2483 127.466 60.1471L126.049 59.5146C125.973 59.4893 125.973 59.3881 126.049 59.3375L129.009 57.6172L130.881 58.5533Z" fill="#F05359"/>
<path d="M130.299 56.8844L128.983 57.6434L127.617 57.0109L128.933 56.252L130.299 56.8844Z" fill="#565656"/>
<path d="M128.933 56.2533L127.618 57.0123L126.1 56.3039L127.44 55.5449L128.933 56.2533Z" fill="#F05359"/>
<path d="M128.427 53.3427C128.503 53.368 128.503 53.4692 128.427 53.5198L126.049 54.886L124.885 54.3547L127.086 53.0897C127.263 52.9885 127.566 52.9632 127.769 53.0644L128.427 53.3427Z" fill="#F05359"/>
<path d="M127.617 57.0107L124.505 58.807C124.48 58.8323 124.455 58.8323 124.429 58.807L120.786 57.2131C120.508 57.0866 120.508 56.8842 120.761 56.7324L123.594 55.1133L124.758 55.6699L123.62 56.3276C123.544 56.3782 123.544 56.4794 123.62 56.5047L124.809 57.036C124.834 57.0613 124.859 57.036 124.885 57.036L126.124 56.3276L127.617 57.0107Z" fill="#F05359"/>
<path d="M127.439 55.5425L126.099 56.3015L124.732 55.6437L126.048 54.8848L127.439 55.5425Z" fill="#565656"/>
<path d="M126.048 54.8868L124.732 55.6457L123.568 55.1144L124.884 54.3555L126.048 54.8868Z" fill="#565656"/>
<path d="M124.227 54.0508L124.885 54.3544L123.569 55.1133L123.063 54.8857C123.013 54.8604 123.013 54.7845 123.063 54.7592L124.177 54.0761C124.177 54.0508 124.202 54.0508 124.227 54.0508Z" fill="#565656"/>
<path d="M143.113 67.3549C143.279 67.5724 143.477 67.7809 143.707 67.9803C143.942 68.1752 144.202 68.3474 144.487 68.4969C144.773 68.6465 145.079 68.7666 145.406 68.8572C145.738 68.9479 146.079 68.9932 146.429 68.9932C146.908 68.9932 147.38 68.923 147.845 68.7825C148.315 68.642 148.743 68.4426 149.13 68.1842C149.517 67.9214 149.848 67.6064 150.125 67.2393C150.401 66.8722 150.587 66.4643 150.684 66.0156C150.781 65.5579 150.776 65.1704 150.67 64.8532C150.569 64.5359 150.394 64.2663 150.145 64.0442C149.897 63.8176 149.59 63.6272 149.227 63.4731C148.863 63.3191 148.474 63.1763 148.059 63.0449C147.792 62.9678 147.548 62.8908 147.327 62.8137C147.106 62.7322 146.919 62.6415 146.767 62.5418C146.615 62.4421 146.505 62.3288 146.436 62.2019C146.367 62.0705 146.353 61.9141 146.394 61.7328C146.445 61.5062 146.535 61.3249 146.664 61.189C146.797 61.0485 146.951 60.9397 147.126 60.8627C147.301 60.7811 147.486 60.7267 147.679 60.6995C147.873 60.6723 148.054 60.6587 148.225 60.6587C148.418 60.6587 148.6 60.6859 148.771 60.7403C148.941 60.7902 149.098 60.8559 149.24 60.9375C149.383 61.019 149.512 61.1074 149.627 61.2026C149.747 61.2978 149.851 61.3884 149.938 61.4745C149.984 61.5198 150.03 61.5584 150.076 61.5901C150.127 61.6218 150.178 61.6377 150.228 61.6377C150.288 61.6377 150.355 61.6105 150.429 61.5561L151.147 60.9646C151.345 60.7924 151.382 60.6247 151.258 60.4616C151.101 60.2486 150.914 60.0537 150.698 59.877C150.486 59.6957 150.254 59.5416 150 59.4147C149.752 59.2833 149.489 59.1813 149.213 59.1088C148.941 59.0363 148.667 59 148.391 59C147.856 59 147.366 59.0612 146.919 59.1835C146.472 59.3059 146.079 59.4827 145.738 59.7138C145.397 59.9404 145.114 60.2146 144.888 60.5364C144.667 60.8581 144.511 61.2207 144.418 61.6241C144.34 61.9685 144.352 62.2948 144.453 62.603C144.554 62.9066 144.725 63.1876 144.964 63.446C145.208 63.6998 145.51 63.9241 145.869 64.119C146.228 64.3093 146.627 64.4657 147.064 64.588C147.23 64.6334 147.414 64.6923 147.617 64.7648C147.82 64.8328 148.004 64.9211 148.17 65.0299C148.34 65.1341 148.474 65.2633 148.57 65.4174C148.667 65.567 148.692 65.746 148.646 65.9545C148.609 66.1176 148.533 66.2762 148.418 66.4303C148.303 66.5799 148.156 66.7158 147.976 66.8382C147.801 66.956 147.598 67.0512 147.368 67.1237C147.138 67.1917 146.892 67.2257 146.629 67.2257C146.376 67.2257 146.143 67.1962 145.931 67.1373C145.719 67.0784 145.526 67.0014 145.351 66.9062C145.176 66.8065 145.019 66.6954 144.881 66.5731C144.743 66.4462 144.619 66.317 144.508 66.1856C144.471 66.1448 144.432 66.1108 144.391 66.0836C144.354 66.0564 144.31 66.0428 144.26 66.0428C144.2 66.0428 144.135 66.0678 144.066 66.1176L143.154 66.8586C143.039 66.9492 142.988 67.0376 143.002 67.1237C143.021 67.2053 143.057 67.2823 143.113 67.3549Z" fill="#F05359"/>
<path d="M152.408 65.5874C152.385 65.6871 152.401 65.7618 152.456 65.8117C152.516 65.857 152.58 65.8797 152.65 65.8797H157.016C157.112 65.8797 157.195 65.8547 157.264 65.8049C157.338 65.7505 157.386 65.678 157.409 65.5874L157.603 64.6832C157.649 64.4838 157.573 64.3841 157.375 64.3841H152.974C152.901 64.3841 152.825 64.4113 152.746 64.4657C152.673 64.5201 152.624 64.5994 152.601 64.7036L152.408 65.5874Z" fill="#F05359"/>
<path d="M159.446 64.0238C159.298 64.7127 159.291 65.3608 159.425 65.968C159.558 66.5708 159.805 67.0965 160.164 67.5452C160.528 67.9939 160.988 68.3496 161.546 68.6125C162.108 68.8708 162.738 69 163.439 69C163.908 69 164.371 68.9411 164.827 68.8232C165.283 68.7054 165.721 68.54 166.14 68.327C166.563 68.1094 166.959 67.8489 167.328 67.5452C167.701 67.2416 168.037 66.9062 168.336 66.5391C168.636 66.1675 168.891 65.7709 169.103 65.3494C169.315 64.9234 169.469 64.4815 169.566 64.0238C169.713 63.3349 169.72 62.6891 169.587 62.0863C169.458 61.479 169.214 60.9511 168.855 60.5024C168.495 60.0492 168.037 59.6934 167.48 59.4351C166.923 59.1722 166.294 59.0408 165.594 59.0408C165.129 59.0408 164.666 59.0997 164.205 59.2175C163.749 59.3354 163.31 59.5031 162.886 59.7206C162.467 59.9336 162.068 60.1919 161.691 60.4956C161.318 60.7992 160.981 61.1369 160.682 61.5085C160.383 61.8756 160.127 62.2722 159.915 62.6982C159.703 63.1242 159.547 63.5661 159.446 64.0238ZM161.387 64.0238C161.483 63.5842 161.661 63.174 161.919 62.7933C162.181 62.4081 162.492 62.0727 162.851 61.7872C163.211 61.5017 163.6 61.2774 164.019 61.1142C164.438 60.9511 164.855 60.8695 165.269 60.8695C165.78 60.8695 166.209 60.9511 166.554 61.1142C166.9 61.2774 167.167 61.5017 167.355 61.7872C167.549 62.0727 167.666 62.4081 167.708 62.7933C167.754 63.174 167.729 63.5842 167.632 64.0238C167.535 64.4634 167.355 64.8758 167.093 65.261C166.83 65.6417 166.52 65.9748 166.16 66.2604C165.806 66.5414 165.419 66.7634 165 66.9266C164.585 67.0897 164.175 67.1713 163.77 67.1713C163.268 67.1713 162.844 67.0897 162.499 66.9266C162.154 66.7634 161.882 66.5414 161.684 66.2604C161.486 65.9748 161.361 65.6417 161.311 65.261C161.265 64.8758 161.29 64.4634 161.387 64.0238Z" fill="#F05359"/>
<path d="M176.766 68.6329C176.845 68.7915 176.96 68.8708 177.112 68.8708H178.514C178.698 68.8708 178.811 68.7825 178.853 68.6057L180.835 59.4351C180.849 59.358 180.831 59.2969 180.78 59.2515C180.729 59.2017 180.672 59.1768 180.607 59.1768H179.288C179.196 59.1768 179.122 59.2017 179.067 59.2515C179.011 59.3014 178.977 59.3626 178.963 59.4351L177.581 65.8593L174.376 59.4215C174.293 59.2583 174.18 59.1768 174.037 59.1768H172.628C172.541 59.1768 172.469 59.2039 172.414 59.2583C172.363 59.3127 172.331 59.3716 172.317 59.4351L170.335 68.6057C170.293 68.7825 170.36 68.8708 170.535 68.8708H171.861C172.046 68.8708 172.158 68.7825 172.2 68.6057L173.623 62.0048L176.766 68.6329Z" fill="#F05359"/>
<path d="M181.008 68.6125C180.966 68.7847 181.033 68.8708 181.208 68.8708H187.812C187.992 68.8708 188.103 68.7847 188.144 68.6125L188.414 67.3549C188.45 67.1826 188.377 67.0965 188.192 67.0965H183.267L183.785 64.7036H187.446C187.538 64.7036 187.614 64.6832 187.674 64.6424C187.739 64.5971 187.78 64.5314 187.799 64.4453L188.068 63.208C188.087 63.1174 188.073 63.0517 188.027 63.0109C187.985 62.9656 187.918 62.9429 187.826 62.9429H184.165L184.593 60.9646H189.394C189.569 60.9646 189.678 60.8785 189.719 60.7063L189.989 59.4419C190.03 59.2697 189.959 59.1835 189.774 59.1835H183.295C183.129 59.1835 183.025 59.2697 182.984 59.4419L181.008 68.6125Z" fill="#F05359"/>
<path d="M198.027 59.4324C198.082 59.2703 198.191 59.1622 198.354 59.1622H204.665C204.828 59.1622 204.883 59.2703 204.883 59.4324L204.611 60.7297C204.556 60.8919 204.448 61 204.284 61H199.605L199.061 63.5946H202.598C202.761 63.5946 202.815 63.7027 202.815 63.8649L202.543 65.0541C202.489 65.2162 202.38 65.3243 202.217 65.3243H198.68L197.973 68.6757C197.918 68.8378 197.81 68.9459 197.646 68.9459H196.232C196.069 68.9459 195.96 68.8378 196.014 68.6757L198.027 59.4324Z" fill="#767676"/>
<path d="M206.406 59.4324C206.461 59.2703 206.569 59.1622 206.733 59.1622H208.147C208.311 59.1622 208.365 59.2703 208.365 59.4324L206.406 68.6216C206.352 68.7838 206.243 68.8919 206.08 68.8919H204.665C204.502 68.8919 204.393 68.7838 204.448 68.6216L206.406 59.4324Z" fill="#767676"/>
<path d="M211.793 62.027L210.378 68.6757C210.324 68.8378 210.215 68.9459 210.052 68.9459H208.746C208.583 68.9459 208.528 68.8378 208.528 68.6757L210.487 59.4324C210.487 59.3784 210.541 59.3243 210.596 59.2703C210.65 59.2162 210.705 59.1622 210.813 59.1622H212.228C212.391 59.1622 212.5 59.2703 212.554 59.4324L215.765 65.9189L217.125 59.4865C217.125 59.4324 217.179 59.3784 217.234 59.3243C217.288 59.2703 217.342 59.2703 217.451 59.2703H218.757C218.811 59.2703 218.866 59.2703 218.92 59.3243C218.975 59.3784 218.975 59.4324 218.975 59.4865L217.016 68.7297C216.962 68.8919 216.853 69 216.69 69H215.275C215.112 69 215.003 68.9459 214.948 68.7838L211.793 62.027Z" fill="#767676"/>
<path d="M224.144 59.4324C224.252 59.2703 224.361 59.1622 224.524 59.1622H225.613C225.776 59.1622 225.885 59.2703 225.885 59.4324L227.626 68.6216C227.626 68.7297 227.626 68.7838 227.571 68.8378C227.517 68.8919 227.462 68.8919 227.354 68.8919H225.993C225.83 68.8919 225.721 68.8378 225.721 68.6757L225.395 67.1081H221.369L220.389 68.6757C220.335 68.7838 220.281 68.8378 220.226 68.8919C220.172 68.9459 220.117 68.9459 220.008 68.9459H218.485C218.376 68.9459 218.322 68.9459 218.322 68.8919C218.322 68.8378 218.322 68.7838 218.376 68.6757L224.144 59.4324ZM224.633 61.7027L222.457 65.4324H225.232L224.633 61.7027Z" fill="#767676"/>
<path d="M232.305 62.027L230.89 68.6757C230.836 68.8378 230.727 68.9459 230.564 68.9459H229.258C229.095 68.9459 229.04 68.8378 229.04 68.6757L230.999 59.4324C230.999 59.3784 231.053 59.3243 231.108 59.2703C231.162 59.2162 231.217 59.1622 231.325 59.1622H232.74C232.903 59.1622 233.012 59.2703 233.067 59.4324L236.277 65.9189L237.637 59.4865C237.637 59.4324 237.691 59.3784 237.746 59.3243C237.8 59.2703 237.855 59.2703 237.963 59.2703H239.269C239.324 59.2703 239.378 59.2703 239.432 59.3243C239.487 59.3784 239.487 59.4324 239.487 59.4865L237.528 68.7297C237.474 68.8919 237.365 69 237.202 69H235.787C235.624 69 235.515 68.9459 235.461 68.7838L232.305 62.027Z" fill="#767676"/>
<path d="M246.614 66.5676C246.669 66.5676 246.723 66.5135 246.723 66.5135C246.778 66.5135 246.832 66.5676 246.886 66.6216L247.376 67.7027C247.431 67.7568 247.431 67.8649 247.431 67.9189C247.431 67.973 247.322 68.027 247.267 68.0811C246.832 68.3513 246.342 68.5676 245.853 68.7297C245.363 68.8919 244.819 69 244.22 69C243.513 69 242.915 68.8919 242.316 68.6216C241.772 68.3513 241.282 68.027 240.956 67.5405C240.575 67.1081 240.357 66.5676 240.194 65.9189C240.085 65.3243 240.085 64.6757 240.194 63.973C240.303 63.4865 240.466 63.0541 240.684 62.6216C240.901 62.1892 241.119 61.8108 241.446 61.4324C241.718 61.0541 242.044 60.7297 242.425 60.4054C242.806 60.0811 243.187 59.8649 243.622 59.6486C244.057 59.4324 244.492 59.2703 244.928 59.1622C245.363 59.0541 245.853 59 246.288 59C246.832 59 247.376 59.1081 247.811 59.2703C248.247 59.4324 248.628 59.7027 248.954 59.973C249.008 60.027 249.063 60.0811 249.008 60.1351C249.008 60.1892 248.954 60.2432 248.954 60.2973L248.192 61.3243C248.138 61.3784 248.083 61.3784 248.029 61.3784C247.975 61.3784 247.92 61.3784 247.811 61.3243C247.539 61.1622 247.267 61 246.995 60.8919C246.723 60.7838 246.397 60.7297 246.07 60.7297C245.635 60.7297 245.2 60.8378 244.764 61C244.329 61.1622 243.948 61.3784 243.622 61.7027C243.295 61.973 242.969 62.3513 242.697 62.7297C242.425 63.1081 242.262 63.5405 242.153 63.973C242.044 64.4054 241.99 64.8378 242.044 65.2162C242.098 65.5946 242.207 65.973 242.371 66.2432C242.534 66.5135 242.806 66.7838 243.132 66.9459C243.459 67.1081 243.894 67.2162 244.329 67.2162C244.492 67.2162 244.71 67.2162 244.873 67.1622C245.091 67.1081 245.254 67.1081 245.417 67.0541C245.581 67 245.798 66.9459 245.961 66.8919C246.125 66.8378 246.288 66.7297 246.451 66.6757C246.506 66.6216 246.56 66.6216 246.614 66.5676Z" fill="#767676"/>
<path d="M250.967 59.4324C251.022 59.2703 251.13 59.1622 251.294 59.1622H257.768C257.931 59.1622 258.04 59.2703 257.986 59.4324L257.714 60.7297C257.659 60.8919 257.551 61 257.387 61H252.599L252.164 63H255.809C255.918 63 255.973 63 256.027 63.0541C256.082 63.1081 256.082 63.1622 256.082 63.2703L255.809 64.5135C255.809 64.6216 255.755 64.6757 255.701 64.7297C255.646 64.7838 255.537 64.7838 255.483 64.7838H251.838L251.348 67.2162H256.245C256.408 67.2162 256.517 67.3243 256.462 67.4865L256.19 68.7297C256.136 68.8919 256.027 69 255.864 69H249.28C249.117 69 249.063 68.8919 249.063 68.7297L250.967 59.4324Z" fill="#767676"/>
<defs>
<linearGradient id="paint0_linear" x1="128.05" y1="64.5961" x2="136.735" y2="64.5961" gradientUnits="userSpaceOnUse">
<stop offset="0.3007" stop-color="#A51D30"/>
<stop offset="1" stop-color="#F05359"/>
</linearGradient>
</defs>
</svg>
