<svg width="140" height="20" viewBox="0 0 140 20" fill="none" xmlns="http://www.w3.org/2000/svg">
<path d="M9.61689 18.8106L8.60492 9.7535C8.57963 9.52581 8.40253 9.27282 8.20014 9.14632L0.306801 4.56717C0.104407 4.46598 -0.0220915 4.54187 0.00320769 4.76957L1.01517 13.8267C1.04047 14.0544 1.21757 14.3074 1.41996 14.4338L9.31331 19.013C9.5157 19.1142 9.64219 19.0383 9.61689 18.8106Z" fill="#F05359"/>
<path d="M10.3758 19.0886L17.9655 14.0287C18.1426 13.9023 18.3197 13.624 18.3197 13.3963L18.7498 4.28857C18.7498 4.06088 18.6233 3.98498 18.4209 4.11147L10.8312 9.17131C10.6541 9.2978 10.477 9.57609 10.477 9.80379L10.0469 18.9115C10.0469 19.1392 10.1734 19.2151 10.3758 19.0886Z" fill="url(#paint0_linear)"/>
<path d="M16.4727 2.99884C16.751 3.12533 16.751 3.32773 16.498 3.47952L14.2211 4.79508L12.2984 3.90961L12.9055 3.55542C12.9814 3.50482 12.9814 3.40362 12.9055 3.37833L11.7165 2.84704C11.6912 2.82175 11.6659 2.84704 11.6406 2.84704L10.9575 3.25183L9.46484 2.54345L12.0201 1.0761C12.0454 1.0508 12.0707 1.0508 12.096 1.0761L16.4727 2.99884Z" fill="#F05359"/>
<path d="M14.7272 4.99796C14.7778 5.02326 14.7778 5.09916 14.7272 5.12445L13.5635 5.80753C13.5382 5.80753 13.5129 5.83283 13.4876 5.80753L12.8804 5.52924L14.2212 4.77026L14.7272 4.99796Z" fill="#565656"/>
<path d="M14.2212 4.77024L12.8803 5.55451L10.9829 4.64374L12.2985 3.88477L14.2212 4.77024Z" fill="#565656"/>
<path d="M12.8798 5.55399L10.1475 7.12254C9.97038 7.22373 9.66679 7.24903 9.46439 7.14784L8.04765 6.51536C7.97175 6.49006 7.97175 6.38886 8.04765 6.33826L11.0076 4.61792L12.8798 5.55399Z" fill="#F05359"/>
<path d="M12.2979 3.88541L10.9824 4.64438L9.61621 4.0119L10.9318 3.25293L12.2979 3.88541Z" fill="#565656"/>
<path d="M10.9321 3.25257L9.61658 4.01154L8.09863 3.30316L9.43949 2.54419L10.9321 3.25257Z" fill="#F05359"/>
<path d="M10.4257 0.342711C10.5016 0.36801 10.5016 0.469206 10.4257 0.519805L8.04755 1.88596L6.88379 1.35468L9.08481 0.0897195C9.26191 -0.0114771 9.5655 -0.036774 9.76789 0.0644227L10.4257 0.342711Z" fill="#F05359"/>
<path d="M9.6165 4.01072L6.50471 5.80696C6.47941 5.83226 6.4541 5.83226 6.4288 5.80696L2.78572 4.21311C2.50743 4.08662 2.50743 3.88423 2.76042 3.73243L5.59393 2.11328L6.7577 2.66986L5.61923 3.32764C5.54334 3.37824 5.54334 3.47944 5.61923 3.50474L6.80829 4.03602C6.83359 4.06132 6.85889 4.03602 6.88419 4.03602L8.12385 3.32764L9.6165 4.01072Z" fill="#F05359"/>
<path d="M9.43944 2.54303L8.09858 3.302L6.73242 2.64423L8.04798 1.88525L9.43944 2.54303Z" fill="#565656"/>
<path d="M8.04768 1.88626L6.73212 2.64524L5.56836 2.11396L6.88392 1.35498L8.04768 1.88626Z" fill="#565656"/>
<path d="M6.22613 1.05054L6.88391 1.35413L5.56835 2.1131L5.06236 1.88541C5.01176 1.86011 5.01176 1.78421 5.06236 1.75891L6.17552 1.07584C6.17552 1.05054 6.20083 1.05054 6.22613 1.05054Z" fill="#565656"/>
<path d="M25.1128 14.3549C25.2785 14.5724 25.4766 14.7809 25.7069 14.9803C25.9417 15.1752 26.202 15.3474 26.4875 15.4969C26.773 15.6465 27.0793 15.7666 27.4063 15.8572C27.7379 15.9479 28.0787 15.9932 28.4287 15.9932C28.9077 15.9932 29.3797 15.923 29.8449 15.7825C30.3147 15.642 30.743 15.4426 31.1298 15.1842C31.5167 14.9214 31.8483 14.6064 32.1246 14.2393C32.4009 13.8722 32.5875 13.4643 32.6842 13.0156C32.7809 12.5579 32.7763 12.1704 32.6704 11.8532C32.569 11.5359 32.394 11.2663 32.1453 11.0442C31.8966 10.8176 31.5904 10.6272 31.2265 10.4731C30.8627 10.3191 30.4735 10.1763 30.059 10.0449C29.7919 9.96782 29.5478 9.89078 29.3268 9.81373C29.1057 9.73216 28.9192 9.64151 28.7672 9.54181C28.6152 9.4421 28.5047 9.3288 28.4356 9.2019C28.3665 9.07047 28.3527 8.91412 28.3942 8.73284C28.4448 8.50623 28.5346 8.32495 28.6636 8.18899C28.7971 8.04849 28.9514 7.93972 29.1264 7.86268C29.3014 7.7811 29.4857 7.72672 29.6791 7.69952C29.8725 7.67233 30.0544 7.65874 30.2248 7.65874C30.4183 7.65874 30.6002 7.68593 30.7706 7.74031C30.941 7.79017 31.0976 7.85588 31.2404 7.93746C31.3831 8.01903 31.5121 8.10741 31.6272 8.20258C31.747 8.29776 31.8506 8.3884 31.9381 8.47451C31.9841 8.51983 32.0302 8.55835 32.0763 8.59008C32.1269 8.6218 32.1776 8.63766 32.2282 8.63766C32.2881 8.63766 32.3549 8.61047 32.4286 8.55608L33.147 7.96465C33.3451 7.79243 33.3819 7.62474 33.2576 7.46159C33.101 7.24858 32.9145 7.0537 32.698 6.87695C32.4861 6.69567 32.2536 6.54158 32.0003 6.41468C31.7516 6.28325 31.4891 6.18128 31.2127 6.10877C30.941 6.03626 30.667 6 30.3906 6C29.8564 6 29.3659 6.06118 28.9192 6.18355C28.4725 6.30591 28.0787 6.48266 27.7379 6.7138C27.3971 6.9404 27.1138 7.21459 26.8882 7.53637C26.6671 7.85815 26.5105 8.22071 26.4184 8.62407C26.3401 8.9685 26.3516 9.29481 26.4529 9.60299C26.5543 9.90664 26.7247 10.1876 26.9642 10.446C27.2083 10.6998 27.5099 10.9241 27.8691 11.119C28.2284 11.3093 28.6267 11.4657 29.0643 11.588C29.2301 11.6334 29.4143 11.6923 29.6169 11.7648C29.8196 11.8328 30.0038 11.9211 30.1696 12.0299C30.34 12.1341 30.4735 12.2633 30.5703 12.4174C30.667 12.567 30.6923 12.746 30.6462 12.9545C30.6094 13.1176 30.5334 13.2762 30.4183 13.4303C30.3031 13.5799 30.1558 13.7158 29.9761 13.8382C29.8011 13.956 29.5985 14.0512 29.3682 14.1237C29.138 14.1917 28.8916 14.2257 28.629 14.2257C28.3757 14.2257 28.1432 14.1962 27.9313 14.1373C27.7195 14.0784 27.526 14.0014 27.351 13.9062C27.176 13.8065 27.0194 13.6954 26.8813 13.5731C26.7431 13.4462 26.6187 13.317 26.5082 13.1856C26.4714 13.1448 26.4322 13.1108 26.3908 13.0836C26.3539 13.0564 26.3102 13.0428 26.2595 13.0428C26.1996 13.0428 26.1352 13.0678 26.0661 13.1176L25.1542 13.8586C25.0391 13.9492 24.9884 14.0376 25.0022 14.1237C25.0206 14.2053 25.0575 14.2823 25.1128 14.3549Z" fill="#F05359"/>
<path d="M34.4078 12.5874C34.3848 12.6871 34.4009 12.7618 34.4561 12.8117C34.516 12.857 34.5805 12.8797 34.6496 12.8797H39.0156C39.1123 12.8797 39.1952 12.8547 39.2643 12.8049C39.338 12.7505 39.3863 12.678 39.4093 12.5874L39.6028 11.6832C39.6488 11.4838 39.5728 11.3841 39.3748 11.3841H34.9743C34.9006 11.3841 34.8246 11.4113 34.7463 11.4657C34.6726 11.5201 34.6242 11.5994 34.6012 11.7036L34.4078 12.5874Z" fill="#F05359"/>
<path d="M41.4455 11.0238C41.2982 11.7127 41.2913 12.3608 41.4248 12.968C41.5584 13.5708 41.8048 14.0965 42.164 14.5452C42.5278 14.9939 42.9884 15.3496 43.5456 15.6125C44.1075 15.8708 44.7385 16 45.4385 16C45.9083 16 46.3711 15.9411 46.8271 15.8233C47.283 15.7054 47.7205 15.54 48.1396 15.327C48.5633 15.1094 48.9594 14.8489 49.3278 14.5452C49.7009 14.2416 50.0371 13.9062 50.3364 13.5391C50.6358 13.1675 50.8914 12.7709 51.1033 12.3494C51.3151 11.9234 51.4694 11.4815 51.5661 11.0238C51.7135 10.3349 51.7204 9.6891 51.5868 9.08634C51.4579 8.47904 51.2138 7.95105 50.8546 7.50238C50.4953 7.04917 50.0371 6.69341 49.4798 6.43508C48.9226 6.17222 48.2939 6.04079 47.5939 6.04079C47.1287 6.04079 46.6659 6.09971 46.2053 6.21754C45.7494 6.33537 45.3096 6.50306 44.8858 6.7206C44.4667 6.93361 44.0684 7.19193 43.6907 7.49558C43.3177 7.79923 42.9815 8.13687 42.6821 8.5085C42.3828 8.87559 42.1272 9.27215 41.9153 9.69816C41.7035 10.1242 41.5469 10.5661 41.4455 11.0238ZM43.3868 11.0238C43.4835 10.5842 43.6608 10.174 43.9187 9.79334C44.1812 9.40811 44.4921 9.07274 44.8513 8.78722C45.2105 8.5017 45.5997 8.27736 46.0188 8.11421C46.4379 7.95105 46.8547 7.86948 47.2692 7.86948C47.7804 7.86948 48.2087 7.95105 48.5541 8.11421C48.8995 8.27736 49.1667 8.5017 49.3555 8.78722C49.5489 9.07274 49.6663 9.40811 49.7078 9.79334C49.7539 10.174 49.7285 10.5842 49.6318 11.0238C49.5351 11.4634 49.3555 11.8758 49.093 12.261C48.8304 12.6417 48.5196 12.9748 48.1604 13.2604C47.8057 13.5414 47.4189 13.7634 46.9998 13.9266C46.5853 14.0897 46.1754 14.1713 45.7701 14.1713C45.2681 14.1713 44.8444 14.0897 44.499 13.9266C44.1536 13.7634 43.8819 13.5414 43.6838 13.2604C43.4858 12.9748 43.3614 12.6417 43.3108 12.261C43.2647 11.8758 43.29 11.4634 43.3868 11.0238Z" fill="#F05359"/>
<path d="M58.7662 15.6329C58.8445 15.7915 58.9597 15.8708 59.1116 15.8708H60.514C60.6982 15.8708 60.8111 15.7825 60.8525 15.6057L62.8352 6.43508C62.849 6.35803 62.8306 6.29685 62.7799 6.25153C62.7292 6.20168 62.6717 6.17675 62.6072 6.17675H61.2877C61.1956 6.17675 61.1219 6.20168 61.0667 6.25153C61.0114 6.30138 60.9769 6.36256 60.963 6.43508L59.5814 12.8593L56.376 6.42148C56.2931 6.25833 56.1802 6.17675 56.0375 6.17675H54.6282C54.5407 6.17675 54.4693 6.20394 54.414 6.25833C54.3634 6.31271 54.3311 6.37163 54.3173 6.43508L52.3347 15.6057C52.2932 15.7825 52.36 15.8708 52.535 15.8708H53.8614C54.0456 15.8708 54.1584 15.7825 54.1999 15.6057L55.623 9.00476L58.7662 15.6329Z" fill="#F05359"/>
<path d="M63.0079 15.6125C62.9664 15.7847 63.0332 15.8708 63.2082 15.8708H69.8125C69.9921 15.8708 70.1026 15.7847 70.1441 15.6125L70.4135 14.3549C70.4503 14.1826 70.3767 14.0965 70.1924 14.0965H65.2669L65.785 11.7036H69.4463C69.5385 11.7036 69.6144 11.6832 69.6743 11.6424C69.7388 11.5971 69.7802 11.5314 69.7987 11.4453L70.0681 10.208C70.0865 10.1174 70.0727 10.0517 70.0266 10.0109C69.9852 9.96556 69.9184 9.9429 69.8263 9.9429H66.1649L66.5932 7.96465H71.3945C71.5695 7.96465 71.6777 7.87854 71.7192 7.70632L71.9886 6.44188C72.03 6.26966 71.9586 6.18355 71.7744 6.18355H65.2945C65.1287 6.18355 65.0251 6.26966 64.9836 6.44188L63.0079 15.6125Z" fill="#F05359"/>
<path d="M80.0273 6.43243C80.0817 6.27027 80.1905 6.16216 80.3537 6.16216H86.6652C86.8284 6.16216 86.8828 6.27027 86.8828 6.43243L86.6108 7.72973C86.5564 7.89189 86.4475 8 86.2843 8H81.6051L81.0611 10.5946H84.5976C84.7609 10.5946 84.8153 10.7027 84.8153 10.8649L84.5432 12.0541C84.4888 12.2162 84.38 12.3243 84.2168 12.3243H80.6802L79.9729 15.6757C79.9185 15.8378 79.8096 15.9459 79.6464 15.9459H78.2318C78.0686 15.9459 77.9597 15.8378 78.0142 15.6757L80.0273 6.43243Z" fill="#767676"/>
<path d="M88.4062 6.43243C88.4607 6.27027 88.5695 6.16216 88.7327 6.16216H90.1473C90.3106 6.16216 90.365 6.27027 90.365 6.43243L88.4062 15.6216C88.3518 15.7838 88.243 15.8919 88.0798 15.8919H86.6652C86.5019 15.8919 86.3931 15.7838 86.4475 15.6216L88.4062 6.43243Z" fill="#767676"/>
<path d="M93.7927 9.02703L92.3781 15.6757C92.3237 15.8378 92.2149 15.9459 92.0516 15.9459H90.7458C90.5826 15.9459 90.5282 15.8378 90.5282 15.6757L92.4869 6.43243C92.4869 6.37838 92.5413 6.32432 92.5957 6.27027C92.6501 6.21622 92.7045 6.16216 92.8134 6.16216H94.228C94.3912 6.16216 94.5 6.27027 94.5544 6.43243L97.7646 12.9189L99.1248 6.48648C99.1248 6.43243 99.1792 6.37838 99.2336 6.32433C99.288 6.27027 99.3424 6.27027 99.4512 6.27027H100.757C100.811 6.27027 100.866 6.27027 100.92 6.32433C100.975 6.37838 100.975 6.43243 100.975 6.48648L99.016 15.7297C98.9616 15.8919 98.8527 16 98.6895 16H97.2749C97.1117 16 97.0029 15.9459 96.9484 15.7838L93.7927 9.02703Z" fill="#767676"/>
<path d="M106.144 6.43243C106.252 6.27027 106.361 6.16216 106.524 6.16216H107.613C107.776 6.16216 107.885 6.27027 107.885 6.43243L109.626 15.6216C109.626 15.7297 109.626 15.7838 109.571 15.8378C109.517 15.8919 109.462 15.8919 109.354 15.8919H107.993C107.83 15.8919 107.721 15.8378 107.721 15.6757L107.395 14.1081H103.369L102.389 15.6757C102.335 15.7838 102.281 15.8378 102.226 15.8919C102.172 15.9459 102.117 15.9459 102.008 15.9459H100.485C100.376 15.9459 100.322 15.9459 100.322 15.8919C100.322 15.8378 100.322 15.7838 100.376 15.6757L106.144 6.43243ZM106.633 8.7027L104.457 12.4324H107.232L106.633 8.7027Z" fill="#767676"/>
<path d="M114.305 9.02703L112.89 15.6757C112.836 15.8378 112.727 15.9459 112.564 15.9459H111.258C111.095 15.9459 111.04 15.8378 111.04 15.6757L112.999 6.43243C112.999 6.37838 113.053 6.32432 113.108 6.27027C113.162 6.21622 113.217 6.16216 113.325 6.16216H114.74C114.903 6.16216 115.012 6.27027 115.067 6.43243L118.277 12.9189L119.637 6.48648C119.637 6.43243 119.691 6.37838 119.746 6.32433C119.8 6.27027 119.855 6.27027 119.963 6.27027H121.269C121.324 6.27027 121.378 6.27027 121.432 6.32433C121.487 6.37838 121.487 6.43243 121.487 6.48648L119.528 15.7297C119.474 15.8919 119.365 16 119.202 16H117.787C117.624 16 117.515 15.9459 117.461 15.7838L114.305 9.02703Z" fill="#767676"/>
<path d="M128.614 13.5676C128.669 13.5676 128.723 13.5135 128.723 13.5135C128.778 13.5135 128.832 13.5676 128.886 13.6216L129.376 14.7027C129.431 14.7568 129.431 14.8649 129.431 14.9189C129.431 14.973 129.322 15.027 129.267 15.0811C128.832 15.3513 128.342 15.5676 127.853 15.7297C127.363 15.8919 126.819 16 126.22 16C125.513 16 124.915 15.8919 124.316 15.6216C123.772 15.3513 123.282 15.027 122.956 14.5405C122.575 14.1081 122.357 13.5676 122.194 12.9189C122.085 12.3243 122.085 11.6757 122.194 10.973C122.303 10.4865 122.466 10.0541 122.684 9.62162C122.901 9.18919 123.119 8.81081 123.446 8.43243C123.718 8.05405 124.044 7.72973 124.425 7.40541C124.806 7.08108 125.187 6.86486 125.622 6.64865C126.057 6.43243 126.492 6.27027 126.928 6.16216C127.363 6.05406 127.853 6 128.288 6C128.832 6 129.376 6.10811 129.811 6.27027C130.247 6.43243 130.628 6.7027 130.954 6.97297C131.008 7.02703 131.063 7.08108 131.008 7.13514C131.008 7.18919 130.954 7.24324 130.954 7.29729L130.192 8.32433C130.138 8.37838 130.083 8.37837 130.029 8.37837C129.975 8.37837 129.92 8.37838 129.811 8.32433C129.539 8.16216 129.267 8 128.995 7.89189C128.723 7.78378 128.397 7.72973 128.07 7.72973C127.635 7.72973 127.2 7.83784 126.764 8C126.329 8.16216 125.948 8.37838 125.622 8.7027C125.295 8.97297 124.969 9.35135 124.697 9.72973C124.425 10.1081 124.262 10.5405 124.153 10.973C124.044 11.4054 123.99 11.8378 124.044 12.2162C124.098 12.5946 124.207 12.973 124.371 13.2432C124.534 13.5135 124.806 13.7838 125.132 13.9459C125.459 14.1081 125.894 14.2162 126.329 14.2162C126.492 14.2162 126.71 14.2162 126.873 14.1622C127.091 14.1081 127.254 14.1081 127.417 14.0541C127.581 14 127.798 13.9459 127.962 13.8919C128.125 13.8378 128.288 13.7297 128.451 13.6757C128.506 13.6216 128.56 13.6216 128.614 13.5676Z" fill="#767676"/>
<path d="M132.967 6.43243C133.022 6.27027 133.13 6.16216 133.294 6.16216H139.768C139.931 6.16216 140.04 6.27027 139.986 6.43243L139.714 7.72973C139.659 7.89189 139.551 8 139.387 8H134.599L134.164 10H137.809C137.918 10 137.973 10 138.027 10.0541C138.082 10.1081 138.082 10.1622 138.082 10.2703L137.809 11.5135C137.809 11.6216 137.755 11.6757 137.701 11.7297C137.646 11.7838 137.537 11.7838 137.483 11.7838H133.838L133.348 14.2162H138.245C138.408 14.2162 138.517 14.3243 138.462 14.4865L138.19 15.7297C138.136 15.8919 138.027 16 137.864 16H131.28C131.117 16 131.063 15.8919 131.063 15.7297L132.967 6.43243Z" fill="#767676"/>
<defs>
<linearGradient id="paint0_linear" x1="10.0501" y1="11.5959" x2="18.7353" y2="11.5959" gradientUnits="userSpaceOnUse">
<stop offset="0.3007" stop-color="#A51D30"/>
<stop offset="1" stop-color="#F05359"/>
</linearGradient>
</defs>
</svg>
