<svg width="181" height="197" viewBox="0 0 181 197" fill="none" xmlns="http://www.w3.org/2000/svg">
    <g opacity="0.05">
        <path d="M123.8 59.682L123.8 59.6821L123.813 59.687C141.26 66.4815 155.42 81.2054 165.224 98.552C175.027 115.897 180.443 135.812 180.443 152.915C180.443 167.266 176.927 177.461 169.802 184.335C163.431 190.467 154.607 193.443 144.014 194.815C133.523 196.173 121.372 195.95 108.265 195.708L107.876 195.701C102.293 195.579 96.5805 195.458 90.6808 195.458C83.1027 195.458 75.7744 195.701 68.7029 195.945C67.2644 195.986 65.8397 196.031 64.4294 196.075C59.6291 196.226 54.9947 196.371 50.5435 196.371C33.8506 196.371 20.0224 194.532 11.1852 186.159C4.37392 179.653 0.980469 169.766 0.980469 155.716C0.980469 137.821 6.67619 117.068 16.6205 99.1498C26.5673 81.2274 40.7281 66.2057 57.6096 59.6875L57.6165 59.6848L57.6234 59.682C57.9812 59.5314 58.3461 59.4775 58.7323 59.4775H122.691C123.078 59.4775 123.442 59.5314 123.8 59.682ZM59.4147 65.2352H59.317L59.2266 65.272C46.5039 70.4384 33.4499 82.675 23.5737 98.7675C13.6923 114.869 6.95968 134.881 6.9285 155.654V155.655C6.9285 167.89 9.66946 176.519 15.3352 181.892C20.452 186.757 28.0502 188.964 37.1639 189.872C46.1937 190.773 56.8086 190.407 68.1454 190.016L68.489 190.004C75.6237 189.76 82.998 189.517 90.6808 189.517C96.6301 189.517 102.394 189.639 107.978 189.761L107.979 189.761L108.038 189.762C120.444 190.005 132.061 190.232 141.934 189.088C151.816 187.942 160.047 185.414 165.595 180.062L165.596 180.061C171.565 174.266 174.433 165.34 174.433 152.794C174.433 134.398 168.587 115.453 159.148 99.6478C149.712 83.8468 136.656 71.1383 122.197 65.2719L122.107 65.2352H122.009H59.4147Z" fill="#F05359" stroke="#C9C9C9"/>
        <path d="M119.908 51.1995L119.906 51.2025C119.32 51.8291 118.585 52.1396 117.728 52.1396H62.9498C62.1041 52.1396 61.2986 51.7769 60.7006 51.1929C55.6888 45.9115 51.6571 37.8661 48.8782 29.2528C46.1001 20.6421 44.5908 11.5164 44.5908 4.11827C44.5908 2.52166 45.9031 1.20898 47.6269 1.20898H133.051C134.706 1.20898 136.025 2.51595 136.025 4.11827C136.025 11.5164 134.515 20.6421 131.737 29.2528C128.957 37.8697 124.923 45.9182 119.908 51.1995ZM129.951 7.62036L129.985 7.08843H129.452H51.225H50.6944L50.7258 7.61805C51.1009 13.936 52.537 21.2998 54.8293 28.2017C57.1198 35.0981 60.2781 41.5724 64.12 46.0844L64.2697 46.2602H64.5007H116.177H116.408L116.557 46.0844C120.399 41.5722 123.542 35.1129 125.825 28.2242C128.109 21.3299 129.545 13.967 129.951 7.62036Z" fill="#F05359" stroke="#C9C9C9"/>
        <path d="M65.2567 155.159L65.2567 155.159L65.2487 155.155C64.1044 154.491 63.5505 153.096 63.9268 151.65L67.9506 139.378C68.283 138.515 68.8721 137.853 69.6992 137.549C70.5624 137.231 71.4698 137.285 72.2724 137.705L72.3813 137.762H72.3983C72.4275 137.776 72.4638 137.793 72.5077 137.814L72.5185 137.82C72.6544 137.885 72.8495 137.978 73.0957 138.093C73.6013 138.329 74.3224 138.654 75.2003 139.011C76.9536 139.726 79.3419 140.574 81.8949 141.1L81.8995 141.101C84.9034 141.691 87.9556 141.692 90.3246 141.318C91.5072 141.131 92.5418 140.847 93.322 140.481C94.0674 140.132 94.7218 139.642 94.8885 138.965L94.8886 138.965L94.8906 138.956L94.8955 138.934C94.9839 138.544 95.0875 138.087 95.041 137.623C94.9903 137.117 94.7684 136.64 94.2904 136.185C93.8282 135.745 93.1277 135.324 92.1126 134.892C91.0927 134.458 89.7241 133.998 87.8993 133.493C86.1803 133.011 80.976 131.398 76.0184 128.3C71.0485 125.194 66.4292 120.662 65.6805 114.373L65.6804 114.372C64.9793 108.569 66.1253 103.663 68.9386 99.7874C71.7555 95.9069 76.2828 93.0059 82.44 91.2924L82.8059 91.1905V90.8107V82.9571C82.8059 81.3548 84.1241 80.0479 85.78 80.0479H96.5122C98.1681 80.0479 99.4862 81.3548 99.4862 82.9571V89.106V89.5476L99.9244 89.6022C101.867 89.8443 104.375 90.2372 106.809 90.8249C109.252 91.4147 111.576 92.1908 113.182 93.1823C114.249 93.8647 114.773 95.115 114.511 96.3012C114.511 96.302 114.511 96.3027 114.511 96.3035L111.906 107.562L111.904 107.571L111.902 107.581C111.748 108.39 111.234 109.061 110.486 109.484C109.726 109.853 108.818 109.952 108.034 109.7C108.014 109.692 107.996 109.686 107.99 109.684L107.988 109.683C107.962 109.674 107.928 109.663 107.887 109.65C107.804 109.623 107.688 109.586 107.541 109.54C107.247 109.449 106.828 109.324 106.31 109.176C105.275 108.881 103.841 108.498 102.213 108.13C98.9722 107.398 94.9111 106.714 91.7015 106.932L91.7005 106.932C91.2488 106.964 90.6009 107.044 90.0197 107.269C89.4506 107.489 88.8311 107.895 88.6466 108.642C88.324 109.775 88.995 111.313 90.5429 112.24C94.1482 114.518 99.0423 116.438 102.717 117.88C102.822 117.921 102.925 117.961 103.027 118.002C103.161 118.056 103.292 118.109 103.422 118.161C105.348 118.939 106.86 119.55 107.887 120.053C109.692 120.999 118.627 126.39 117.355 139.588C116.325 150.168 108.146 157.027 99.9316 158.997L99.5452 159.09L99.5483 159.487L99.6103 167.463L99.6104 167.478L99.6114 167.493C99.6621 168.239 99.3619 168.954 98.7675 169.537C98.1745 170.119 97.4302 170.429 96.6363 170.429H85.904C84.2482 170.429 82.93 169.122 82.93 167.52V160.64V160.198L82.4917 160.144C78.0862 159.596 70.4913 158.325 65.2567 155.159ZM73.1808 144.649L72.6756 144.454L72.5213 144.973L70.7843 150.818L70.6558 151.25L71.0724 151.422C76.2983 153.585 83.5604 154.442 86.2535 154.565L86.2599 154.565C87.8457 154.617 89.0642 155.912 89.0642 157.474V164.049V164.549H89.5642H93.2863H93.7905L93.7863 164.045L93.7243 156.622C93.7243 156.621 93.7243 156.621 93.7243 156.62C93.7254 155.123 94.9437 153.816 96.4839 153.712L96.4874 153.711C103.195 153.21 110.754 147.886 111.588 139.136L111.588 139.136C112.484 129.655 106.511 126.029 105.241 125.372L105.241 125.372L105.231 125.368C104.463 124.991 102.767 124.313 101.037 123.647C101.036 123.646 101.035 123.646 101.035 123.646L100.801 123.552C96.8466 121.976 91.6232 119.894 87.5325 117.356L87.5315 117.355C83.8453 115.08 82.1083 111.09 83.0379 107.435C83.9654 103.97 87.0999 101.587 91.4588 101.294L91.4619 101.294C96.3348 100.935 102.468 102.254 106.372 103.287L106.874 103.42L106.988 102.913L108.105 97.921L108.204 97.4779L107.772 97.3367C104.554 96.284 99.6082 95.5492 96.301 95.3042L96.2978 95.304C94.7569 95.1997 93.5382 93.8917 93.5382 92.3936V86.6099V86.1099H93.0382H89.316H88.816V86.6099V93.672C88.816 95.0163 87.8067 96.2696 86.4317 96.5291L86.4317 96.529L86.4234 96.5308C80.9135 97.6675 76.9118 99.5885 74.4363 102.463C71.9469 105.353 71.066 109.129 71.6354 113.82C72.0657 117.675 75.196 120.829 78.7988 123.184C82.4255 125.554 86.662 127.201 89.5532 128.003C91.9578 128.677 95.2748 129.615 97.7379 131.481C98.9599 132.407 99.9526 133.548 100.521 134.983C101.088 136.413 101.248 138.177 100.74 140.376L100.74 140.376C99.9026 144.002 96.8119 146.018 92.8848 146.942C88.9638 147.865 84.3398 147.66 80.7289 146.939L80.7233 146.938C77.8549 146.399 75.2227 145.439 73.1808 144.649Z" fill="#B1B1B1" stroke="#C9C9C9"/>
    </g>
</svg>
