<svg width="137" height="185" viewBox="0 0 137 185" fill="none" xmlns="http://www.w3.org/2000/svg">
<path d="M70.1817 181.706L62.8898 115.431C62.7278 113.81 61.4314 111.866 59.9731 111.056L2.28619 77.5129C0.827817 76.7027 -0.144436 77.3508 0.0176053 78.9712L7.30949 145.084C7.47153 146.705 8.76787 148.649 10.2262 149.459L67.9131 183.002C69.3715 183.974 70.3438 183.326 70.1817 181.706Z" fill="#F05359"/>
<path d="M75.5292 183.644L130.947 146.536C132.244 145.564 133.54 143.619 133.54 141.999L136.619 75.3996C136.619 73.7792 135.647 73.131 134.35 74.1033L78.9321 111.211C77.6357 112.183 76.3394 114.128 76.3394 115.748L73.2606 182.347C73.0986 183.968 74.2329 184.616 75.5292 183.644Z" fill="url(#paint0_linear)"/>
<path d="M127.543 68.0804C128.073 68.7294 127.849 69.2727 127.012 69.1851L119.674 68.8491L115.994 63.9848L117.947 64.0543C118.17 64.0506 118.282 63.8464 118.17 63.6459L115.828 60.6485C115.801 60.5647 115.661 60.5501 115.605 60.5173L113.373 60.4186L110.446 56.6045L118.705 57.0099C118.789 56.9916 118.9 57.0573 118.928 57.1411L127.543 68.0804Z" fill="#F05359"/>
<path d="M120.237 70.4423C120.321 70.5594 120.237 70.713 120.069 70.7495L116.235 70.5916C116.151 70.6099 116.095 70.577 116.067 70.4929L114.921 68.9384L119.258 69.1219L120.237 70.4423Z" fill="#565656"/>
<path d="M119.438 69.1284L115.113 68.9458L111.433 64.0815L115.758 64.2641L119.438 69.1284Z" fill="#565656"/>
<path d="M115.096 69.2677L106.193 68.8221C105.607 68.8147 104.826 68.3551 104.407 67.9065L101.619 64.3758C101.479 64.2262 101.563 63.9381 101.842 63.9673L111.415 64.4021L115.096 69.2677Z" fill="#F05359"/>
<path d="M115.999 64.2765L111.671 64.0936L109.05 60.5255L113.293 60.7265L115.999 64.2765Z" fill="#565656"/>
<path d="M113.509 60.735L109.266 60.534L106.338 56.7187L110.664 56.9015L113.509 60.735Z" fill="#F05359"/>
<path d="M116.358 53.0687C116.498 53.2183 116.414 53.5066 116.134 53.4774L108.372 53.0972L106.113 50.0793L113.233 50.4194C113.819 50.4267 114.628 50.8355 115.019 51.3354L116.358 53.0687Z" fill="#F05359"/>
<path d="M109.436 60.8736L99.2722 60.4312C99.1885 60.4494 99.0768 60.3837 99.049 60.2998L91.8512 51.2026C91.3211 50.5531 91.5448 50.0094 92.4104 50.046L101.625 50.4701L103.884 53.4879L100.143 53.3124C99.9193 53.316 99.8075 53.5204 99.9191 53.7211L102.263 56.7206C102.29 56.8045 102.43 56.8191 102.486 56.852L106.507 57.0567L109.436 60.8736Z" fill="#F05359"/>
<path d="M110.877 56.9132L106.549 56.7304L103.9 53.2133L108.171 53.3633L110.877 56.9132Z" fill="#565656"/>
<path d="M108.36 53.3749L104.088 53.2249L101.829 50.2073L106.128 50.4412L108.36 53.3749Z" fill="#565656"/>
<path d="M104.979 48.7414L106.209 50.4128L101.956 50.211L100.978 48.8908C100.894 48.7737 100.978 48.6201 101.146 48.5836L104.812 48.6427C104.868 48.6756 104.924 48.7085 104.979 48.7414Z" fill="#565656"/>
<path d="M85.3367 74.5492C86.3886 74.9875 86.4762 75.8641 85.4244 76.39L76.4835 81.5617L68.9451 78.0554L71.3118 76.653C71.5747 76.4777 71.5747 76.127 71.3118 75.9517L66.5784 73.848C66.4907 73.7603 66.3154 73.848 66.2277 73.848L63.5104 75.4258L57.5498 72.7085L67.6302 66.9232C67.7179 66.8355 67.8932 66.8355 67.9809 66.9232L85.3367 74.5492Z" fill="#F05359"/>
<path d="M78.4991 82.5267C78.6744 82.6144 78.6744 82.8773 78.4991 83.0526L73.8533 85.77C73.7657 85.8576 73.678 85.8576 73.5903 85.77L71.2236 84.6305L76.483 81.5625L78.4991 82.5267Z" fill="#565656"/>
<path d="M76.4843 81.5609L71.2249 84.6289L63.6865 81.1226L68.9459 78.0547L76.4843 81.5609Z" fill="#565656"/>
<path d="M71.2238 84.6332L60.3545 90.8568C59.6532 91.295 58.426 91.295 57.6371 91.0321L52.0272 88.5777C51.7642 88.49 51.6765 88.0518 52.0272 87.8764L63.6854 81.127L71.2238 84.6332Z" fill="#F05359"/>
<path d="M68.944 78.0576L63.6847 81.1256L58.25 78.4959L63.4217 75.5156L68.944 78.0576Z" fill="#565656"/>
<path d="M63.4233 75.5159L58.2516 78.4962L52.291 75.7789L57.5504 72.7109L63.4233 75.5159Z" fill="#F05359"/>
<path d="M61.4934 64.0314C61.7564 64.1191 61.8441 64.5574 61.4934 64.7327L52.0266 70.1673L47.3809 67.9759L56.0588 62.9796C56.76 62.5413 57.9872 62.4536 58.7761 62.8042L61.4934 64.0314Z" fill="#F05359"/>
<path d="M58.2506 78.4896L45.8911 85.6773C45.8034 85.765 45.6281 85.765 45.5405 85.6773L31.0773 79.3661C30.0254 78.9278 29.9377 78.0513 30.9896 77.4377L42.2095 70.9512L46.8553 73.1426L42.2972 75.7722C42.0342 75.9476 42.0342 76.2982 42.2972 76.4735L47.0306 78.5772C47.1183 78.6649 47.2936 78.5772 47.3813 78.5772L52.29 75.7722L58.2506 78.4896Z" fill="#F05359"/>
<path d="M57.5495 72.7119L52.2901 75.7799L46.8555 73.2379L52.0272 70.1699L57.5495 72.7119Z" fill="#565656"/>
<path d="M52.0274 70.1682L46.8557 73.2361L42.21 71.0447L47.4693 68.0645L52.0274 70.1682Z" fill="#565656"/>
<path d="M44.8388 66.8359L47.3808 68.0631L42.2091 71.0434L40.193 70.0792C40.0177 69.9916 40.0177 69.7286 40.193 69.5533L44.5758 66.8359C44.6635 66.8359 44.7511 66.8359 44.8388 66.8359Z" fill="#565656"/>
<path d="M33.1901 63.1794C33.354 63.9669 32.8616 64.4014 32.1169 64.0374L25.3641 61.251L24.4096 55.4472L26.2172 56.17C26.4298 56.2418 26.641 56.0878 26.6397 55.8621L25.9814 52.2608C25.9985 52.1727 25.8744 52.112 25.8387 52.0625L23.7828 51.2183L22.9949 46.6534L30.5808 49.8149C30.6693 49.826 30.7406 49.9251 30.7234 50.0132L33.1901 63.1794Z" fill="#F05359"/>
<path d="M25.9008 62.6672C25.9192 62.8046 25.7612 62.9199 25.5847 62.8978L22.0659 61.4652C21.9776 61.4541 21.9421 61.4046 21.9592 61.3167L21.6835 59.4801L25.662 61.1055L25.9008 62.6672Z" fill="#565656"/>
<path d="M25.5356 61.103L21.5478 59.4753L20.5933 53.6715L24.581 55.2992L25.5356 61.103Z" fill="#565656"/>
<path d="M21.5549 59.3088L13.3856 55.894C12.8364 55.6898 12.3373 54.9957 12.1748 54.4341L11.3713 50.1835C11.3171 49.9963 11.5454 49.7543 11.7936 49.8756L20.6005 53.5057L21.5549 59.3088Z" fill="#F05359"/>
<path d="M24.403 55.2944L20.4169 53.6671L19.7904 49.4393L23.688 51.0555L24.403 55.2944Z" fill="#565656"/>
<path d="M23.5327 51.0492L19.6344 49.4328L18.8466 44.8685L22.8334 46.496L23.5327 51.0492Z" fill="#F05359"/>
<path d="M29.366 45.0533C29.4201 45.2404 29.1919 45.4824 28.9438 45.3611L21.8226 42.3937L21.2531 38.8047L27.7896 41.5184C28.3386 41.7225 28.8903 42.378 29 42.978L29.366 45.0533Z" fill="#F05359"/>
<path d="M19.5189 49.25L10.166 45.4165C10.0776 45.4055 10.0063 45.3063 10.0234 45.2183L7.94263 34.2693C7.77882 33.4821 8.27094 33.0477 9.06805 33.3731L17.5354 36.8701L18.1049 40.4591L14.6684 39.0361C14.4559 38.9643 14.2448 39.1183 14.2462 39.3439L14.9041 42.944C14.887 43.0321 15.0111 43.0927 15.0467 43.1423L18.7314 44.6866L19.5189 49.25Z" fill="#F05359"/>
<path d="M22.6822 46.4898L18.6962 44.8625L18.0169 40.6731L21.9673 42.2508L22.6822 46.4898Z" fill="#565656"/>
<path d="M21.8327 42.2466L17.8825 40.669L17.313 37.0798L21.246 38.7456L21.8327 42.2466Z" fill="#565656"/>
<path d="M20.8181 36.7161L21.1123 38.6903L17.2216 37.0758L16.9828 35.5141C16.9644 35.3767 17.1224 35.2614 17.299 35.2835L20.7113 36.5676C20.7469 36.6171 20.7825 36.6666 20.8181 36.7161Z" fill="#565656"/>
<path d="M87.2551 26.313C88.0593 26.1497 88.4168 26.6182 87.946 27.3349L84.1872 33.8296L78.2974 34.7903L79.2808 33.0519C79.3833 32.8476 79.2621 32.6463 79.0383 32.6494L75.3739 33.3088C75.2892 33.2931 75.2107 33.4125 75.1563 33.4471L74.016 35.4244L69.378 36.2157L73.6316 28.9194C73.6557 28.8345 73.7645 28.7654 73.8492 28.7811L87.2551 26.313Z" fill="#F05359"/>
<path d="M86.0417 33.9064C86.1811 33.8875 86.2723 34.0388 86.224 34.209L84.2764 37.6096C84.2523 37.6947 84.1977 37.7293 84.1128 37.7136L82.2455 37.9938L84.4532 34.1488L86.0417 33.9064Z" fill="#565656"/>
<path d="M84.4557 34.0119L82.2536 37.847L76.3638 38.8077L78.5659 34.9726L84.4557 34.0119Z" fill="#565656"/>
<path d="M82.5664 37.8624L77.9739 45.7231C77.6903 46.2513 76.9287 46.7354 76.3482 46.8957L72.0177 47.6998C71.8242 47.7532 71.6182 47.5362 71.7751 47.2972L76.6753 38.8234L82.5664 37.8624Z" fill="#F05359"/>
<path d="M78.5791 34.7888L76.376 38.6257L72.0927 39.2601L74.2717 35.5082L78.5791 34.7888Z" fill="#565656"/>
<path d="M74.2824 35.3436L72.1038 39.0948L67.4646 39.8863L69.6673 36.0502L74.2824 35.3436Z" fill="#F05359"/>
<path d="M68.8616 29.1892C69.0552 29.1358 69.2613 29.3529 69.1043 29.5919L65.1077 36.4491L61.4651 37.024L65.1236 30.7299C65.4073 30.2014 66.1388 29.6668 66.7499 29.5568L68.8616 29.1892Z" fill="#F05359"/>
<path d="M72.4318 38.9618L67.2461 47.9673C67.222 48.0522 67.1132 48.1214 67.0284 48.1057L55.8654 50.189C55.0607 50.3524 54.7029 49.8836 55.1436 49.1161L59.8645 40.9631L63.5071 40.3882L61.5873 43.6972C61.4847 43.9017 61.606 44.103 61.83 44.0999L65.4966 43.4401C65.5813 43.4558 65.6598 43.3363 65.7142 43.3017L67.791 39.7536L72.4318 38.9618Z" fill="#F05359"/>
<path d="M69.6758 35.8864L67.4727 39.7234L63.2197 40.4081L65.3684 36.6058L69.6758 35.8864Z" fill="#565656"/>
<path d="M65.3811 36.4589L63.2322 40.2616L59.5899 40.8365L61.8235 37.0495L65.3811 36.4589Z" fill="#565656"/>
<path d="M59.7683 37.2771L61.7749 36.9781L59.5915 40.7376L58.0032 40.98C57.8637 40.9989 57.7726 40.8476 57.8208 40.6774L59.6047 37.3811C59.6592 37.3464 59.7138 37.3118 59.7683 37.2771Z" fill="#565656"/>
<path d="M48.3689 24.1082C48.5522 24.5758 48.3005 24.874 47.8105 24.7041L43.4232 23.4761L42.2251 20.0128L43.3971 20.3275C43.5335 20.3564 43.645 20.2482 43.62 20.111L42.8366 17.9665C42.8376 17.9118 42.7559 17.8835 42.7291 17.8558L41.3937 17.4845L40.4289 14.763L45.3609 16.1614C45.4157 16.1621 45.4694 16.2175 45.4685 16.2722L48.3689 24.1082Z" fill="#F05359"/>
<path d="M43.7514 24.3981C43.7773 24.4805 43.6937 24.5617 43.5842 24.5604L41.2954 23.9317C41.2407 23.9311 41.2138 23.9034 41.2148 23.8487L40.851 22.7495L43.4395 23.4638L43.7514 24.3981Z" fill="#565656"/>
<path d="M43.4319 23.4665L40.8429 22.7521L39.6447 19.2887L42.2337 20.0031L43.4319 23.4665Z" fill="#565656"/>
<path d="M40.8439 22.7423L35.5305 21.2299C35.1761 21.1437 34.7996 20.756 34.6411 20.4257L33.7003 17.8961C33.6474 17.786 33.7599 17.6231 33.9232 17.6797L39.6458 19.2789L40.8439 22.7423Z" fill="#F05359"/>
<path d="M42.2228 20.0042L39.6339 19.2899L38.8025 16.7616L41.3367 17.4754L42.2228 20.0042Z" fill="#565656"/>
<path d="M41.3303 17.4739L38.7961 16.7602L37.8313 14.0387L40.4202 14.7531L41.3303 17.4739Z" fill="#F05359"/>
<path d="M44.3727 13.325C44.4255 13.4351 44.3131 13.5981 44.1498 13.5414L39.5177 12.2286L38.789 10.0848L43.0398 11.2838C43.3942 11.37 43.7986 11.7306 43.9292 12.088L44.3727 13.325Z" fill="#F05359"/>
<path d="M38.7907 16.7473L32.7138 15.0619C32.6591 15.0613 32.6053 15.0059 32.6063 14.9512L30.1754 8.43488C29.992 7.96736 30.2438 7.66914 30.7616 7.812L36.266 9.35394L36.9946 11.4977L34.7602 10.8696C34.6238 10.8407 34.5123 10.9489 34.5372 11.086L35.3206 13.2304C35.3197 13.2852 35.4013 13.3135 35.4282 13.3412L37.8259 14.0259L38.7907 16.7473Z" fill="#F05359"/>
<path d="M40.4122 14.7523L37.8233 14.0379L36.9641 11.5368L39.5261 12.2234L40.4122 14.7523Z" fill="#565656"/>
<path d="M39.5189 12.221L36.9569 11.5343L36.2283 9.39054L38.7893 10.1319L39.5189 12.221Z" fill="#565656"/>
<path d="M38.3658 8.92676L38.7555 10.1083L36.2217 9.3947L35.9098 8.4604C35.8839 8.37798 35.9675 8.29683 36.077 8.29809L38.2852 8.84371C38.3121 8.87139 38.3389 8.89907 38.3658 8.92676Z" fill="#565656"/>
<defs>
<linearGradient id="paint0_linear" x1="73.2468" y1="128.9" x2="136.776" y2="128.9" gradientUnits="userSpaceOnUse">
<stop offset="0.3007" stop-color="#A51D30"/>
<stop offset="1" stop-color="#F05359"/>
</linearGradient>
</defs>
</svg>
