<svg width="108" height="108" viewBox="0 0 108 108" fill="none" xmlns="http://www.w3.org/2000/svg">
<g clip-path="url(#clip0)">
<path d="M4.16643 60.206C3.6199 59.1772 4.01076 57.9002 5.0395 57.3535C16.8589 51.0726 31.2771 52.5789 41.5193 60.9955L44.9274 57.5874L39.3614 52.0214C38.5377 51.1977 38.5377 49.862 39.3614 49.0381C40.1853 48.2144 41.5206 48.2144 42.3447 49.0381L47.9107 54.6041L61.491 41.0238C58.402 36.8812 56.4587 32.0153 55.8459 26.8341C55.1399 20.8612 56.2636 14.8866 59.096 9.5569C59.6426 8.52816 60.92 8.1375 61.9485 8.68404C62.9773 9.23079 63.3679 10.5078 62.8214 11.5365C58.2782 20.0858 58.9893 30.2373 64.5103 38.0044L73.4598 29.055C74.7155 27.7993 76.5004 27.2783 78.2347 27.6603C79.9691 28.0428 81.3692 29.2664 81.9805 30.9338L107.677 101.035C108.379 102.95 107.919 105.035 106.477 106.477C105.481 107.473 104.179 108 102.838 108C102.236 108 101.627 107.894 101.035 107.677L30.9343 81.9803C29.2668 81.3692 28.0432 79.9688 27.6606 78.2347C27.2783 76.5004 27.7996 74.7154 29.0553 73.4597L38.5179 63.9969C29.6052 56.8854 17.2061 55.6655 7.01893 61.079C5.99041 61.6258 4.71339 61.2347 4.16643 60.206V60.206ZM74.4029 93.4211L93.4211 74.4028L88.1515 60.0273L60.0273 88.1515L74.4029 93.4211ZM84.7107 97.1996L97.1996 84.7107L95.0215 78.7688L78.7688 95.0215L84.7107 97.1996ZM102.487 103.716C102.987 103.899 103.332 103.655 103.494 103.494C103.656 103.332 103.899 102.987 103.716 102.487L98.8002 89.0766L89.0769 98.8L102.487 103.716ZM31.7804 77.3262C31.8226 77.5175 31.9573 77.862 32.386 78.0191L45.3537 82.7726L57.3512 70.7749C58.1749 69.951 59.5105 69.9512 60.3342 70.7747C61.1579 71.5984 61.1581 72.9341 60.3344 73.7578L49.7197 84.3728L55.6616 86.5509L86.5511 55.6613L84.373 49.7194L73.758 60.3342C73.3463 60.7462 72.8063 60.952 72.2665 60.952C71.7267 60.952 71.1867 60.746 70.775 60.3342C69.9512 59.5105 69.9512 58.1748 70.7752 57.3511L82.7726 45.3537L78.0192 32.3859C77.862 31.9573 77.5175 31.8225 77.326 31.7801C77.2678 31.7673 77.1929 31.7563 77.1079 31.7563C76.9141 31.7563 76.667 31.8137 76.4426 32.0383L32.0383 76.4426C31.7156 76.7655 31.7382 77.1349 31.7804 77.3262V77.3262Z" fill="#C9C9C9"/>
<path d="M44.3821 16.8337C43.2171 16.8337 42.2727 15.8893 42.2727 14.7243C42.2727 12.9577 40.8354 11.5206 39.0688 11.5206C34.9762 11.5206 31.6463 8.19096 31.6463 4.09814C31.6463 2.93314 32.5909 1.98877 33.7557 1.98877C34.9205 1.98877 35.8651 2.93314 35.8651 4.09814C35.8651 5.86475 37.3024 7.30186 39.0688 7.30186C43.1616 7.30186 46.4915 10.6315 46.4915 14.7243C46.4915 15.8893 45.5469 16.8337 44.3821 16.8337Z" fill="#C9C9C9"/>
<path d="M25.6674 36.7452C21.4404 36.7452 18.0015 33.3063 18.0015 29.0795C18.0015 27.179 16.4553 25.6326 14.5545 25.6326C13.3897 25.6326 12.4452 24.6882 12.4452 23.5232C12.4452 22.3582 13.3897 21.4138 14.5545 21.4138C18.7813 21.4138 22.2202 24.8527 22.2202 29.0795C22.2202 30.98 23.7666 32.5264 25.6674 32.5264C26.8322 32.5264 27.7767 33.4708 27.7767 34.6358C27.7767 35.8008 26.8322 36.7452 25.6674 36.7452Z" fill="#C9C9C9"/>
<path d="M13.5 40.8132C13.5 44.5352 10.472 47.5632 6.75 47.5632C3.02801 47.5632 0 44.5352 0 40.8132C0 37.0912 3.02801 34.0632 6.75 34.0632C10.472 34.0632 13.5 37.0912 13.5 40.8132V40.8132ZM6.75 38.282C5.35423 38.282 4.21875 39.4175 4.21875 40.8132C4.21875 42.209 5.35423 43.3445 6.75 43.3445C8.14577 43.3445 9.28125 42.209 9.28125 40.8132C9.28125 39.4175 8.14577 38.282 6.75 38.282Z" fill="#C9C9C9"/>
<path d="M41.5317 35.8286C37.8098 35.8286 34.7817 32.8006 34.7817 29.0786C34.7817 25.3566 37.8098 22.3286 41.5317 22.3286C45.2537 22.3286 48.2817 25.3566 48.2817 29.0786C48.2817 32.8006 45.2535 35.8286 41.5317 35.8286ZM41.5317 26.5474C40.136 26.5474 39.0005 27.6828 39.0005 29.0786C39.0005 30.4744 40.136 31.6099 41.5317 31.6099C42.9275 31.6099 44.063 30.4744 44.063 29.0786C44.063 27.6828 42.9275 26.5474 41.5317 26.5474Z" fill="#C9C9C9"/>
<path d="M80.9995 13.5C77.2775 13.5 74.2495 10.472 74.2495 6.75C74.2495 3.02801 77.2775 0 80.9995 0C84.7215 0 87.7495 3.02801 87.7495 6.75C87.7495 10.472 84.7215 13.5 80.9995 13.5ZM80.9995 4.21875C79.6037 4.21875 78.4683 5.35423 78.4683 6.75C78.4683 8.14577 79.6037 9.28125 80.9995 9.28125C82.3953 9.28125 83.5308 8.14577 83.5308 6.75C83.5308 5.35423 82.3953 4.21875 80.9995 4.21875Z" fill="#C9C9C9"/>
<path d="M12.5501 74.0521C13.3736 73.2284 14.7088 73.2284 15.5333 74.0519C16.3571 74.8756 16.3571 76.2113 15.5333 77.035L13.5446 79.0237C13.1327 79.4357 12.5929 79.6415 12.0531 79.6415C11.5133 79.6415 10.9735 79.4355 10.5616 79.0237C9.73785 78.2 9.73785 76.8643 10.5616 76.0406L12.5501 74.0521Z" fill="#C9C9C9"/>
<path d="M2.60658 83.9945C3.4305 83.1708 4.76573 83.1708 5.58986 83.9945C6.41357 84.8182 6.41357 86.1539 5.58986 86.9778L3.60115 88.9665C3.18919 89.3785 2.6494 89.5843 2.10961 89.5843C1.56982 89.5843 1.03004 89.3785 0.61808 88.9665C-0.205629 88.1428 -0.205629 86.8071 0.61808 85.9832L2.60658 83.9945Z" fill="#C9C9C9"/>
<path d="M3.60115 74.0519L5.58986 76.0407C6.41357 76.8644 6.41357 78.2 5.58986 79.0237C5.1779 79.4357 4.63812 79.6416 4.09833 79.6416C3.55854 79.6416 3.01854 79.4355 2.60679 79.0237L0.61808 77.035C-0.205629 76.2113 -0.205629 74.8757 0.61808 74.0519C1.44179 73.228 2.77744 73.2282 3.60115 74.0519V74.0519Z" fill="#C9C9C9"/>
<path d="M13.5446 83.9945L15.5333 85.9832C16.3571 86.8069 16.3571 88.1426 15.5333 88.9665C15.1214 89.3785 14.5816 89.5843 14.0418 89.5843C13.5018 89.5843 12.9622 89.3785 12.5503 88.9665L10.5616 86.9778C9.73785 86.1541 9.73785 84.8184 10.5616 83.9945C11.3855 83.1708 12.7207 83.1708 13.5446 83.9945V83.9945Z" fill="#C9C9C9"/>
<path d="M4.09812 6.20766C3.55833 6.20766 3.01834 6.00179 2.60659 5.58982L0.617873 3.60111C-0.205835 2.77739 -0.205835 1.44174 0.617873 0.618027C1.44179 -0.205684 2.77744 -0.205684 3.60115 0.618027L5.58986 2.60675C6.41357 3.43046 6.41357 4.76611 5.58986 5.58982C5.17769 6.00179 4.63812 6.20766 4.09812 6.20766V6.20766Z" fill="#C9C9C9"/>
<path d="M14.0418 16.152C13.5018 16.152 12.9623 15.9461 12.5503 15.5341L10.5616 13.5454C9.73787 12.7217 9.73787 11.386 10.5616 10.5621C11.3855 9.73841 12.7207 9.73841 13.5449 10.5621L15.5336 12.5508C16.3573 13.3745 16.3573 14.7102 15.5336 15.5341C15.1214 15.9461 14.5816 16.152 14.0418 16.152Z" fill="#C9C9C9"/>
<path d="M2.60658 10.5604C3.4305 9.7367 4.76573 9.7367 5.58986 10.5604C6.41357 11.3841 6.41357 12.7198 5.58986 13.5437L3.60115 15.5324C3.18919 15.9444 2.6494 16.1503 2.10961 16.1503C1.56982 16.1503 1.03004 15.9444 0.61808 15.5324C-0.205629 14.7087 -0.205629 13.3731 0.61808 12.5491L2.60658 10.5604Z" fill="#C9C9C9"/>
<path d="M13.5447 5.58982C13.1327 6.00179 12.5929 6.20766 12.0531 6.20766C11.5133 6.20766 10.9735 6.00179 10.5616 5.58982C9.73787 4.76611 9.73787 3.43046 10.5616 2.60675L12.5503 0.618027C13.3738 -0.205684 14.709 -0.205684 15.5336 0.618027C16.3573 1.44174 16.3573 2.77739 15.5336 3.60111L13.5447 5.58982Z" fill="#C9C9C9"/>
<path d="M65.5551 63.4451C66.1098 63.4451 66.654 63.6708 67.0464 64.0631C67.4387 64.4555 67.6644 64.9997 67.6644 65.5544C67.6644 66.1092 67.4387 66.6534 67.0464 67.0458C66.654 67.4381 66.1098 67.6638 65.5551 67.6638C65.0003 67.6638 64.4561 67.4381 64.0637 67.0458C63.6714 66.6534 63.4457 66.1092 63.4457 65.5544C63.4457 64.9997 63.6714 64.4555 64.0637 64.0631C64.4561 63.6708 65.0003 63.4451 65.5551 63.4451Z" fill="#C9C9C9"/>
<path d="M34.7801 41.4747L36.3093 43.004C37.1331 43.8277 37.1331 45.1634 36.3093 45.9873C35.8974 46.3993 35.3576 46.6051 34.8178 46.6051C34.278 46.6051 33.7382 46.3993 33.3263 45.9873L31.797 44.458C30.9733 43.6343 30.9733 42.2986 31.797 41.4747C32.6209 40.651 33.9561 40.651 34.7801 41.4747V41.4747Z" fill="#C9C9C9"/>
</g>
<defs>
<clipPath id="clip0">
<rect width="108" height="108" fill="white" transform="matrix(-1 0 0 1 108 0)"/>
</clipPath>
</defs>
</svg>
