<svg width="104" height="78" viewBox="0 0 104 78" fill="none" xmlns="http://www.w3.org/2000/svg">
<g opacity="0.9">
<path d="M28.5104 31.4088L28.5246 31.4166L28.5392 31.4235C29.0728 31.6741 29.4101 32.2223 29.4101 32.8234V74.645C29.4101 75.537 28.7344 76.2221 27.8969 76.2221H4.29051C3.4762 76.2221 2.77734 75.5325 2.77734 74.645V52.1624C2.77734 51.6932 2.98719 51.245 3.3413 50.9472C3.34191 50.9467 3.34252 50.9462 3.34313 50.9457L26.9412 31.5855C27.4099 31.2192 28.0471 31.1533 28.5104 31.4088ZM25.8837 73.0961H26.3837V72.5961V37.1178V36.0603L25.5664 36.7314L6.01395 52.7864L5.83124 52.9365V53.1729V72.5961V73.0961H6.33124H25.8837Z" fill="url(#paint0_linear)" stroke="url(#paint1_linear)"/>
<path d="M43.8554 19.099L43.8554 19.099L43.8581 19.0973C44.4755 18.6992 45.2607 18.7952 45.7917 19.3326L63.2967 37.9347C63.5683 38.2337 63.7152 38.6171 63.7152 39.0265V74.6731C63.7152 75.5561 63.0207 76.2501 62.1745 76.2501H38.5681C37.7218 76.2501 37.0273 75.5561 37.0273 74.6731V24.2906C37.0273 23.7543 37.3024 23.2483 37.7503 22.9789L37.7503 22.979L37.7608 22.9724L43.8554 19.099ZM60.1613 73.0961H60.6613V72.5961V39.8404V39.6421L60.5254 39.4977L44.7234 22.7129L44.4399 22.4118L44.091 22.6338L40.3405 25.0196L40.1088 25.1669V25.4414V72.5961V73.0961H40.6088H60.1613Z" fill="url(#paint2_linear)" stroke="url(#paint3_linear)"/>
<path d="M86.5403 22.8337L86.5341 22.8396L86.528 22.8458L71.057 38.592C70.6859 38.9697 70.5 39.462 70.5 39.9529V75.2627C70.5 76.3445 71.3499 77.2223 72.434 77.2223H87.905C88.9554 77.2223 89.8391 76.3508 89.8391 75.2627V24.2347C89.8391 23.445 89.3611 22.7311 88.6535 22.4279L88.6536 22.4278L88.6451 22.4243C87.8995 22.1208 87.0867 22.3147 86.5403 22.8337ZM85.971 73.3312H74.3405V40.7749L85.971 28.9375V73.3312Z" fill="url(#paint4_linear)" stroke="url(#paint5_linear)"/>
<path d="M66.3328 25.8677L66.639 26.1938L66.9971 25.9257C70.3229 23.435 73.6462 20.9444 76.9684 18.4545C84.8035 12.5826 92.6326 6.71508 100.476 0.861248C100.982 0.483303 101.432 0.442748 101.797 0.554837C102.183 0.672959 102.544 0.983302 102.796 1.42674C103.305 2.32226 103.267 3.54977 102.3 4.30119C96.4899 8.64912 90.6863 12.9901 84.8828 17.3311L84.8197 17.3783C78.9939 21.7358 73.1681 26.0935 67.3354 30.4581C67.0629 30.6612 66.6553 30.7365 66.2056 30.6632C65.7562 30.5899 65.3458 30.3798 65.1031 30.1224L45.579 9.32471L45.2812 9.00748L44.9259 9.25862C31.0355 19.0763 17.1177 28.922 3.19995 38.7676L3.17327 38.7865L3.17101 38.7881C2.66071 39.1534 2.20225 39.1895 1.8258 39.0709C1.43089 38.9464 1.0653 38.6312 0.814301 38.1922C0.30734 37.3055 0.360085 36.1193 1.35079 35.4213L1.35181 35.4205L1.35927 35.4152C15.7799 25.2001 30.2002 14.9853 44.6205 4.79851L44.6247 4.79543C44.9235 4.57967 45.3359 4.49901 45.7699 4.56212C46.2046 4.62532 46.6064 4.82582 46.8636 5.09776C53.3443 12.0306 59.825 18.9353 66.3328 25.8677Z" fill="url(#paint6_linear)" stroke="url(#paint7_linear)"/>
</g>
<defs>
<linearGradient id="paint0_linear" x1="2.25161" y1="34.7243" x2="41.4661" y2="55.9392" gradientUnits="userSpaceOnUse">
<stop offset="0.146744" stop-color="#A8ABB1"/>
<stop offset="1" stop-color="#38579D" stop-opacity="0.6"/>
</linearGradient>
<linearGradient id="paint1_linear" x1="2.25161" y1="34.7243" x2="41.4661" y2="55.9392" gradientUnits="userSpaceOnUse">
<stop offset="0.146744" stop-color="#A8ABB1"/>
<stop offset="1" stop-color="#38579D" stop-opacity="0.6"/>
</linearGradient>
<linearGradient id="paint2_linear" x1="36.5016" y1="23.3958" x2="79.4711" y2="41.7306" gradientUnits="userSpaceOnUse">
<stop offset="0.146744" stop-color="#A8ABB1"/>
<stop offset="1" stop-color="#38579D" stop-opacity="0.6"/>
</linearGradient>
<linearGradient id="paint3_linear" x1="36.5016" y1="23.3958" x2="79.4711" y2="41.7306" gradientUnits="userSpaceOnUse">
<stop offset="0.146744" stop-color="#A8ABB1"/>
<stop offset="1" stop-color="#38579D" stop-opacity="0.6"/>
</linearGradient>
<linearGradient id="paint4_linear" x1="70.9829" y1="27.4383" x2="101.746" y2="36.8506" gradientUnits="userSpaceOnUse">
<stop offset="0.146744" stop-color="#A8ABB1"/>
<stop offset="1" stop-color="#38579D" stop-opacity="0.6"/>
</linearGradient>
<linearGradient id="paint5_linear" x1="70.9829" y1="27.4383" x2="101.746" y2="36.8506" gradientUnits="userSpaceOnUse">
<stop offset="0.146744" stop-color="#A8ABB1"/>
<stop offset="1" stop-color="#38579D" stop-opacity="0.6"/>
</linearGradient>
<linearGradient id="paint6_linear" x1="-0.0964858" y1="3.42232" x2="28.9847" y2="71.849" gradientUnits="userSpaceOnUse">
<stop offset="0.146744" stop-color="#A8ABB1"/>
<stop offset="1" stop-color="#38579D" stop-opacity="0.6"/>
</linearGradient>
<linearGradient id="paint7_linear" x1="-0.0964858" y1="3.42232" x2="28.9847" y2="71.849" gradientUnits="userSpaceOnUse">
<stop offset="0.146744" stop-color="#A8ABB1"/>
<stop offset="1" stop-color="#38579D" stop-opacity="0.6"/>
</linearGradient>
</defs>
</svg>
