<svg width="189" height="189" viewBox="0 0 189 189" fill="none" xmlns="http://www.w3.org/2000/svg">
<path d="M94.31 188.62C146.396 188.62 188.62 146.396 188.62 94.31C188.62 42.224 146.396 0 94.31 0C42.224 0 0 42.224 0 94.31C0 146.396 42.224 188.62 94.31 188.62Z" fill="url(#paint0_linear)"/>
<g clip-path="url(#clip0)">
<path d="M72.7124 87.3021L49.0169 106.742C48.5463 107.137 48.2695 107.728 48.2695 108.348V130.916C48.2695 132.071 49.183 133.001 50.2903 133.001H73.9858C75.1207 133.001 76.0066 132.071 76.0066 130.916V88.9362C76.0066 88.1473 75.5637 87.4148 74.8439 87.0767C74.1796 86.7104 73.3214 86.8231 72.7124 87.3021ZM71.965 128.859H52.3387V109.362L71.965 93.2468V128.859Z" fill="white"/>
<path d="M89.7388 74.7373L83.6212 78.6253C83.0122 78.9916 82.6523 79.6678 82.6523 80.3721V130.945C82.6523 132.1 83.5658 133.03 84.7008 133.03H108.396C109.531 133.03 110.445 132.1 110.445 130.945V95.1636C110.445 94.6283 110.251 94.1211 109.891 93.7267L92.3132 75.0472C91.6212 74.3429 90.5693 74.202 89.7388 74.7373ZM106.376 128.86H86.7492V81.5273L90.5139 79.1325L106.376 95.9806V128.86Z" fill="white"/>
<path d="M132.854 78.9104L132.848 78.9164L132.842 78.9225L117.312 94.7282C116.94 95.107 116.754 95.6006 116.754 96.0929V131.536C116.754 132.621 117.606 133.501 118.693 133.501H134.223C135.276 133.501 136.162 132.627 136.162 131.536V80.3154C136.162 79.5235 135.683 78.8075 134.973 78.5035L134.973 78.5034L134.965 78.4999C134.217 78.1955 133.402 78.39 132.854 78.9104ZM132.283 129.599H120.605V96.9173L132.283 85.0313V129.599Z" fill="white" stroke="white"/>
<path d="M146.539 56.4511C135.328 64.8188 124.145 73.2147 112.934 81.6106C106.401 74.6516 99.8955 67.7207 93.3903 60.7617C92.6982 60.0292 91.3418 59.7756 90.4837 60.3954C76.0062 70.6227 61.5287 80.8781 47.0512 91.1335C44.5321 92.9084 46.9404 97.1346 49.4595 95.3314C63.4387 85.4423 77.418 75.5531 91.3695 65.6922C97.9024 72.6512 104.435 79.6102 110.968 86.5693C111.632 87.2736 113.044 87.5835 113.875 86.9637C125.584 78.2015 137.266 69.4675 148.975 60.7054C151.411 58.8177 149.03 54.5916 146.539 56.4511Z" fill="white"/>
</g>
<defs>
<linearGradient id="paint0_linear" x1="94.31" y1="0" x2="94.31" y2="188.62" gradientUnits="userSpaceOnUse">
<stop stop-color="#F05359"/>
<stop offset="1" stop-color="#F47B80"/>
</linearGradient>
<clipPath id="clip0">
<rect width="104" height="77" fill="white" transform="translate(46 56)"/>
</clipPath>
</defs>
</svg>
