<svg width="84" height="84" viewBox="0 0 84 84" fill="none" xmlns="http://www.w3.org/2000/svg">
<path d="M42.0125 0.458496C19.0744 0.458496 0.455044 19.0751 0.451393 42.0135C0.447742 64.9518 19.0612 83.5685 41.9993 83.5685C64.9373 83.5685 83.5567 64.9518 83.5604 42.0135C83.564 19.0751 64.9506 0.458496 42.0125 0.458496ZM42.0006 75.2575C23.6751 75.2575 8.75937 60.3392 8.76229 42.0135C8.76521 23.6877 23.6856 8.7695 42.0112 8.7695C60.3367 8.7695 75.2524 23.6877 75.2495 42.0135C75.2466 60.3392 60.3261 75.2575 42.0006 75.2575ZM54.4759 19.1582L54.4742 29.547H37.8524L37.8511 37.858H54.4729L54.4712 48.2467L69.0176 33.7025L54.4759 19.1582ZM29.5405 35.7802L14.9941 50.3245L29.5359 64.8687L29.5376 54.48H46.1594L46.1607 46.169H29.5389L29.5405 35.7802Z" fill="#FAEDED"/>
</svg>
