<svg width="179" height="173" viewBox="0 0 179 173" fill="none" xmlns="http://www.w3.org/2000/svg">
<path d="M88.5563 0.982392C39.6732 1.52467 0.419442 40.3253 0.936255 87.591C1.45307 134.857 41.5457 172.777 90.4288 172.235C139.312 171.692 178.566 132.892 178.049 85.6262C177.532 38.3605 137.439 0.440112 88.5563 0.982392ZM90.2416 155.11C51.1882 155.543 19.0604 125.156 18.6475 87.3945C18.2346 49.6333 49.6902 18.5409 88.7435 18.1076C127.797 17.6744 159.925 48.0615 160.338 85.8227C160.75 123.584 129.295 154.676 90.2416 155.11ZM115.545 39.2195L115.779 60.626L80.356 61.019L80.5433 78.1442L115.966 77.7512L116.2 99.1578L146.867 68.8448L115.545 39.2195ZM62.7852 74.0594L32.1182 104.372L63.4406 133.998L63.2065 112.591L98.6291 112.198L98.4418 95.073L63.0193 95.4659L62.7852 74.0594Z" fill="url(#paint0_linear)"/>
<defs>
<linearGradient id="paint0_linear" x1="-0.00322317" y1="16.7548" x2="175.861" y2="176.863" gradientUnits="userSpaceOnUse">
<stop offset="0.146744" stop-color="#A8ABB1"/>
<stop offset="1" stop-color="#38579D" stop-opacity="0.6"/>
</linearGradient>
</defs>
</svg>
