<svg width="21" height="21" viewBox="0 0 21 21" fill="none" xmlns="http://www.w3.org/2000/svg">
<path d="M12.0939 10.4999L20.3341 2.2597C20.5193 2.04346 20.6161 1.76531 20.6051 1.48083C20.5941 1.19635 20.4762 0.926494 20.2749 0.725186C20.0735 0.523878 19.8037 0.405946 19.5192 0.394958C19.2347 0.38397 18.9566 0.480735 18.7403 0.665914L10.5001 8.90611L2.25996 0.654611C2.04372 0.469431 1.76557 0.372667 1.48109 0.383655C1.19661 0.394644 0.926753 0.512574 0.725445 0.713882C0.524137 0.91519 0.406205 1.18505 0.395217 1.46953C0.384229 1.75401 0.480994 2.03216 0.666173 2.24839L8.90637 10.4999L0.65487 18.7401C0.536544 18.8414 0.440442 18.9661 0.372595 19.1063C0.304748 19.2466 0.266621 19.3993 0.260608 19.555C0.254595 19.7107 0.280826 19.8659 0.337653 20.011C0.394481 20.156 0.480679 20.2877 0.590836 20.3979C0.700993 20.5081 0.832731 20.5943 0.977782 20.6511C1.12283 20.7079 1.27807 20.7341 1.43374 20.7281C1.58941 20.7221 1.74215 20.684 1.88239 20.6161C2.02262 20.5483 2.14732 20.4522 2.24865 20.3339L10.5001 12.0937L18.7403 20.3339C18.9566 20.519 19.2347 20.6158 19.5192 20.6048C19.8037 20.5938 20.0735 20.4759 20.2749 20.2746C20.4762 20.0733 20.5941 19.8034 20.6051 19.5189C20.6161 19.2345 20.5193 18.9563 20.3341 18.7401L12.0939 10.4999Z" fill="black"/>
</svg>
