<svg width="121" height="117" viewBox="0 0 121 117" fill="none" xmlns="http://www.w3.org/2000/svg">
<path d="M59.8488 0.663953C26.8123 1.03044 0.283471 27.253 0.632747 59.1965C0.982023 91.1399 28.0778 116.768 61.1143 116.401C94.1509 116.035 120.68 89.8121 120.33 57.8686C119.981 25.9251 92.8854 0.297465 59.8488 0.663953ZM60.9878 104.827C34.5944 105.12 12.8816 84.5837 12.6025 59.0637C12.3235 33.5436 33.582 12.5305 59.9754 12.2377C86.3687 11.9449 108.082 32.4813 108.361 58.0014C108.64 83.5214 87.3811 104.535 60.9878 104.827ZM78.0882 26.5056L78.2464 40.9728L54.3069 41.2384L54.4334 52.8121L78.373 52.5465L78.5311 67.0136L99.2568 46.5273L78.0882 26.5056ZM42.432 50.0514L21.7064 70.5378L42.8749 90.5594L42.7168 76.0923L66.6563 75.8267L66.5297 64.253L42.5902 64.5186L42.432 50.0514Z" fill="#FAEDED"/>
</svg>
