<svg width="80" height="80" viewBox="0 0 80 80" fill="none" xmlns="http://www.w3.org/2000/svg">
<path fill-rule="evenodd" clip-rule="evenodd" d="M40 80C50.6087 80 60.7828 75.7857 68.2843 68.2843C75.7857 60.7828 80 50.6087 80 40C80 29.3913 75.7857 19.2172 68.2843 11.7157C60.7828 4.21427 50.6087 0 40 0C29.3913 0 19.2172 4.21427 11.7157 11.7157C4.21427 19.2172 0 29.3913 0 40C0 50.6087 4.21427 60.7828 11.7157 68.2843C19.2172 75.7857 29.3913 80 40 80ZM58.535 33.535C59.4458 32.592 59.9498 31.329 59.9384 30.018C59.927 28.707 59.4011 27.4529 58.4741 26.5259C57.547 25.5989 56.293 25.073 54.982 25.0616C53.671 25.0502 52.408 25.5542 51.465 26.465L35 42.93L28.535 36.465C27.592 35.5542 26.329 35.0502 25.018 35.0616C23.707 35.073 22.4529 35.5989 21.5259 36.5259C20.5989 37.453 20.073 38.707 20.0616 40.018C20.0502 41.329 20.5542 42.592 21.465 43.535L31.465 53.535C32.4026 54.4724 33.6742 54.9989 35 54.9989C36.3258 54.9989 37.5974 54.4724 38.535 53.535L58.535 33.535Z" fill="#87D128"/>
</svg>
