<svg width="21" height="20" viewBox="0 0 21 20" fill="none" xmlns="http://www.w3.org/2000/svg">
<path d="M10.2566 19.6446L9.18527 10.1746C9.1592 9.94319 8.96958 9.66085 8.76337 9.54282L0.330089 4.75689C0.123879 4.63886 -0.0230754 4.73374 0.00299711 4.96517L1.07434 14.4352C1.10041 14.6666 1.29003 14.949 1.49624 15.067L9.93189 19.8506C10.1381 19.9686 10.2851 19.8761 10.2566 19.6446Z" fill="#F05359"/>
<path d="M11.0486 19.9381L19.1619 14.6454C19.361 14.5158 19.5293 14.2218 19.5411 13.9904L20.0009 4.4741C20.0128 4.24036 19.8611 4.15704 19.662 4.28664L11.5487 9.5794C11.3496 9.709 11.1813 10.0029 11.1695 10.2343L10.7096 19.7507C10.6978 19.9844 10.8495 20.0677 11.0486 19.9381Z" fill="url(#paint0_linear)"/>
<path d="M17.5713 3.12739C17.8557 3.25005 17.87 3.47222 17.5974 3.62496L15.1679 4.98807L13.12 4.05542L13.76 3.69439C13.8335 3.65273 13.8287 3.54628 13.7505 3.51156L12.4729 2.96308C12.4421 2.94919 12.4066 2.95151 12.3781 2.96771L11.6457 3.38196L10.0435 2.65297L12.7692 1.11629C12.7977 1.10009 12.8332 1.09777 12.864 1.11166L17.5713 3.12739Z" fill="#F05359"/>
<path d="M15.7056 5.2336C15.7602 5.25905 15.7649 5.33311 15.7127 5.3632L14.4565 6.08062C14.4352 6.09219 14.4091 6.09451 14.3854 6.08294L13.7407 5.78902L15.1676 4.98828L15.7056 5.2336Z" fill="#565656"/>
<path d="M15.1679 4.98832L13.7434 5.78906L11.7026 4.85409L13.12 4.05566L15.1679 4.98832Z" fill="#565656"/>
<path d="M13.7436 5.7891L10.8069 7.43687C10.6101 7.54795 10.2807 7.56415 10.0721 7.47621L8.54803 6.82358C8.46982 6.78887 8.46271 6.68241 8.53855 6.64075L11.7028 4.85645L13.7436 5.7891Z" fill="#F05359"/>
<path d="M13.1199 4.05591L11.7025 4.85433L10.2354 4.18319L11.6456 3.38477L13.1199 4.05591Z" fill="#565656"/>
<path d="M11.6459 3.38427L10.2356 4.1827L8.6333 3.44907L10.0436 2.65527L11.6459 3.38427Z" fill="#F05359"/>
<path d="M11.1031 0.359585C11.1813 0.394299 11.1884 0.500756 11.1125 0.542413L8.56454 1.98189L7.31543 1.41258L9.66433 0.0957569C9.86106 -0.0153285 10.1905 -0.0315285 10.3967 0.0564141L11.1031 0.359585Z" fill="#F05359"/>
<path d="M10.2355 4.18317L6.90296 6.07162C6.87452 6.08782 6.83896 6.09014 6.80815 6.07625L2.89964 4.40303C2.61284 4.28037 2.60099 4.05589 2.8712 3.90546L5.90746 2.20215L7.15657 2.77378L5.92642 3.46806C5.85295 3.50972 5.85769 3.61617 5.93591 3.65089L7.21583 4.19937C7.24664 4.21326 7.2822 4.21094 7.31064 4.19474L8.63323 3.44954L10.2355 4.18317Z" fill="#F05359"/>
<path d="M10.0437 2.6549L8.63339 3.4487L7.15674 2.77524L8.56465 1.98145L10.0437 2.6549Z" fill="#565656"/>
<path d="M8.56474 1.98142L7.15683 2.77522L5.90771 2.20128L7.31563 1.41211L8.56474 1.98142Z" fill="#565656"/>
<path d="M6.61861 1.09805L7.31309 1.41511L5.90517 2.20428L5.36239 1.95665C5.30788 1.93119 5.30313 1.85945 5.35291 1.82936L6.54513 1.105C6.56884 1.0888 6.59728 1.08648 6.61861 1.09805Z" fill="#565656"/>
<defs>
<linearGradient id="paint0_linear" x1="10.7087" y1="12.1131" x2="20.0014" y2="12.1131" gradientUnits="userSpaceOnUse">
<stop offset="0.3007" stop-color="#A51D30"/>
<stop offset="1" stop-color="#F05359"/>
</linearGradient>
</defs>
</svg>
