<svg width="82" height="82" viewBox="0 0 82 82" fill="none" xmlns="http://www.w3.org/2000/svg">
<path fill-rule="evenodd" clip-rule="evenodd" d="M0.00249823 41.4549C-0.24495 18.8243 17.9211 0.253622 40.5517 0.00257146C63.1823 -0.248479 81.75 17.9147 81.9975 40.5453C82.2449 63.176 64.0789 81.7466 41.4482 81.9977C18.8176 82.2487 0.249946 64.0856 0.00249823 41.4549ZM8.20199 41.364C8.39968 59.4439 23.2787 73.9987 41.3586 73.7982C59.4385 73.5976 73.9956 58.7162 73.798 40.6363C73.6003 22.5564 58.7212 8.00151 40.6414 8.20208C22.5615 8.40265 8.0043 23.284 8.20199 41.364ZM44.1376 36.9997H59.5542V45.0004H44.1376H37.9709H22.5542V36.9997L37.9709 36.9991L44.1376 36.9997Z" fill="url(#paint0_linear)"/>
<defs>
<linearGradient id="paint0_linear" x1="-0.0763553" y1="7.08099" x2="83.0372" y2="81.8786" gradientUnits="userSpaceOnUse">
<stop offset="0.146744" stop-color="#A8ABB1"/>
<stop offset="1" stop-color="#38579D" stop-opacity="0.6"/>
</linearGradient>
</defs>
</svg>
