<svg width="151" height="176" viewBox="0 0 151 176" fill="none" xmlns="http://www.w3.org/2000/svg">
<path d="M2.96484 88.625C2.96484 70.2354 10.5258 52.9785 24.2553 40.0341C37.8223 27.2422 55.8199 20.1973 74.9325 20.1973C94.0451 20.1973 112.043 27.2422 125.61 40.0341C139.339 52.9788 146.9 70.2354 146.9 88.625H2.96484Z" fill="#695A52"/>
<path d="M33.6578 40.0341C46.1068 28.2969 62.2856 21.4029 79.6329 20.3449C78.0743 20.2499 76.5068 20.1973 74.9308 20.1973C55.8183 20.1973 37.8206 27.2422 24.2534 40.0341C10.5242 52.9785 2.96289 70.2354 2.96289 88.625H12.3673C12.3679 70.2351 19.9289 52.9788 33.6578 40.0341Z" fill="#6B4A38"/>
<path d="M146.899 88.623C146.899 88.623 147.455 154.189 125.353 154.189H24.5106C2.4076 154.189 2.96417 88.623 2.96417 88.623H146.899Z" fill="#695A52"/>
<path d="M12.3689 88.623H2.96417C2.96417 88.623 2.4079 154.188 24.5106 154.188H33.915C11.8123 154.188 12.3689 88.623 12.3689 88.623Z" fill="#6B4A38"/>
<path d="M14.031 104.95C21.7802 104.95 28.0621 98.6679 28.0621 90.9187C28.0621 83.1696 21.7802 76.8877 14.031 76.8877C6.28191 76.8877 0 83.1696 0 90.9187C0 98.6679 6.28191 104.95 14.031 104.95Z" fill="#E0AF9A"/>
<path d="M135.832 104.95C143.581 104.95 149.863 98.6679 149.863 90.9187C149.863 83.1696 143.581 76.8877 135.832 76.8877C128.083 76.8877 121.801 83.1696 121.801 90.9187C121.801 98.6679 128.083 104.95 135.832 104.95Z" fill="#E0AF9A"/>
<path d="M97.3773 136.587H52.4874L44.9727 159.662L52.4874 175.999H97.3773L102.849 156.293L97.3773 136.587Z" fill="white"/>
<path d="M74.9312 159.663C82.5993 159.663 88.8156 153.447 88.8156 145.779C88.8156 138.111 82.5993 131.895 74.9312 131.895C67.2631 131.895 61.0469 138.111 61.0469 145.779C61.0469 153.447 67.2631 159.663 74.9312 159.663Z" fill="#E0AF9A"/>
<path d="M110.005 175.999L112.356 174.787L114.707 175.999H129.004C129.004 143.639 110.286 136.587 110.286 136.587H97.377V175.999H110.005Z" fill="#FC7176"/>
<path d="M39.5776 136.587C39.5776 136.587 20.8594 143.639 20.8594 175.999H35.1564L37.5074 175.111L39.8584 175.999H52.4864V136.587H39.5776Z" fill="#FC7176"/>
<path d="M110.004 176.001V159.089C110.004 157.791 111.056 156.738 112.355 156.738C113.654 156.738 114.706 157.791 114.706 159.089V176.001H110.004Z" fill="#BF4E52"/>
<path d="M35.1562 176.001V159.089C35.1562 157.791 36.2088 156.738 37.5073 156.738C38.8057 156.738 39.8583 157.791 39.8583 159.089V176.001H35.1562Z" fill="#BF4E52"/>
<path d="M135.628 76.8911C90.3477 78.331 64.479 54.2669 58.0379 47.3942C56.989 46.275 55.3908 45.873 53.9316 46.3444C27.7045 54.8216 14.2614 76.85 14.237 76.8902C13.4169 80.6809 12.9863 84.6048 12.9863 88.6237C12.9863 120.881 40.7204 147.03 74.9324 147.03C109.144 147.03 136.878 120.881 136.878 88.6237C136.878 84.6051 136.447 80.6815 135.628 76.8911Z" fill="#FFD4C1"/>
<path d="M107.109 94.8306C105.81 94.8306 104.758 93.778 104.758 92.4795V86.2231C104.758 84.9246 105.81 83.8721 107.109 83.8721C108.408 83.8721 109.46 84.9246 109.46 86.2231V92.4795C109.46 93.778 108.407 94.8306 107.109 94.8306Z" fill="#38484A"/>
<path d="M111.371 104.024H102.849C101.55 104.024 100.498 102.972 100.498 101.673C100.498 100.375 101.55 99.3223 102.849 99.3223H111.371C112.669 99.3223 113.722 100.375 113.722 101.673C113.722 102.972 112.669 104.024 111.371 104.024Z" fill="#F97579"/>
<path d="M42.7534 94.8306C41.4549 94.8306 40.4023 93.778 40.4023 92.4795V86.2231C40.4023 84.9246 41.4549 83.8721 42.7534 83.8721C44.0518 83.8721 45.1044 84.9246 45.1044 86.2231V92.4795C45.1044 93.778 44.0521 94.8306 42.7534 94.8306Z" fill="#38484A"/>
<path d="M47.0153 104.024H38.4936C37.1952 104.024 36.1426 102.972 36.1426 101.673C36.1426 100.375 37.1952 99.3223 38.4936 99.3223H47.0153C48.314 99.3223 49.3663 100.375 49.3663 101.673C49.3663 102.972 48.314 104.024 47.0153 104.024Z" fill="#F97579"/>
<path d="M74.9326 96.4256C77.8539 96.4256 80.5968 97.6467 82.4579 99.7759C83.3127 100.754 83.2129 102.239 82.2352 103.093C81.2578 103.948 79.7722 103.848 78.918 102.871C77.95 101.763 76.4976 101.128 74.9329 101.128C73.3684 101.128 71.916 101.763 70.9474 102.871C70.0929 103.849 68.608 103.949 67.6299 103.093C66.6525 102.239 66.5524 100.754 67.4075 99.7759C69.2683 97.6467 72.0113 96.4256 74.9326 96.4256Z" fill="#38484A"/>
<path d="M116.826 38.6885H111.315L110.709 11.6094H117.459L116.826 38.6885ZM110.524 46.9678C110.524 45.9658 110.85 45.1396 111.5 44.4893C112.15 43.8213 113.038 43.4873 114.163 43.4873C115.288 43.4873 116.176 43.8213 116.826 44.4893C117.477 45.1396 117.802 45.9658 117.802 46.9678C117.802 47.9346 117.485 48.7432 116.853 49.3936C116.22 50.0439 115.323 50.3691 114.163 50.3691C113.003 50.3691 112.106 50.0439 111.474 49.3936C110.841 48.7432 110.524 47.9346 110.524 46.9678ZM131.328 38.6885H125.817L125.211 11.6094H131.961L131.328 38.6885ZM125.026 46.9678C125.026 45.9658 125.352 45.1396 126.002 44.4893C126.652 43.8213 127.54 43.4873 128.665 43.4873C129.79 43.4873 130.678 43.8213 131.328 44.4893C131.979 45.1396 132.304 45.9658 132.304 46.9678C132.304 47.9346 131.987 48.7432 131.354 49.3936C130.722 50.0439 129.825 50.3691 128.665 50.3691C127.505 50.3691 126.608 50.0439 125.976 49.3936C125.343 48.7432 125.026 47.9346 125.026 46.9678ZM145.83 38.6885H140.319L139.713 11.6094H146.463L145.83 38.6885ZM139.528 46.9678C139.528 45.9658 139.854 45.1396 140.504 44.4893C141.154 43.8213 142.042 43.4873 143.167 43.4873C144.292 43.4873 145.18 43.8213 145.83 44.4893C146.48 45.1396 146.806 45.9658 146.806 46.9678C146.806 47.9346 146.489 48.7432 145.856 49.3936C145.224 50.0439 144.327 50.3691 143.167 50.3691C142.007 50.3691 141.11 50.0439 140.478 49.3936C139.845 48.7432 139.528 47.9346 139.528 46.9678Z" fill="#F05359"/>
</svg>
