<svg width="104" height="108" viewBox="0 0 104 108" fill="none" xmlns="http://www.w3.org/2000/svg">
<path d="M2.05469 47.4331C2.05469 34.6857 7.29585 22.7235 16.8129 13.7506C26.2174 4.88341 38.6931 0 51.9416 0C65.1902 0 77.6659 4.88341 87.0705 13.7506C96.5874 22.7237 101.829 34.6857 101.829 47.4331H2.05469Z" fill="#695A52"/>
<path d="M23.332 13.7506C31.9614 5.61452 43.1763 0.835734 55.2012 0.102305C54.1208 0.0364922 53.0343 0 51.9418 0C38.6933 0 26.2176 4.88341 16.8129 13.7506C7.29606 22.7235 2.05469 34.6857 2.05469 47.4331H8.57371C8.57413 34.6855 13.8153 22.7237 23.332 13.7506Z" fill="#6B4A38"/>
<path d="M101.829 47.4331C101.829 47.4331 102.215 92.8821 86.8936 92.8821H16.9912C1.66977 92.8821 2.05557 47.4331 2.05557 47.4331H101.829Z" fill="#695A52"/>
<path d="M8.57481 47.433H2.05557C2.05557 47.433 1.66998 92.882 16.9912 92.882H23.5102C8.189 92.8818 8.57481 47.433 8.57481 47.433Z" fill="#6B4A38"/>
<path d="M9.72612 58.7513C15.0977 58.7513 19.4522 54.3968 19.4522 49.0252C19.4522 43.6536 15.0977 39.2991 9.72612 39.2991C4.35453 39.2991 0 43.6536 0 49.0252C0 54.3968 4.35453 58.7513 9.72612 58.7513Z" fill="#E0AF9A"/>
<path d="M94.1578 58.7513C99.5294 58.7513 103.884 54.3968 103.884 49.0252C103.884 43.6536 99.5294 39.2991 94.1578 39.2991C88.7862 39.2991 84.4316 43.6536 84.4316 49.0252C84.4316 54.3968 88.7862 58.7513 94.1578 58.7513Z" fill="#E0AF9A"/>
<path d="M67.5 80.6804H36.3829L31.1738 96.6757L36.3829 108H67.5L71.2931 94.3402L67.5 80.6804Z" fill="white"/>
<path d="M51.9408 96.6764C57.2563 96.6764 61.5653 92.3674 61.5653 87.052C61.5653 81.7366 57.2563 77.4276 51.9408 77.4276C46.6254 77.4276 42.3164 81.7366 42.3164 87.052C42.3164 92.3674 46.6254 96.6764 51.9408 96.6764Z" fill="#E0AF9A"/>
<path d="M76.2537 108L77.8834 107.16L79.5131 108H89.4236C89.4236 85.569 76.4484 80.6804 76.4484 80.6804H67.5V108H76.2537Z" fill="#FC7176"/>
<path d="M27.4342 80.6804C27.4342 80.6804 14.459 85.569 14.459 108H24.3695L25.9992 107.385L27.6289 108H36.3824V80.6804H27.4342Z" fill="#FC7176"/>
<path d="M76.2539 108V96.2775C76.2539 95.3774 76.9833 94.6478 77.8836 94.6478C78.7839 94.6478 79.5133 95.3774 79.5133 96.2775V108H76.2539Z" fill="#BF4E52"/>
<path d="M24.3711 108V96.2775C24.3711 95.3774 25.1007 94.6478 26.0008 94.6478C26.9009 94.6478 27.6305 95.3774 27.6305 96.2775V108H24.3711Z" fill="#BF4E52"/>
<path d="M94.015 39.2992C62.6278 40.2974 44.6959 23.6164 40.231 18.8524C39.5039 18.0766 38.3961 17.7979 37.3846 18.1247C19.2044 24.001 9.88578 39.2708 9.86891 39.2986C9.30043 41.9262 9.00195 44.6463 9.00195 47.4321C9.00195 69.7923 28.2268 87.9186 51.9421 87.9186C75.6574 87.9186 94.8822 69.7921 94.8822 47.4321C94.882 44.6465 94.5833 41.9267 94.015 39.2992Z" fill="#FFD4C1"/>
<path d="M74.2469 51.7344C73.3466 51.7344 72.6172 51.0047 72.6172 50.1047V45.7678C72.6172 44.8677 73.3466 44.1381 74.2469 44.1381C75.1472 44.1381 75.8766 44.8677 75.8766 45.7678V50.1047C75.8766 51.0047 75.147 51.7344 74.2469 51.7344Z" fill="#38484A"/>
<path d="M77.2008 58.1089H71.2938C70.3935 58.1089 69.6641 57.3793 69.6641 56.4792C69.6641 55.5791 70.3935 54.8495 71.2938 54.8495H77.2008C78.1011 54.8495 78.8305 55.5791 78.8305 56.4792C78.8305 57.3793 78.1011 58.1089 77.2008 58.1089Z" fill="#F97579"/>
<path d="M29.6356 51.7344C28.7355 51.7344 28.0059 51.0047 28.0059 50.1047V45.7678C28.0059 44.8677 28.7355 44.1381 29.6356 44.1381C30.5356 44.1381 31.2653 44.8677 31.2653 45.7678V50.1047C31.2653 51.0047 30.5358 51.7344 29.6356 51.7344Z" fill="#38484A"/>
<path d="M32.5895 58.1089H26.6824C25.7824 58.1089 25.0527 57.3793 25.0527 56.4792C25.0527 55.5791 25.7824 54.8495 26.6824 54.8495H32.5895C33.4898 54.8495 34.2192 55.5791 34.2192 56.4792C34.2192 57.3793 33.4898 58.1089 32.5895 58.1089Z" fill="#F97579"/>
<path d="M51.9416 57.8647C49.9166 57.8647 48.0152 57.0182 46.7251 55.5422C46.1326 54.8645 46.2018 53.8351 46.8795 53.2426C47.557 52.6503 48.5868 52.7193 49.1789 53.397C49.8499 54.1646 50.8567 54.6048 51.9414 54.6048C53.0258 54.6048 54.0326 54.1646 54.704 53.3968C55.2963 52.7191 56.3257 52.6499 57.0037 53.2426C57.6812 53.8349 57.7506 54.8645 57.1579 55.5422C55.868 57.0182 53.9666 57.8647 51.9416 57.8647Z" fill="#38484A"/>
</svg>
