<svg width="24" height="24" viewBox="0 0 24 24" fill="none" xmlns="http://www.w3.org/2000/svg">
<path d="M14.1429 8H4.85714C3.83293 8 3 8.83293 3 9.85714V19.1429C3 20.1671 3.83293 21 4.85714 21H14.1429C15.1671 21 16 20.1671 16 19.1429V9.85714C16 8.83293 15.1671 8 14.1429 8Z" fill="#111111"/>
<path d="M19.1429 3H9.85714C9.3646 3 8.89223 3.19566 8.54394 3.54394C8.19566 3.89223 8 4.3646 8 4.85714V6.71429H15.4286C15.9211 6.71429 16.3935 6.90995 16.7418 7.25823C17.0901 7.60651 17.2857 8.07888 17.2857 8.57143V16H19.1429C19.6354 16 20.1078 15.8043 20.4561 15.4561C20.8043 15.1078 21 14.6354 21 14.1429V4.85714C21 4.3646 20.8043 3.89223 20.4561 3.54394C20.1078 3.19566 19.6354 3 19.1429 3Z" fill="#111111"/>
</svg>
