<svg width="26" height="25" viewBox="0 0 26 25" fill="none" xmlns="http://www.w3.org/2000/svg">
<path d="M13 0C9.55219 0 6.24558 1.31699 3.80761 3.66126C1.36964 6.00553 0 9.18503 0 12.5003C8.88799e-05 14.1419 0.336432 15.7674 0.989825 17.2839C1.64322 18.8005 2.60087 20.1785 3.80809 21.3392C5.01531 22.4999 6.44847 23.4206 8.02574 24.0487C9.60301 24.6768 11.2935 25.0001 13.0007 25C14.7079 24.9999 16.3983 24.6765 17.9755 24.0482C19.5527 23.4199 20.9858 22.4991 22.1929 21.3383C23.4 20.1775 24.3575 18.7994 25.0107 17.2827C25.6639 15.7661 26.0001 14.1406 26 12.499C26 5.5965 20.1784 0 13 0ZM13 22.3951C11.6485 22.3951 10.3102 22.1391 9.06155 21.6418C7.81291 21.1445 6.67836 20.4156 5.72269 19.4966C4.76702 18.5777 4.00894 17.4867 3.49174 16.2861C2.97453 15.0854 2.70833 13.7986 2.70833 12.499C2.70833 11.1995 2.97453 9.9126 3.49174 8.71195C4.00894 7.5113 4.76702 6.42037 5.72269 5.50143C6.67836 4.58249 7.81291 3.85355 9.06155 3.35623C10.3102 2.8589 11.6485 2.60293 13 2.60293V12.5003L22.1975 8.07833C22.9166 9.44987 23.2913 10.9644 23.2917 12.5003C23.2913 15.1247 22.2069 17.6415 20.2768 19.4971C18.3468 21.3527 15.7293 22.3951 13 22.3951Z" fill="#AAAAAA"/>
</svg>
