<svg width="32" height="28" viewBox="0 0 32 28" fill="none" xmlns="http://www.w3.org/2000/svg">
<path d="M15.9999 21.2691L21.1008 24.6522L29.3912 15.0652M11.1304 12.9348C12.7447 12.9348 14.293 12.3737 15.4345 11.3748C16.576 10.376 17.2173 9.02128 17.2173 7.60872C17.2173 6.19615 16.576 4.84144 15.4345 3.84261C14.293 2.84377 12.7447 2.28263 11.1304 2.28263C9.51602 2.28263 7.96778 2.84377 6.82625 3.84261C5.68473 4.84144 5.04342 6.19615 5.04342 7.60872C5.04342 9.02128 5.68473 10.376 6.82625 11.3748C7.96778 12.3737 9.51602 12.9348 11.1304 12.9348V12.9348ZM19.2175 17.9371C18.824 16.8659 18.1484 15.8906 17.2453 15.0897C15.7224 13.7444 13.581 12.9348 11.1304 12.9348C6.26082 12.9348 2.60864 16.1305 2.60864 20.3913V25.7174H14.7826L19.2175 17.9371Z" stroke="#AAAAAA" stroke-width="2"/>
</svg>
