<svg width="26" height="19" viewBox="0 0 26 19" fill="none" xmlns="http://www.w3.org/2000/svg">
<path d="M25.9701 12.3918L23.3701 0.9918C23.3054 0.710526 23.1444 0.459074 22.9136 0.278814C22.6828 0.0985535 22.3958 0.000222822 22.1 0H18.2V2.53333H21.0574L22.3067 8.01293C21.6213 7.74277 20.8893 7.60262 20.15 7.6C17.6111 7.6 15.4661 9.19347 14.6588 11.4H11.3399C10.5326 9.19347 8.3876 7.6 5.8487 7.6C5.0856 7.6 4.3602 7.75327 3.692 8.01293L4.9426 2.53333H7.8V0H3.9C3.60427 4.94479e-05 3.3174 0.0983417 3.08673 0.278654C2.85605 0.458966 2.69537 0.71052 2.6312 0.9918L0.0311999 12.3918L0.0923001 12.4057C0.0376997 12.701 0.00683919 13 0 13.3C0 16.4426 2.6247 19 5.85 19C8.853 19 11.3061 16.7757 11.6337 13.9333H14.3663C14.6939 16.7757 17.147 19 20.15 19C23.3753 19 26 16.4426 26 13.3C26 12.9935 25.9558 12.6983 25.9077 12.4057L25.9701 12.3918ZM5.85 16.4667C4.0586 16.4667 2.6 15.0455 2.6 13.3C2.6 11.5545 4.0586 10.1333 5.85 10.1333C7.6414 10.1333 9.1 11.5545 9.1 13.3C9.1 15.0455 7.6414 16.4667 5.85 16.4667ZM20.15 16.4667C18.3573 16.4667 16.9 15.0455 16.9 13.3C16.9 11.5545 18.3573 10.1333 20.15 10.1333C21.9427 10.1333 23.4 11.5545 23.4 13.3C23.4 15.0455 21.9427 16.4667 20.15 16.4667Z" fill="#3FAAB0"/>
</svg>
