<svg width="30" height="30" viewBox="0 0 30 30" fill="none" xmlns="http://www.w3.org/2000/svg">
<path d="M30 15C30 23.2843 23.2843 30 15 30C6.71573 30 0 23.2843 0 15C0 6.71573 6.71573 0 15 0C23.2843 0 30 6.71573 30 15ZM3.43745 15C3.43745 21.3858 8.61418 26.5626 15 26.5626C21.3858 26.5626 26.5626 21.3858 26.5626 15C26.5626 8.61418 21.3858 3.43745 15 3.43745C8.61418 3.43745 3.43745 8.61418 3.43745 15Z" fill="#DDDDDD"/>
<path d="M1.80703 16.529C0.864119 16.6383 0.178496 17.4949 0.394852 18.4192C1.09826 21.424 2.71579 24.1539 5.0451 26.2205C7.80504 28.6691 11.3706 30.0147 15.0602 29.9999C18.7497 29.9851 22.3044 28.611 25.0446 26.1403C27.3573 24.0551 28.9528 21.3122 29.6321 18.3019C29.841 17.3759 29.1486 16.5248 28.2048 16.4231C27.2611 16.3214 26.4261 17.0096 26.1857 17.9279C25.6178 20.0978 24.4269 22.0688 22.7428 23.5873C20.6305 25.4918 17.8904 26.551 15.0464 26.5625C12.2023 26.5739 9.45386 25.5367 7.3264 23.6492C5.63009 22.1442 4.42348 20.1828 3.83812 18.0176C3.59039 17.1012 2.74995 16.4197 1.80703 16.529Z" fill="url(#paint0_linear)"/>
<defs>
<linearGradient id="paint0_linear" x1="4.27167e-07" y1="20" x2="37.5" y2="20" gradientUnits="userSpaceOnUse">
<stop stop-color="#F05359"/>
<stop offset="0.367648" stop-color="#F05359" stop-opacity="0.909828"/>
<stop offset="0.584187" stop-color="#F67657" stop-opacity="0.885285"/>
<stop offset="1" stop-color="#FFB053" stop-opacity="0.845322"/>
</linearGradient>
</defs>
</svg>
