<svg width="200" height="218" viewBox="0 0 200 218" fill="none" xmlns="http://www.w3.org/2000/svg">
<path d="M102.56 215.202L91.8476 113.189C91.5869 110.696 89.6908 107.654 87.6288 106.383L3.30071 54.8276C1.23872 53.5562 -0.230741 54.5783 0.0299695 57.0713L10.7428 159.085C11.0035 161.578 12.8996 164.619 14.9616 165.89L99.3134 217.421C101.375 218.692 102.845 217.695 102.56 215.202Z" fill="#F05359"/>
<path d="M110.476 217.314L191.604 160.299C193.595 158.903 195.278 155.737 195.396 153.244L199.994 50.732C200.113 48.214 198.596 47.3166 196.605 48.7126L115.477 105.727C113.486 107.123 111.803 110.29 111.685 112.783L107.087 215.294C106.968 217.812 108.485 218.71 110.476 217.314Z" fill="url(#paint0_linear)"/>
<defs>
<linearGradient id="paint0_linear" x1="107.115" y1="132.966" x2="199.847" y2="132.966" gradientUnits="userSpaceOnUse">
<stop offset="0.3007" stop-color="#A51D30"/>
<stop offset="1" stop-color="#F05359"/>
</linearGradient>
</defs>
</svg>
