<svg width="29" height="24" viewBox="0 0 29 24" fill="none" xmlns="http://www.w3.org/2000/svg">
<path d="M18.4256 0.982422C12.74 0.982422 8.13497 5.99361 8.13497 12.1806C8.13497 18.3676 12.74 23.3788 18.4256 23.3788C24.1112 23.3788 28.7162 18.3676 28.7162 12.1806C28.7162 5.99361 24.1112 0.982422 18.4256 0.982422ZM18.4256 20.5793C14.1679 20.5793 10.7076 16.8139 10.7076 12.1806C10.7076 7.54736 14.1679 3.78197 18.4256 3.78197C22.6833 3.78197 26.1436 7.54736 26.1436 12.1806C26.1436 16.8139 22.6833 20.5793 18.4256 20.5793ZM2.98965 12.1806C2.98959 10.445 3.48451 8.75209 4.40611 7.33552C5.32771 5.91894 6.63058 4.84851 8.13497 4.27189V1.34636C3.69713 2.59216 0.416992 6.95946 0.416992 12.1806C0.416992 17.4018 3.69713 21.7691 8.13497 23.0149V20.0893C6.63058 19.5127 5.32771 18.4423 4.40611 17.0257C3.48451 15.6091 2.98959 13.9163 2.98965 12.1806Z" fill="#AAAAAA"/>
</svg>
